%TF.GenerationSoftware,KiCad,Pcbnew,5.1.6-1.fc32*%
%TF.CreationDate,2020-11-21T02:42:39+01:00*%
%TF.ProjectId,christmas-card,63687269-7374-46d6-9173-2d636172642e,rev?*%
%TF.SameCoordinates,Original*%
%TF.FileFunction,Copper,L2,Bot*%
%TF.FilePolarity,Positive*%
%FSLAX46Y46*%
G04 Gerber Fmt 4.6, Leading zero omitted, Abs format (unit mm)*
G04 Created by KiCad (PCBNEW 5.1.6-1.fc32) date 2020-11-21 02:42:39*
%MOMM*%
%LPD*%
G01*
G04 APERTURE LIST*
%TA.AperFunction,ComponentPad*%
%ADD10C,2.000000*%
%TD*%
%TA.AperFunction,ComponentPad*%
%ADD11C,3.316000*%
%TD*%
%TA.AperFunction,ComponentPad*%
%ADD12C,1.408000*%
%TD*%
%TA.AperFunction,ComponentPad*%
%ADD13R,1.408000X1.408000*%
%TD*%
%TA.AperFunction,ComponentPad*%
%ADD14O,1.700000X1.700000*%
%TD*%
%TA.AperFunction,ComponentPad*%
%ADD15R,1.700000X1.700000*%
%TD*%
%TA.AperFunction,ComponentPad*%
%ADD16C,0.949960*%
%TD*%
%TA.AperFunction,ViaPad*%
%ADD17C,0.800000*%
%TD*%
%TA.AperFunction,Conductor*%
%ADD18C,0.500000*%
%TD*%
%TA.AperFunction,Conductor*%
%ADD19C,0.250000*%
%TD*%
%TA.AperFunction,Conductor*%
%ADD20C,0.254000*%
%TD*%
G04 APERTURE END LIST*
D10*
%TO.P,TP4,1*%
%TO.N,Net-(D29-Pad2)*%
X152300000Y-137100000D03*
%TD*%
%TO.P,TP1,1*%
%TO.N,/LED_CHAIN*%
X141400000Y-73900000D03*
%TD*%
D11*
%TO.P,J2,S2*%
%TO.N,GND*%
X124720000Y-159400000D03*
%TO.P,J2,S1*%
X112680000Y-159400000D03*
D12*
%TO.P,J2,4*%
X119950000Y-156700000D03*
%TO.P,J2,3*%
%TO.N,/USB_D+*%
X117450000Y-156700000D03*
%TO.P,J2,2*%
%TO.N,/USB_D-*%
X117450000Y-154700000D03*
D13*
%TO.P,J2,1*%
%TO.N,+5V*%
X119950000Y-154700000D03*
%TD*%
D14*
%TO.P,J3,5*%
%TO.N,GND*%
X148560000Y-167600000D03*
%TO.P,J3,4*%
%TO.N,/i2c_SDA*%
X146020000Y-167600000D03*
%TO.P,J3,3*%
%TO.N,/i2c_SCL*%
X143480000Y-167600000D03*
%TO.P,J3,2*%
%TO.N,+3V3*%
X140940000Y-167600000D03*
D15*
%TO.P,J3,1*%
%TO.N,+5V*%
X138400000Y-167600000D03*
%TD*%
D16*
%TO.P,J1,0*%
%TO.N,N/C*%
X129120000Y-141284000D03*
X129120000Y-143316000D03*
X134200000Y-142300000D03*
%TD*%
D17*
%TO.N,+3V3*%
X122100000Y-153500000D03*
%TO.N,+5V*%
X137000000Y-143000000D03*
X137000000Y-144000000D03*
X137000000Y-145000000D03*
%TO.N,GND*%
X105400000Y-146400000D03*
X105800000Y-148600000D03*
X108400000Y-139300000D03*
X133500000Y-132400000D03*
X149500000Y-132400000D03*
X157500000Y-132400000D03*
X117500000Y-132500000D03*
X125500000Y-132400000D03*
X125500000Y-116300000D03*
X140100000Y-117600000D03*
X148000000Y-117600000D03*
X135900000Y-109600000D03*
X144000000Y-109600000D03*
X125500000Y-100300000D03*
X131800000Y-101600000D03*
X140000000Y-101600000D03*
X148100000Y-101600000D03*
X128000000Y-93600000D03*
X136100000Y-93600000D03*
X144100000Y-93600000D03*
X133500000Y-84400000D03*
X141500000Y-84400000D03*
X139000000Y-77600000D03*
X153500000Y-124200000D03*
X144000000Y-125700000D03*
X136000000Y-125700000D03*
X128000000Y-125600000D03*
X120000000Y-125600000D03*
X131660000Y-140040000D03*
X135200000Y-152300000D03*
X136300000Y-152300000D03*
X137400000Y-152300000D03*
X137500000Y-153500000D03*
X137500000Y-154900000D03*
X119400000Y-153300000D03*
X131000000Y-147900000D03*
X133400000Y-148000002D03*
X141450012Y-132449988D03*
X133500000Y-116525010D03*
X129449990Y-108450000D03*
X116200002Y-136600000D03*
X123200000Y-136600000D03*
X127300000Y-143400000D03*
X102800000Y-147900000D03*
X105700000Y-144400000D03*
X125300000Y-141599996D03*
X157800000Y-165100000D03*
X160400000Y-168500000D03*
X158100000Y-160700000D03*
%TO.N,+5V*%
X140000000Y-143000000D03*
X140000000Y-144000000D03*
X140000000Y-145000000D03*
X165000000Y-128000000D03*
X165100000Y-120000000D03*
X165200000Y-112500000D03*
X165100000Y-104200000D03*
X165300000Y-88600000D03*
X105200000Y-90400000D03*
X105200000Y-98300000D03*
X105300000Y-114400000D03*
X105300000Y-122300000D03*
X105400000Y-130600000D03*
X166900000Y-128000000D03*
X167000000Y-120000000D03*
X166900000Y-112500000D03*
X166400000Y-104200000D03*
X164000000Y-143000000D03*
X166000000Y-143000000D03*
X166000000Y-144000000D03*
X164000000Y-144000000D03*
X164000000Y-145000000D03*
X166000000Y-145000000D03*
X165000000Y-96400000D03*
X166600000Y-96400000D03*
X105600000Y-106400000D03*
X135737777Y-73713097D03*
X128600000Y-74174990D03*
%TO.N,+3V3*%
X108300000Y-136400000D03*
X108300000Y-138025000D03*
X122000000Y-156000000D03*
%TO.N,/~RST*%
X129400000Y-139100000D03*
X127598959Y-139098959D03*
%TO.N,/SWCLK*%
X125300000Y-148100000D03*
X123500000Y-147975000D03*
%TO.N,/i2c_SDA*%
X142800000Y-164500000D03*
X106900000Y-162599998D03*
X106900000Y-160600000D03*
X138000000Y-165200000D03*
%TO.N,/i2c_SCL*%
X138300000Y-163499994D03*
X109300000Y-162400002D03*
X109300000Y-160499989D03*
X142600000Y-162700000D03*
%TD*%
D18*
%TO.N,+3V3*%
X108300000Y-136400000D02*
X108300000Y-138025000D01*
X122100000Y-155900000D02*
X122000000Y-156000000D01*
X122100000Y-153500000D02*
X122100000Y-155900000D01*
D19*
%TO.N,/~RST*%
X129400000Y-139100000D02*
X127600000Y-139100000D01*
X127600000Y-139100000D02*
X127598959Y-139098959D01*
%TO.N,/SWCLK*%
X125300000Y-148100000D02*
X123600000Y-148100000D01*
X123500000Y-148000000D02*
X123500000Y-147975000D01*
X123600000Y-148100000D02*
X123500000Y-148000000D01*
%TO.N,/i2c_SDA*%
X106900000Y-162599998D02*
X106900000Y-160600000D01*
X142800000Y-164500000D02*
X138700000Y-164500000D01*
X138700000Y-164500000D02*
X138000000Y-165200000D01*
%TO.N,/i2c_SCL*%
X109300000Y-160499989D02*
X109300000Y-162400002D01*
X138300000Y-163499994D02*
X141800006Y-163499994D01*
X141800006Y-163499994D02*
X142600000Y-162700000D01*
%TD*%
D20*
%TO.N,+5V*%
G36*
X165768083Y-70731173D02*
G01*
X166511891Y-70934656D01*
X167207905Y-71266638D01*
X167834130Y-71716626D01*
X168370777Y-72270403D01*
X168800871Y-72910451D01*
X169110829Y-73616553D01*
X169292065Y-74371457D01*
X169340000Y-75024207D01*
X169340001Y-161873000D01*
X163127000Y-161873000D01*
X163127000Y-76000000D01*
X163124560Y-75975224D01*
X163117333Y-75951399D01*
X163105597Y-75929443D01*
X163089803Y-75910197D01*
X163070557Y-75894403D01*
X163048601Y-75882667D01*
X163024776Y-75875440D01*
X163000000Y-75873000D01*
X107000000Y-75873000D01*
X106975224Y-75875440D01*
X106951399Y-75882667D01*
X106929443Y-75894403D01*
X106910197Y-75910197D01*
X106894403Y-75929443D01*
X106882667Y-75951399D01*
X106875440Y-75975224D01*
X106873000Y-76000000D01*
X106873000Y-137873000D01*
X100660000Y-137873000D01*
X100660000Y-75029392D01*
X100731173Y-74231917D01*
X100866028Y-73738967D01*
X139765000Y-73738967D01*
X139765000Y-74061033D01*
X139827832Y-74376912D01*
X139951082Y-74674463D01*
X140130013Y-74942252D01*
X140357748Y-75169987D01*
X140625537Y-75348918D01*
X140923088Y-75472168D01*
X141238967Y-75535000D01*
X141561033Y-75535000D01*
X141876912Y-75472168D01*
X142174463Y-75348918D01*
X142442252Y-75169987D01*
X142669987Y-74942252D01*
X142848918Y-74674463D01*
X142972168Y-74376912D01*
X143035000Y-74061033D01*
X143035000Y-73738967D01*
X142972168Y-73423088D01*
X142848918Y-73125537D01*
X142669987Y-72857748D01*
X142442252Y-72630013D01*
X142174463Y-72451082D01*
X141876912Y-72327832D01*
X141561033Y-72265000D01*
X141238967Y-72265000D01*
X140923088Y-72327832D01*
X140625537Y-72451082D01*
X140357748Y-72630013D01*
X140130013Y-72857748D01*
X139951082Y-73125537D01*
X139827832Y-73423088D01*
X139765000Y-73738967D01*
X100866028Y-73738967D01*
X100934656Y-73488109D01*
X101266638Y-72792095D01*
X101716626Y-72165870D01*
X102270403Y-71629223D01*
X102910451Y-71199129D01*
X103616553Y-70889171D01*
X104371457Y-70707935D01*
X105024207Y-70660000D01*
X164970608Y-70660000D01*
X165768083Y-70731173D01*
G37*
X165768083Y-70731173D02*
X166511891Y-70934656D01*
X167207905Y-71266638D01*
X167834130Y-71716626D01*
X168370777Y-72270403D01*
X168800871Y-72910451D01*
X169110829Y-73616553D01*
X169292065Y-74371457D01*
X169340000Y-75024207D01*
X169340001Y-161873000D01*
X163127000Y-161873000D01*
X163127000Y-76000000D01*
X163124560Y-75975224D01*
X163117333Y-75951399D01*
X163105597Y-75929443D01*
X163089803Y-75910197D01*
X163070557Y-75894403D01*
X163048601Y-75882667D01*
X163024776Y-75875440D01*
X163000000Y-75873000D01*
X107000000Y-75873000D01*
X106975224Y-75875440D01*
X106951399Y-75882667D01*
X106929443Y-75894403D01*
X106910197Y-75910197D01*
X106894403Y-75929443D01*
X106882667Y-75951399D01*
X106875440Y-75975224D01*
X106873000Y-76000000D01*
X106873000Y-137873000D01*
X100660000Y-137873000D01*
X100660000Y-75029392D01*
X100731173Y-74231917D01*
X100866028Y-73738967D01*
X139765000Y-73738967D01*
X139765000Y-74061033D01*
X139827832Y-74376912D01*
X139951082Y-74674463D01*
X140130013Y-74942252D01*
X140357748Y-75169987D01*
X140625537Y-75348918D01*
X140923088Y-75472168D01*
X141238967Y-75535000D01*
X141561033Y-75535000D01*
X141876912Y-75472168D01*
X142174463Y-75348918D01*
X142442252Y-75169987D01*
X142669987Y-74942252D01*
X142848918Y-74674463D01*
X142972168Y-74376912D01*
X143035000Y-74061033D01*
X143035000Y-73738967D01*
X142972168Y-73423088D01*
X142848918Y-73125537D01*
X142669987Y-72857748D01*
X142442252Y-72630013D01*
X142174463Y-72451082D01*
X141876912Y-72327832D01*
X141561033Y-72265000D01*
X141238967Y-72265000D01*
X140923088Y-72327832D01*
X140625537Y-72451082D01*
X140357748Y-72630013D01*
X140130013Y-72857748D01*
X139951082Y-73125537D01*
X139827832Y-73423088D01*
X139765000Y-73738967D01*
X100866028Y-73738967D01*
X100934656Y-73488109D01*
X101266638Y-72792095D01*
X101716626Y-72165870D01*
X102270403Y-71629223D01*
X102910451Y-71199129D01*
X103616553Y-70889171D01*
X104371457Y-70707935D01*
X105024207Y-70660000D01*
X164970608Y-70660000D01*
X165768083Y-70731173D01*
%TO.N,GND*%
G36*
X162365000Y-162000000D02*
G01*
X162377201Y-162123882D01*
X162413336Y-162243004D01*
X162472017Y-162352787D01*
X162550987Y-162449013D01*
X162647213Y-162527983D01*
X162756996Y-162586664D01*
X162876118Y-162622799D01*
X163000000Y-162635000D01*
X169340001Y-162635000D01*
X169340001Y-164970597D01*
X169268827Y-165768083D01*
X169065344Y-166511890D01*
X168733363Y-167207904D01*
X168283374Y-167834130D01*
X167729597Y-168370777D01*
X167089549Y-168800871D01*
X166383447Y-169110829D01*
X165628543Y-169292065D01*
X164975793Y-169340000D01*
X105029392Y-169340000D01*
X104231917Y-169268827D01*
X103488110Y-169065344D01*
X102792096Y-168733363D01*
X102165870Y-168283374D01*
X101629223Y-167729597D01*
X101199129Y-167089549D01*
X101050077Y-166750000D01*
X136911928Y-166750000D01*
X136911928Y-168450000D01*
X136924188Y-168574482D01*
X136960498Y-168694180D01*
X137019463Y-168804494D01*
X137098815Y-168901185D01*
X137195506Y-168980537D01*
X137305820Y-169039502D01*
X137425518Y-169075812D01*
X137550000Y-169088072D01*
X139250000Y-169088072D01*
X139374482Y-169075812D01*
X139494180Y-169039502D01*
X139604494Y-168980537D01*
X139701185Y-168901185D01*
X139780537Y-168804494D01*
X139839502Y-168694180D01*
X139861513Y-168621620D01*
X139993368Y-168753475D01*
X140236589Y-168915990D01*
X140506842Y-169027932D01*
X140793740Y-169085000D01*
X141086260Y-169085000D01*
X141373158Y-169027932D01*
X141643411Y-168915990D01*
X141886632Y-168753475D01*
X142093475Y-168546632D01*
X142210000Y-168372240D01*
X142326525Y-168546632D01*
X142533368Y-168753475D01*
X142776589Y-168915990D01*
X143046842Y-169027932D01*
X143333740Y-169085000D01*
X143626260Y-169085000D01*
X143913158Y-169027932D01*
X144183411Y-168915990D01*
X144426632Y-168753475D01*
X144633475Y-168546632D01*
X144750000Y-168372240D01*
X144866525Y-168546632D01*
X145073368Y-168753475D01*
X145316589Y-168915990D01*
X145586842Y-169027932D01*
X145873740Y-169085000D01*
X146166260Y-169085000D01*
X146453158Y-169027932D01*
X146723411Y-168915990D01*
X146966632Y-168753475D01*
X147173475Y-168546632D01*
X147295195Y-168364466D01*
X147364822Y-168481355D01*
X147559731Y-168697588D01*
X147793080Y-168871641D01*
X148055901Y-168996825D01*
X148203110Y-169041476D01*
X148433000Y-168920155D01*
X148433000Y-167727000D01*
X148687000Y-167727000D01*
X148687000Y-168920155D01*
X148916890Y-169041476D01*
X149064099Y-168996825D01*
X149326920Y-168871641D01*
X149560269Y-168697588D01*
X149755178Y-168481355D01*
X149904157Y-168231252D01*
X150001481Y-167956891D01*
X149880814Y-167727000D01*
X148687000Y-167727000D01*
X148433000Y-167727000D01*
X148413000Y-167727000D01*
X148413000Y-167473000D01*
X148433000Y-167473000D01*
X148433000Y-166279845D01*
X148687000Y-166279845D01*
X148687000Y-167473000D01*
X149880814Y-167473000D01*
X150001481Y-167243109D01*
X149904157Y-166968748D01*
X149755178Y-166718645D01*
X149560269Y-166502412D01*
X149326920Y-166328359D01*
X149064099Y-166203175D01*
X148916890Y-166158524D01*
X148687000Y-166279845D01*
X148433000Y-166279845D01*
X148203110Y-166158524D01*
X148055901Y-166203175D01*
X147793080Y-166328359D01*
X147559731Y-166502412D01*
X147364822Y-166718645D01*
X147295195Y-166835534D01*
X147173475Y-166653368D01*
X146966632Y-166446525D01*
X146723411Y-166284010D01*
X146453158Y-166172068D01*
X146166260Y-166115000D01*
X145873740Y-166115000D01*
X145586842Y-166172068D01*
X145316589Y-166284010D01*
X145073368Y-166446525D01*
X144866525Y-166653368D01*
X144750000Y-166827760D01*
X144633475Y-166653368D01*
X144426632Y-166446525D01*
X144183411Y-166284010D01*
X143913158Y-166172068D01*
X143626260Y-166115000D01*
X143333740Y-166115000D01*
X143046842Y-166172068D01*
X142776589Y-166284010D01*
X142533368Y-166446525D01*
X142326525Y-166653368D01*
X142210000Y-166827760D01*
X142093475Y-166653368D01*
X141886632Y-166446525D01*
X141643411Y-166284010D01*
X141373158Y-166172068D01*
X141086260Y-166115000D01*
X140793740Y-166115000D01*
X140506842Y-166172068D01*
X140236589Y-166284010D01*
X139993368Y-166446525D01*
X139861513Y-166578380D01*
X139839502Y-166505820D01*
X139780537Y-166395506D01*
X139701185Y-166298815D01*
X139604494Y-166219463D01*
X139494180Y-166160498D01*
X139374482Y-166124188D01*
X139250000Y-166111928D01*
X138498154Y-166111928D01*
X138659774Y-166003937D01*
X138803937Y-165859774D01*
X138917205Y-165690256D01*
X138995226Y-165501898D01*
X139035000Y-165301939D01*
X139035000Y-165260000D01*
X142096289Y-165260000D01*
X142140226Y-165303937D01*
X142309744Y-165417205D01*
X142498102Y-165495226D01*
X142698061Y-165535000D01*
X142901939Y-165535000D01*
X143101898Y-165495226D01*
X143290256Y-165417205D01*
X143459774Y-165303937D01*
X143603937Y-165159774D01*
X143717205Y-164990256D01*
X143795226Y-164801898D01*
X143835000Y-164601939D01*
X143835000Y-164398061D01*
X143795226Y-164198102D01*
X143717205Y-164009744D01*
X143603937Y-163840226D01*
X143459774Y-163696063D01*
X143290256Y-163582795D01*
X143198584Y-163544823D01*
X143259774Y-163503937D01*
X143403937Y-163359774D01*
X143517205Y-163190256D01*
X143595226Y-163001898D01*
X143635000Y-162801939D01*
X143635000Y-162598061D01*
X143595226Y-162398102D01*
X143517205Y-162209744D01*
X143403937Y-162040226D01*
X143259774Y-161896063D01*
X143090256Y-161782795D01*
X142901898Y-161704774D01*
X142701939Y-161665000D01*
X142498061Y-161665000D01*
X142298102Y-161704774D01*
X142109744Y-161782795D01*
X141940226Y-161896063D01*
X141796063Y-162040226D01*
X141682795Y-162209744D01*
X141604774Y-162398102D01*
X141565000Y-162598061D01*
X141565000Y-162660199D01*
X141485205Y-162739994D01*
X139003711Y-162739994D01*
X138959774Y-162696057D01*
X138790256Y-162582789D01*
X138601898Y-162504768D01*
X138401939Y-162464994D01*
X138198061Y-162464994D01*
X137998102Y-162504768D01*
X137809744Y-162582789D01*
X137640226Y-162696057D01*
X137496063Y-162840220D01*
X137382795Y-163009738D01*
X137304774Y-163198096D01*
X137265000Y-163398055D01*
X137265000Y-163601933D01*
X137304774Y-163801892D01*
X137382795Y-163990250D01*
X137496063Y-164159768D01*
X137587063Y-164250768D01*
X137509744Y-164282795D01*
X137340226Y-164396063D01*
X137196063Y-164540226D01*
X137082795Y-164709744D01*
X137004774Y-164898102D01*
X136965000Y-165098061D01*
X136965000Y-165301939D01*
X137004774Y-165501898D01*
X137082795Y-165690256D01*
X137196063Y-165859774D01*
X137340226Y-166003937D01*
X137508032Y-166116061D01*
X137425518Y-166124188D01*
X137305820Y-166160498D01*
X137195506Y-166219463D01*
X137098815Y-166298815D01*
X137019463Y-166395506D01*
X136960498Y-166505820D01*
X136924188Y-166625518D01*
X136911928Y-166750000D01*
X101050077Y-166750000D01*
X100889171Y-166383447D01*
X100707935Y-165628543D01*
X100660000Y-164975793D01*
X100660000Y-160498061D01*
X105865000Y-160498061D01*
X105865000Y-160701939D01*
X105904774Y-160901898D01*
X105982795Y-161090256D01*
X106096063Y-161259774D01*
X106140001Y-161303712D01*
X106140000Y-161896287D01*
X106096063Y-161940224D01*
X105982795Y-162109742D01*
X105904774Y-162298100D01*
X105865000Y-162498059D01*
X105865000Y-162701937D01*
X105904774Y-162901896D01*
X105982795Y-163090254D01*
X106096063Y-163259772D01*
X106240226Y-163403935D01*
X106409744Y-163517203D01*
X106598102Y-163595224D01*
X106798061Y-163634998D01*
X107001939Y-163634998D01*
X107201898Y-163595224D01*
X107390256Y-163517203D01*
X107559774Y-163403935D01*
X107703937Y-163259772D01*
X107817205Y-163090254D01*
X107895226Y-162901896D01*
X107935000Y-162701937D01*
X107935000Y-162498059D01*
X107895226Y-162298100D01*
X107817205Y-162109742D01*
X107703937Y-161940224D01*
X107660000Y-161896287D01*
X107660000Y-161303711D01*
X107703937Y-161259774D01*
X107817205Y-161090256D01*
X107895226Y-160901898D01*
X107935000Y-160701939D01*
X107935000Y-160498061D01*
X107915107Y-160398050D01*
X108265000Y-160398050D01*
X108265000Y-160601928D01*
X108304774Y-160801887D01*
X108382795Y-160990245D01*
X108496063Y-161159763D01*
X108540000Y-161203700D01*
X108540001Y-161696290D01*
X108496063Y-161740228D01*
X108382795Y-161909746D01*
X108304774Y-162098104D01*
X108265000Y-162298063D01*
X108265000Y-162501941D01*
X108304774Y-162701900D01*
X108382795Y-162890258D01*
X108496063Y-163059776D01*
X108640226Y-163203939D01*
X108809744Y-163317207D01*
X108998102Y-163395228D01*
X109198061Y-163435002D01*
X109401939Y-163435002D01*
X109601898Y-163395228D01*
X109790256Y-163317207D01*
X109959774Y-163203939D01*
X110103937Y-163059776D01*
X110217205Y-162890258D01*
X110295226Y-162701900D01*
X110335000Y-162501941D01*
X110335000Y-162298063D01*
X110295226Y-162098104D01*
X110217205Y-161909746D01*
X110103937Y-161740228D01*
X110060000Y-161696291D01*
X110060000Y-161203700D01*
X110103937Y-161159763D01*
X110207927Y-161004130D01*
X111255475Y-161004130D01*
X111430491Y-161335867D01*
X111832168Y-161542437D01*
X112266428Y-161666674D01*
X112716581Y-161703804D01*
X113165328Y-161652400D01*
X113595424Y-161514438D01*
X113929509Y-161335867D01*
X114104525Y-161004130D01*
X123295475Y-161004130D01*
X123470491Y-161335867D01*
X123872168Y-161542437D01*
X124306428Y-161666674D01*
X124756581Y-161703804D01*
X125205328Y-161652400D01*
X125635424Y-161514438D01*
X125969509Y-161335867D01*
X126144525Y-161004130D01*
X124720000Y-159579605D01*
X123295475Y-161004130D01*
X114104525Y-161004130D01*
X112680000Y-159579605D01*
X111255475Y-161004130D01*
X110207927Y-161004130D01*
X110217205Y-160990245D01*
X110295226Y-160801887D01*
X110335000Y-160601928D01*
X110335000Y-160398050D01*
X110295226Y-160198091D01*
X110217205Y-160009733D01*
X110103937Y-159840215D01*
X109959774Y-159696052D01*
X109790256Y-159582784D01*
X109601898Y-159504763D01*
X109401939Y-159464989D01*
X109198061Y-159464989D01*
X108998102Y-159504763D01*
X108809744Y-159582784D01*
X108640226Y-159696052D01*
X108496063Y-159840215D01*
X108382795Y-160009733D01*
X108304774Y-160198091D01*
X108265000Y-160398050D01*
X107915107Y-160398050D01*
X107895226Y-160298102D01*
X107817205Y-160109744D01*
X107703937Y-159940226D01*
X107559774Y-159796063D01*
X107390256Y-159682795D01*
X107201898Y-159604774D01*
X107001939Y-159565000D01*
X106798061Y-159565000D01*
X106598102Y-159604774D01*
X106409744Y-159682795D01*
X106240226Y-159796063D01*
X106096063Y-159940226D01*
X105982795Y-160109744D01*
X105904774Y-160298102D01*
X105865000Y-160498061D01*
X100660000Y-160498061D01*
X100660000Y-159436581D01*
X110376196Y-159436581D01*
X110427600Y-159885328D01*
X110565562Y-160315424D01*
X110744133Y-160649509D01*
X111075870Y-160824525D01*
X112500395Y-159400000D01*
X112859605Y-159400000D01*
X114284130Y-160824525D01*
X114615867Y-160649509D01*
X114822437Y-160247832D01*
X114946674Y-159813572D01*
X114977769Y-159436581D01*
X122416196Y-159436581D01*
X122467600Y-159885328D01*
X122605562Y-160315424D01*
X122784133Y-160649509D01*
X123115870Y-160824525D01*
X124540395Y-159400000D01*
X124899605Y-159400000D01*
X126324130Y-160824525D01*
X126655867Y-160649509D01*
X126862437Y-160247832D01*
X126986674Y-159813572D01*
X127023804Y-159363419D01*
X126972400Y-158914672D01*
X126834438Y-158484576D01*
X126655867Y-158150491D01*
X126324130Y-157975475D01*
X124899605Y-159400000D01*
X124540395Y-159400000D01*
X123115870Y-157975475D01*
X122784133Y-158150491D01*
X122577563Y-158552168D01*
X122453326Y-158986428D01*
X122416196Y-159436581D01*
X114977769Y-159436581D01*
X114983804Y-159363419D01*
X114932400Y-158914672D01*
X114794438Y-158484576D01*
X114615867Y-158150491D01*
X114284130Y-157975475D01*
X112859605Y-159400000D01*
X112500395Y-159400000D01*
X111075870Y-157975475D01*
X110744133Y-158150491D01*
X110537563Y-158552168D01*
X110413326Y-158986428D01*
X110376196Y-159436581D01*
X100660000Y-159436581D01*
X100660000Y-157795870D01*
X111255475Y-157795870D01*
X112680000Y-159220395D01*
X114104525Y-157795870D01*
X113929509Y-157464133D01*
X113527832Y-157257563D01*
X113093572Y-157133326D01*
X112643419Y-157096196D01*
X112194672Y-157147600D01*
X111764576Y-157285562D01*
X111430491Y-157464133D01*
X111255475Y-157795870D01*
X100660000Y-157795870D01*
X100660000Y-154568120D01*
X116111000Y-154568120D01*
X116111000Y-154831880D01*
X116162457Y-155090572D01*
X116263393Y-155334254D01*
X116409931Y-155553563D01*
X116556368Y-155700000D01*
X116409931Y-155846437D01*
X116263393Y-156065746D01*
X116162457Y-156309428D01*
X116111000Y-156568120D01*
X116111000Y-156831880D01*
X116162457Y-157090572D01*
X116263393Y-157334254D01*
X116409931Y-157553563D01*
X116596437Y-157740069D01*
X116815746Y-157886607D01*
X117059428Y-157987543D01*
X117318120Y-158039000D01*
X117581880Y-158039000D01*
X117840572Y-157987543D01*
X118084254Y-157886607D01*
X118303563Y-157740069D01*
X118419504Y-157624128D01*
X119205477Y-157624128D01*
X119265423Y-157858305D01*
X119504551Y-157969602D01*
X119760797Y-158032109D01*
X120024314Y-158043425D01*
X120284976Y-158003114D01*
X120532764Y-157912724D01*
X120634577Y-157858305D01*
X120650559Y-157795870D01*
X123295475Y-157795870D01*
X124720000Y-159220395D01*
X126144525Y-157795870D01*
X125969509Y-157464133D01*
X125567832Y-157257563D01*
X125133572Y-157133326D01*
X124683419Y-157096196D01*
X124234672Y-157147600D01*
X123804576Y-157285562D01*
X123470491Y-157464133D01*
X123295475Y-157795870D01*
X120650559Y-157795870D01*
X120694523Y-157624128D01*
X119950000Y-156879605D01*
X119205477Y-157624128D01*
X118419504Y-157624128D01*
X118490069Y-157553563D01*
X118636607Y-157334254D01*
X118700122Y-157180914D01*
X118737276Y-157282764D01*
X118791695Y-157384577D01*
X119025872Y-157444523D01*
X119770395Y-156700000D01*
X119756253Y-156685858D01*
X119935858Y-156506253D01*
X119950000Y-156520395D01*
X119964143Y-156506253D01*
X120143748Y-156685858D01*
X120129605Y-156700000D01*
X120874128Y-157444523D01*
X121108305Y-157384577D01*
X121219602Y-157145449D01*
X121282109Y-156889203D01*
X121288013Y-156751724D01*
X121340226Y-156803937D01*
X121509744Y-156917205D01*
X121698102Y-156995226D01*
X121898061Y-157035000D01*
X122101939Y-157035000D01*
X122301898Y-156995226D01*
X122490256Y-156917205D01*
X122659774Y-156803937D01*
X122803937Y-156659774D01*
X122917205Y-156490256D01*
X122995226Y-156301898D01*
X123035000Y-156101939D01*
X123035000Y-155898061D01*
X122995226Y-155698102D01*
X122985000Y-155673414D01*
X122985000Y-154038454D01*
X123017205Y-153990256D01*
X123095226Y-153801898D01*
X123135000Y-153601939D01*
X123135000Y-153398061D01*
X123095226Y-153198102D01*
X123017205Y-153009744D01*
X122903937Y-152840226D01*
X122759774Y-152696063D01*
X122590256Y-152582795D01*
X122401898Y-152504774D01*
X122201939Y-152465000D01*
X121998061Y-152465000D01*
X121798102Y-152504774D01*
X121609744Y-152582795D01*
X121440226Y-152696063D01*
X121296063Y-152840226D01*
X121182795Y-153009744D01*
X121104774Y-153198102D01*
X121065000Y-153398061D01*
X121065000Y-153511836D01*
X121008494Y-153465463D01*
X120898180Y-153406498D01*
X120778482Y-153370188D01*
X120654000Y-153357928D01*
X119246000Y-153357928D01*
X119121518Y-153370188D01*
X119001820Y-153406498D01*
X118891506Y-153465463D01*
X118794815Y-153544815D01*
X118715463Y-153641506D01*
X118656498Y-153751820D01*
X118620188Y-153871518D01*
X118607928Y-153996000D01*
X118607928Y-154022825D01*
X118490069Y-153846437D01*
X118303563Y-153659931D01*
X118084254Y-153513393D01*
X117840572Y-153412457D01*
X117581880Y-153361000D01*
X117318120Y-153361000D01*
X117059428Y-153412457D01*
X116815746Y-153513393D01*
X116596437Y-153659931D01*
X116409931Y-153846437D01*
X116263393Y-154065746D01*
X116162457Y-154309428D01*
X116111000Y-154568120D01*
X100660000Y-154568120D01*
X100660000Y-147873061D01*
X122465000Y-147873061D01*
X122465000Y-148076939D01*
X122504774Y-148276898D01*
X122582795Y-148465256D01*
X122696063Y-148634774D01*
X122840226Y-148778937D01*
X123009744Y-148892205D01*
X123198102Y-148970226D01*
X123398061Y-149010000D01*
X123601939Y-149010000D01*
X123801898Y-148970226D01*
X123990256Y-148892205D01*
X124038454Y-148860000D01*
X124596289Y-148860000D01*
X124640226Y-148903937D01*
X124809744Y-149017205D01*
X124998102Y-149095226D01*
X125198061Y-149135000D01*
X125401939Y-149135000D01*
X125601898Y-149095226D01*
X125790256Y-149017205D01*
X125959774Y-148903937D01*
X126103937Y-148759774D01*
X126217205Y-148590256D01*
X126295226Y-148401898D01*
X126335000Y-148201939D01*
X126335000Y-147998061D01*
X126295226Y-147798102D01*
X126217205Y-147609744D01*
X126103937Y-147440226D01*
X125959774Y-147296063D01*
X125790256Y-147182795D01*
X125601898Y-147104774D01*
X125401939Y-147065000D01*
X125198061Y-147065000D01*
X124998102Y-147104774D01*
X124809744Y-147182795D01*
X124640226Y-147296063D01*
X124596289Y-147340000D01*
X124320490Y-147340000D01*
X124303937Y-147315226D01*
X124159774Y-147171063D01*
X123990256Y-147057795D01*
X123801898Y-146979774D01*
X123601939Y-146940000D01*
X123398061Y-146940000D01*
X123198102Y-146979774D01*
X123009744Y-147057795D01*
X122840226Y-147171063D01*
X122696063Y-147315226D01*
X122582795Y-147484744D01*
X122504774Y-147673102D01*
X122465000Y-147873061D01*
X100660000Y-147873061D01*
X100660000Y-141174676D01*
X128010020Y-141174676D01*
X128010020Y-141393324D01*
X128052676Y-141607769D01*
X128136348Y-141809773D01*
X128257822Y-141991571D01*
X128412429Y-142146178D01*
X128594227Y-142267652D01*
X128672323Y-142300000D01*
X128594227Y-142332348D01*
X128412429Y-142453822D01*
X128257822Y-142608429D01*
X128136348Y-142790227D01*
X128052676Y-142992231D01*
X128010020Y-143206676D01*
X128010020Y-143425324D01*
X128052676Y-143639769D01*
X128136348Y-143841773D01*
X128257822Y-144023571D01*
X128412429Y-144178178D01*
X128594227Y-144299652D01*
X128796231Y-144383324D01*
X129010676Y-144425980D01*
X129229324Y-144425980D01*
X129443769Y-144383324D01*
X129645773Y-144299652D01*
X129827571Y-144178178D01*
X129982178Y-144023571D01*
X130103652Y-143841773D01*
X130187324Y-143639769D01*
X130229980Y-143425324D01*
X130229980Y-143206676D01*
X130187324Y-142992231D01*
X130103652Y-142790227D01*
X129982178Y-142608429D01*
X129827571Y-142453822D01*
X129645773Y-142332348D01*
X129567677Y-142300000D01*
X129645773Y-142267652D01*
X129760975Y-142190676D01*
X133090020Y-142190676D01*
X133090020Y-142409324D01*
X133132676Y-142623769D01*
X133216348Y-142825773D01*
X133337822Y-143007571D01*
X133492429Y-143162178D01*
X133674227Y-143283652D01*
X133876231Y-143367324D01*
X134090676Y-143409980D01*
X134309324Y-143409980D01*
X134523769Y-143367324D01*
X134725773Y-143283652D01*
X134907571Y-143162178D01*
X135062178Y-143007571D01*
X135183652Y-142825773D01*
X135267324Y-142623769D01*
X135309980Y-142409324D01*
X135309980Y-142190676D01*
X135272052Y-142000000D01*
X135365000Y-142000000D01*
X135365000Y-146000000D01*
X135377201Y-146123882D01*
X135413336Y-146243004D01*
X135472017Y-146352787D01*
X135550987Y-146449013D01*
X135647213Y-146527983D01*
X135756996Y-146586664D01*
X135876118Y-146622799D01*
X136000000Y-146635000D01*
X141000000Y-146635000D01*
X141123882Y-146622799D01*
X141243004Y-146586664D01*
X141352787Y-146527983D01*
X141449013Y-146449013D01*
X141527983Y-146352787D01*
X141586664Y-146243004D01*
X141622799Y-146123882D01*
X141635000Y-146000000D01*
X141635000Y-142000000D01*
X141622799Y-141876118D01*
X141586664Y-141756996D01*
X141527983Y-141647213D01*
X141449013Y-141550987D01*
X141352787Y-141472017D01*
X141243004Y-141413336D01*
X141123882Y-141377201D01*
X141000000Y-141365000D01*
X136000000Y-141365000D01*
X135876118Y-141377201D01*
X135756996Y-141413336D01*
X135647213Y-141472017D01*
X135550987Y-141550987D01*
X135472017Y-141647213D01*
X135413336Y-141756996D01*
X135377201Y-141876118D01*
X135365000Y-142000000D01*
X135272052Y-142000000D01*
X135267324Y-141976231D01*
X135183652Y-141774227D01*
X135062178Y-141592429D01*
X134907571Y-141437822D01*
X134725773Y-141316348D01*
X134523769Y-141232676D01*
X134309324Y-141190020D01*
X134090676Y-141190020D01*
X133876231Y-141232676D01*
X133674227Y-141316348D01*
X133492429Y-141437822D01*
X133337822Y-141592429D01*
X133216348Y-141774227D01*
X133132676Y-141976231D01*
X133090020Y-142190676D01*
X129760975Y-142190676D01*
X129827571Y-142146178D01*
X129982178Y-141991571D01*
X130103652Y-141809773D01*
X130187324Y-141607769D01*
X130229980Y-141393324D01*
X130229980Y-141174676D01*
X130187324Y-140960231D01*
X130103652Y-140758227D01*
X129982178Y-140576429D01*
X129827571Y-140421822D01*
X129645773Y-140300348D01*
X129443769Y-140216676D01*
X129229324Y-140174020D01*
X129010676Y-140174020D01*
X128796231Y-140216676D01*
X128594227Y-140300348D01*
X128412429Y-140421822D01*
X128257822Y-140576429D01*
X128136348Y-140758227D01*
X128052676Y-140960231D01*
X128010020Y-141174676D01*
X100660000Y-141174676D01*
X100660000Y-138635000D01*
X107000000Y-138635000D01*
X107123882Y-138622799D01*
X107243004Y-138586664D01*
X107352787Y-138527983D01*
X107379116Y-138506375D01*
X107382795Y-138515256D01*
X107496063Y-138684774D01*
X107640226Y-138828937D01*
X107809744Y-138942205D01*
X107998102Y-139020226D01*
X108198061Y-139060000D01*
X108401939Y-139060000D01*
X108601898Y-139020226D01*
X108657921Y-138997020D01*
X126563959Y-138997020D01*
X126563959Y-139200898D01*
X126603733Y-139400857D01*
X126681754Y-139589215D01*
X126795022Y-139758733D01*
X126939185Y-139902896D01*
X127108703Y-140016164D01*
X127297061Y-140094185D01*
X127497020Y-140133959D01*
X127700898Y-140133959D01*
X127900857Y-140094185D01*
X128089215Y-140016164D01*
X128258733Y-139902896D01*
X128301629Y-139860000D01*
X128696289Y-139860000D01*
X128740226Y-139903937D01*
X128909744Y-140017205D01*
X129098102Y-140095226D01*
X129298061Y-140135000D01*
X129501939Y-140135000D01*
X129701898Y-140095226D01*
X129890256Y-140017205D01*
X130059774Y-139903937D01*
X130203937Y-139759774D01*
X130317205Y-139590256D01*
X130395226Y-139401898D01*
X130435000Y-139201939D01*
X130435000Y-138998061D01*
X130395226Y-138798102D01*
X130317205Y-138609744D01*
X130203937Y-138440226D01*
X130059774Y-138296063D01*
X129890256Y-138182795D01*
X129701898Y-138104774D01*
X129501939Y-138065000D01*
X129298061Y-138065000D01*
X129098102Y-138104774D01*
X128909744Y-138182795D01*
X128740226Y-138296063D01*
X128696289Y-138340000D01*
X128303711Y-138340000D01*
X128258733Y-138295022D01*
X128089215Y-138181754D01*
X127900857Y-138103733D01*
X127700898Y-138063959D01*
X127497020Y-138063959D01*
X127297061Y-138103733D01*
X127108703Y-138181754D01*
X126939185Y-138295022D01*
X126795022Y-138439185D01*
X126681754Y-138608703D01*
X126603733Y-138797061D01*
X126563959Y-138997020D01*
X108657921Y-138997020D01*
X108790256Y-138942205D01*
X108959774Y-138828937D01*
X109103937Y-138684774D01*
X109217205Y-138515256D01*
X109295226Y-138326898D01*
X109335000Y-138126939D01*
X109335000Y-137923061D01*
X109295226Y-137723102D01*
X109217205Y-137534744D01*
X109185000Y-137486546D01*
X109185000Y-136938967D01*
X150665000Y-136938967D01*
X150665000Y-137261033D01*
X150727832Y-137576912D01*
X150851082Y-137874463D01*
X151030013Y-138142252D01*
X151257748Y-138369987D01*
X151525537Y-138548918D01*
X151823088Y-138672168D01*
X152138967Y-138735000D01*
X152461033Y-138735000D01*
X152776912Y-138672168D01*
X153074463Y-138548918D01*
X153342252Y-138369987D01*
X153569987Y-138142252D01*
X153748918Y-137874463D01*
X153872168Y-137576912D01*
X153935000Y-137261033D01*
X153935000Y-136938967D01*
X153872168Y-136623088D01*
X153748918Y-136325537D01*
X153569987Y-136057748D01*
X153342252Y-135830013D01*
X153074463Y-135651082D01*
X152776912Y-135527832D01*
X152461033Y-135465000D01*
X152138967Y-135465000D01*
X151823088Y-135527832D01*
X151525537Y-135651082D01*
X151257748Y-135830013D01*
X151030013Y-136057748D01*
X150851082Y-136325537D01*
X150727832Y-136623088D01*
X150665000Y-136938967D01*
X109185000Y-136938967D01*
X109185000Y-136938454D01*
X109217205Y-136890256D01*
X109295226Y-136701898D01*
X109335000Y-136501939D01*
X109335000Y-136298061D01*
X109295226Y-136098102D01*
X109217205Y-135909744D01*
X109103937Y-135740226D01*
X108959774Y-135596063D01*
X108790256Y-135482795D01*
X108601898Y-135404774D01*
X108401939Y-135365000D01*
X108198061Y-135365000D01*
X107998102Y-135404774D01*
X107809744Y-135482795D01*
X107640226Y-135596063D01*
X107635000Y-135601289D01*
X107635000Y-76635000D01*
X162365000Y-76635000D01*
X162365000Y-162000000D01*
G37*
X162365000Y-162000000D02*
X162377201Y-162123882D01*
X162413336Y-162243004D01*
X162472017Y-162352787D01*
X162550987Y-162449013D01*
X162647213Y-162527983D01*
X162756996Y-162586664D01*
X162876118Y-162622799D01*
X163000000Y-162635000D01*
X169340001Y-162635000D01*
X169340001Y-164970597D01*
X169268827Y-165768083D01*
X169065344Y-166511890D01*
X168733363Y-167207904D01*
X168283374Y-167834130D01*
X167729597Y-168370777D01*
X167089549Y-168800871D01*
X166383447Y-169110829D01*
X165628543Y-169292065D01*
X164975793Y-169340000D01*
X105029392Y-169340000D01*
X104231917Y-169268827D01*
X103488110Y-169065344D01*
X102792096Y-168733363D01*
X102165870Y-168283374D01*
X101629223Y-167729597D01*
X101199129Y-167089549D01*
X101050077Y-166750000D01*
X136911928Y-166750000D01*
X136911928Y-168450000D01*
X136924188Y-168574482D01*
X136960498Y-168694180D01*
X137019463Y-168804494D01*
X137098815Y-168901185D01*
X137195506Y-168980537D01*
X137305820Y-169039502D01*
X137425518Y-169075812D01*
X137550000Y-169088072D01*
X139250000Y-169088072D01*
X139374482Y-169075812D01*
X139494180Y-169039502D01*
X139604494Y-168980537D01*
X139701185Y-168901185D01*
X139780537Y-168804494D01*
X139839502Y-168694180D01*
X139861513Y-168621620D01*
X139993368Y-168753475D01*
X140236589Y-168915990D01*
X140506842Y-169027932D01*
X140793740Y-169085000D01*
X141086260Y-169085000D01*
X141373158Y-169027932D01*
X141643411Y-168915990D01*
X141886632Y-168753475D01*
X142093475Y-168546632D01*
X142210000Y-168372240D01*
X142326525Y-168546632D01*
X142533368Y-168753475D01*
X142776589Y-168915990D01*
X143046842Y-169027932D01*
X143333740Y-169085000D01*
X143626260Y-169085000D01*
X143913158Y-169027932D01*
X144183411Y-168915990D01*
X144426632Y-168753475D01*
X144633475Y-168546632D01*
X144750000Y-168372240D01*
X144866525Y-168546632D01*
X145073368Y-168753475D01*
X145316589Y-168915990D01*
X145586842Y-169027932D01*
X145873740Y-169085000D01*
X146166260Y-169085000D01*
X146453158Y-169027932D01*
X146723411Y-168915990D01*
X146966632Y-168753475D01*
X147173475Y-168546632D01*
X147295195Y-168364466D01*
X147364822Y-168481355D01*
X147559731Y-168697588D01*
X147793080Y-168871641D01*
X148055901Y-168996825D01*
X148203110Y-169041476D01*
X148433000Y-168920155D01*
X148433000Y-167727000D01*
X148687000Y-167727000D01*
X148687000Y-168920155D01*
X148916890Y-169041476D01*
X149064099Y-168996825D01*
X149326920Y-168871641D01*
X149560269Y-168697588D01*
X149755178Y-168481355D01*
X149904157Y-168231252D01*
X150001481Y-167956891D01*
X149880814Y-167727000D01*
X148687000Y-167727000D01*
X148433000Y-167727000D01*
X148413000Y-167727000D01*
X148413000Y-167473000D01*
X148433000Y-167473000D01*
X148433000Y-166279845D01*
X148687000Y-166279845D01*
X148687000Y-167473000D01*
X149880814Y-167473000D01*
X150001481Y-167243109D01*
X149904157Y-166968748D01*
X149755178Y-166718645D01*
X149560269Y-166502412D01*
X149326920Y-166328359D01*
X149064099Y-166203175D01*
X148916890Y-166158524D01*
X148687000Y-166279845D01*
X148433000Y-166279845D01*
X148203110Y-166158524D01*
X148055901Y-166203175D01*
X147793080Y-166328359D01*
X147559731Y-166502412D01*
X147364822Y-166718645D01*
X147295195Y-166835534D01*
X147173475Y-166653368D01*
X146966632Y-166446525D01*
X146723411Y-166284010D01*
X146453158Y-166172068D01*
X146166260Y-166115000D01*
X145873740Y-166115000D01*
X145586842Y-166172068D01*
X145316589Y-166284010D01*
X145073368Y-166446525D01*
X144866525Y-166653368D01*
X144750000Y-166827760D01*
X144633475Y-166653368D01*
X144426632Y-166446525D01*
X144183411Y-166284010D01*
X143913158Y-166172068D01*
X143626260Y-166115000D01*
X143333740Y-166115000D01*
X143046842Y-166172068D01*
X142776589Y-166284010D01*
X142533368Y-166446525D01*
X142326525Y-166653368D01*
X142210000Y-166827760D01*
X142093475Y-166653368D01*
X141886632Y-166446525D01*
X141643411Y-166284010D01*
X141373158Y-166172068D01*
X141086260Y-166115000D01*
X140793740Y-166115000D01*
X140506842Y-166172068D01*
X140236589Y-166284010D01*
X139993368Y-166446525D01*
X139861513Y-166578380D01*
X139839502Y-166505820D01*
X139780537Y-166395506D01*
X139701185Y-166298815D01*
X139604494Y-166219463D01*
X139494180Y-166160498D01*
X139374482Y-166124188D01*
X139250000Y-166111928D01*
X138498154Y-166111928D01*
X138659774Y-166003937D01*
X138803937Y-165859774D01*
X138917205Y-165690256D01*
X138995226Y-165501898D01*
X139035000Y-165301939D01*
X139035000Y-165260000D01*
X142096289Y-165260000D01*
X142140226Y-165303937D01*
X142309744Y-165417205D01*
X142498102Y-165495226D01*
X142698061Y-165535000D01*
X142901939Y-165535000D01*
X143101898Y-165495226D01*
X143290256Y-165417205D01*
X143459774Y-165303937D01*
X143603937Y-165159774D01*
X143717205Y-164990256D01*
X143795226Y-164801898D01*
X143835000Y-164601939D01*
X143835000Y-164398061D01*
X143795226Y-164198102D01*
X143717205Y-164009744D01*
X143603937Y-163840226D01*
X143459774Y-163696063D01*
X143290256Y-163582795D01*
X143198584Y-163544823D01*
X143259774Y-163503937D01*
X143403937Y-163359774D01*
X143517205Y-163190256D01*
X143595226Y-163001898D01*
X143635000Y-162801939D01*
X143635000Y-162598061D01*
X143595226Y-162398102D01*
X143517205Y-162209744D01*
X143403937Y-162040226D01*
X143259774Y-161896063D01*
X143090256Y-161782795D01*
X142901898Y-161704774D01*
X142701939Y-161665000D01*
X142498061Y-161665000D01*
X142298102Y-161704774D01*
X142109744Y-161782795D01*
X141940226Y-161896063D01*
X141796063Y-162040226D01*
X141682795Y-162209744D01*
X141604774Y-162398102D01*
X141565000Y-162598061D01*
X141565000Y-162660199D01*
X141485205Y-162739994D01*
X139003711Y-162739994D01*
X138959774Y-162696057D01*
X138790256Y-162582789D01*
X138601898Y-162504768D01*
X138401939Y-162464994D01*
X138198061Y-162464994D01*
X137998102Y-162504768D01*
X137809744Y-162582789D01*
X137640226Y-162696057D01*
X137496063Y-162840220D01*
X137382795Y-163009738D01*
X137304774Y-163198096D01*
X137265000Y-163398055D01*
X137265000Y-163601933D01*
X137304774Y-163801892D01*
X137382795Y-163990250D01*
X137496063Y-164159768D01*
X137587063Y-164250768D01*
X137509744Y-164282795D01*
X137340226Y-164396063D01*
X137196063Y-164540226D01*
X137082795Y-164709744D01*
X137004774Y-164898102D01*
X136965000Y-165098061D01*
X136965000Y-165301939D01*
X137004774Y-165501898D01*
X137082795Y-165690256D01*
X137196063Y-165859774D01*
X137340226Y-166003937D01*
X137508032Y-166116061D01*
X137425518Y-166124188D01*
X137305820Y-166160498D01*
X137195506Y-166219463D01*
X137098815Y-166298815D01*
X137019463Y-166395506D01*
X136960498Y-166505820D01*
X136924188Y-166625518D01*
X136911928Y-166750000D01*
X101050077Y-166750000D01*
X100889171Y-166383447D01*
X100707935Y-165628543D01*
X100660000Y-164975793D01*
X100660000Y-160498061D01*
X105865000Y-160498061D01*
X105865000Y-160701939D01*
X105904774Y-160901898D01*
X105982795Y-161090256D01*
X106096063Y-161259774D01*
X106140001Y-161303712D01*
X106140000Y-161896287D01*
X106096063Y-161940224D01*
X105982795Y-162109742D01*
X105904774Y-162298100D01*
X105865000Y-162498059D01*
X105865000Y-162701937D01*
X105904774Y-162901896D01*
X105982795Y-163090254D01*
X106096063Y-163259772D01*
X106240226Y-163403935D01*
X106409744Y-163517203D01*
X106598102Y-163595224D01*
X106798061Y-163634998D01*
X107001939Y-163634998D01*
X107201898Y-163595224D01*
X107390256Y-163517203D01*
X107559774Y-163403935D01*
X107703937Y-163259772D01*
X107817205Y-163090254D01*
X107895226Y-162901896D01*
X107935000Y-162701937D01*
X107935000Y-162498059D01*
X107895226Y-162298100D01*
X107817205Y-162109742D01*
X107703937Y-161940224D01*
X107660000Y-161896287D01*
X107660000Y-161303711D01*
X107703937Y-161259774D01*
X107817205Y-161090256D01*
X107895226Y-160901898D01*
X107935000Y-160701939D01*
X107935000Y-160498061D01*
X107915107Y-160398050D01*
X108265000Y-160398050D01*
X108265000Y-160601928D01*
X108304774Y-160801887D01*
X108382795Y-160990245D01*
X108496063Y-161159763D01*
X108540000Y-161203700D01*
X108540001Y-161696290D01*
X108496063Y-161740228D01*
X108382795Y-161909746D01*
X108304774Y-162098104D01*
X108265000Y-162298063D01*
X108265000Y-162501941D01*
X108304774Y-162701900D01*
X108382795Y-162890258D01*
X108496063Y-163059776D01*
X108640226Y-163203939D01*
X108809744Y-163317207D01*
X108998102Y-163395228D01*
X109198061Y-163435002D01*
X109401939Y-163435002D01*
X109601898Y-163395228D01*
X109790256Y-163317207D01*
X109959774Y-163203939D01*
X110103937Y-163059776D01*
X110217205Y-162890258D01*
X110295226Y-162701900D01*
X110335000Y-162501941D01*
X110335000Y-162298063D01*
X110295226Y-162098104D01*
X110217205Y-161909746D01*
X110103937Y-161740228D01*
X110060000Y-161696291D01*
X110060000Y-161203700D01*
X110103937Y-161159763D01*
X110207927Y-161004130D01*
X111255475Y-161004130D01*
X111430491Y-161335867D01*
X111832168Y-161542437D01*
X112266428Y-161666674D01*
X112716581Y-161703804D01*
X113165328Y-161652400D01*
X113595424Y-161514438D01*
X113929509Y-161335867D01*
X114104525Y-161004130D01*
X123295475Y-161004130D01*
X123470491Y-161335867D01*
X123872168Y-161542437D01*
X124306428Y-161666674D01*
X124756581Y-161703804D01*
X125205328Y-161652400D01*
X125635424Y-161514438D01*
X125969509Y-161335867D01*
X126144525Y-161004130D01*
X124720000Y-159579605D01*
X123295475Y-161004130D01*
X114104525Y-161004130D01*
X112680000Y-159579605D01*
X111255475Y-161004130D01*
X110207927Y-161004130D01*
X110217205Y-160990245D01*
X110295226Y-160801887D01*
X110335000Y-160601928D01*
X110335000Y-160398050D01*
X110295226Y-160198091D01*
X110217205Y-160009733D01*
X110103937Y-159840215D01*
X109959774Y-159696052D01*
X109790256Y-159582784D01*
X109601898Y-159504763D01*
X109401939Y-159464989D01*
X109198061Y-159464989D01*
X108998102Y-159504763D01*
X108809744Y-159582784D01*
X108640226Y-159696052D01*
X108496063Y-159840215D01*
X108382795Y-160009733D01*
X108304774Y-160198091D01*
X108265000Y-160398050D01*
X107915107Y-160398050D01*
X107895226Y-160298102D01*
X107817205Y-160109744D01*
X107703937Y-159940226D01*
X107559774Y-159796063D01*
X107390256Y-159682795D01*
X107201898Y-159604774D01*
X107001939Y-159565000D01*
X106798061Y-159565000D01*
X106598102Y-159604774D01*
X106409744Y-159682795D01*
X106240226Y-159796063D01*
X106096063Y-159940226D01*
X105982795Y-160109744D01*
X105904774Y-160298102D01*
X105865000Y-160498061D01*
X100660000Y-160498061D01*
X100660000Y-159436581D01*
X110376196Y-159436581D01*
X110427600Y-159885328D01*
X110565562Y-160315424D01*
X110744133Y-160649509D01*
X111075870Y-160824525D01*
X112500395Y-159400000D01*
X112859605Y-159400000D01*
X114284130Y-160824525D01*
X114615867Y-160649509D01*
X114822437Y-160247832D01*
X114946674Y-159813572D01*
X114977769Y-159436581D01*
X122416196Y-159436581D01*
X122467600Y-159885328D01*
X122605562Y-160315424D01*
X122784133Y-160649509D01*
X123115870Y-160824525D01*
X124540395Y-159400000D01*
X124899605Y-159400000D01*
X126324130Y-160824525D01*
X126655867Y-160649509D01*
X126862437Y-160247832D01*
X126986674Y-159813572D01*
X127023804Y-159363419D01*
X126972400Y-158914672D01*
X126834438Y-158484576D01*
X126655867Y-158150491D01*
X126324130Y-157975475D01*
X124899605Y-159400000D01*
X124540395Y-159400000D01*
X123115870Y-157975475D01*
X122784133Y-158150491D01*
X122577563Y-158552168D01*
X122453326Y-158986428D01*
X122416196Y-159436581D01*
X114977769Y-159436581D01*
X114983804Y-159363419D01*
X114932400Y-158914672D01*
X114794438Y-158484576D01*
X114615867Y-158150491D01*
X114284130Y-157975475D01*
X112859605Y-159400000D01*
X112500395Y-159400000D01*
X111075870Y-157975475D01*
X110744133Y-158150491D01*
X110537563Y-158552168D01*
X110413326Y-158986428D01*
X110376196Y-159436581D01*
X100660000Y-159436581D01*
X100660000Y-157795870D01*
X111255475Y-157795870D01*
X112680000Y-159220395D01*
X114104525Y-157795870D01*
X113929509Y-157464133D01*
X113527832Y-157257563D01*
X113093572Y-157133326D01*
X112643419Y-157096196D01*
X112194672Y-157147600D01*
X111764576Y-157285562D01*
X111430491Y-157464133D01*
X111255475Y-157795870D01*
X100660000Y-157795870D01*
X100660000Y-154568120D01*
X116111000Y-154568120D01*
X116111000Y-154831880D01*
X116162457Y-155090572D01*
X116263393Y-155334254D01*
X116409931Y-155553563D01*
X116556368Y-155700000D01*
X116409931Y-155846437D01*
X116263393Y-156065746D01*
X116162457Y-156309428D01*
X116111000Y-156568120D01*
X116111000Y-156831880D01*
X116162457Y-157090572D01*
X116263393Y-157334254D01*
X116409931Y-157553563D01*
X116596437Y-157740069D01*
X116815746Y-157886607D01*
X117059428Y-157987543D01*
X117318120Y-158039000D01*
X117581880Y-158039000D01*
X117840572Y-157987543D01*
X118084254Y-157886607D01*
X118303563Y-157740069D01*
X118419504Y-157624128D01*
X119205477Y-157624128D01*
X119265423Y-157858305D01*
X119504551Y-157969602D01*
X119760797Y-158032109D01*
X120024314Y-158043425D01*
X120284976Y-158003114D01*
X120532764Y-157912724D01*
X120634577Y-157858305D01*
X120650559Y-157795870D01*
X123295475Y-157795870D01*
X124720000Y-159220395D01*
X126144525Y-157795870D01*
X125969509Y-157464133D01*
X125567832Y-157257563D01*
X125133572Y-157133326D01*
X124683419Y-157096196D01*
X124234672Y-157147600D01*
X123804576Y-157285562D01*
X123470491Y-157464133D01*
X123295475Y-157795870D01*
X120650559Y-157795870D01*
X120694523Y-157624128D01*
X119950000Y-156879605D01*
X119205477Y-157624128D01*
X118419504Y-157624128D01*
X118490069Y-157553563D01*
X118636607Y-157334254D01*
X118700122Y-157180914D01*
X118737276Y-157282764D01*
X118791695Y-157384577D01*
X119025872Y-157444523D01*
X119770395Y-156700000D01*
X119756253Y-156685858D01*
X119935858Y-156506253D01*
X119950000Y-156520395D01*
X119964143Y-156506253D01*
X120143748Y-156685858D01*
X120129605Y-156700000D01*
X120874128Y-157444523D01*
X121108305Y-157384577D01*
X121219602Y-157145449D01*
X121282109Y-156889203D01*
X121288013Y-156751724D01*
X121340226Y-156803937D01*
X121509744Y-156917205D01*
X121698102Y-156995226D01*
X121898061Y-157035000D01*
X122101939Y-157035000D01*
X122301898Y-156995226D01*
X122490256Y-156917205D01*
X122659774Y-156803937D01*
X122803937Y-156659774D01*
X122917205Y-156490256D01*
X122995226Y-156301898D01*
X123035000Y-156101939D01*
X123035000Y-155898061D01*
X122995226Y-155698102D01*
X122985000Y-155673414D01*
X122985000Y-154038454D01*
X123017205Y-153990256D01*
X123095226Y-153801898D01*
X123135000Y-153601939D01*
X123135000Y-153398061D01*
X123095226Y-153198102D01*
X123017205Y-153009744D01*
X122903937Y-152840226D01*
X122759774Y-152696063D01*
X122590256Y-152582795D01*
X122401898Y-152504774D01*
X122201939Y-152465000D01*
X121998061Y-152465000D01*
X121798102Y-152504774D01*
X121609744Y-152582795D01*
X121440226Y-152696063D01*
X121296063Y-152840226D01*
X121182795Y-153009744D01*
X121104774Y-153198102D01*
X121065000Y-153398061D01*
X121065000Y-153511836D01*
X121008494Y-153465463D01*
X120898180Y-153406498D01*
X120778482Y-153370188D01*
X120654000Y-153357928D01*
X119246000Y-153357928D01*
X119121518Y-153370188D01*
X119001820Y-153406498D01*
X118891506Y-153465463D01*
X118794815Y-153544815D01*
X118715463Y-153641506D01*
X118656498Y-153751820D01*
X118620188Y-153871518D01*
X118607928Y-153996000D01*
X118607928Y-154022825D01*
X118490069Y-153846437D01*
X118303563Y-153659931D01*
X118084254Y-153513393D01*
X117840572Y-153412457D01*
X117581880Y-153361000D01*
X117318120Y-153361000D01*
X117059428Y-153412457D01*
X116815746Y-153513393D01*
X116596437Y-153659931D01*
X116409931Y-153846437D01*
X116263393Y-154065746D01*
X116162457Y-154309428D01*
X116111000Y-154568120D01*
X100660000Y-154568120D01*
X100660000Y-147873061D01*
X122465000Y-147873061D01*
X122465000Y-148076939D01*
X122504774Y-148276898D01*
X122582795Y-148465256D01*
X122696063Y-148634774D01*
X122840226Y-148778937D01*
X123009744Y-148892205D01*
X123198102Y-148970226D01*
X123398061Y-149010000D01*
X123601939Y-149010000D01*
X123801898Y-148970226D01*
X123990256Y-148892205D01*
X124038454Y-148860000D01*
X124596289Y-148860000D01*
X124640226Y-148903937D01*
X124809744Y-149017205D01*
X124998102Y-149095226D01*
X125198061Y-149135000D01*
X125401939Y-149135000D01*
X125601898Y-149095226D01*
X125790256Y-149017205D01*
X125959774Y-148903937D01*
X126103937Y-148759774D01*
X126217205Y-148590256D01*
X126295226Y-148401898D01*
X126335000Y-148201939D01*
X126335000Y-147998061D01*
X126295226Y-147798102D01*
X126217205Y-147609744D01*
X126103937Y-147440226D01*
X125959774Y-147296063D01*
X125790256Y-147182795D01*
X125601898Y-147104774D01*
X125401939Y-147065000D01*
X125198061Y-147065000D01*
X124998102Y-147104774D01*
X124809744Y-147182795D01*
X124640226Y-147296063D01*
X124596289Y-147340000D01*
X124320490Y-147340000D01*
X124303937Y-147315226D01*
X124159774Y-147171063D01*
X123990256Y-147057795D01*
X123801898Y-146979774D01*
X123601939Y-146940000D01*
X123398061Y-146940000D01*
X123198102Y-146979774D01*
X123009744Y-147057795D01*
X122840226Y-147171063D01*
X122696063Y-147315226D01*
X122582795Y-147484744D01*
X122504774Y-147673102D01*
X122465000Y-147873061D01*
X100660000Y-147873061D01*
X100660000Y-141174676D01*
X128010020Y-141174676D01*
X128010020Y-141393324D01*
X128052676Y-141607769D01*
X128136348Y-141809773D01*
X128257822Y-141991571D01*
X128412429Y-142146178D01*
X128594227Y-142267652D01*
X128672323Y-142300000D01*
X128594227Y-142332348D01*
X128412429Y-142453822D01*
X128257822Y-142608429D01*
X128136348Y-142790227D01*
X128052676Y-142992231D01*
X128010020Y-143206676D01*
X128010020Y-143425324D01*
X128052676Y-143639769D01*
X128136348Y-143841773D01*
X128257822Y-144023571D01*
X128412429Y-144178178D01*
X128594227Y-144299652D01*
X128796231Y-144383324D01*
X129010676Y-144425980D01*
X129229324Y-144425980D01*
X129443769Y-144383324D01*
X129645773Y-144299652D01*
X129827571Y-144178178D01*
X129982178Y-144023571D01*
X130103652Y-143841773D01*
X130187324Y-143639769D01*
X130229980Y-143425324D01*
X130229980Y-143206676D01*
X130187324Y-142992231D01*
X130103652Y-142790227D01*
X129982178Y-142608429D01*
X129827571Y-142453822D01*
X129645773Y-142332348D01*
X129567677Y-142300000D01*
X129645773Y-142267652D01*
X129760975Y-142190676D01*
X133090020Y-142190676D01*
X133090020Y-142409324D01*
X133132676Y-142623769D01*
X133216348Y-142825773D01*
X133337822Y-143007571D01*
X133492429Y-143162178D01*
X133674227Y-143283652D01*
X133876231Y-143367324D01*
X134090676Y-143409980D01*
X134309324Y-143409980D01*
X134523769Y-143367324D01*
X134725773Y-143283652D01*
X134907571Y-143162178D01*
X135062178Y-143007571D01*
X135183652Y-142825773D01*
X135267324Y-142623769D01*
X135309980Y-142409324D01*
X135309980Y-142190676D01*
X135272052Y-142000000D01*
X135365000Y-142000000D01*
X135365000Y-146000000D01*
X135377201Y-146123882D01*
X135413336Y-146243004D01*
X135472017Y-146352787D01*
X135550987Y-146449013D01*
X135647213Y-146527983D01*
X135756996Y-146586664D01*
X135876118Y-146622799D01*
X136000000Y-146635000D01*
X141000000Y-146635000D01*
X141123882Y-146622799D01*
X141243004Y-146586664D01*
X141352787Y-146527983D01*
X141449013Y-146449013D01*
X141527983Y-146352787D01*
X141586664Y-146243004D01*
X141622799Y-146123882D01*
X141635000Y-146000000D01*
X141635000Y-142000000D01*
X141622799Y-141876118D01*
X141586664Y-141756996D01*
X141527983Y-141647213D01*
X141449013Y-141550987D01*
X141352787Y-141472017D01*
X141243004Y-141413336D01*
X141123882Y-141377201D01*
X141000000Y-141365000D01*
X136000000Y-141365000D01*
X135876118Y-141377201D01*
X135756996Y-141413336D01*
X135647213Y-141472017D01*
X135550987Y-141550987D01*
X135472017Y-141647213D01*
X135413336Y-141756996D01*
X135377201Y-141876118D01*
X135365000Y-142000000D01*
X135272052Y-142000000D01*
X135267324Y-141976231D01*
X135183652Y-141774227D01*
X135062178Y-141592429D01*
X134907571Y-141437822D01*
X134725773Y-141316348D01*
X134523769Y-141232676D01*
X134309324Y-141190020D01*
X134090676Y-141190020D01*
X133876231Y-141232676D01*
X133674227Y-141316348D01*
X133492429Y-141437822D01*
X133337822Y-141592429D01*
X133216348Y-141774227D01*
X133132676Y-141976231D01*
X133090020Y-142190676D01*
X129760975Y-142190676D01*
X129827571Y-142146178D01*
X129982178Y-141991571D01*
X130103652Y-141809773D01*
X130187324Y-141607769D01*
X130229980Y-141393324D01*
X130229980Y-141174676D01*
X130187324Y-140960231D01*
X130103652Y-140758227D01*
X129982178Y-140576429D01*
X129827571Y-140421822D01*
X129645773Y-140300348D01*
X129443769Y-140216676D01*
X129229324Y-140174020D01*
X129010676Y-140174020D01*
X128796231Y-140216676D01*
X128594227Y-140300348D01*
X128412429Y-140421822D01*
X128257822Y-140576429D01*
X128136348Y-140758227D01*
X128052676Y-140960231D01*
X128010020Y-141174676D01*
X100660000Y-141174676D01*
X100660000Y-138635000D01*
X107000000Y-138635000D01*
X107123882Y-138622799D01*
X107243004Y-138586664D01*
X107352787Y-138527983D01*
X107379116Y-138506375D01*
X107382795Y-138515256D01*
X107496063Y-138684774D01*
X107640226Y-138828937D01*
X107809744Y-138942205D01*
X107998102Y-139020226D01*
X108198061Y-139060000D01*
X108401939Y-139060000D01*
X108601898Y-139020226D01*
X108657921Y-138997020D01*
X126563959Y-138997020D01*
X126563959Y-139200898D01*
X126603733Y-139400857D01*
X126681754Y-139589215D01*
X126795022Y-139758733D01*
X126939185Y-139902896D01*
X127108703Y-140016164D01*
X127297061Y-140094185D01*
X127497020Y-140133959D01*
X127700898Y-140133959D01*
X127900857Y-140094185D01*
X128089215Y-140016164D01*
X128258733Y-139902896D01*
X128301629Y-139860000D01*
X128696289Y-139860000D01*
X128740226Y-139903937D01*
X128909744Y-140017205D01*
X129098102Y-140095226D01*
X129298061Y-140135000D01*
X129501939Y-140135000D01*
X129701898Y-140095226D01*
X129890256Y-140017205D01*
X130059774Y-139903937D01*
X130203937Y-139759774D01*
X130317205Y-139590256D01*
X130395226Y-139401898D01*
X130435000Y-139201939D01*
X130435000Y-138998061D01*
X130395226Y-138798102D01*
X130317205Y-138609744D01*
X130203937Y-138440226D01*
X130059774Y-138296063D01*
X129890256Y-138182795D01*
X129701898Y-138104774D01*
X129501939Y-138065000D01*
X129298061Y-138065000D01*
X129098102Y-138104774D01*
X128909744Y-138182795D01*
X128740226Y-138296063D01*
X128696289Y-138340000D01*
X128303711Y-138340000D01*
X128258733Y-138295022D01*
X128089215Y-138181754D01*
X127900857Y-138103733D01*
X127700898Y-138063959D01*
X127497020Y-138063959D01*
X127297061Y-138103733D01*
X127108703Y-138181754D01*
X126939185Y-138295022D01*
X126795022Y-138439185D01*
X126681754Y-138608703D01*
X126603733Y-138797061D01*
X126563959Y-138997020D01*
X108657921Y-138997020D01*
X108790256Y-138942205D01*
X108959774Y-138828937D01*
X109103937Y-138684774D01*
X109217205Y-138515256D01*
X109295226Y-138326898D01*
X109335000Y-138126939D01*
X109335000Y-137923061D01*
X109295226Y-137723102D01*
X109217205Y-137534744D01*
X109185000Y-137486546D01*
X109185000Y-136938967D01*
X150665000Y-136938967D01*
X150665000Y-137261033D01*
X150727832Y-137576912D01*
X150851082Y-137874463D01*
X151030013Y-138142252D01*
X151257748Y-138369987D01*
X151525537Y-138548918D01*
X151823088Y-138672168D01*
X152138967Y-138735000D01*
X152461033Y-138735000D01*
X152776912Y-138672168D01*
X153074463Y-138548918D01*
X153342252Y-138369987D01*
X153569987Y-138142252D01*
X153748918Y-137874463D01*
X153872168Y-137576912D01*
X153935000Y-137261033D01*
X153935000Y-136938967D01*
X153872168Y-136623088D01*
X153748918Y-136325537D01*
X153569987Y-136057748D01*
X153342252Y-135830013D01*
X153074463Y-135651082D01*
X152776912Y-135527832D01*
X152461033Y-135465000D01*
X152138967Y-135465000D01*
X151823088Y-135527832D01*
X151525537Y-135651082D01*
X151257748Y-135830013D01*
X151030013Y-136057748D01*
X150851082Y-136325537D01*
X150727832Y-136623088D01*
X150665000Y-136938967D01*
X109185000Y-136938967D01*
X109185000Y-136938454D01*
X109217205Y-136890256D01*
X109295226Y-136701898D01*
X109335000Y-136501939D01*
X109335000Y-136298061D01*
X109295226Y-136098102D01*
X109217205Y-135909744D01*
X109103937Y-135740226D01*
X108959774Y-135596063D01*
X108790256Y-135482795D01*
X108601898Y-135404774D01*
X108401939Y-135365000D01*
X108198061Y-135365000D01*
X107998102Y-135404774D01*
X107809744Y-135482795D01*
X107640226Y-135596063D01*
X107635000Y-135601289D01*
X107635000Y-76635000D01*
X162365000Y-76635000D01*
X162365000Y-162000000D01*
%TO.N,+5V*%
G36*
X140873000Y-145873000D02*
G01*
X136127000Y-145873000D01*
X136127000Y-142127000D01*
X140873000Y-142127000D01*
X140873000Y-145873000D01*
G37*
X140873000Y-145873000D02*
X136127000Y-145873000D01*
X136127000Y-142127000D01*
X140873000Y-142127000D01*
X140873000Y-145873000D01*
%TD*%
M02*
