%TF.GenerationSoftware,KiCad,Pcbnew,5.1.6-1.fc32*%
%TF.CreationDate,2020-11-21T02:42:39+01:00*%
%TF.ProjectId,christmas-card,63687269-7374-46d6-9173-2d636172642e,rev?*%
%TF.SameCoordinates,Original*%
%TF.FileFunction,Paste,Top*%
%TF.FilePolarity,Positive*%
%FSLAX46Y46*%
G04 Gerber Fmt 4.6, Leading zero omitted, Abs format (unit mm)*
G04 Created by KiCad (PCBNEW 5.1.6-1.fc32) date 2020-11-21 02:42:39*
%MOMM*%
%LPD*%
G01*
G04 APERTURE LIST*
%ADD10R,1.500000X2.000000*%
%ADD11R,3.800000X2.000000*%
%ADD12R,1.500000X1.000000*%
G04 APERTURE END LIST*
%TO.C,C9*%
G36*
G01*
X156450000Y-161056250D02*
X156450000Y-160543750D01*
G75*
G02*
X156668750Y-160325000I218750J0D01*
G01*
X157106250Y-160325000D01*
G75*
G02*
X157325000Y-160543750I0J-218750D01*
G01*
X157325000Y-161056250D01*
G75*
G02*
X157106250Y-161275000I-218750J0D01*
G01*
X156668750Y-161275000D01*
G75*
G02*
X156450000Y-161056250I0J218750D01*
G01*
G37*
G36*
G01*
X154875000Y-161056250D02*
X154875000Y-160543750D01*
G75*
G02*
X155093750Y-160325000I218750J0D01*
G01*
X155531250Y-160325000D01*
G75*
G02*
X155750000Y-160543750I0J-218750D01*
G01*
X155750000Y-161056250D01*
G75*
G02*
X155531250Y-161275000I-218750J0D01*
G01*
X155093750Y-161275000D01*
G75*
G02*
X154875000Y-161056250I0J218750D01*
G01*
G37*
%TD*%
%TO.C,U3*%
G36*
G01*
X155445000Y-164000000D02*
X155145000Y-164000000D01*
G75*
G02*
X154995000Y-163850000I0J150000D01*
G01*
X154995000Y-162200000D01*
G75*
G02*
X155145000Y-162050000I150000J0D01*
G01*
X155445000Y-162050000D01*
G75*
G02*
X155595000Y-162200000I0J-150000D01*
G01*
X155595000Y-163850000D01*
G75*
G02*
X155445000Y-164000000I-150000J0D01*
G01*
G37*
G36*
G01*
X156715000Y-164000000D02*
X156415000Y-164000000D01*
G75*
G02*
X156265000Y-163850000I0J150000D01*
G01*
X156265000Y-162200000D01*
G75*
G02*
X156415000Y-162050000I150000J0D01*
G01*
X156715000Y-162050000D01*
G75*
G02*
X156865000Y-162200000I0J-150000D01*
G01*
X156865000Y-163850000D01*
G75*
G02*
X156715000Y-164000000I-150000J0D01*
G01*
G37*
G36*
G01*
X157985000Y-164000000D02*
X157685000Y-164000000D01*
G75*
G02*
X157535000Y-163850000I0J150000D01*
G01*
X157535000Y-162200000D01*
G75*
G02*
X157685000Y-162050000I150000J0D01*
G01*
X157985000Y-162050000D01*
G75*
G02*
X158135000Y-162200000I0J-150000D01*
G01*
X158135000Y-163850000D01*
G75*
G02*
X157985000Y-164000000I-150000J0D01*
G01*
G37*
G36*
G01*
X159255000Y-164000000D02*
X158955000Y-164000000D01*
G75*
G02*
X158805000Y-163850000I0J150000D01*
G01*
X158805000Y-162200000D01*
G75*
G02*
X158955000Y-162050000I150000J0D01*
G01*
X159255000Y-162050000D01*
G75*
G02*
X159405000Y-162200000I0J-150000D01*
G01*
X159405000Y-163850000D01*
G75*
G02*
X159255000Y-164000000I-150000J0D01*
G01*
G37*
G36*
G01*
X159255000Y-168950000D02*
X158955000Y-168950000D01*
G75*
G02*
X158805000Y-168800000I0J150000D01*
G01*
X158805000Y-167150000D01*
G75*
G02*
X158955000Y-167000000I150000J0D01*
G01*
X159255000Y-167000000D01*
G75*
G02*
X159405000Y-167150000I0J-150000D01*
G01*
X159405000Y-168800000D01*
G75*
G02*
X159255000Y-168950000I-150000J0D01*
G01*
G37*
G36*
G01*
X157985000Y-168950000D02*
X157685000Y-168950000D01*
G75*
G02*
X157535000Y-168800000I0J150000D01*
G01*
X157535000Y-167150000D01*
G75*
G02*
X157685000Y-167000000I150000J0D01*
G01*
X157985000Y-167000000D01*
G75*
G02*
X158135000Y-167150000I0J-150000D01*
G01*
X158135000Y-168800000D01*
G75*
G02*
X157985000Y-168950000I-150000J0D01*
G01*
G37*
G36*
G01*
X156715000Y-168950000D02*
X156415000Y-168950000D01*
G75*
G02*
X156265000Y-168800000I0J150000D01*
G01*
X156265000Y-167150000D01*
G75*
G02*
X156415000Y-167000000I150000J0D01*
G01*
X156715000Y-167000000D01*
G75*
G02*
X156865000Y-167150000I0J-150000D01*
G01*
X156865000Y-168800000D01*
G75*
G02*
X156715000Y-168950000I-150000J0D01*
G01*
G37*
G36*
G01*
X155445000Y-168950000D02*
X155145000Y-168950000D01*
G75*
G02*
X154995000Y-168800000I0J150000D01*
G01*
X154995000Y-167150000D01*
G75*
G02*
X155145000Y-167000000I150000J0D01*
G01*
X155445000Y-167000000D01*
G75*
G02*
X155595000Y-167150000I0J-150000D01*
G01*
X155595000Y-168800000D01*
G75*
G02*
X155445000Y-168950000I-150000J0D01*
G01*
G37*
%TD*%
%TO.C,R6*%
G36*
G01*
X107350000Y-144343750D02*
X107350000Y-144856250D01*
G75*
G02*
X107131250Y-145075000I-218750J0D01*
G01*
X106693750Y-145075000D01*
G75*
G02*
X106475000Y-144856250I0J218750D01*
G01*
X106475000Y-144343750D01*
G75*
G02*
X106693750Y-144125000I218750J0D01*
G01*
X107131250Y-144125000D01*
G75*
G02*
X107350000Y-144343750I0J-218750D01*
G01*
G37*
G36*
G01*
X108925000Y-144343750D02*
X108925000Y-144856250D01*
G75*
G02*
X108706250Y-145075000I-218750J0D01*
G01*
X108268750Y-145075000D01*
G75*
G02*
X108050000Y-144856250I0J218750D01*
G01*
X108050000Y-144343750D01*
G75*
G02*
X108268750Y-144125000I218750J0D01*
G01*
X108706250Y-144125000D01*
G75*
G02*
X108925000Y-144343750I0J-218750D01*
G01*
G37*
%TD*%
%TO.C,R5*%
G36*
G01*
X125550000Y-143656250D02*
X125550000Y-143143750D01*
G75*
G02*
X125768750Y-142925000I218750J0D01*
G01*
X126206250Y-142925000D01*
G75*
G02*
X126425000Y-143143750I0J-218750D01*
G01*
X126425000Y-143656250D01*
G75*
G02*
X126206250Y-143875000I-218750J0D01*
G01*
X125768750Y-143875000D01*
G75*
G02*
X125550000Y-143656250I0J218750D01*
G01*
G37*
G36*
G01*
X123975000Y-143656250D02*
X123975000Y-143143750D01*
G75*
G02*
X124193750Y-142925000I218750J0D01*
G01*
X124631250Y-142925000D01*
G75*
G02*
X124850000Y-143143750I0J-218750D01*
G01*
X124850000Y-143656250D01*
G75*
G02*
X124631250Y-143875000I-218750J0D01*
G01*
X124193750Y-143875000D01*
G75*
G02*
X123975000Y-143656250I0J218750D01*
G01*
G37*
%TD*%
%TO.C,R4*%
G36*
G01*
X147043750Y-162150000D02*
X147556250Y-162150000D01*
G75*
G02*
X147775000Y-162368750I0J-218750D01*
G01*
X147775000Y-162806250D01*
G75*
G02*
X147556250Y-163025000I-218750J0D01*
G01*
X147043750Y-163025000D01*
G75*
G02*
X146825000Y-162806250I0J218750D01*
G01*
X146825000Y-162368750D01*
G75*
G02*
X147043750Y-162150000I218750J0D01*
G01*
G37*
G36*
G01*
X147043750Y-160575000D02*
X147556250Y-160575000D01*
G75*
G02*
X147775000Y-160793750I0J-218750D01*
G01*
X147775000Y-161231250D01*
G75*
G02*
X147556250Y-161450000I-218750J0D01*
G01*
X147043750Y-161450000D01*
G75*
G02*
X146825000Y-161231250I0J218750D01*
G01*
X146825000Y-160793750D01*
G75*
G02*
X147043750Y-160575000I218750J0D01*
G01*
G37*
%TD*%
%TO.C,R3*%
G36*
G01*
X144243750Y-162150000D02*
X144756250Y-162150000D01*
G75*
G02*
X144975000Y-162368750I0J-218750D01*
G01*
X144975000Y-162806250D01*
G75*
G02*
X144756250Y-163025000I-218750J0D01*
G01*
X144243750Y-163025000D01*
G75*
G02*
X144025000Y-162806250I0J218750D01*
G01*
X144025000Y-162368750D01*
G75*
G02*
X144243750Y-162150000I218750J0D01*
G01*
G37*
G36*
G01*
X144243750Y-160575000D02*
X144756250Y-160575000D01*
G75*
G02*
X144975000Y-160793750I0J-218750D01*
G01*
X144975000Y-161231250D01*
G75*
G02*
X144756250Y-161450000I-218750J0D01*
G01*
X144243750Y-161450000D01*
G75*
G02*
X144025000Y-161231250I0J218750D01*
G01*
X144025000Y-160793750D01*
G75*
G02*
X144243750Y-160575000I218750J0D01*
G01*
G37*
%TD*%
%TO.C,U2*%
G36*
G01*
X121175000Y-140400000D02*
X122575000Y-140400000D01*
G75*
G02*
X122650000Y-140475000I0J-75000D01*
G01*
X122650000Y-140625000D01*
G75*
G02*
X122575000Y-140700000I-75000J0D01*
G01*
X121175000Y-140700000D01*
G75*
G02*
X121100000Y-140625000I0J75000D01*
G01*
X121100000Y-140475000D01*
G75*
G02*
X121175000Y-140400000I75000J0D01*
G01*
G37*
G36*
G01*
X121175000Y-140900000D02*
X122575000Y-140900000D01*
G75*
G02*
X122650000Y-140975000I0J-75000D01*
G01*
X122650000Y-141125000D01*
G75*
G02*
X122575000Y-141200000I-75000J0D01*
G01*
X121175000Y-141200000D01*
G75*
G02*
X121100000Y-141125000I0J75000D01*
G01*
X121100000Y-140975000D01*
G75*
G02*
X121175000Y-140900000I75000J0D01*
G01*
G37*
G36*
G01*
X121175000Y-141400000D02*
X122575000Y-141400000D01*
G75*
G02*
X122650000Y-141475000I0J-75000D01*
G01*
X122650000Y-141625000D01*
G75*
G02*
X122575000Y-141700000I-75000J0D01*
G01*
X121175000Y-141700000D01*
G75*
G02*
X121100000Y-141625000I0J75000D01*
G01*
X121100000Y-141475000D01*
G75*
G02*
X121175000Y-141400000I75000J0D01*
G01*
G37*
G36*
G01*
X121175000Y-141900000D02*
X122575000Y-141900000D01*
G75*
G02*
X122650000Y-141975000I0J-75000D01*
G01*
X122650000Y-142125000D01*
G75*
G02*
X122575000Y-142200000I-75000J0D01*
G01*
X121175000Y-142200000D01*
G75*
G02*
X121100000Y-142125000I0J75000D01*
G01*
X121100000Y-141975000D01*
G75*
G02*
X121175000Y-141900000I75000J0D01*
G01*
G37*
G36*
G01*
X121175000Y-142400000D02*
X122575000Y-142400000D01*
G75*
G02*
X122650000Y-142475000I0J-75000D01*
G01*
X122650000Y-142625000D01*
G75*
G02*
X122575000Y-142700000I-75000J0D01*
G01*
X121175000Y-142700000D01*
G75*
G02*
X121100000Y-142625000I0J75000D01*
G01*
X121100000Y-142475000D01*
G75*
G02*
X121175000Y-142400000I75000J0D01*
G01*
G37*
G36*
G01*
X121175000Y-142900000D02*
X122575000Y-142900000D01*
G75*
G02*
X122650000Y-142975000I0J-75000D01*
G01*
X122650000Y-143125000D01*
G75*
G02*
X122575000Y-143200000I-75000J0D01*
G01*
X121175000Y-143200000D01*
G75*
G02*
X121100000Y-143125000I0J75000D01*
G01*
X121100000Y-142975000D01*
G75*
G02*
X121175000Y-142900000I75000J0D01*
G01*
G37*
G36*
G01*
X121175000Y-143400000D02*
X122575000Y-143400000D01*
G75*
G02*
X122650000Y-143475000I0J-75000D01*
G01*
X122650000Y-143625000D01*
G75*
G02*
X122575000Y-143700000I-75000J0D01*
G01*
X121175000Y-143700000D01*
G75*
G02*
X121100000Y-143625000I0J75000D01*
G01*
X121100000Y-143475000D01*
G75*
G02*
X121175000Y-143400000I75000J0D01*
G01*
G37*
G36*
G01*
X121175000Y-143900000D02*
X122575000Y-143900000D01*
G75*
G02*
X122650000Y-143975000I0J-75000D01*
G01*
X122650000Y-144125000D01*
G75*
G02*
X122575000Y-144200000I-75000J0D01*
G01*
X121175000Y-144200000D01*
G75*
G02*
X121100000Y-144125000I0J75000D01*
G01*
X121100000Y-143975000D01*
G75*
G02*
X121175000Y-143900000I75000J0D01*
G01*
G37*
G36*
G01*
X121175000Y-144400000D02*
X122575000Y-144400000D01*
G75*
G02*
X122650000Y-144475000I0J-75000D01*
G01*
X122650000Y-144625000D01*
G75*
G02*
X122575000Y-144700000I-75000J0D01*
G01*
X121175000Y-144700000D01*
G75*
G02*
X121100000Y-144625000I0J75000D01*
G01*
X121100000Y-144475000D01*
G75*
G02*
X121175000Y-144400000I75000J0D01*
G01*
G37*
G36*
G01*
X121175000Y-144900000D02*
X122575000Y-144900000D01*
G75*
G02*
X122650000Y-144975000I0J-75000D01*
G01*
X122650000Y-145125000D01*
G75*
G02*
X122575000Y-145200000I-75000J0D01*
G01*
X121175000Y-145200000D01*
G75*
G02*
X121100000Y-145125000I0J75000D01*
G01*
X121100000Y-144975000D01*
G75*
G02*
X121175000Y-144900000I75000J0D01*
G01*
G37*
G36*
G01*
X121175000Y-145400000D02*
X122575000Y-145400000D01*
G75*
G02*
X122650000Y-145475000I0J-75000D01*
G01*
X122650000Y-145625000D01*
G75*
G02*
X122575000Y-145700000I-75000J0D01*
G01*
X121175000Y-145700000D01*
G75*
G02*
X121100000Y-145625000I0J75000D01*
G01*
X121100000Y-145475000D01*
G75*
G02*
X121175000Y-145400000I75000J0D01*
G01*
G37*
G36*
G01*
X121175000Y-145900000D02*
X122575000Y-145900000D01*
G75*
G02*
X122650000Y-145975000I0J-75000D01*
G01*
X122650000Y-146125000D01*
G75*
G02*
X122575000Y-146200000I-75000J0D01*
G01*
X121175000Y-146200000D01*
G75*
G02*
X121100000Y-146125000I0J75000D01*
G01*
X121100000Y-145975000D01*
G75*
G02*
X121175000Y-145900000I75000J0D01*
G01*
G37*
G36*
G01*
X121175000Y-146400000D02*
X122575000Y-146400000D01*
G75*
G02*
X122650000Y-146475000I0J-75000D01*
G01*
X122650000Y-146625000D01*
G75*
G02*
X122575000Y-146700000I-75000J0D01*
G01*
X121175000Y-146700000D01*
G75*
G02*
X121100000Y-146625000I0J75000D01*
G01*
X121100000Y-146475000D01*
G75*
G02*
X121175000Y-146400000I75000J0D01*
G01*
G37*
G36*
G01*
X121175000Y-146900000D02*
X122575000Y-146900000D01*
G75*
G02*
X122650000Y-146975000I0J-75000D01*
G01*
X122650000Y-147125000D01*
G75*
G02*
X122575000Y-147200000I-75000J0D01*
G01*
X121175000Y-147200000D01*
G75*
G02*
X121100000Y-147125000I0J75000D01*
G01*
X121100000Y-146975000D01*
G75*
G02*
X121175000Y-146900000I75000J0D01*
G01*
G37*
G36*
G01*
X121175000Y-147400000D02*
X122575000Y-147400000D01*
G75*
G02*
X122650000Y-147475000I0J-75000D01*
G01*
X122650000Y-147625000D01*
G75*
G02*
X122575000Y-147700000I-75000J0D01*
G01*
X121175000Y-147700000D01*
G75*
G02*
X121100000Y-147625000I0J75000D01*
G01*
X121100000Y-147475000D01*
G75*
G02*
X121175000Y-147400000I75000J0D01*
G01*
G37*
G36*
G01*
X121175000Y-147900000D02*
X122575000Y-147900000D01*
G75*
G02*
X122650000Y-147975000I0J-75000D01*
G01*
X122650000Y-148125000D01*
G75*
G02*
X122575000Y-148200000I-75000J0D01*
G01*
X121175000Y-148200000D01*
G75*
G02*
X121100000Y-148125000I0J75000D01*
G01*
X121100000Y-147975000D01*
G75*
G02*
X121175000Y-147900000I75000J0D01*
G01*
G37*
G36*
G01*
X119875000Y-149200000D02*
X120025000Y-149200000D01*
G75*
G02*
X120100000Y-149275000I0J-75000D01*
G01*
X120100000Y-150675000D01*
G75*
G02*
X120025000Y-150750000I-75000J0D01*
G01*
X119875000Y-150750000D01*
G75*
G02*
X119800000Y-150675000I0J75000D01*
G01*
X119800000Y-149275000D01*
G75*
G02*
X119875000Y-149200000I75000J0D01*
G01*
G37*
G36*
G01*
X119375000Y-149200000D02*
X119525000Y-149200000D01*
G75*
G02*
X119600000Y-149275000I0J-75000D01*
G01*
X119600000Y-150675000D01*
G75*
G02*
X119525000Y-150750000I-75000J0D01*
G01*
X119375000Y-150750000D01*
G75*
G02*
X119300000Y-150675000I0J75000D01*
G01*
X119300000Y-149275000D01*
G75*
G02*
X119375000Y-149200000I75000J0D01*
G01*
G37*
G36*
G01*
X118875000Y-149200000D02*
X119025000Y-149200000D01*
G75*
G02*
X119100000Y-149275000I0J-75000D01*
G01*
X119100000Y-150675000D01*
G75*
G02*
X119025000Y-150750000I-75000J0D01*
G01*
X118875000Y-150750000D01*
G75*
G02*
X118800000Y-150675000I0J75000D01*
G01*
X118800000Y-149275000D01*
G75*
G02*
X118875000Y-149200000I75000J0D01*
G01*
G37*
G36*
G01*
X118375000Y-149200000D02*
X118525000Y-149200000D01*
G75*
G02*
X118600000Y-149275000I0J-75000D01*
G01*
X118600000Y-150675000D01*
G75*
G02*
X118525000Y-150750000I-75000J0D01*
G01*
X118375000Y-150750000D01*
G75*
G02*
X118300000Y-150675000I0J75000D01*
G01*
X118300000Y-149275000D01*
G75*
G02*
X118375000Y-149200000I75000J0D01*
G01*
G37*
G36*
G01*
X117875000Y-149200000D02*
X118025000Y-149200000D01*
G75*
G02*
X118100000Y-149275000I0J-75000D01*
G01*
X118100000Y-150675000D01*
G75*
G02*
X118025000Y-150750000I-75000J0D01*
G01*
X117875000Y-150750000D01*
G75*
G02*
X117800000Y-150675000I0J75000D01*
G01*
X117800000Y-149275000D01*
G75*
G02*
X117875000Y-149200000I75000J0D01*
G01*
G37*
G36*
G01*
X117375000Y-149200000D02*
X117525000Y-149200000D01*
G75*
G02*
X117600000Y-149275000I0J-75000D01*
G01*
X117600000Y-150675000D01*
G75*
G02*
X117525000Y-150750000I-75000J0D01*
G01*
X117375000Y-150750000D01*
G75*
G02*
X117300000Y-150675000I0J75000D01*
G01*
X117300000Y-149275000D01*
G75*
G02*
X117375000Y-149200000I75000J0D01*
G01*
G37*
G36*
G01*
X116875000Y-149200000D02*
X117025000Y-149200000D01*
G75*
G02*
X117100000Y-149275000I0J-75000D01*
G01*
X117100000Y-150675000D01*
G75*
G02*
X117025000Y-150750000I-75000J0D01*
G01*
X116875000Y-150750000D01*
G75*
G02*
X116800000Y-150675000I0J75000D01*
G01*
X116800000Y-149275000D01*
G75*
G02*
X116875000Y-149200000I75000J0D01*
G01*
G37*
G36*
G01*
X116375000Y-149200000D02*
X116525000Y-149200000D01*
G75*
G02*
X116600000Y-149275000I0J-75000D01*
G01*
X116600000Y-150675000D01*
G75*
G02*
X116525000Y-150750000I-75000J0D01*
G01*
X116375000Y-150750000D01*
G75*
G02*
X116300000Y-150675000I0J75000D01*
G01*
X116300000Y-149275000D01*
G75*
G02*
X116375000Y-149200000I75000J0D01*
G01*
G37*
G36*
G01*
X115875000Y-149200000D02*
X116025000Y-149200000D01*
G75*
G02*
X116100000Y-149275000I0J-75000D01*
G01*
X116100000Y-150675000D01*
G75*
G02*
X116025000Y-150750000I-75000J0D01*
G01*
X115875000Y-150750000D01*
G75*
G02*
X115800000Y-150675000I0J75000D01*
G01*
X115800000Y-149275000D01*
G75*
G02*
X115875000Y-149200000I75000J0D01*
G01*
G37*
G36*
G01*
X115375000Y-149200000D02*
X115525000Y-149200000D01*
G75*
G02*
X115600000Y-149275000I0J-75000D01*
G01*
X115600000Y-150675000D01*
G75*
G02*
X115525000Y-150750000I-75000J0D01*
G01*
X115375000Y-150750000D01*
G75*
G02*
X115300000Y-150675000I0J75000D01*
G01*
X115300000Y-149275000D01*
G75*
G02*
X115375000Y-149200000I75000J0D01*
G01*
G37*
G36*
G01*
X114875000Y-149200000D02*
X115025000Y-149200000D01*
G75*
G02*
X115100000Y-149275000I0J-75000D01*
G01*
X115100000Y-150675000D01*
G75*
G02*
X115025000Y-150750000I-75000J0D01*
G01*
X114875000Y-150750000D01*
G75*
G02*
X114800000Y-150675000I0J75000D01*
G01*
X114800000Y-149275000D01*
G75*
G02*
X114875000Y-149200000I75000J0D01*
G01*
G37*
G36*
G01*
X114375000Y-149200000D02*
X114525000Y-149200000D01*
G75*
G02*
X114600000Y-149275000I0J-75000D01*
G01*
X114600000Y-150675000D01*
G75*
G02*
X114525000Y-150750000I-75000J0D01*
G01*
X114375000Y-150750000D01*
G75*
G02*
X114300000Y-150675000I0J75000D01*
G01*
X114300000Y-149275000D01*
G75*
G02*
X114375000Y-149200000I75000J0D01*
G01*
G37*
G36*
G01*
X113875000Y-149200000D02*
X114025000Y-149200000D01*
G75*
G02*
X114100000Y-149275000I0J-75000D01*
G01*
X114100000Y-150675000D01*
G75*
G02*
X114025000Y-150750000I-75000J0D01*
G01*
X113875000Y-150750000D01*
G75*
G02*
X113800000Y-150675000I0J75000D01*
G01*
X113800000Y-149275000D01*
G75*
G02*
X113875000Y-149200000I75000J0D01*
G01*
G37*
G36*
G01*
X113375000Y-149200000D02*
X113525000Y-149200000D01*
G75*
G02*
X113600000Y-149275000I0J-75000D01*
G01*
X113600000Y-150675000D01*
G75*
G02*
X113525000Y-150750000I-75000J0D01*
G01*
X113375000Y-150750000D01*
G75*
G02*
X113300000Y-150675000I0J75000D01*
G01*
X113300000Y-149275000D01*
G75*
G02*
X113375000Y-149200000I75000J0D01*
G01*
G37*
G36*
G01*
X112875000Y-149200000D02*
X113025000Y-149200000D01*
G75*
G02*
X113100000Y-149275000I0J-75000D01*
G01*
X113100000Y-150675000D01*
G75*
G02*
X113025000Y-150750000I-75000J0D01*
G01*
X112875000Y-150750000D01*
G75*
G02*
X112800000Y-150675000I0J75000D01*
G01*
X112800000Y-149275000D01*
G75*
G02*
X112875000Y-149200000I75000J0D01*
G01*
G37*
G36*
G01*
X112375000Y-149200000D02*
X112525000Y-149200000D01*
G75*
G02*
X112600000Y-149275000I0J-75000D01*
G01*
X112600000Y-150675000D01*
G75*
G02*
X112525000Y-150750000I-75000J0D01*
G01*
X112375000Y-150750000D01*
G75*
G02*
X112300000Y-150675000I0J75000D01*
G01*
X112300000Y-149275000D01*
G75*
G02*
X112375000Y-149200000I75000J0D01*
G01*
G37*
G36*
G01*
X109825000Y-147900000D02*
X111225000Y-147900000D01*
G75*
G02*
X111300000Y-147975000I0J-75000D01*
G01*
X111300000Y-148125000D01*
G75*
G02*
X111225000Y-148200000I-75000J0D01*
G01*
X109825000Y-148200000D01*
G75*
G02*
X109750000Y-148125000I0J75000D01*
G01*
X109750000Y-147975000D01*
G75*
G02*
X109825000Y-147900000I75000J0D01*
G01*
G37*
G36*
G01*
X109825000Y-147400000D02*
X111225000Y-147400000D01*
G75*
G02*
X111300000Y-147475000I0J-75000D01*
G01*
X111300000Y-147625000D01*
G75*
G02*
X111225000Y-147700000I-75000J0D01*
G01*
X109825000Y-147700000D01*
G75*
G02*
X109750000Y-147625000I0J75000D01*
G01*
X109750000Y-147475000D01*
G75*
G02*
X109825000Y-147400000I75000J0D01*
G01*
G37*
G36*
G01*
X109825000Y-146900000D02*
X111225000Y-146900000D01*
G75*
G02*
X111300000Y-146975000I0J-75000D01*
G01*
X111300000Y-147125000D01*
G75*
G02*
X111225000Y-147200000I-75000J0D01*
G01*
X109825000Y-147200000D01*
G75*
G02*
X109750000Y-147125000I0J75000D01*
G01*
X109750000Y-146975000D01*
G75*
G02*
X109825000Y-146900000I75000J0D01*
G01*
G37*
G36*
G01*
X109825000Y-146400000D02*
X111225000Y-146400000D01*
G75*
G02*
X111300000Y-146475000I0J-75000D01*
G01*
X111300000Y-146625000D01*
G75*
G02*
X111225000Y-146700000I-75000J0D01*
G01*
X109825000Y-146700000D01*
G75*
G02*
X109750000Y-146625000I0J75000D01*
G01*
X109750000Y-146475000D01*
G75*
G02*
X109825000Y-146400000I75000J0D01*
G01*
G37*
G36*
G01*
X109825000Y-145900000D02*
X111225000Y-145900000D01*
G75*
G02*
X111300000Y-145975000I0J-75000D01*
G01*
X111300000Y-146125000D01*
G75*
G02*
X111225000Y-146200000I-75000J0D01*
G01*
X109825000Y-146200000D01*
G75*
G02*
X109750000Y-146125000I0J75000D01*
G01*
X109750000Y-145975000D01*
G75*
G02*
X109825000Y-145900000I75000J0D01*
G01*
G37*
G36*
G01*
X109825000Y-145400000D02*
X111225000Y-145400000D01*
G75*
G02*
X111300000Y-145475000I0J-75000D01*
G01*
X111300000Y-145625000D01*
G75*
G02*
X111225000Y-145700000I-75000J0D01*
G01*
X109825000Y-145700000D01*
G75*
G02*
X109750000Y-145625000I0J75000D01*
G01*
X109750000Y-145475000D01*
G75*
G02*
X109825000Y-145400000I75000J0D01*
G01*
G37*
G36*
G01*
X109825000Y-144900000D02*
X111225000Y-144900000D01*
G75*
G02*
X111300000Y-144975000I0J-75000D01*
G01*
X111300000Y-145125000D01*
G75*
G02*
X111225000Y-145200000I-75000J0D01*
G01*
X109825000Y-145200000D01*
G75*
G02*
X109750000Y-145125000I0J75000D01*
G01*
X109750000Y-144975000D01*
G75*
G02*
X109825000Y-144900000I75000J0D01*
G01*
G37*
G36*
G01*
X109825000Y-144400000D02*
X111225000Y-144400000D01*
G75*
G02*
X111300000Y-144475000I0J-75000D01*
G01*
X111300000Y-144625000D01*
G75*
G02*
X111225000Y-144700000I-75000J0D01*
G01*
X109825000Y-144700000D01*
G75*
G02*
X109750000Y-144625000I0J75000D01*
G01*
X109750000Y-144475000D01*
G75*
G02*
X109825000Y-144400000I75000J0D01*
G01*
G37*
G36*
G01*
X109825000Y-143900000D02*
X111225000Y-143900000D01*
G75*
G02*
X111300000Y-143975000I0J-75000D01*
G01*
X111300000Y-144125000D01*
G75*
G02*
X111225000Y-144200000I-75000J0D01*
G01*
X109825000Y-144200000D01*
G75*
G02*
X109750000Y-144125000I0J75000D01*
G01*
X109750000Y-143975000D01*
G75*
G02*
X109825000Y-143900000I75000J0D01*
G01*
G37*
G36*
G01*
X109825000Y-143400000D02*
X111225000Y-143400000D01*
G75*
G02*
X111300000Y-143475000I0J-75000D01*
G01*
X111300000Y-143625000D01*
G75*
G02*
X111225000Y-143700000I-75000J0D01*
G01*
X109825000Y-143700000D01*
G75*
G02*
X109750000Y-143625000I0J75000D01*
G01*
X109750000Y-143475000D01*
G75*
G02*
X109825000Y-143400000I75000J0D01*
G01*
G37*
G36*
G01*
X109825000Y-142900000D02*
X111225000Y-142900000D01*
G75*
G02*
X111300000Y-142975000I0J-75000D01*
G01*
X111300000Y-143125000D01*
G75*
G02*
X111225000Y-143200000I-75000J0D01*
G01*
X109825000Y-143200000D01*
G75*
G02*
X109750000Y-143125000I0J75000D01*
G01*
X109750000Y-142975000D01*
G75*
G02*
X109825000Y-142900000I75000J0D01*
G01*
G37*
G36*
G01*
X109825000Y-142400000D02*
X111225000Y-142400000D01*
G75*
G02*
X111300000Y-142475000I0J-75000D01*
G01*
X111300000Y-142625000D01*
G75*
G02*
X111225000Y-142700000I-75000J0D01*
G01*
X109825000Y-142700000D01*
G75*
G02*
X109750000Y-142625000I0J75000D01*
G01*
X109750000Y-142475000D01*
G75*
G02*
X109825000Y-142400000I75000J0D01*
G01*
G37*
G36*
G01*
X109825000Y-141900000D02*
X111225000Y-141900000D01*
G75*
G02*
X111300000Y-141975000I0J-75000D01*
G01*
X111300000Y-142125000D01*
G75*
G02*
X111225000Y-142200000I-75000J0D01*
G01*
X109825000Y-142200000D01*
G75*
G02*
X109750000Y-142125000I0J75000D01*
G01*
X109750000Y-141975000D01*
G75*
G02*
X109825000Y-141900000I75000J0D01*
G01*
G37*
G36*
G01*
X109825000Y-141400000D02*
X111225000Y-141400000D01*
G75*
G02*
X111300000Y-141475000I0J-75000D01*
G01*
X111300000Y-141625000D01*
G75*
G02*
X111225000Y-141700000I-75000J0D01*
G01*
X109825000Y-141700000D01*
G75*
G02*
X109750000Y-141625000I0J75000D01*
G01*
X109750000Y-141475000D01*
G75*
G02*
X109825000Y-141400000I75000J0D01*
G01*
G37*
G36*
G01*
X109825000Y-140900000D02*
X111225000Y-140900000D01*
G75*
G02*
X111300000Y-140975000I0J-75000D01*
G01*
X111300000Y-141125000D01*
G75*
G02*
X111225000Y-141200000I-75000J0D01*
G01*
X109825000Y-141200000D01*
G75*
G02*
X109750000Y-141125000I0J75000D01*
G01*
X109750000Y-140975000D01*
G75*
G02*
X109825000Y-140900000I75000J0D01*
G01*
G37*
G36*
G01*
X109825000Y-140400000D02*
X111225000Y-140400000D01*
G75*
G02*
X111300000Y-140475000I0J-75000D01*
G01*
X111300000Y-140625000D01*
G75*
G02*
X111225000Y-140700000I-75000J0D01*
G01*
X109825000Y-140700000D01*
G75*
G02*
X109750000Y-140625000I0J75000D01*
G01*
X109750000Y-140475000D01*
G75*
G02*
X109825000Y-140400000I75000J0D01*
G01*
G37*
G36*
G01*
X112375000Y-137850000D02*
X112525000Y-137850000D01*
G75*
G02*
X112600000Y-137925000I0J-75000D01*
G01*
X112600000Y-139325000D01*
G75*
G02*
X112525000Y-139400000I-75000J0D01*
G01*
X112375000Y-139400000D01*
G75*
G02*
X112300000Y-139325000I0J75000D01*
G01*
X112300000Y-137925000D01*
G75*
G02*
X112375000Y-137850000I75000J0D01*
G01*
G37*
G36*
G01*
X112875000Y-137850000D02*
X113025000Y-137850000D01*
G75*
G02*
X113100000Y-137925000I0J-75000D01*
G01*
X113100000Y-139325000D01*
G75*
G02*
X113025000Y-139400000I-75000J0D01*
G01*
X112875000Y-139400000D01*
G75*
G02*
X112800000Y-139325000I0J75000D01*
G01*
X112800000Y-137925000D01*
G75*
G02*
X112875000Y-137850000I75000J0D01*
G01*
G37*
G36*
G01*
X113375000Y-137850000D02*
X113525000Y-137850000D01*
G75*
G02*
X113600000Y-137925000I0J-75000D01*
G01*
X113600000Y-139325000D01*
G75*
G02*
X113525000Y-139400000I-75000J0D01*
G01*
X113375000Y-139400000D01*
G75*
G02*
X113300000Y-139325000I0J75000D01*
G01*
X113300000Y-137925000D01*
G75*
G02*
X113375000Y-137850000I75000J0D01*
G01*
G37*
G36*
G01*
X113875000Y-137850000D02*
X114025000Y-137850000D01*
G75*
G02*
X114100000Y-137925000I0J-75000D01*
G01*
X114100000Y-139325000D01*
G75*
G02*
X114025000Y-139400000I-75000J0D01*
G01*
X113875000Y-139400000D01*
G75*
G02*
X113800000Y-139325000I0J75000D01*
G01*
X113800000Y-137925000D01*
G75*
G02*
X113875000Y-137850000I75000J0D01*
G01*
G37*
G36*
G01*
X114375000Y-137850000D02*
X114525000Y-137850000D01*
G75*
G02*
X114600000Y-137925000I0J-75000D01*
G01*
X114600000Y-139325000D01*
G75*
G02*
X114525000Y-139400000I-75000J0D01*
G01*
X114375000Y-139400000D01*
G75*
G02*
X114300000Y-139325000I0J75000D01*
G01*
X114300000Y-137925000D01*
G75*
G02*
X114375000Y-137850000I75000J0D01*
G01*
G37*
G36*
G01*
X114875000Y-137850000D02*
X115025000Y-137850000D01*
G75*
G02*
X115100000Y-137925000I0J-75000D01*
G01*
X115100000Y-139325000D01*
G75*
G02*
X115025000Y-139400000I-75000J0D01*
G01*
X114875000Y-139400000D01*
G75*
G02*
X114800000Y-139325000I0J75000D01*
G01*
X114800000Y-137925000D01*
G75*
G02*
X114875000Y-137850000I75000J0D01*
G01*
G37*
G36*
G01*
X115375000Y-137850000D02*
X115525000Y-137850000D01*
G75*
G02*
X115600000Y-137925000I0J-75000D01*
G01*
X115600000Y-139325000D01*
G75*
G02*
X115525000Y-139400000I-75000J0D01*
G01*
X115375000Y-139400000D01*
G75*
G02*
X115300000Y-139325000I0J75000D01*
G01*
X115300000Y-137925000D01*
G75*
G02*
X115375000Y-137850000I75000J0D01*
G01*
G37*
G36*
G01*
X115875000Y-137850000D02*
X116025000Y-137850000D01*
G75*
G02*
X116100000Y-137925000I0J-75000D01*
G01*
X116100000Y-139325000D01*
G75*
G02*
X116025000Y-139400000I-75000J0D01*
G01*
X115875000Y-139400000D01*
G75*
G02*
X115800000Y-139325000I0J75000D01*
G01*
X115800000Y-137925000D01*
G75*
G02*
X115875000Y-137850000I75000J0D01*
G01*
G37*
G36*
G01*
X116375000Y-137850000D02*
X116525000Y-137850000D01*
G75*
G02*
X116600000Y-137925000I0J-75000D01*
G01*
X116600000Y-139325000D01*
G75*
G02*
X116525000Y-139400000I-75000J0D01*
G01*
X116375000Y-139400000D01*
G75*
G02*
X116300000Y-139325000I0J75000D01*
G01*
X116300000Y-137925000D01*
G75*
G02*
X116375000Y-137850000I75000J0D01*
G01*
G37*
G36*
G01*
X116875000Y-137850000D02*
X117025000Y-137850000D01*
G75*
G02*
X117100000Y-137925000I0J-75000D01*
G01*
X117100000Y-139325000D01*
G75*
G02*
X117025000Y-139400000I-75000J0D01*
G01*
X116875000Y-139400000D01*
G75*
G02*
X116800000Y-139325000I0J75000D01*
G01*
X116800000Y-137925000D01*
G75*
G02*
X116875000Y-137850000I75000J0D01*
G01*
G37*
G36*
G01*
X117375000Y-137850000D02*
X117525000Y-137850000D01*
G75*
G02*
X117600000Y-137925000I0J-75000D01*
G01*
X117600000Y-139325000D01*
G75*
G02*
X117525000Y-139400000I-75000J0D01*
G01*
X117375000Y-139400000D01*
G75*
G02*
X117300000Y-139325000I0J75000D01*
G01*
X117300000Y-137925000D01*
G75*
G02*
X117375000Y-137850000I75000J0D01*
G01*
G37*
G36*
G01*
X117875000Y-137850000D02*
X118025000Y-137850000D01*
G75*
G02*
X118100000Y-137925000I0J-75000D01*
G01*
X118100000Y-139325000D01*
G75*
G02*
X118025000Y-139400000I-75000J0D01*
G01*
X117875000Y-139400000D01*
G75*
G02*
X117800000Y-139325000I0J75000D01*
G01*
X117800000Y-137925000D01*
G75*
G02*
X117875000Y-137850000I75000J0D01*
G01*
G37*
G36*
G01*
X118375000Y-137850000D02*
X118525000Y-137850000D01*
G75*
G02*
X118600000Y-137925000I0J-75000D01*
G01*
X118600000Y-139325000D01*
G75*
G02*
X118525000Y-139400000I-75000J0D01*
G01*
X118375000Y-139400000D01*
G75*
G02*
X118300000Y-139325000I0J75000D01*
G01*
X118300000Y-137925000D01*
G75*
G02*
X118375000Y-137850000I75000J0D01*
G01*
G37*
G36*
G01*
X118875000Y-137850000D02*
X119025000Y-137850000D01*
G75*
G02*
X119100000Y-137925000I0J-75000D01*
G01*
X119100000Y-139325000D01*
G75*
G02*
X119025000Y-139400000I-75000J0D01*
G01*
X118875000Y-139400000D01*
G75*
G02*
X118800000Y-139325000I0J75000D01*
G01*
X118800000Y-137925000D01*
G75*
G02*
X118875000Y-137850000I75000J0D01*
G01*
G37*
G36*
G01*
X119375000Y-137850000D02*
X119525000Y-137850000D01*
G75*
G02*
X119600000Y-137925000I0J-75000D01*
G01*
X119600000Y-139325000D01*
G75*
G02*
X119525000Y-139400000I-75000J0D01*
G01*
X119375000Y-139400000D01*
G75*
G02*
X119300000Y-139325000I0J75000D01*
G01*
X119300000Y-137925000D01*
G75*
G02*
X119375000Y-137850000I75000J0D01*
G01*
G37*
G36*
G01*
X119875000Y-137850000D02*
X120025000Y-137850000D01*
G75*
G02*
X120100000Y-137925000I0J-75000D01*
G01*
X120100000Y-139325000D01*
G75*
G02*
X120025000Y-139400000I-75000J0D01*
G01*
X119875000Y-139400000D01*
G75*
G02*
X119800000Y-139325000I0J75000D01*
G01*
X119800000Y-137925000D01*
G75*
G02*
X119875000Y-137850000I75000J0D01*
G01*
G37*
%TD*%
D10*
%TO.C,U1*%
X135500000Y-154450000D03*
X130900000Y-154450000D03*
X133200000Y-154450000D03*
D11*
X133200000Y-160750000D03*
%TD*%
%TO.C,R2*%
G36*
G01*
X102150000Y-146443750D02*
X102150000Y-146956250D01*
G75*
G02*
X101931250Y-147175000I-218750J0D01*
G01*
X101493750Y-147175000D01*
G75*
G02*
X101275000Y-146956250I0J218750D01*
G01*
X101275000Y-146443750D01*
G75*
G02*
X101493750Y-146225000I218750J0D01*
G01*
X101931250Y-146225000D01*
G75*
G02*
X102150000Y-146443750I0J-218750D01*
G01*
G37*
G36*
G01*
X103725000Y-146443750D02*
X103725000Y-146956250D01*
G75*
G02*
X103506250Y-147175000I-218750J0D01*
G01*
X103068750Y-147175000D01*
G75*
G02*
X102850000Y-146956250I0J218750D01*
G01*
X102850000Y-146443750D01*
G75*
G02*
X103068750Y-146225000I218750J0D01*
G01*
X103506250Y-146225000D01*
G75*
G02*
X103725000Y-146443750I0J-218750D01*
G01*
G37*
%TD*%
%TO.C,R1*%
G36*
G01*
X127350000Y-137443750D02*
X127350000Y-137956250D01*
G75*
G02*
X127131250Y-138175000I-218750J0D01*
G01*
X126693750Y-138175000D01*
G75*
G02*
X126475000Y-137956250I0J218750D01*
G01*
X126475000Y-137443750D01*
G75*
G02*
X126693750Y-137225000I218750J0D01*
G01*
X127131250Y-137225000D01*
G75*
G02*
X127350000Y-137443750I0J-218750D01*
G01*
G37*
G36*
G01*
X128925000Y-137443750D02*
X128925000Y-137956250D01*
G75*
G02*
X128706250Y-138175000I-218750J0D01*
G01*
X128268750Y-138175000D01*
G75*
G02*
X128050000Y-137956250I0J218750D01*
G01*
X128050000Y-137443750D01*
G75*
G02*
X128268750Y-137225000I218750J0D01*
G01*
X128706250Y-137225000D01*
G75*
G02*
X128925000Y-137443750I0J-218750D01*
G01*
G37*
%TD*%
D12*
%TO.C,D29*%
X152550000Y-130400000D03*
X152550000Y-133600000D03*
X157450000Y-130400000D03*
X157450000Y-133600000D03*
%TD*%
%TO.C,D23*%
X148550000Y-122400000D03*
X148550000Y-125600000D03*
X153450000Y-122400000D03*
X153450000Y-125600000D03*
%TD*%
%TO.C,D28*%
X144550000Y-130400000D03*
X144550000Y-133600000D03*
X149450000Y-130400000D03*
X149450000Y-133600000D03*
%TD*%
%TO.C,D18*%
X144550000Y-114400000D03*
X144550000Y-117600000D03*
X149450000Y-114400000D03*
X149450000Y-117600000D03*
%TD*%
%TO.C,D11*%
X144550000Y-98400000D03*
X144550000Y-101600000D03*
X149450000Y-98400000D03*
X149450000Y-101600000D03*
%TD*%
%TO.C,D14*%
X140550000Y-106400000D03*
X140550000Y-109600000D03*
X145450000Y-106400000D03*
X145450000Y-109600000D03*
%TD*%
%TO.C,D22*%
X140550000Y-122400000D03*
X140550000Y-125600000D03*
X145450000Y-122400000D03*
X145450000Y-125600000D03*
%TD*%
%TO.C,D6*%
X140550000Y-90400000D03*
X140550000Y-93600000D03*
X145450000Y-90400000D03*
X145450000Y-93600000D03*
%TD*%
%TO.C,D27*%
X136550000Y-130400000D03*
X136550000Y-133600000D03*
X141450000Y-130400000D03*
X141450000Y-133600000D03*
%TD*%
%TO.C,D17*%
X136550000Y-114400000D03*
X136550000Y-117600000D03*
X141450000Y-114400000D03*
X141450000Y-117600000D03*
%TD*%
%TO.C,D10*%
X136550000Y-98400000D03*
X136550000Y-101600000D03*
X141450000Y-98400000D03*
X141450000Y-101600000D03*
%TD*%
%TO.C,D3*%
X136550000Y-82400000D03*
X136550000Y-85600000D03*
X141450000Y-82400000D03*
X141450000Y-85600000D03*
%TD*%
%TO.C,D21*%
X132550000Y-122400000D03*
X132550000Y-125600000D03*
X137450000Y-122400000D03*
X137450000Y-125600000D03*
%TD*%
%TO.C,D13*%
X132550000Y-106400000D03*
X132550000Y-109600000D03*
X137450000Y-106400000D03*
X137450000Y-109600000D03*
%TD*%
%TO.C,D5*%
X132550000Y-90400000D03*
X132550000Y-93600000D03*
X137450000Y-90400000D03*
X137450000Y-93600000D03*
%TD*%
%TO.C,D1*%
X132550000Y-74400000D03*
X132550000Y-77600000D03*
X137450000Y-74400000D03*
X137450000Y-77600000D03*
%TD*%
%TO.C,D26*%
X128550000Y-130400000D03*
X128550000Y-133600000D03*
X133450000Y-130400000D03*
X133450000Y-133600000D03*
%TD*%
%TO.C,D16*%
X128550000Y-114400000D03*
X128550000Y-117600000D03*
X133450000Y-114400000D03*
X133450000Y-117600000D03*
%TD*%
%TO.C,D9*%
X128550000Y-98400000D03*
X128550000Y-101600000D03*
X133450000Y-98400000D03*
X133450000Y-101600000D03*
%TD*%
%TO.C,D2*%
X128550000Y-82400000D03*
X128550000Y-85600000D03*
X133450000Y-82400000D03*
X133450000Y-85600000D03*
%TD*%
%TO.C,D20*%
X124550000Y-122400000D03*
X124550000Y-125600000D03*
X129450000Y-122400000D03*
X129450000Y-125600000D03*
%TD*%
%TO.C,D12*%
X124550000Y-106400000D03*
X124550000Y-109600000D03*
X129450000Y-106400000D03*
X129450000Y-109600000D03*
%TD*%
%TO.C,D4*%
X124550000Y-90400000D03*
X124550000Y-93600000D03*
X129450000Y-90400000D03*
X129450000Y-93600000D03*
%TD*%
%TO.C,D15*%
X120550000Y-114400000D03*
X120550000Y-117600000D03*
X125450000Y-114400000D03*
X125450000Y-117600000D03*
%TD*%
%TO.C,D25*%
X120550000Y-130400000D03*
X120550000Y-133600000D03*
X125450000Y-130400000D03*
X125450000Y-133600000D03*
%TD*%
%TO.C,D8*%
X120550000Y-98400000D03*
X120550000Y-101600000D03*
X125450000Y-98400000D03*
X125450000Y-101600000D03*
%TD*%
%TO.C,D19*%
X116550000Y-122400000D03*
X116550000Y-125600000D03*
X121450000Y-122400000D03*
X121450000Y-125600000D03*
%TD*%
%TO.C,D24*%
X112550000Y-130400000D03*
X112550000Y-133600000D03*
X117450000Y-130400000D03*
X117450000Y-133600000D03*
%TD*%
%TO.C,D7*%
G36*
G01*
X103650000Y-143656250D02*
X103650000Y-142743750D01*
G75*
G02*
X103893750Y-142500000I243750J0D01*
G01*
X104381250Y-142500000D01*
G75*
G02*
X104625000Y-142743750I0J-243750D01*
G01*
X104625000Y-143656250D01*
G75*
G02*
X104381250Y-143900000I-243750J0D01*
G01*
X103893750Y-143900000D01*
G75*
G02*
X103650000Y-143656250I0J243750D01*
G01*
G37*
G36*
G01*
X101775000Y-143656250D02*
X101775000Y-142743750D01*
G75*
G02*
X102018750Y-142500000I243750J0D01*
G01*
X102506250Y-142500000D01*
G75*
G02*
X102750000Y-142743750I0J-243750D01*
G01*
X102750000Y-143656250D01*
G75*
G02*
X102506250Y-143900000I-243750J0D01*
G01*
X102018750Y-143900000D01*
G75*
G02*
X101775000Y-143656250I0J243750D01*
G01*
G37*
%TD*%
%TO.C,C8*%
G36*
G01*
X114550000Y-136856250D02*
X114550000Y-136343750D01*
G75*
G02*
X114768750Y-136125000I218750J0D01*
G01*
X115206250Y-136125000D01*
G75*
G02*
X115425000Y-136343750I0J-218750D01*
G01*
X115425000Y-136856250D01*
G75*
G02*
X115206250Y-137075000I-218750J0D01*
G01*
X114768750Y-137075000D01*
G75*
G02*
X114550000Y-136856250I0J218750D01*
G01*
G37*
G36*
G01*
X112975000Y-136856250D02*
X112975000Y-136343750D01*
G75*
G02*
X113193750Y-136125000I218750J0D01*
G01*
X113631250Y-136125000D01*
G75*
G02*
X113850000Y-136343750I0J-218750D01*
G01*
X113850000Y-136856250D01*
G75*
G02*
X113631250Y-137075000I-218750J0D01*
G01*
X113193750Y-137075000D01*
G75*
G02*
X112975000Y-136856250I0J218750D01*
G01*
G37*
%TD*%
%TO.C,C7*%
G36*
G01*
X119850000Y-151843750D02*
X119850000Y-152356250D01*
G75*
G02*
X119631250Y-152575000I-218750J0D01*
G01*
X119193750Y-152575000D01*
G75*
G02*
X118975000Y-152356250I0J218750D01*
G01*
X118975000Y-151843750D01*
G75*
G02*
X119193750Y-151625000I218750J0D01*
G01*
X119631250Y-151625000D01*
G75*
G02*
X119850000Y-151843750I0J-218750D01*
G01*
G37*
G36*
G01*
X121425000Y-151843750D02*
X121425000Y-152356250D01*
G75*
G02*
X121206250Y-152575000I-218750J0D01*
G01*
X120768750Y-152575000D01*
G75*
G02*
X120550000Y-152356250I0J218750D01*
G01*
X120550000Y-151843750D01*
G75*
G02*
X120768750Y-151625000I218750J0D01*
G01*
X121206250Y-151625000D01*
G75*
G02*
X121425000Y-151843750I0J-218750D01*
G01*
G37*
%TD*%
%TO.C,C6*%
G36*
G01*
X123843750Y-141150000D02*
X124356250Y-141150000D01*
G75*
G02*
X124575000Y-141368750I0J-218750D01*
G01*
X124575000Y-141806250D01*
G75*
G02*
X124356250Y-142025000I-218750J0D01*
G01*
X123843750Y-142025000D01*
G75*
G02*
X123625000Y-141806250I0J218750D01*
G01*
X123625000Y-141368750D01*
G75*
G02*
X123843750Y-141150000I218750J0D01*
G01*
G37*
G36*
G01*
X123843750Y-139575000D02*
X124356250Y-139575000D01*
G75*
G02*
X124575000Y-139793750I0J-218750D01*
G01*
X124575000Y-140231250D01*
G75*
G02*
X124356250Y-140450000I-218750J0D01*
G01*
X123843750Y-140450000D01*
G75*
G02*
X123625000Y-140231250I0J218750D01*
G01*
X123625000Y-139793750D01*
G75*
G02*
X123843750Y-139575000I218750J0D01*
G01*
G37*
%TD*%
%TO.C,C10*%
G36*
G01*
X108050000Y-146956250D02*
X108050000Y-146043750D01*
G75*
G02*
X108293750Y-145800000I243750J0D01*
G01*
X108781250Y-145800000D01*
G75*
G02*
X109025000Y-146043750I0J-243750D01*
G01*
X109025000Y-146956250D01*
G75*
G02*
X108781250Y-147200000I-243750J0D01*
G01*
X108293750Y-147200000D01*
G75*
G02*
X108050000Y-146956250I0J243750D01*
G01*
G37*
G36*
G01*
X106175000Y-146956250D02*
X106175000Y-146043750D01*
G75*
G02*
X106418750Y-145800000I243750J0D01*
G01*
X106906250Y-145800000D01*
G75*
G02*
X107150000Y-146043750I0J-243750D01*
G01*
X107150000Y-146956250D01*
G75*
G02*
X106906250Y-147200000I-243750J0D01*
G01*
X106418750Y-147200000D01*
G75*
G02*
X106175000Y-146956250I0J243750D01*
G01*
G37*
%TD*%
%TO.C,C5*%
G36*
G01*
X121250000Y-136856250D02*
X121250000Y-136343750D01*
G75*
G02*
X121468750Y-136125000I218750J0D01*
G01*
X121906250Y-136125000D01*
G75*
G02*
X122125000Y-136343750I0J-218750D01*
G01*
X122125000Y-136856250D01*
G75*
G02*
X121906250Y-137075000I-218750J0D01*
G01*
X121468750Y-137075000D01*
G75*
G02*
X121250000Y-136856250I0J218750D01*
G01*
G37*
G36*
G01*
X119675000Y-136856250D02*
X119675000Y-136343750D01*
G75*
G02*
X119893750Y-136125000I218750J0D01*
G01*
X120331250Y-136125000D01*
G75*
G02*
X120550000Y-136343750I0J-218750D01*
G01*
X120550000Y-136856250D01*
G75*
G02*
X120331250Y-137075000I-218750J0D01*
G01*
X119893750Y-137075000D01*
G75*
G02*
X119675000Y-136856250I0J218750D01*
G01*
G37*
%TD*%
%TO.C,C4*%
G36*
G01*
X108656250Y-141050000D02*
X108143750Y-141050000D01*
G75*
G02*
X107925000Y-140831250I0J218750D01*
G01*
X107925000Y-140393750D01*
G75*
G02*
X108143750Y-140175000I218750J0D01*
G01*
X108656250Y-140175000D01*
G75*
G02*
X108875000Y-140393750I0J-218750D01*
G01*
X108875000Y-140831250D01*
G75*
G02*
X108656250Y-141050000I-218750J0D01*
G01*
G37*
G36*
G01*
X108656250Y-142625000D02*
X108143750Y-142625000D01*
G75*
G02*
X107925000Y-142406250I0J218750D01*
G01*
X107925000Y-141968750D01*
G75*
G02*
X108143750Y-141750000I218750J0D01*
G01*
X108656250Y-141750000D01*
G75*
G02*
X108875000Y-141968750I0J-218750D01*
G01*
X108875000Y-142406250D01*
G75*
G02*
X108656250Y-142625000I-218750J0D01*
G01*
G37*
%TD*%
%TO.C,C3*%
G36*
G01*
X107450000Y-148243750D02*
X107450000Y-148756250D01*
G75*
G02*
X107231250Y-148975000I-218750J0D01*
G01*
X106793750Y-148975000D01*
G75*
G02*
X106575000Y-148756250I0J218750D01*
G01*
X106575000Y-148243750D01*
G75*
G02*
X106793750Y-148025000I218750J0D01*
G01*
X107231250Y-148025000D01*
G75*
G02*
X107450000Y-148243750I0J-218750D01*
G01*
G37*
G36*
G01*
X109025000Y-148243750D02*
X109025000Y-148756250D01*
G75*
G02*
X108806250Y-148975000I-218750J0D01*
G01*
X108368750Y-148975000D01*
G75*
G02*
X108150000Y-148756250I0J218750D01*
G01*
X108150000Y-148243750D01*
G75*
G02*
X108368750Y-148025000I218750J0D01*
G01*
X108806250Y-148025000D01*
G75*
G02*
X109025000Y-148243750I0J-218750D01*
G01*
G37*
%TD*%
%TO.C,C2*%
G36*
G01*
X133856250Y-149550000D02*
X132943750Y-149550000D01*
G75*
G02*
X132700000Y-149306250I0J243750D01*
G01*
X132700000Y-148818750D01*
G75*
G02*
X132943750Y-148575000I243750J0D01*
G01*
X133856250Y-148575000D01*
G75*
G02*
X134100000Y-148818750I0J-243750D01*
G01*
X134100000Y-149306250D01*
G75*
G02*
X133856250Y-149550000I-243750J0D01*
G01*
G37*
G36*
G01*
X133856250Y-151425000D02*
X132943750Y-151425000D01*
G75*
G02*
X132700000Y-151181250I0J243750D01*
G01*
X132700000Y-150693750D01*
G75*
G02*
X132943750Y-150450000I243750J0D01*
G01*
X133856250Y-150450000D01*
G75*
G02*
X134100000Y-150693750I0J-243750D01*
G01*
X134100000Y-151181250D01*
G75*
G02*
X133856250Y-151425000I-243750J0D01*
G01*
G37*
%TD*%
%TO.C,C1*%
G36*
G01*
X131456250Y-149550000D02*
X130543750Y-149550000D01*
G75*
G02*
X130300000Y-149306250I0J243750D01*
G01*
X130300000Y-148818750D01*
G75*
G02*
X130543750Y-148575000I243750J0D01*
G01*
X131456250Y-148575000D01*
G75*
G02*
X131700000Y-148818750I0J-243750D01*
G01*
X131700000Y-149306250D01*
G75*
G02*
X131456250Y-149550000I-243750J0D01*
G01*
G37*
G36*
G01*
X131456250Y-151425000D02*
X130543750Y-151425000D01*
G75*
G02*
X130300000Y-151181250I0J243750D01*
G01*
X130300000Y-150693750D01*
G75*
G02*
X130543750Y-150450000I243750J0D01*
G01*
X131456250Y-150450000D01*
G75*
G02*
X131700000Y-150693750I0J-243750D01*
G01*
X131700000Y-151181250D01*
G75*
G02*
X131456250Y-151425000I-243750J0D01*
G01*
G37*
%TD*%
M02*
