%TF.GenerationSoftware,KiCad,Pcbnew,5.1.6-1.fc32*%
%TF.CreationDate,2020-11-21T02:42:39+01:00*%
%TF.ProjectId,christmas-card,63687269-7374-46d6-9173-2d636172642e,rev?*%
%TF.SameCoordinates,Original*%
%TF.FileFunction,Soldermask,Top*%
%TF.FilePolarity,Negative*%
%FSLAX46Y46*%
G04 Gerber Fmt 4.6, Leading zero omitted, Abs format (unit mm)*
G04 Created by KiCad (PCBNEW 5.1.6-1.fc32) date 2020-11-21 02:42:39*
%MOMM*%
%LPD*%
G01*
G04 APERTURE LIST*
%ADD10C,1.100000*%
%ADD11C,2.100000*%
%ADD12R,1.600000X2.100000*%
%ADD13R,3.900000X2.100000*%
%ADD14C,3.416000*%
%ADD15C,1.508000*%
%ADD16R,1.508000X1.508000*%
%ADD17O,1.800000X1.800000*%
%ADD18R,1.800000X1.800000*%
%ADD19C,0.989000*%
%ADD20C,1.049960*%
%ADD21R,1.600000X1.100000*%
G04 APERTURE END LIST*
%TO.C,C9*%
G36*
G01*
X156400000Y-161081250D02*
X156400000Y-160518750D01*
G75*
G02*
X156643750Y-160275000I243750J0D01*
G01*
X157131250Y-160275000D01*
G75*
G02*
X157375000Y-160518750I0J-243750D01*
G01*
X157375000Y-161081250D01*
G75*
G02*
X157131250Y-161325000I-243750J0D01*
G01*
X156643750Y-161325000D01*
G75*
G02*
X156400000Y-161081250I0J243750D01*
G01*
G37*
G36*
G01*
X154825000Y-161081250D02*
X154825000Y-160518750D01*
G75*
G02*
X155068750Y-160275000I243750J0D01*
G01*
X155556250Y-160275000D01*
G75*
G02*
X155800000Y-160518750I0J-243750D01*
G01*
X155800000Y-161081250D01*
G75*
G02*
X155556250Y-161325000I-243750J0D01*
G01*
X155068750Y-161325000D01*
G75*
G02*
X154825000Y-161081250I0J243750D01*
G01*
G37*
%TD*%
%TO.C,U3*%
G36*
G01*
X155470000Y-164050000D02*
X155120000Y-164050000D01*
G75*
G02*
X154945000Y-163875000I0J175000D01*
G01*
X154945000Y-162175000D01*
G75*
G02*
X155120000Y-162000000I175000J0D01*
G01*
X155470000Y-162000000D01*
G75*
G02*
X155645000Y-162175000I0J-175000D01*
G01*
X155645000Y-163875000D01*
G75*
G02*
X155470000Y-164050000I-175000J0D01*
G01*
G37*
G36*
G01*
X156740000Y-164050000D02*
X156390000Y-164050000D01*
G75*
G02*
X156215000Y-163875000I0J175000D01*
G01*
X156215000Y-162175000D01*
G75*
G02*
X156390000Y-162000000I175000J0D01*
G01*
X156740000Y-162000000D01*
G75*
G02*
X156915000Y-162175000I0J-175000D01*
G01*
X156915000Y-163875000D01*
G75*
G02*
X156740000Y-164050000I-175000J0D01*
G01*
G37*
G36*
G01*
X158010000Y-164050000D02*
X157660000Y-164050000D01*
G75*
G02*
X157485000Y-163875000I0J175000D01*
G01*
X157485000Y-162175000D01*
G75*
G02*
X157660000Y-162000000I175000J0D01*
G01*
X158010000Y-162000000D01*
G75*
G02*
X158185000Y-162175000I0J-175000D01*
G01*
X158185000Y-163875000D01*
G75*
G02*
X158010000Y-164050000I-175000J0D01*
G01*
G37*
G36*
G01*
X159280000Y-164050000D02*
X158930000Y-164050000D01*
G75*
G02*
X158755000Y-163875000I0J175000D01*
G01*
X158755000Y-162175000D01*
G75*
G02*
X158930000Y-162000000I175000J0D01*
G01*
X159280000Y-162000000D01*
G75*
G02*
X159455000Y-162175000I0J-175000D01*
G01*
X159455000Y-163875000D01*
G75*
G02*
X159280000Y-164050000I-175000J0D01*
G01*
G37*
G36*
G01*
X159280000Y-169000000D02*
X158930000Y-169000000D01*
G75*
G02*
X158755000Y-168825000I0J175000D01*
G01*
X158755000Y-167125000D01*
G75*
G02*
X158930000Y-166950000I175000J0D01*
G01*
X159280000Y-166950000D01*
G75*
G02*
X159455000Y-167125000I0J-175000D01*
G01*
X159455000Y-168825000D01*
G75*
G02*
X159280000Y-169000000I-175000J0D01*
G01*
G37*
G36*
G01*
X158010000Y-169000000D02*
X157660000Y-169000000D01*
G75*
G02*
X157485000Y-168825000I0J175000D01*
G01*
X157485000Y-167125000D01*
G75*
G02*
X157660000Y-166950000I175000J0D01*
G01*
X158010000Y-166950000D01*
G75*
G02*
X158185000Y-167125000I0J-175000D01*
G01*
X158185000Y-168825000D01*
G75*
G02*
X158010000Y-169000000I-175000J0D01*
G01*
G37*
G36*
G01*
X156740000Y-169000000D02*
X156390000Y-169000000D01*
G75*
G02*
X156215000Y-168825000I0J175000D01*
G01*
X156215000Y-167125000D01*
G75*
G02*
X156390000Y-166950000I175000J0D01*
G01*
X156740000Y-166950000D01*
G75*
G02*
X156915000Y-167125000I0J-175000D01*
G01*
X156915000Y-168825000D01*
G75*
G02*
X156740000Y-169000000I-175000J0D01*
G01*
G37*
G36*
G01*
X155470000Y-169000000D02*
X155120000Y-169000000D01*
G75*
G02*
X154945000Y-168825000I0J175000D01*
G01*
X154945000Y-167125000D01*
G75*
G02*
X155120000Y-166950000I175000J0D01*
G01*
X155470000Y-166950000D01*
G75*
G02*
X155645000Y-167125000I0J-175000D01*
G01*
X155645000Y-168825000D01*
G75*
G02*
X155470000Y-169000000I-175000J0D01*
G01*
G37*
%TD*%
D10*
%TO.C,TP3*%
X110800000Y-136900000D03*
%TD*%
%TO.C,TP2*%
X126900000Y-141400000D03*
%TD*%
D11*
%TO.C,TP4*%
X152300000Y-137100000D03*
%TD*%
%TO.C,TP1*%
X141400000Y-73900000D03*
%TD*%
%TO.C,R6*%
G36*
G01*
X107400000Y-144318750D02*
X107400000Y-144881250D01*
G75*
G02*
X107156250Y-145125000I-243750J0D01*
G01*
X106668750Y-145125000D01*
G75*
G02*
X106425000Y-144881250I0J243750D01*
G01*
X106425000Y-144318750D01*
G75*
G02*
X106668750Y-144075000I243750J0D01*
G01*
X107156250Y-144075000D01*
G75*
G02*
X107400000Y-144318750I0J-243750D01*
G01*
G37*
G36*
G01*
X108975000Y-144318750D02*
X108975000Y-144881250D01*
G75*
G02*
X108731250Y-145125000I-243750J0D01*
G01*
X108243750Y-145125000D01*
G75*
G02*
X108000000Y-144881250I0J243750D01*
G01*
X108000000Y-144318750D01*
G75*
G02*
X108243750Y-144075000I243750J0D01*
G01*
X108731250Y-144075000D01*
G75*
G02*
X108975000Y-144318750I0J-243750D01*
G01*
G37*
%TD*%
%TO.C,R5*%
G36*
G01*
X125500000Y-143681250D02*
X125500000Y-143118750D01*
G75*
G02*
X125743750Y-142875000I243750J0D01*
G01*
X126231250Y-142875000D01*
G75*
G02*
X126475000Y-143118750I0J-243750D01*
G01*
X126475000Y-143681250D01*
G75*
G02*
X126231250Y-143925000I-243750J0D01*
G01*
X125743750Y-143925000D01*
G75*
G02*
X125500000Y-143681250I0J243750D01*
G01*
G37*
G36*
G01*
X123925000Y-143681250D02*
X123925000Y-143118750D01*
G75*
G02*
X124168750Y-142875000I243750J0D01*
G01*
X124656250Y-142875000D01*
G75*
G02*
X124900000Y-143118750I0J-243750D01*
G01*
X124900000Y-143681250D01*
G75*
G02*
X124656250Y-143925000I-243750J0D01*
G01*
X124168750Y-143925000D01*
G75*
G02*
X123925000Y-143681250I0J243750D01*
G01*
G37*
%TD*%
%TO.C,R4*%
G36*
G01*
X147018750Y-162100000D02*
X147581250Y-162100000D01*
G75*
G02*
X147825000Y-162343750I0J-243750D01*
G01*
X147825000Y-162831250D01*
G75*
G02*
X147581250Y-163075000I-243750J0D01*
G01*
X147018750Y-163075000D01*
G75*
G02*
X146775000Y-162831250I0J243750D01*
G01*
X146775000Y-162343750D01*
G75*
G02*
X147018750Y-162100000I243750J0D01*
G01*
G37*
G36*
G01*
X147018750Y-160525000D02*
X147581250Y-160525000D01*
G75*
G02*
X147825000Y-160768750I0J-243750D01*
G01*
X147825000Y-161256250D01*
G75*
G02*
X147581250Y-161500000I-243750J0D01*
G01*
X147018750Y-161500000D01*
G75*
G02*
X146775000Y-161256250I0J243750D01*
G01*
X146775000Y-160768750D01*
G75*
G02*
X147018750Y-160525000I243750J0D01*
G01*
G37*
%TD*%
%TO.C,R3*%
G36*
G01*
X144218750Y-162100000D02*
X144781250Y-162100000D01*
G75*
G02*
X145025000Y-162343750I0J-243750D01*
G01*
X145025000Y-162831250D01*
G75*
G02*
X144781250Y-163075000I-243750J0D01*
G01*
X144218750Y-163075000D01*
G75*
G02*
X143975000Y-162831250I0J243750D01*
G01*
X143975000Y-162343750D01*
G75*
G02*
X144218750Y-162100000I243750J0D01*
G01*
G37*
G36*
G01*
X144218750Y-160525000D02*
X144781250Y-160525000D01*
G75*
G02*
X145025000Y-160768750I0J-243750D01*
G01*
X145025000Y-161256250D01*
G75*
G02*
X144781250Y-161500000I-243750J0D01*
G01*
X144218750Y-161500000D01*
G75*
G02*
X143975000Y-161256250I0J243750D01*
G01*
X143975000Y-160768750D01*
G75*
G02*
X144218750Y-160525000I243750J0D01*
G01*
G37*
%TD*%
%TO.C,U2*%
G36*
G01*
X121150000Y-140350000D02*
X122600000Y-140350000D01*
G75*
G02*
X122700000Y-140450000I0J-100000D01*
G01*
X122700000Y-140650000D01*
G75*
G02*
X122600000Y-140750000I-100000J0D01*
G01*
X121150000Y-140750000D01*
G75*
G02*
X121050000Y-140650000I0J100000D01*
G01*
X121050000Y-140450000D01*
G75*
G02*
X121150000Y-140350000I100000J0D01*
G01*
G37*
G36*
G01*
X121150000Y-140850000D02*
X122600000Y-140850000D01*
G75*
G02*
X122700000Y-140950000I0J-100000D01*
G01*
X122700000Y-141150000D01*
G75*
G02*
X122600000Y-141250000I-100000J0D01*
G01*
X121150000Y-141250000D01*
G75*
G02*
X121050000Y-141150000I0J100000D01*
G01*
X121050000Y-140950000D01*
G75*
G02*
X121150000Y-140850000I100000J0D01*
G01*
G37*
G36*
G01*
X121150000Y-141350000D02*
X122600000Y-141350000D01*
G75*
G02*
X122700000Y-141450000I0J-100000D01*
G01*
X122700000Y-141650000D01*
G75*
G02*
X122600000Y-141750000I-100000J0D01*
G01*
X121150000Y-141750000D01*
G75*
G02*
X121050000Y-141650000I0J100000D01*
G01*
X121050000Y-141450000D01*
G75*
G02*
X121150000Y-141350000I100000J0D01*
G01*
G37*
G36*
G01*
X121150000Y-141850000D02*
X122600000Y-141850000D01*
G75*
G02*
X122700000Y-141950000I0J-100000D01*
G01*
X122700000Y-142150000D01*
G75*
G02*
X122600000Y-142250000I-100000J0D01*
G01*
X121150000Y-142250000D01*
G75*
G02*
X121050000Y-142150000I0J100000D01*
G01*
X121050000Y-141950000D01*
G75*
G02*
X121150000Y-141850000I100000J0D01*
G01*
G37*
G36*
G01*
X121150000Y-142350000D02*
X122600000Y-142350000D01*
G75*
G02*
X122700000Y-142450000I0J-100000D01*
G01*
X122700000Y-142650000D01*
G75*
G02*
X122600000Y-142750000I-100000J0D01*
G01*
X121150000Y-142750000D01*
G75*
G02*
X121050000Y-142650000I0J100000D01*
G01*
X121050000Y-142450000D01*
G75*
G02*
X121150000Y-142350000I100000J0D01*
G01*
G37*
G36*
G01*
X121150000Y-142850000D02*
X122600000Y-142850000D01*
G75*
G02*
X122700000Y-142950000I0J-100000D01*
G01*
X122700000Y-143150000D01*
G75*
G02*
X122600000Y-143250000I-100000J0D01*
G01*
X121150000Y-143250000D01*
G75*
G02*
X121050000Y-143150000I0J100000D01*
G01*
X121050000Y-142950000D01*
G75*
G02*
X121150000Y-142850000I100000J0D01*
G01*
G37*
G36*
G01*
X121150000Y-143350000D02*
X122600000Y-143350000D01*
G75*
G02*
X122700000Y-143450000I0J-100000D01*
G01*
X122700000Y-143650000D01*
G75*
G02*
X122600000Y-143750000I-100000J0D01*
G01*
X121150000Y-143750000D01*
G75*
G02*
X121050000Y-143650000I0J100000D01*
G01*
X121050000Y-143450000D01*
G75*
G02*
X121150000Y-143350000I100000J0D01*
G01*
G37*
G36*
G01*
X121150000Y-143850000D02*
X122600000Y-143850000D01*
G75*
G02*
X122700000Y-143950000I0J-100000D01*
G01*
X122700000Y-144150000D01*
G75*
G02*
X122600000Y-144250000I-100000J0D01*
G01*
X121150000Y-144250000D01*
G75*
G02*
X121050000Y-144150000I0J100000D01*
G01*
X121050000Y-143950000D01*
G75*
G02*
X121150000Y-143850000I100000J0D01*
G01*
G37*
G36*
G01*
X121150000Y-144350000D02*
X122600000Y-144350000D01*
G75*
G02*
X122700000Y-144450000I0J-100000D01*
G01*
X122700000Y-144650000D01*
G75*
G02*
X122600000Y-144750000I-100000J0D01*
G01*
X121150000Y-144750000D01*
G75*
G02*
X121050000Y-144650000I0J100000D01*
G01*
X121050000Y-144450000D01*
G75*
G02*
X121150000Y-144350000I100000J0D01*
G01*
G37*
G36*
G01*
X121150000Y-144850000D02*
X122600000Y-144850000D01*
G75*
G02*
X122700000Y-144950000I0J-100000D01*
G01*
X122700000Y-145150000D01*
G75*
G02*
X122600000Y-145250000I-100000J0D01*
G01*
X121150000Y-145250000D01*
G75*
G02*
X121050000Y-145150000I0J100000D01*
G01*
X121050000Y-144950000D01*
G75*
G02*
X121150000Y-144850000I100000J0D01*
G01*
G37*
G36*
G01*
X121150000Y-145350000D02*
X122600000Y-145350000D01*
G75*
G02*
X122700000Y-145450000I0J-100000D01*
G01*
X122700000Y-145650000D01*
G75*
G02*
X122600000Y-145750000I-100000J0D01*
G01*
X121150000Y-145750000D01*
G75*
G02*
X121050000Y-145650000I0J100000D01*
G01*
X121050000Y-145450000D01*
G75*
G02*
X121150000Y-145350000I100000J0D01*
G01*
G37*
G36*
G01*
X121150000Y-145850000D02*
X122600000Y-145850000D01*
G75*
G02*
X122700000Y-145950000I0J-100000D01*
G01*
X122700000Y-146150000D01*
G75*
G02*
X122600000Y-146250000I-100000J0D01*
G01*
X121150000Y-146250000D01*
G75*
G02*
X121050000Y-146150000I0J100000D01*
G01*
X121050000Y-145950000D01*
G75*
G02*
X121150000Y-145850000I100000J0D01*
G01*
G37*
G36*
G01*
X121150000Y-146350000D02*
X122600000Y-146350000D01*
G75*
G02*
X122700000Y-146450000I0J-100000D01*
G01*
X122700000Y-146650000D01*
G75*
G02*
X122600000Y-146750000I-100000J0D01*
G01*
X121150000Y-146750000D01*
G75*
G02*
X121050000Y-146650000I0J100000D01*
G01*
X121050000Y-146450000D01*
G75*
G02*
X121150000Y-146350000I100000J0D01*
G01*
G37*
G36*
G01*
X121150000Y-146850000D02*
X122600000Y-146850000D01*
G75*
G02*
X122700000Y-146950000I0J-100000D01*
G01*
X122700000Y-147150000D01*
G75*
G02*
X122600000Y-147250000I-100000J0D01*
G01*
X121150000Y-147250000D01*
G75*
G02*
X121050000Y-147150000I0J100000D01*
G01*
X121050000Y-146950000D01*
G75*
G02*
X121150000Y-146850000I100000J0D01*
G01*
G37*
G36*
G01*
X121150000Y-147350000D02*
X122600000Y-147350000D01*
G75*
G02*
X122700000Y-147450000I0J-100000D01*
G01*
X122700000Y-147650000D01*
G75*
G02*
X122600000Y-147750000I-100000J0D01*
G01*
X121150000Y-147750000D01*
G75*
G02*
X121050000Y-147650000I0J100000D01*
G01*
X121050000Y-147450000D01*
G75*
G02*
X121150000Y-147350000I100000J0D01*
G01*
G37*
G36*
G01*
X121150000Y-147850000D02*
X122600000Y-147850000D01*
G75*
G02*
X122700000Y-147950000I0J-100000D01*
G01*
X122700000Y-148150000D01*
G75*
G02*
X122600000Y-148250000I-100000J0D01*
G01*
X121150000Y-148250000D01*
G75*
G02*
X121050000Y-148150000I0J100000D01*
G01*
X121050000Y-147950000D01*
G75*
G02*
X121150000Y-147850000I100000J0D01*
G01*
G37*
G36*
G01*
X119850000Y-149150000D02*
X120050000Y-149150000D01*
G75*
G02*
X120150000Y-149250000I0J-100000D01*
G01*
X120150000Y-150700000D01*
G75*
G02*
X120050000Y-150800000I-100000J0D01*
G01*
X119850000Y-150800000D01*
G75*
G02*
X119750000Y-150700000I0J100000D01*
G01*
X119750000Y-149250000D01*
G75*
G02*
X119850000Y-149150000I100000J0D01*
G01*
G37*
G36*
G01*
X119350000Y-149150000D02*
X119550000Y-149150000D01*
G75*
G02*
X119650000Y-149250000I0J-100000D01*
G01*
X119650000Y-150700000D01*
G75*
G02*
X119550000Y-150800000I-100000J0D01*
G01*
X119350000Y-150800000D01*
G75*
G02*
X119250000Y-150700000I0J100000D01*
G01*
X119250000Y-149250000D01*
G75*
G02*
X119350000Y-149150000I100000J0D01*
G01*
G37*
G36*
G01*
X118850000Y-149150000D02*
X119050000Y-149150000D01*
G75*
G02*
X119150000Y-149250000I0J-100000D01*
G01*
X119150000Y-150700000D01*
G75*
G02*
X119050000Y-150800000I-100000J0D01*
G01*
X118850000Y-150800000D01*
G75*
G02*
X118750000Y-150700000I0J100000D01*
G01*
X118750000Y-149250000D01*
G75*
G02*
X118850000Y-149150000I100000J0D01*
G01*
G37*
G36*
G01*
X118350000Y-149150000D02*
X118550000Y-149150000D01*
G75*
G02*
X118650000Y-149250000I0J-100000D01*
G01*
X118650000Y-150700000D01*
G75*
G02*
X118550000Y-150800000I-100000J0D01*
G01*
X118350000Y-150800000D01*
G75*
G02*
X118250000Y-150700000I0J100000D01*
G01*
X118250000Y-149250000D01*
G75*
G02*
X118350000Y-149150000I100000J0D01*
G01*
G37*
G36*
G01*
X117850000Y-149150000D02*
X118050000Y-149150000D01*
G75*
G02*
X118150000Y-149250000I0J-100000D01*
G01*
X118150000Y-150700000D01*
G75*
G02*
X118050000Y-150800000I-100000J0D01*
G01*
X117850000Y-150800000D01*
G75*
G02*
X117750000Y-150700000I0J100000D01*
G01*
X117750000Y-149250000D01*
G75*
G02*
X117850000Y-149150000I100000J0D01*
G01*
G37*
G36*
G01*
X117350000Y-149150000D02*
X117550000Y-149150000D01*
G75*
G02*
X117650000Y-149250000I0J-100000D01*
G01*
X117650000Y-150700000D01*
G75*
G02*
X117550000Y-150800000I-100000J0D01*
G01*
X117350000Y-150800000D01*
G75*
G02*
X117250000Y-150700000I0J100000D01*
G01*
X117250000Y-149250000D01*
G75*
G02*
X117350000Y-149150000I100000J0D01*
G01*
G37*
G36*
G01*
X116850000Y-149150000D02*
X117050000Y-149150000D01*
G75*
G02*
X117150000Y-149250000I0J-100000D01*
G01*
X117150000Y-150700000D01*
G75*
G02*
X117050000Y-150800000I-100000J0D01*
G01*
X116850000Y-150800000D01*
G75*
G02*
X116750000Y-150700000I0J100000D01*
G01*
X116750000Y-149250000D01*
G75*
G02*
X116850000Y-149150000I100000J0D01*
G01*
G37*
G36*
G01*
X116350000Y-149150000D02*
X116550000Y-149150000D01*
G75*
G02*
X116650000Y-149250000I0J-100000D01*
G01*
X116650000Y-150700000D01*
G75*
G02*
X116550000Y-150800000I-100000J0D01*
G01*
X116350000Y-150800000D01*
G75*
G02*
X116250000Y-150700000I0J100000D01*
G01*
X116250000Y-149250000D01*
G75*
G02*
X116350000Y-149150000I100000J0D01*
G01*
G37*
G36*
G01*
X115850000Y-149150000D02*
X116050000Y-149150000D01*
G75*
G02*
X116150000Y-149250000I0J-100000D01*
G01*
X116150000Y-150700000D01*
G75*
G02*
X116050000Y-150800000I-100000J0D01*
G01*
X115850000Y-150800000D01*
G75*
G02*
X115750000Y-150700000I0J100000D01*
G01*
X115750000Y-149250000D01*
G75*
G02*
X115850000Y-149150000I100000J0D01*
G01*
G37*
G36*
G01*
X115350000Y-149150000D02*
X115550000Y-149150000D01*
G75*
G02*
X115650000Y-149250000I0J-100000D01*
G01*
X115650000Y-150700000D01*
G75*
G02*
X115550000Y-150800000I-100000J0D01*
G01*
X115350000Y-150800000D01*
G75*
G02*
X115250000Y-150700000I0J100000D01*
G01*
X115250000Y-149250000D01*
G75*
G02*
X115350000Y-149150000I100000J0D01*
G01*
G37*
G36*
G01*
X114850000Y-149150000D02*
X115050000Y-149150000D01*
G75*
G02*
X115150000Y-149250000I0J-100000D01*
G01*
X115150000Y-150700000D01*
G75*
G02*
X115050000Y-150800000I-100000J0D01*
G01*
X114850000Y-150800000D01*
G75*
G02*
X114750000Y-150700000I0J100000D01*
G01*
X114750000Y-149250000D01*
G75*
G02*
X114850000Y-149150000I100000J0D01*
G01*
G37*
G36*
G01*
X114350000Y-149150000D02*
X114550000Y-149150000D01*
G75*
G02*
X114650000Y-149250000I0J-100000D01*
G01*
X114650000Y-150700000D01*
G75*
G02*
X114550000Y-150800000I-100000J0D01*
G01*
X114350000Y-150800000D01*
G75*
G02*
X114250000Y-150700000I0J100000D01*
G01*
X114250000Y-149250000D01*
G75*
G02*
X114350000Y-149150000I100000J0D01*
G01*
G37*
G36*
G01*
X113850000Y-149150000D02*
X114050000Y-149150000D01*
G75*
G02*
X114150000Y-149250000I0J-100000D01*
G01*
X114150000Y-150700000D01*
G75*
G02*
X114050000Y-150800000I-100000J0D01*
G01*
X113850000Y-150800000D01*
G75*
G02*
X113750000Y-150700000I0J100000D01*
G01*
X113750000Y-149250000D01*
G75*
G02*
X113850000Y-149150000I100000J0D01*
G01*
G37*
G36*
G01*
X113350000Y-149150000D02*
X113550000Y-149150000D01*
G75*
G02*
X113650000Y-149250000I0J-100000D01*
G01*
X113650000Y-150700000D01*
G75*
G02*
X113550000Y-150800000I-100000J0D01*
G01*
X113350000Y-150800000D01*
G75*
G02*
X113250000Y-150700000I0J100000D01*
G01*
X113250000Y-149250000D01*
G75*
G02*
X113350000Y-149150000I100000J0D01*
G01*
G37*
G36*
G01*
X112850000Y-149150000D02*
X113050000Y-149150000D01*
G75*
G02*
X113150000Y-149250000I0J-100000D01*
G01*
X113150000Y-150700000D01*
G75*
G02*
X113050000Y-150800000I-100000J0D01*
G01*
X112850000Y-150800000D01*
G75*
G02*
X112750000Y-150700000I0J100000D01*
G01*
X112750000Y-149250000D01*
G75*
G02*
X112850000Y-149150000I100000J0D01*
G01*
G37*
G36*
G01*
X112350000Y-149150000D02*
X112550000Y-149150000D01*
G75*
G02*
X112650000Y-149250000I0J-100000D01*
G01*
X112650000Y-150700000D01*
G75*
G02*
X112550000Y-150800000I-100000J0D01*
G01*
X112350000Y-150800000D01*
G75*
G02*
X112250000Y-150700000I0J100000D01*
G01*
X112250000Y-149250000D01*
G75*
G02*
X112350000Y-149150000I100000J0D01*
G01*
G37*
G36*
G01*
X109800000Y-147850000D02*
X111250000Y-147850000D01*
G75*
G02*
X111350000Y-147950000I0J-100000D01*
G01*
X111350000Y-148150000D01*
G75*
G02*
X111250000Y-148250000I-100000J0D01*
G01*
X109800000Y-148250000D01*
G75*
G02*
X109700000Y-148150000I0J100000D01*
G01*
X109700000Y-147950000D01*
G75*
G02*
X109800000Y-147850000I100000J0D01*
G01*
G37*
G36*
G01*
X109800000Y-147350000D02*
X111250000Y-147350000D01*
G75*
G02*
X111350000Y-147450000I0J-100000D01*
G01*
X111350000Y-147650000D01*
G75*
G02*
X111250000Y-147750000I-100000J0D01*
G01*
X109800000Y-147750000D01*
G75*
G02*
X109700000Y-147650000I0J100000D01*
G01*
X109700000Y-147450000D01*
G75*
G02*
X109800000Y-147350000I100000J0D01*
G01*
G37*
G36*
G01*
X109800000Y-146850000D02*
X111250000Y-146850000D01*
G75*
G02*
X111350000Y-146950000I0J-100000D01*
G01*
X111350000Y-147150000D01*
G75*
G02*
X111250000Y-147250000I-100000J0D01*
G01*
X109800000Y-147250000D01*
G75*
G02*
X109700000Y-147150000I0J100000D01*
G01*
X109700000Y-146950000D01*
G75*
G02*
X109800000Y-146850000I100000J0D01*
G01*
G37*
G36*
G01*
X109800000Y-146350000D02*
X111250000Y-146350000D01*
G75*
G02*
X111350000Y-146450000I0J-100000D01*
G01*
X111350000Y-146650000D01*
G75*
G02*
X111250000Y-146750000I-100000J0D01*
G01*
X109800000Y-146750000D01*
G75*
G02*
X109700000Y-146650000I0J100000D01*
G01*
X109700000Y-146450000D01*
G75*
G02*
X109800000Y-146350000I100000J0D01*
G01*
G37*
G36*
G01*
X109800000Y-145850000D02*
X111250000Y-145850000D01*
G75*
G02*
X111350000Y-145950000I0J-100000D01*
G01*
X111350000Y-146150000D01*
G75*
G02*
X111250000Y-146250000I-100000J0D01*
G01*
X109800000Y-146250000D01*
G75*
G02*
X109700000Y-146150000I0J100000D01*
G01*
X109700000Y-145950000D01*
G75*
G02*
X109800000Y-145850000I100000J0D01*
G01*
G37*
G36*
G01*
X109800000Y-145350000D02*
X111250000Y-145350000D01*
G75*
G02*
X111350000Y-145450000I0J-100000D01*
G01*
X111350000Y-145650000D01*
G75*
G02*
X111250000Y-145750000I-100000J0D01*
G01*
X109800000Y-145750000D01*
G75*
G02*
X109700000Y-145650000I0J100000D01*
G01*
X109700000Y-145450000D01*
G75*
G02*
X109800000Y-145350000I100000J0D01*
G01*
G37*
G36*
G01*
X109800000Y-144850000D02*
X111250000Y-144850000D01*
G75*
G02*
X111350000Y-144950000I0J-100000D01*
G01*
X111350000Y-145150000D01*
G75*
G02*
X111250000Y-145250000I-100000J0D01*
G01*
X109800000Y-145250000D01*
G75*
G02*
X109700000Y-145150000I0J100000D01*
G01*
X109700000Y-144950000D01*
G75*
G02*
X109800000Y-144850000I100000J0D01*
G01*
G37*
G36*
G01*
X109800000Y-144350000D02*
X111250000Y-144350000D01*
G75*
G02*
X111350000Y-144450000I0J-100000D01*
G01*
X111350000Y-144650000D01*
G75*
G02*
X111250000Y-144750000I-100000J0D01*
G01*
X109800000Y-144750000D01*
G75*
G02*
X109700000Y-144650000I0J100000D01*
G01*
X109700000Y-144450000D01*
G75*
G02*
X109800000Y-144350000I100000J0D01*
G01*
G37*
G36*
G01*
X109800000Y-143850000D02*
X111250000Y-143850000D01*
G75*
G02*
X111350000Y-143950000I0J-100000D01*
G01*
X111350000Y-144150000D01*
G75*
G02*
X111250000Y-144250000I-100000J0D01*
G01*
X109800000Y-144250000D01*
G75*
G02*
X109700000Y-144150000I0J100000D01*
G01*
X109700000Y-143950000D01*
G75*
G02*
X109800000Y-143850000I100000J0D01*
G01*
G37*
G36*
G01*
X109800000Y-143350000D02*
X111250000Y-143350000D01*
G75*
G02*
X111350000Y-143450000I0J-100000D01*
G01*
X111350000Y-143650000D01*
G75*
G02*
X111250000Y-143750000I-100000J0D01*
G01*
X109800000Y-143750000D01*
G75*
G02*
X109700000Y-143650000I0J100000D01*
G01*
X109700000Y-143450000D01*
G75*
G02*
X109800000Y-143350000I100000J0D01*
G01*
G37*
G36*
G01*
X109800000Y-142850000D02*
X111250000Y-142850000D01*
G75*
G02*
X111350000Y-142950000I0J-100000D01*
G01*
X111350000Y-143150000D01*
G75*
G02*
X111250000Y-143250000I-100000J0D01*
G01*
X109800000Y-143250000D01*
G75*
G02*
X109700000Y-143150000I0J100000D01*
G01*
X109700000Y-142950000D01*
G75*
G02*
X109800000Y-142850000I100000J0D01*
G01*
G37*
G36*
G01*
X109800000Y-142350000D02*
X111250000Y-142350000D01*
G75*
G02*
X111350000Y-142450000I0J-100000D01*
G01*
X111350000Y-142650000D01*
G75*
G02*
X111250000Y-142750000I-100000J0D01*
G01*
X109800000Y-142750000D01*
G75*
G02*
X109700000Y-142650000I0J100000D01*
G01*
X109700000Y-142450000D01*
G75*
G02*
X109800000Y-142350000I100000J0D01*
G01*
G37*
G36*
G01*
X109800000Y-141850000D02*
X111250000Y-141850000D01*
G75*
G02*
X111350000Y-141950000I0J-100000D01*
G01*
X111350000Y-142150000D01*
G75*
G02*
X111250000Y-142250000I-100000J0D01*
G01*
X109800000Y-142250000D01*
G75*
G02*
X109700000Y-142150000I0J100000D01*
G01*
X109700000Y-141950000D01*
G75*
G02*
X109800000Y-141850000I100000J0D01*
G01*
G37*
G36*
G01*
X109800000Y-141350000D02*
X111250000Y-141350000D01*
G75*
G02*
X111350000Y-141450000I0J-100000D01*
G01*
X111350000Y-141650000D01*
G75*
G02*
X111250000Y-141750000I-100000J0D01*
G01*
X109800000Y-141750000D01*
G75*
G02*
X109700000Y-141650000I0J100000D01*
G01*
X109700000Y-141450000D01*
G75*
G02*
X109800000Y-141350000I100000J0D01*
G01*
G37*
G36*
G01*
X109800000Y-140850000D02*
X111250000Y-140850000D01*
G75*
G02*
X111350000Y-140950000I0J-100000D01*
G01*
X111350000Y-141150000D01*
G75*
G02*
X111250000Y-141250000I-100000J0D01*
G01*
X109800000Y-141250000D01*
G75*
G02*
X109700000Y-141150000I0J100000D01*
G01*
X109700000Y-140950000D01*
G75*
G02*
X109800000Y-140850000I100000J0D01*
G01*
G37*
G36*
G01*
X109800000Y-140350000D02*
X111250000Y-140350000D01*
G75*
G02*
X111350000Y-140450000I0J-100000D01*
G01*
X111350000Y-140650000D01*
G75*
G02*
X111250000Y-140750000I-100000J0D01*
G01*
X109800000Y-140750000D01*
G75*
G02*
X109700000Y-140650000I0J100000D01*
G01*
X109700000Y-140450000D01*
G75*
G02*
X109800000Y-140350000I100000J0D01*
G01*
G37*
G36*
G01*
X112350000Y-137800000D02*
X112550000Y-137800000D01*
G75*
G02*
X112650000Y-137900000I0J-100000D01*
G01*
X112650000Y-139350000D01*
G75*
G02*
X112550000Y-139450000I-100000J0D01*
G01*
X112350000Y-139450000D01*
G75*
G02*
X112250000Y-139350000I0J100000D01*
G01*
X112250000Y-137900000D01*
G75*
G02*
X112350000Y-137800000I100000J0D01*
G01*
G37*
G36*
G01*
X112850000Y-137800000D02*
X113050000Y-137800000D01*
G75*
G02*
X113150000Y-137900000I0J-100000D01*
G01*
X113150000Y-139350000D01*
G75*
G02*
X113050000Y-139450000I-100000J0D01*
G01*
X112850000Y-139450000D01*
G75*
G02*
X112750000Y-139350000I0J100000D01*
G01*
X112750000Y-137900000D01*
G75*
G02*
X112850000Y-137800000I100000J0D01*
G01*
G37*
G36*
G01*
X113350000Y-137800000D02*
X113550000Y-137800000D01*
G75*
G02*
X113650000Y-137900000I0J-100000D01*
G01*
X113650000Y-139350000D01*
G75*
G02*
X113550000Y-139450000I-100000J0D01*
G01*
X113350000Y-139450000D01*
G75*
G02*
X113250000Y-139350000I0J100000D01*
G01*
X113250000Y-137900000D01*
G75*
G02*
X113350000Y-137800000I100000J0D01*
G01*
G37*
G36*
G01*
X113850000Y-137800000D02*
X114050000Y-137800000D01*
G75*
G02*
X114150000Y-137900000I0J-100000D01*
G01*
X114150000Y-139350000D01*
G75*
G02*
X114050000Y-139450000I-100000J0D01*
G01*
X113850000Y-139450000D01*
G75*
G02*
X113750000Y-139350000I0J100000D01*
G01*
X113750000Y-137900000D01*
G75*
G02*
X113850000Y-137800000I100000J0D01*
G01*
G37*
G36*
G01*
X114350000Y-137800000D02*
X114550000Y-137800000D01*
G75*
G02*
X114650000Y-137900000I0J-100000D01*
G01*
X114650000Y-139350000D01*
G75*
G02*
X114550000Y-139450000I-100000J0D01*
G01*
X114350000Y-139450000D01*
G75*
G02*
X114250000Y-139350000I0J100000D01*
G01*
X114250000Y-137900000D01*
G75*
G02*
X114350000Y-137800000I100000J0D01*
G01*
G37*
G36*
G01*
X114850000Y-137800000D02*
X115050000Y-137800000D01*
G75*
G02*
X115150000Y-137900000I0J-100000D01*
G01*
X115150000Y-139350000D01*
G75*
G02*
X115050000Y-139450000I-100000J0D01*
G01*
X114850000Y-139450000D01*
G75*
G02*
X114750000Y-139350000I0J100000D01*
G01*
X114750000Y-137900000D01*
G75*
G02*
X114850000Y-137800000I100000J0D01*
G01*
G37*
G36*
G01*
X115350000Y-137800000D02*
X115550000Y-137800000D01*
G75*
G02*
X115650000Y-137900000I0J-100000D01*
G01*
X115650000Y-139350000D01*
G75*
G02*
X115550000Y-139450000I-100000J0D01*
G01*
X115350000Y-139450000D01*
G75*
G02*
X115250000Y-139350000I0J100000D01*
G01*
X115250000Y-137900000D01*
G75*
G02*
X115350000Y-137800000I100000J0D01*
G01*
G37*
G36*
G01*
X115850000Y-137800000D02*
X116050000Y-137800000D01*
G75*
G02*
X116150000Y-137900000I0J-100000D01*
G01*
X116150000Y-139350000D01*
G75*
G02*
X116050000Y-139450000I-100000J0D01*
G01*
X115850000Y-139450000D01*
G75*
G02*
X115750000Y-139350000I0J100000D01*
G01*
X115750000Y-137900000D01*
G75*
G02*
X115850000Y-137800000I100000J0D01*
G01*
G37*
G36*
G01*
X116350000Y-137800000D02*
X116550000Y-137800000D01*
G75*
G02*
X116650000Y-137900000I0J-100000D01*
G01*
X116650000Y-139350000D01*
G75*
G02*
X116550000Y-139450000I-100000J0D01*
G01*
X116350000Y-139450000D01*
G75*
G02*
X116250000Y-139350000I0J100000D01*
G01*
X116250000Y-137900000D01*
G75*
G02*
X116350000Y-137800000I100000J0D01*
G01*
G37*
G36*
G01*
X116850000Y-137800000D02*
X117050000Y-137800000D01*
G75*
G02*
X117150000Y-137900000I0J-100000D01*
G01*
X117150000Y-139350000D01*
G75*
G02*
X117050000Y-139450000I-100000J0D01*
G01*
X116850000Y-139450000D01*
G75*
G02*
X116750000Y-139350000I0J100000D01*
G01*
X116750000Y-137900000D01*
G75*
G02*
X116850000Y-137800000I100000J0D01*
G01*
G37*
G36*
G01*
X117350000Y-137800000D02*
X117550000Y-137800000D01*
G75*
G02*
X117650000Y-137900000I0J-100000D01*
G01*
X117650000Y-139350000D01*
G75*
G02*
X117550000Y-139450000I-100000J0D01*
G01*
X117350000Y-139450000D01*
G75*
G02*
X117250000Y-139350000I0J100000D01*
G01*
X117250000Y-137900000D01*
G75*
G02*
X117350000Y-137800000I100000J0D01*
G01*
G37*
G36*
G01*
X117850000Y-137800000D02*
X118050000Y-137800000D01*
G75*
G02*
X118150000Y-137900000I0J-100000D01*
G01*
X118150000Y-139350000D01*
G75*
G02*
X118050000Y-139450000I-100000J0D01*
G01*
X117850000Y-139450000D01*
G75*
G02*
X117750000Y-139350000I0J100000D01*
G01*
X117750000Y-137900000D01*
G75*
G02*
X117850000Y-137800000I100000J0D01*
G01*
G37*
G36*
G01*
X118350000Y-137800000D02*
X118550000Y-137800000D01*
G75*
G02*
X118650000Y-137900000I0J-100000D01*
G01*
X118650000Y-139350000D01*
G75*
G02*
X118550000Y-139450000I-100000J0D01*
G01*
X118350000Y-139450000D01*
G75*
G02*
X118250000Y-139350000I0J100000D01*
G01*
X118250000Y-137900000D01*
G75*
G02*
X118350000Y-137800000I100000J0D01*
G01*
G37*
G36*
G01*
X118850000Y-137800000D02*
X119050000Y-137800000D01*
G75*
G02*
X119150000Y-137900000I0J-100000D01*
G01*
X119150000Y-139350000D01*
G75*
G02*
X119050000Y-139450000I-100000J0D01*
G01*
X118850000Y-139450000D01*
G75*
G02*
X118750000Y-139350000I0J100000D01*
G01*
X118750000Y-137900000D01*
G75*
G02*
X118850000Y-137800000I100000J0D01*
G01*
G37*
G36*
G01*
X119350000Y-137800000D02*
X119550000Y-137800000D01*
G75*
G02*
X119650000Y-137900000I0J-100000D01*
G01*
X119650000Y-139350000D01*
G75*
G02*
X119550000Y-139450000I-100000J0D01*
G01*
X119350000Y-139450000D01*
G75*
G02*
X119250000Y-139350000I0J100000D01*
G01*
X119250000Y-137900000D01*
G75*
G02*
X119350000Y-137800000I100000J0D01*
G01*
G37*
G36*
G01*
X119850000Y-137800000D02*
X120050000Y-137800000D01*
G75*
G02*
X120150000Y-137900000I0J-100000D01*
G01*
X120150000Y-139350000D01*
G75*
G02*
X120050000Y-139450000I-100000J0D01*
G01*
X119850000Y-139450000D01*
G75*
G02*
X119750000Y-139350000I0J100000D01*
G01*
X119750000Y-137900000D01*
G75*
G02*
X119850000Y-137800000I100000J0D01*
G01*
G37*
%TD*%
D12*
%TO.C,U1*%
X135500000Y-154450000D03*
X130900000Y-154450000D03*
X133200000Y-154450000D03*
D13*
X133200000Y-160750000D03*
%TD*%
%TO.C,R2*%
G36*
G01*
X102200000Y-146418750D02*
X102200000Y-146981250D01*
G75*
G02*
X101956250Y-147225000I-243750J0D01*
G01*
X101468750Y-147225000D01*
G75*
G02*
X101225000Y-146981250I0J243750D01*
G01*
X101225000Y-146418750D01*
G75*
G02*
X101468750Y-146175000I243750J0D01*
G01*
X101956250Y-146175000D01*
G75*
G02*
X102200000Y-146418750I0J-243750D01*
G01*
G37*
G36*
G01*
X103775000Y-146418750D02*
X103775000Y-146981250D01*
G75*
G02*
X103531250Y-147225000I-243750J0D01*
G01*
X103043750Y-147225000D01*
G75*
G02*
X102800000Y-146981250I0J243750D01*
G01*
X102800000Y-146418750D01*
G75*
G02*
X103043750Y-146175000I243750J0D01*
G01*
X103531250Y-146175000D01*
G75*
G02*
X103775000Y-146418750I0J-243750D01*
G01*
G37*
%TD*%
%TO.C,R1*%
G36*
G01*
X127400000Y-137418750D02*
X127400000Y-137981250D01*
G75*
G02*
X127156250Y-138225000I-243750J0D01*
G01*
X126668750Y-138225000D01*
G75*
G02*
X126425000Y-137981250I0J243750D01*
G01*
X126425000Y-137418750D01*
G75*
G02*
X126668750Y-137175000I243750J0D01*
G01*
X127156250Y-137175000D01*
G75*
G02*
X127400000Y-137418750I0J-243750D01*
G01*
G37*
G36*
G01*
X128975000Y-137418750D02*
X128975000Y-137981250D01*
G75*
G02*
X128731250Y-138225000I-243750J0D01*
G01*
X128243750Y-138225000D01*
G75*
G02*
X128000000Y-137981250I0J243750D01*
G01*
X128000000Y-137418750D01*
G75*
G02*
X128243750Y-137175000I243750J0D01*
G01*
X128731250Y-137175000D01*
G75*
G02*
X128975000Y-137418750I0J-243750D01*
G01*
G37*
%TD*%
D14*
%TO.C,J2*%
X124720000Y-159400000D03*
X112680000Y-159400000D03*
D15*
X119950000Y-156700000D03*
X117450000Y-156700000D03*
X117450000Y-154700000D03*
D16*
X119950000Y-154700000D03*
%TD*%
D17*
%TO.C,J3*%
X148560000Y-167600000D03*
X146020000Y-167600000D03*
X143480000Y-167600000D03*
X140940000Y-167600000D03*
D18*
X138400000Y-167600000D03*
%TD*%
D19*
%TO.C,J1*%
X130390000Y-142935000D03*
X130390000Y-141665000D03*
X131660000Y-142935000D03*
X131660000Y-141665000D03*
X132930000Y-142935000D03*
X132930000Y-141665000D03*
D20*
X129120000Y-141284000D03*
X129120000Y-143316000D03*
X134200000Y-142300000D03*
%TD*%
D21*
%TO.C,D29*%
X152550000Y-130400000D03*
X152550000Y-133600000D03*
X157450000Y-130400000D03*
X157450000Y-133600000D03*
%TD*%
%TO.C,D23*%
X148550000Y-122400000D03*
X148550000Y-125600000D03*
X153450000Y-122400000D03*
X153450000Y-125600000D03*
%TD*%
%TO.C,D28*%
X144550000Y-130400000D03*
X144550000Y-133600000D03*
X149450000Y-130400000D03*
X149450000Y-133600000D03*
%TD*%
%TO.C,D18*%
X144550000Y-114400000D03*
X144550000Y-117600000D03*
X149450000Y-114400000D03*
X149450000Y-117600000D03*
%TD*%
%TO.C,D11*%
X144550000Y-98400000D03*
X144550000Y-101600000D03*
X149450000Y-98400000D03*
X149450000Y-101600000D03*
%TD*%
%TO.C,D14*%
X140550000Y-106400000D03*
X140550000Y-109600000D03*
X145450000Y-106400000D03*
X145450000Y-109600000D03*
%TD*%
%TO.C,D22*%
X140550000Y-122400000D03*
X140550000Y-125600000D03*
X145450000Y-122400000D03*
X145450000Y-125600000D03*
%TD*%
%TO.C,D6*%
X140550000Y-90400000D03*
X140550000Y-93600000D03*
X145450000Y-90400000D03*
X145450000Y-93600000D03*
%TD*%
%TO.C,D27*%
X136550000Y-130400000D03*
X136550000Y-133600000D03*
X141450000Y-130400000D03*
X141450000Y-133600000D03*
%TD*%
%TO.C,D17*%
X136550000Y-114400000D03*
X136550000Y-117600000D03*
X141450000Y-114400000D03*
X141450000Y-117600000D03*
%TD*%
%TO.C,D10*%
X136550000Y-98400000D03*
X136550000Y-101600000D03*
X141450000Y-98400000D03*
X141450000Y-101600000D03*
%TD*%
%TO.C,D3*%
X136550000Y-82400000D03*
X136550000Y-85600000D03*
X141450000Y-82400000D03*
X141450000Y-85600000D03*
%TD*%
%TO.C,D21*%
X132550000Y-122400000D03*
X132550000Y-125600000D03*
X137450000Y-122400000D03*
X137450000Y-125600000D03*
%TD*%
%TO.C,D13*%
X132550000Y-106400000D03*
X132550000Y-109600000D03*
X137450000Y-106400000D03*
X137450000Y-109600000D03*
%TD*%
%TO.C,D5*%
X132550000Y-90400000D03*
X132550000Y-93600000D03*
X137450000Y-90400000D03*
X137450000Y-93600000D03*
%TD*%
%TO.C,D1*%
X132550000Y-74400000D03*
X132550000Y-77600000D03*
X137450000Y-74400000D03*
X137450000Y-77600000D03*
%TD*%
%TO.C,D26*%
X128550000Y-130400000D03*
X128550000Y-133600000D03*
X133450000Y-130400000D03*
X133450000Y-133600000D03*
%TD*%
%TO.C,D16*%
X128550000Y-114400000D03*
X128550000Y-117600000D03*
X133450000Y-114400000D03*
X133450000Y-117600000D03*
%TD*%
%TO.C,D9*%
X128550000Y-98400000D03*
X128550000Y-101600000D03*
X133450000Y-98400000D03*
X133450000Y-101600000D03*
%TD*%
%TO.C,D2*%
X128550000Y-82400000D03*
X128550000Y-85600000D03*
X133450000Y-82400000D03*
X133450000Y-85600000D03*
%TD*%
%TO.C,D20*%
X124550000Y-122400000D03*
X124550000Y-125600000D03*
X129450000Y-122400000D03*
X129450000Y-125600000D03*
%TD*%
%TO.C,D12*%
X124550000Y-106400000D03*
X124550000Y-109600000D03*
X129450000Y-106400000D03*
X129450000Y-109600000D03*
%TD*%
%TO.C,D4*%
X124550000Y-90400000D03*
X124550000Y-93600000D03*
X129450000Y-90400000D03*
X129450000Y-93600000D03*
%TD*%
%TO.C,D15*%
X120550000Y-114400000D03*
X120550000Y-117600000D03*
X125450000Y-114400000D03*
X125450000Y-117600000D03*
%TD*%
%TO.C,D25*%
X120550000Y-130400000D03*
X120550000Y-133600000D03*
X125450000Y-130400000D03*
X125450000Y-133600000D03*
%TD*%
%TO.C,D8*%
X120550000Y-98400000D03*
X120550000Y-101600000D03*
X125450000Y-98400000D03*
X125450000Y-101600000D03*
%TD*%
%TO.C,D19*%
X116550000Y-122400000D03*
X116550000Y-125600000D03*
X121450000Y-122400000D03*
X121450000Y-125600000D03*
%TD*%
%TO.C,D24*%
X112550000Y-130400000D03*
X112550000Y-133600000D03*
X117450000Y-130400000D03*
X117450000Y-133600000D03*
%TD*%
%TO.C,D7*%
G36*
G01*
X103600000Y-143681250D02*
X103600000Y-142718750D01*
G75*
G02*
X103868750Y-142450000I268750J0D01*
G01*
X104406250Y-142450000D01*
G75*
G02*
X104675000Y-142718750I0J-268750D01*
G01*
X104675000Y-143681250D01*
G75*
G02*
X104406250Y-143950000I-268750J0D01*
G01*
X103868750Y-143950000D01*
G75*
G02*
X103600000Y-143681250I0J268750D01*
G01*
G37*
G36*
G01*
X101725000Y-143681250D02*
X101725000Y-142718750D01*
G75*
G02*
X101993750Y-142450000I268750J0D01*
G01*
X102531250Y-142450000D01*
G75*
G02*
X102800000Y-142718750I0J-268750D01*
G01*
X102800000Y-143681250D01*
G75*
G02*
X102531250Y-143950000I-268750J0D01*
G01*
X101993750Y-143950000D01*
G75*
G02*
X101725000Y-143681250I0J268750D01*
G01*
G37*
%TD*%
%TO.C,C8*%
G36*
G01*
X114500000Y-136881250D02*
X114500000Y-136318750D01*
G75*
G02*
X114743750Y-136075000I243750J0D01*
G01*
X115231250Y-136075000D01*
G75*
G02*
X115475000Y-136318750I0J-243750D01*
G01*
X115475000Y-136881250D01*
G75*
G02*
X115231250Y-137125000I-243750J0D01*
G01*
X114743750Y-137125000D01*
G75*
G02*
X114500000Y-136881250I0J243750D01*
G01*
G37*
G36*
G01*
X112925000Y-136881250D02*
X112925000Y-136318750D01*
G75*
G02*
X113168750Y-136075000I243750J0D01*
G01*
X113656250Y-136075000D01*
G75*
G02*
X113900000Y-136318750I0J-243750D01*
G01*
X113900000Y-136881250D01*
G75*
G02*
X113656250Y-137125000I-243750J0D01*
G01*
X113168750Y-137125000D01*
G75*
G02*
X112925000Y-136881250I0J243750D01*
G01*
G37*
%TD*%
%TO.C,C7*%
G36*
G01*
X119900000Y-151818750D02*
X119900000Y-152381250D01*
G75*
G02*
X119656250Y-152625000I-243750J0D01*
G01*
X119168750Y-152625000D01*
G75*
G02*
X118925000Y-152381250I0J243750D01*
G01*
X118925000Y-151818750D01*
G75*
G02*
X119168750Y-151575000I243750J0D01*
G01*
X119656250Y-151575000D01*
G75*
G02*
X119900000Y-151818750I0J-243750D01*
G01*
G37*
G36*
G01*
X121475000Y-151818750D02*
X121475000Y-152381250D01*
G75*
G02*
X121231250Y-152625000I-243750J0D01*
G01*
X120743750Y-152625000D01*
G75*
G02*
X120500000Y-152381250I0J243750D01*
G01*
X120500000Y-151818750D01*
G75*
G02*
X120743750Y-151575000I243750J0D01*
G01*
X121231250Y-151575000D01*
G75*
G02*
X121475000Y-151818750I0J-243750D01*
G01*
G37*
%TD*%
%TO.C,C6*%
G36*
G01*
X123818750Y-141100000D02*
X124381250Y-141100000D01*
G75*
G02*
X124625000Y-141343750I0J-243750D01*
G01*
X124625000Y-141831250D01*
G75*
G02*
X124381250Y-142075000I-243750J0D01*
G01*
X123818750Y-142075000D01*
G75*
G02*
X123575000Y-141831250I0J243750D01*
G01*
X123575000Y-141343750D01*
G75*
G02*
X123818750Y-141100000I243750J0D01*
G01*
G37*
G36*
G01*
X123818750Y-139525000D02*
X124381250Y-139525000D01*
G75*
G02*
X124625000Y-139768750I0J-243750D01*
G01*
X124625000Y-140256250D01*
G75*
G02*
X124381250Y-140500000I-243750J0D01*
G01*
X123818750Y-140500000D01*
G75*
G02*
X123575000Y-140256250I0J243750D01*
G01*
X123575000Y-139768750D01*
G75*
G02*
X123818750Y-139525000I243750J0D01*
G01*
G37*
%TD*%
%TO.C,C10*%
G36*
G01*
X108000000Y-146981250D02*
X108000000Y-146018750D01*
G75*
G02*
X108268750Y-145750000I268750J0D01*
G01*
X108806250Y-145750000D01*
G75*
G02*
X109075000Y-146018750I0J-268750D01*
G01*
X109075000Y-146981250D01*
G75*
G02*
X108806250Y-147250000I-268750J0D01*
G01*
X108268750Y-147250000D01*
G75*
G02*
X108000000Y-146981250I0J268750D01*
G01*
G37*
G36*
G01*
X106125000Y-146981250D02*
X106125000Y-146018750D01*
G75*
G02*
X106393750Y-145750000I268750J0D01*
G01*
X106931250Y-145750000D01*
G75*
G02*
X107200000Y-146018750I0J-268750D01*
G01*
X107200000Y-146981250D01*
G75*
G02*
X106931250Y-147250000I-268750J0D01*
G01*
X106393750Y-147250000D01*
G75*
G02*
X106125000Y-146981250I0J268750D01*
G01*
G37*
%TD*%
%TO.C,C5*%
G36*
G01*
X121200000Y-136881250D02*
X121200000Y-136318750D01*
G75*
G02*
X121443750Y-136075000I243750J0D01*
G01*
X121931250Y-136075000D01*
G75*
G02*
X122175000Y-136318750I0J-243750D01*
G01*
X122175000Y-136881250D01*
G75*
G02*
X121931250Y-137125000I-243750J0D01*
G01*
X121443750Y-137125000D01*
G75*
G02*
X121200000Y-136881250I0J243750D01*
G01*
G37*
G36*
G01*
X119625000Y-136881250D02*
X119625000Y-136318750D01*
G75*
G02*
X119868750Y-136075000I243750J0D01*
G01*
X120356250Y-136075000D01*
G75*
G02*
X120600000Y-136318750I0J-243750D01*
G01*
X120600000Y-136881250D01*
G75*
G02*
X120356250Y-137125000I-243750J0D01*
G01*
X119868750Y-137125000D01*
G75*
G02*
X119625000Y-136881250I0J243750D01*
G01*
G37*
%TD*%
%TO.C,C4*%
G36*
G01*
X108681250Y-141100000D02*
X108118750Y-141100000D01*
G75*
G02*
X107875000Y-140856250I0J243750D01*
G01*
X107875000Y-140368750D01*
G75*
G02*
X108118750Y-140125000I243750J0D01*
G01*
X108681250Y-140125000D01*
G75*
G02*
X108925000Y-140368750I0J-243750D01*
G01*
X108925000Y-140856250D01*
G75*
G02*
X108681250Y-141100000I-243750J0D01*
G01*
G37*
G36*
G01*
X108681250Y-142675000D02*
X108118750Y-142675000D01*
G75*
G02*
X107875000Y-142431250I0J243750D01*
G01*
X107875000Y-141943750D01*
G75*
G02*
X108118750Y-141700000I243750J0D01*
G01*
X108681250Y-141700000D01*
G75*
G02*
X108925000Y-141943750I0J-243750D01*
G01*
X108925000Y-142431250D01*
G75*
G02*
X108681250Y-142675000I-243750J0D01*
G01*
G37*
%TD*%
%TO.C,C3*%
G36*
G01*
X107500000Y-148218750D02*
X107500000Y-148781250D01*
G75*
G02*
X107256250Y-149025000I-243750J0D01*
G01*
X106768750Y-149025000D01*
G75*
G02*
X106525000Y-148781250I0J243750D01*
G01*
X106525000Y-148218750D01*
G75*
G02*
X106768750Y-147975000I243750J0D01*
G01*
X107256250Y-147975000D01*
G75*
G02*
X107500000Y-148218750I0J-243750D01*
G01*
G37*
G36*
G01*
X109075000Y-148218750D02*
X109075000Y-148781250D01*
G75*
G02*
X108831250Y-149025000I-243750J0D01*
G01*
X108343750Y-149025000D01*
G75*
G02*
X108100000Y-148781250I0J243750D01*
G01*
X108100000Y-148218750D01*
G75*
G02*
X108343750Y-147975000I243750J0D01*
G01*
X108831250Y-147975000D01*
G75*
G02*
X109075000Y-148218750I0J-243750D01*
G01*
G37*
%TD*%
%TO.C,C2*%
G36*
G01*
X133881250Y-149600000D02*
X132918750Y-149600000D01*
G75*
G02*
X132650000Y-149331250I0J268750D01*
G01*
X132650000Y-148793750D01*
G75*
G02*
X132918750Y-148525000I268750J0D01*
G01*
X133881250Y-148525000D01*
G75*
G02*
X134150000Y-148793750I0J-268750D01*
G01*
X134150000Y-149331250D01*
G75*
G02*
X133881250Y-149600000I-268750J0D01*
G01*
G37*
G36*
G01*
X133881250Y-151475000D02*
X132918750Y-151475000D01*
G75*
G02*
X132650000Y-151206250I0J268750D01*
G01*
X132650000Y-150668750D01*
G75*
G02*
X132918750Y-150400000I268750J0D01*
G01*
X133881250Y-150400000D01*
G75*
G02*
X134150000Y-150668750I0J-268750D01*
G01*
X134150000Y-151206250D01*
G75*
G02*
X133881250Y-151475000I-268750J0D01*
G01*
G37*
%TD*%
%TO.C,C1*%
G36*
G01*
X131481250Y-149600000D02*
X130518750Y-149600000D01*
G75*
G02*
X130250000Y-149331250I0J268750D01*
G01*
X130250000Y-148793750D01*
G75*
G02*
X130518750Y-148525000I268750J0D01*
G01*
X131481250Y-148525000D01*
G75*
G02*
X131750000Y-148793750I0J-268750D01*
G01*
X131750000Y-149331250D01*
G75*
G02*
X131481250Y-149600000I-268750J0D01*
G01*
G37*
G36*
G01*
X131481250Y-151475000D02*
X130518750Y-151475000D01*
G75*
G02*
X130250000Y-151206250I0J268750D01*
G01*
X130250000Y-150668750D01*
G75*
G02*
X130518750Y-150400000I268750J0D01*
G01*
X131481250Y-150400000D01*
G75*
G02*
X131750000Y-150668750I0J-268750D01*
G01*
X131750000Y-151206250D01*
G75*
G02*
X131481250Y-151475000I-268750J0D01*
G01*
G37*
%TD*%
M02*
