%TF.GenerationSoftware,KiCad,Pcbnew,5.1.6-1.fc32*%
%TF.CreationDate,2020-11-21T02:42:39+01:00*%
%TF.ProjectId,christmas-card,63687269-7374-46d6-9173-2d636172642e,rev?*%
%TF.SameCoordinates,Original*%
%TF.FileFunction,Legend,Bot*%
%TF.FilePolarity,Positive*%
%FSLAX46Y46*%
G04 Gerber Fmt 4.6, Leading zero omitted, Abs format (unit mm)*
G04 Created by KiCad (PCBNEW 5.1.6-1.fc32) date 2020-11-21 02:42:39*
%MOMM*%
%LPD*%
G01*
G04 APERTURE LIST*
%ADD10C,0.250000*%
%ADD11C,0.150000*%
%ADD12C,0.120000*%
%ADD13C,0.300000*%
%ADD14C,0.010000*%
G04 APERTURE END LIST*
D10*
X165599404Y-102255952D02*
X165420833Y-102315476D01*
X165123214Y-102315476D01*
X165004166Y-102255952D01*
X164944642Y-102196428D01*
X164885119Y-102077380D01*
X164885119Y-101958333D01*
X164944642Y-101839285D01*
X165004166Y-101779761D01*
X165123214Y-101720238D01*
X165361309Y-101660714D01*
X165480357Y-101601190D01*
X165539880Y-101541666D01*
X165599404Y-101422619D01*
X165599404Y-101303571D01*
X165539880Y-101184523D01*
X165480357Y-101125000D01*
X165361309Y-101065476D01*
X165063690Y-101065476D01*
X164885119Y-101125000D01*
X164349404Y-101482142D02*
X164349404Y-102732142D01*
X164349404Y-101541666D02*
X164230357Y-101482142D01*
X163992261Y-101482142D01*
X163873214Y-101541666D01*
X163813690Y-101601190D01*
X163754166Y-101720238D01*
X163754166Y-102077380D01*
X163813690Y-102196428D01*
X163873214Y-102255952D01*
X163992261Y-102315476D01*
X164230357Y-102315476D01*
X164349404Y-102255952D01*
X162742261Y-102255952D02*
X162861309Y-102315476D01*
X163099404Y-102315476D01*
X163218452Y-102255952D01*
X163277976Y-102136904D01*
X163277976Y-101660714D01*
X163218452Y-101541666D01*
X163099404Y-101482142D01*
X162861309Y-101482142D01*
X162742261Y-101541666D01*
X162682738Y-101660714D01*
X162682738Y-101779761D01*
X163277976Y-101898809D01*
X161611309Y-102255952D02*
X161730357Y-102315476D01*
X161968452Y-102315476D01*
X162087500Y-102255952D01*
X162147023Y-102196428D01*
X162206547Y-102077380D01*
X162206547Y-101720238D01*
X162147023Y-101601190D01*
X162087500Y-101541666D01*
X161968452Y-101482142D01*
X161730357Y-101482142D01*
X161611309Y-101541666D01*
X161135119Y-102255952D02*
X161016071Y-102315476D01*
X160777976Y-102315476D01*
X160658928Y-102255952D01*
X160599404Y-102136904D01*
X160599404Y-102077380D01*
X160658928Y-101958333D01*
X160777976Y-101898809D01*
X160956547Y-101898809D01*
X161075595Y-101839285D01*
X161135119Y-101720238D01*
X161135119Y-101660714D01*
X161075595Y-101541666D01*
X160956547Y-101482142D01*
X160777976Y-101482142D01*
X160658928Y-101541666D01*
X160063690Y-102196428D02*
X160004166Y-102255952D01*
X160063690Y-102315476D01*
X160123214Y-102255952D01*
X160063690Y-102196428D01*
X160063690Y-102315476D01*
X160063690Y-101541666D02*
X160004166Y-101601190D01*
X160063690Y-101660714D01*
X160123214Y-101601190D01*
X160063690Y-101541666D01*
X160063690Y-101660714D01*
X157742261Y-103190476D02*
X157742261Y-103488095D01*
X158039880Y-103369047D02*
X157742261Y-103488095D01*
X157444642Y-103369047D01*
X157920833Y-103726190D02*
X157742261Y-103488095D01*
X157563690Y-103726190D01*
X156075595Y-104380952D02*
X155897023Y-104440476D01*
X155599404Y-104440476D01*
X155480357Y-104380952D01*
X155420833Y-104321428D01*
X155361309Y-104202380D01*
X155361309Y-104083333D01*
X155420833Y-103964285D01*
X155480357Y-103904761D01*
X155599404Y-103845238D01*
X155837500Y-103785714D01*
X155956547Y-103726190D01*
X156016071Y-103666666D01*
X156075595Y-103547619D01*
X156075595Y-103428571D01*
X156016071Y-103309523D01*
X155956547Y-103250000D01*
X155837500Y-103190476D01*
X155539880Y-103190476D01*
X155361309Y-103250000D01*
X155004166Y-103190476D02*
X154289880Y-103190476D01*
X154647023Y-104440476D02*
X154647023Y-103190476D01*
X153873214Y-104440476D02*
X153873214Y-103190476D01*
X153456547Y-104083333D01*
X153039880Y-103190476D01*
X153039880Y-104440476D01*
X152563690Y-103190476D02*
X151789880Y-103190476D01*
X152206547Y-103666666D01*
X152027976Y-103666666D01*
X151908928Y-103726190D01*
X151849404Y-103785714D01*
X151789880Y-103904761D01*
X151789880Y-104202380D01*
X151849404Y-104321428D01*
X151908928Y-104380952D01*
X152027976Y-104440476D01*
X152385119Y-104440476D01*
X152504166Y-104380952D01*
X152563690Y-104321428D01*
X151313690Y-103309523D02*
X151254166Y-103250000D01*
X151135119Y-103190476D01*
X150837500Y-103190476D01*
X150718452Y-103250000D01*
X150658928Y-103309523D01*
X150599404Y-103428571D01*
X150599404Y-103547619D01*
X150658928Y-103726190D01*
X151373214Y-104440476D01*
X150599404Y-104440476D01*
X149647023Y-103785714D02*
X150063690Y-103785714D01*
X150063690Y-104440476D02*
X150063690Y-103190476D01*
X149468452Y-103190476D01*
X148456547Y-103607142D02*
X148456547Y-104440476D01*
X148754166Y-103130952D02*
X149051785Y-104023809D01*
X148277976Y-104023809D01*
X147563690Y-103190476D02*
X147444642Y-103190476D01*
X147325595Y-103250000D01*
X147266071Y-103309523D01*
X147206547Y-103428571D01*
X147147023Y-103666666D01*
X147147023Y-103964285D01*
X147206547Y-104202380D01*
X147266071Y-104321428D01*
X147325595Y-104380952D01*
X147444642Y-104440476D01*
X147563690Y-104440476D01*
X147682738Y-104380952D01*
X147742261Y-104321428D01*
X147801785Y-104202380D01*
X147861309Y-103964285D01*
X147861309Y-103666666D01*
X147801785Y-103428571D01*
X147742261Y-103309523D01*
X147682738Y-103250000D01*
X147563690Y-103190476D01*
X145956547Y-104440476D02*
X146670833Y-104440476D01*
X146313690Y-104440476D02*
X146313690Y-103190476D01*
X146432738Y-103369047D01*
X146551785Y-103488095D01*
X146670833Y-103547619D01*
X144706547Y-104440476D02*
X145123214Y-103845238D01*
X145420833Y-104440476D02*
X145420833Y-103190476D01*
X144944642Y-103190476D01*
X144825595Y-103250000D01*
X144766071Y-103309523D01*
X144706547Y-103428571D01*
X144706547Y-103607142D01*
X144766071Y-103726190D01*
X144825595Y-103785714D01*
X144944642Y-103845238D01*
X145420833Y-103845238D01*
X144170833Y-103785714D02*
X143754166Y-103785714D01*
X143575595Y-104440476D02*
X144170833Y-104440476D01*
X144170833Y-103190476D01*
X143575595Y-103190476D01*
X157742261Y-105315476D02*
X157742261Y-105613095D01*
X158039880Y-105494047D02*
X157742261Y-105613095D01*
X157444642Y-105494047D01*
X157920833Y-105851190D02*
X157742261Y-105613095D01*
X157563690Y-105851190D01*
X155420833Y-106565476D02*
X156016071Y-106565476D01*
X156016071Y-105315476D01*
X154825595Y-106565476D02*
X154944642Y-106505952D01*
X155004166Y-106446428D01*
X155063690Y-106327380D01*
X155063690Y-105970238D01*
X155004166Y-105851190D01*
X154944642Y-105791666D01*
X154825595Y-105732142D01*
X154647023Y-105732142D01*
X154527976Y-105791666D01*
X154468452Y-105851190D01*
X154408928Y-105970238D01*
X154408928Y-106327380D01*
X154468452Y-106446428D01*
X154527976Y-106505952D01*
X154647023Y-106565476D01*
X154825595Y-106565476D01*
X153337499Y-106565476D02*
X153337499Y-105910714D01*
X153397023Y-105791666D01*
X153516071Y-105732142D01*
X153754166Y-105732142D01*
X153873214Y-105791666D01*
X153337499Y-106505952D02*
X153456547Y-106565476D01*
X153754166Y-106565476D01*
X153873214Y-106505952D01*
X153932738Y-106386904D01*
X153932738Y-106267857D01*
X153873214Y-106148809D01*
X153754166Y-106089285D01*
X153456547Y-106089285D01*
X153337499Y-106029761D01*
X152206547Y-106565476D02*
X152206547Y-105315476D01*
X152206547Y-106505952D02*
X152325595Y-106565476D01*
X152563690Y-106565476D01*
X152682738Y-106505952D01*
X152742261Y-106446428D01*
X152801785Y-106327380D01*
X152801785Y-105970238D01*
X152742261Y-105851190D01*
X152682738Y-105791666D01*
X152563690Y-105732142D01*
X152325595Y-105732142D01*
X152206547Y-105791666D01*
X151670833Y-106505952D02*
X151551785Y-106565476D01*
X151313690Y-106565476D01*
X151194642Y-106505952D01*
X151135119Y-106386904D01*
X151135119Y-106327380D01*
X151194642Y-106208333D01*
X151313690Y-106148809D01*
X151492261Y-106148809D01*
X151611309Y-106089285D01*
X151670833Y-105970238D01*
X151670833Y-105910714D01*
X151611309Y-105791666D01*
X151492261Y-105732142D01*
X151313690Y-105732142D01*
X151194642Y-105791666D01*
X149468452Y-106565476D02*
X149587499Y-106505952D01*
X149647023Y-106446428D01*
X149706547Y-106327380D01*
X149706547Y-105970238D01*
X149647023Y-105851190D01*
X149587499Y-105791666D01*
X149468452Y-105732142D01*
X149289880Y-105732142D01*
X149170833Y-105791666D01*
X149111309Y-105851190D01*
X149051785Y-105970238D01*
X149051785Y-106327380D01*
X149111309Y-106446428D01*
X149170833Y-106505952D01*
X149289880Y-106565476D01*
X149468452Y-106565476D01*
X148694642Y-105732142D02*
X148218452Y-105732142D01*
X148516071Y-106565476D02*
X148516071Y-105494047D01*
X148456547Y-105375000D01*
X148337499Y-105315476D01*
X148218452Y-105315476D01*
X146968452Y-105315476D02*
X146670833Y-106565476D01*
X146432738Y-105672619D01*
X146194642Y-106565476D01*
X145897023Y-105315476D01*
X145480357Y-106505952D02*
X145301785Y-106565476D01*
X145004166Y-106565476D01*
X144885119Y-106505952D01*
X144825595Y-106446428D01*
X144766071Y-106327380D01*
X144766071Y-106208333D01*
X144825595Y-106089285D01*
X144885119Y-106029761D01*
X145004166Y-105970238D01*
X145242261Y-105910714D01*
X145361309Y-105851190D01*
X145420833Y-105791666D01*
X145480357Y-105672619D01*
X145480357Y-105553571D01*
X145420833Y-105434523D01*
X145361309Y-105375000D01*
X145242261Y-105315476D01*
X144944642Y-105315476D01*
X144766071Y-105375000D01*
X144289880Y-105434523D02*
X144230357Y-105375000D01*
X144111309Y-105315476D01*
X143813690Y-105315476D01*
X143694642Y-105375000D01*
X143635119Y-105434523D01*
X143575595Y-105553571D01*
X143575595Y-105672619D01*
X143635119Y-105851190D01*
X144349404Y-106565476D01*
X143575595Y-106565476D01*
X142861309Y-105851190D02*
X142980357Y-105791666D01*
X143039880Y-105732142D01*
X143099404Y-105613095D01*
X143099404Y-105553571D01*
X143039880Y-105434523D01*
X142980357Y-105375000D01*
X142861309Y-105315476D01*
X142623214Y-105315476D01*
X142504166Y-105375000D01*
X142444642Y-105434523D01*
X142385119Y-105553571D01*
X142385119Y-105613095D01*
X142444642Y-105732142D01*
X142504166Y-105791666D01*
X142623214Y-105851190D01*
X142861309Y-105851190D01*
X142980357Y-105910714D01*
X143039880Y-105970238D01*
X143099404Y-106089285D01*
X143099404Y-106327380D01*
X143039880Y-106446428D01*
X142980357Y-106505952D01*
X142861309Y-106565476D01*
X142623214Y-106565476D01*
X142504166Y-106505952D01*
X142444642Y-106446428D01*
X142385119Y-106327380D01*
X142385119Y-106089285D01*
X142444642Y-105970238D01*
X142504166Y-105910714D01*
X142623214Y-105851190D01*
X141194642Y-106565476D02*
X141908928Y-106565476D01*
X141551785Y-106565476D02*
X141551785Y-105315476D01*
X141670833Y-105494047D01*
X141789880Y-105613095D01*
X141908928Y-105672619D01*
X140718452Y-105434523D02*
X140658928Y-105375000D01*
X140539880Y-105315476D01*
X140242261Y-105315476D01*
X140123214Y-105375000D01*
X140063690Y-105434523D01*
X140004166Y-105553571D01*
X140004166Y-105672619D01*
X140063690Y-105851190D01*
X140777976Y-106565476D01*
X140004166Y-106565476D01*
X139051785Y-105910714D02*
X138873214Y-105970238D01*
X138813690Y-106029761D01*
X138754166Y-106148809D01*
X138754166Y-106327380D01*
X138813690Y-106446428D01*
X138873214Y-106505952D01*
X138992261Y-106565476D01*
X139468452Y-106565476D01*
X139468452Y-105315476D01*
X139051785Y-105315476D01*
X138932738Y-105375000D01*
X138873214Y-105434523D01*
X138813690Y-105553571D01*
X138813690Y-105672619D01*
X138873214Y-105791666D01*
X138932738Y-105851190D01*
X139051785Y-105910714D01*
X139468452Y-105910714D01*
X136730357Y-106565476D02*
X136730357Y-105910714D01*
X136789880Y-105791666D01*
X136908928Y-105732142D01*
X137147023Y-105732142D01*
X137266071Y-105791666D01*
X136730357Y-106505952D02*
X136849404Y-106565476D01*
X137147023Y-106565476D01*
X137266071Y-106505952D01*
X137325595Y-106386904D01*
X137325595Y-106267857D01*
X137266071Y-106148809D01*
X137147023Y-106089285D01*
X136849404Y-106089285D01*
X136730357Y-106029761D01*
X135599404Y-106565476D02*
X135599404Y-105315476D01*
X135599404Y-106505952D02*
X135718452Y-106565476D01*
X135956547Y-106565476D01*
X136075595Y-106505952D01*
X136135119Y-106446428D01*
X136194642Y-106327380D01*
X136194642Y-105970238D01*
X136135119Y-105851190D01*
X136075595Y-105791666D01*
X135956547Y-105732142D01*
X135718452Y-105732142D01*
X135599404Y-105791666D01*
X134468452Y-106565476D02*
X134468452Y-105315476D01*
X134468452Y-106505952D02*
X134587499Y-106565476D01*
X134825595Y-106565476D01*
X134944642Y-106505952D01*
X135004166Y-106446428D01*
X135063690Y-106327380D01*
X135063690Y-105970238D01*
X135004166Y-105851190D01*
X134944642Y-105791666D01*
X134825595Y-105732142D01*
X134587499Y-105732142D01*
X134468452Y-105791666D01*
X133873214Y-106565476D02*
X133873214Y-105732142D01*
X133873214Y-105970238D02*
X133813690Y-105851190D01*
X133754166Y-105791666D01*
X133635119Y-105732142D01*
X133516071Y-105732142D01*
X132623214Y-106505952D02*
X132742261Y-106565476D01*
X132980357Y-106565476D01*
X133099404Y-106505952D01*
X133158928Y-106386904D01*
X133158928Y-105910714D01*
X133099404Y-105791666D01*
X132980357Y-105732142D01*
X132742261Y-105732142D01*
X132623214Y-105791666D01*
X132563690Y-105910714D01*
X132563690Y-106029761D01*
X133158928Y-106148809D01*
X132087499Y-106505952D02*
X131968452Y-106565476D01*
X131730357Y-106565476D01*
X131611309Y-106505952D01*
X131551785Y-106386904D01*
X131551785Y-106327380D01*
X131611309Y-106208333D01*
X131730357Y-106148809D01*
X131908928Y-106148809D01*
X132027976Y-106089285D01*
X132087499Y-105970238D01*
X132087499Y-105910714D01*
X132027976Y-105791666D01*
X131908928Y-105732142D01*
X131730357Y-105732142D01*
X131611309Y-105791666D01*
X131075595Y-106505952D02*
X130956547Y-106565476D01*
X130718452Y-106565476D01*
X130599404Y-106505952D01*
X130539880Y-106386904D01*
X130539880Y-106327380D01*
X130599404Y-106208333D01*
X130718452Y-106148809D01*
X130897023Y-106148809D01*
X131016071Y-106089285D01*
X131075595Y-105970238D01*
X131075595Y-105910714D01*
X131016071Y-105791666D01*
X130897023Y-105732142D01*
X130718452Y-105732142D01*
X130599404Y-105791666D01*
X129468452Y-106565476D02*
X129468452Y-105910714D01*
X129527976Y-105791666D01*
X129647023Y-105732142D01*
X129885119Y-105732142D01*
X130004166Y-105791666D01*
X129468452Y-106505952D02*
X129587499Y-106565476D01*
X129885119Y-106565476D01*
X130004166Y-106505952D01*
X130063690Y-106386904D01*
X130063690Y-106267857D01*
X130004166Y-106148809D01*
X129885119Y-106089285D01*
X129587499Y-106089285D01*
X129468452Y-106029761D01*
X128873214Y-106565476D02*
X128873214Y-105315476D01*
X128873214Y-105791666D02*
X128754166Y-105732142D01*
X128516071Y-105732142D01*
X128397023Y-105791666D01*
X128337499Y-105851190D01*
X128277976Y-105970238D01*
X128277976Y-106327380D01*
X128337499Y-106446428D01*
X128397023Y-106505952D01*
X128516071Y-106565476D01*
X128754166Y-106565476D01*
X128873214Y-106505952D01*
X127563690Y-106565476D02*
X127682738Y-106505952D01*
X127742261Y-106386904D01*
X127742261Y-105315476D01*
X126611309Y-106505952D02*
X126730357Y-106565476D01*
X126968452Y-106565476D01*
X127087499Y-106505952D01*
X127147023Y-106386904D01*
X127147023Y-105910714D01*
X127087499Y-105791666D01*
X126968452Y-105732142D01*
X126730357Y-105732142D01*
X126611309Y-105791666D01*
X126551785Y-105910714D01*
X126551785Y-106029761D01*
X127147023Y-106148809D01*
X124468452Y-106565476D02*
X125063690Y-106565476D01*
X125063690Y-105315476D01*
X124051785Y-105910714D02*
X123635119Y-105910714D01*
X123456547Y-106565476D02*
X124051785Y-106565476D01*
X124051785Y-105315476D01*
X123456547Y-105315476D01*
X122920833Y-106565476D02*
X122920833Y-105315476D01*
X122623214Y-105315476D01*
X122444642Y-105375000D01*
X122325595Y-105494047D01*
X122266071Y-105613095D01*
X122206547Y-105851190D01*
X122206547Y-106029761D01*
X122266071Y-106267857D01*
X122325595Y-106386904D01*
X122444642Y-106505952D01*
X122623214Y-106565476D01*
X122920833Y-106565476D01*
X121730357Y-106505952D02*
X121611309Y-106565476D01*
X121373214Y-106565476D01*
X121254166Y-106505952D01*
X121194642Y-106386904D01*
X121194642Y-106327380D01*
X121254166Y-106208333D01*
X121373214Y-106148809D01*
X121551785Y-106148809D01*
X121670833Y-106089285D01*
X121730357Y-105970238D01*
X121730357Y-105910714D01*
X121670833Y-105791666D01*
X121551785Y-105732142D01*
X121373214Y-105732142D01*
X121254166Y-105791666D01*
X157742261Y-107440476D02*
X157742261Y-107738095D01*
X158039880Y-107619047D02*
X157742261Y-107738095D01*
X157444642Y-107619047D01*
X157920833Y-107976190D02*
X157742261Y-107738095D01*
X157563690Y-107976190D01*
X155420833Y-108690476D02*
X156016071Y-108690476D01*
X156016071Y-107440476D01*
X155004166Y-108690476D02*
X155004166Y-107440476D01*
X154587500Y-108333333D01*
X154170833Y-107440476D01*
X154170833Y-108690476D01*
X153694642Y-107440476D02*
X152861309Y-107440476D01*
X153397023Y-108690476D01*
X151789880Y-107440476D02*
X152385119Y-107440476D01*
X152444642Y-108035714D01*
X152385119Y-107976190D01*
X152266071Y-107916666D01*
X151968452Y-107916666D01*
X151849404Y-107976190D01*
X151789880Y-108035714D01*
X151730357Y-108154761D01*
X151730357Y-108452380D01*
X151789880Y-108571428D01*
X151849404Y-108630952D01*
X151968452Y-108690476D01*
X152266071Y-108690476D01*
X152385119Y-108630952D01*
X152444642Y-108571428D01*
X150777976Y-108035714D02*
X150599404Y-108095238D01*
X150539880Y-108154761D01*
X150480357Y-108273809D01*
X150480357Y-108452380D01*
X150539880Y-108571428D01*
X150599404Y-108630952D01*
X150718452Y-108690476D01*
X151194642Y-108690476D01*
X151194642Y-107440476D01*
X150777976Y-107440476D01*
X150658928Y-107500000D01*
X150599404Y-107559523D01*
X150539880Y-107678571D01*
X150539880Y-107797619D01*
X150599404Y-107916666D01*
X150658928Y-107976190D01*
X150777976Y-108035714D01*
X151194642Y-108035714D01*
X148992261Y-108690476D02*
X148992261Y-107440476D01*
X148456547Y-107142857D02*
X148337500Y-107083333D01*
X148158928Y-107083333D01*
X148039880Y-107142857D01*
X147980357Y-107261904D01*
X147980357Y-107380952D01*
X148039880Y-107500000D01*
X148456547Y-107916666D01*
X147980357Y-107916666D01*
X146730357Y-108571428D02*
X146789880Y-108630952D01*
X146968452Y-108690476D01*
X147087500Y-108690476D01*
X147266071Y-108630952D01*
X147385119Y-108511904D01*
X147444642Y-108392857D01*
X147504166Y-108154761D01*
X147504166Y-107976190D01*
X147444642Y-107738095D01*
X147385119Y-107619047D01*
X147266071Y-107500000D01*
X147087500Y-107440476D01*
X146968452Y-107440476D01*
X146789880Y-107500000D01*
X146730357Y-107559523D01*
X145420833Y-107440476D02*
X144706547Y-107440476D01*
X145063690Y-108690476D02*
X145063690Y-107440476D01*
X143813690Y-108630952D02*
X143932738Y-108690476D01*
X144170833Y-108690476D01*
X144289880Y-108630952D01*
X144349404Y-108511904D01*
X144349404Y-108035714D01*
X144289880Y-107916666D01*
X144170833Y-107857142D01*
X143932738Y-107857142D01*
X143813690Y-107916666D01*
X143754166Y-108035714D01*
X143754166Y-108154761D01*
X144349404Y-108273809D01*
X143218452Y-108690476D02*
X143218452Y-107857142D01*
X143218452Y-107976190D02*
X143158928Y-107916666D01*
X143039880Y-107857142D01*
X142861309Y-107857142D01*
X142742261Y-107916666D01*
X142682738Y-108035714D01*
X142682738Y-108690476D01*
X142682738Y-108035714D02*
X142623214Y-107916666D01*
X142504166Y-107857142D01*
X142325595Y-107857142D01*
X142206547Y-107916666D01*
X142147023Y-108035714D01*
X142147023Y-108690476D01*
X141551785Y-107857142D02*
X141551785Y-109107142D01*
X141551785Y-107916666D02*
X141432738Y-107857142D01*
X141194642Y-107857142D01*
X141075595Y-107916666D01*
X141016071Y-107976190D01*
X140956547Y-108095238D01*
X140956547Y-108452380D01*
X141016071Y-108571428D01*
X141075595Y-108630952D01*
X141194642Y-108690476D01*
X141432738Y-108690476D01*
X141551785Y-108630952D01*
X139944642Y-108630952D02*
X140063690Y-108690476D01*
X140301785Y-108690476D01*
X140420833Y-108630952D01*
X140480357Y-108511904D01*
X140480357Y-108035714D01*
X140420833Y-107916666D01*
X140301785Y-107857142D01*
X140063690Y-107857142D01*
X139944642Y-107916666D01*
X139885119Y-108035714D01*
X139885119Y-108154761D01*
X140480357Y-108273809D01*
X139349404Y-108690476D02*
X139349404Y-107857142D01*
X139349404Y-108095238D02*
X139289880Y-107976190D01*
X139230357Y-107916666D01*
X139111309Y-107857142D01*
X138992261Y-107857142D01*
X138039880Y-108690476D02*
X138039880Y-108035714D01*
X138099404Y-107916666D01*
X138218452Y-107857142D01*
X138456547Y-107857142D01*
X138575595Y-107916666D01*
X138039880Y-108630952D02*
X138158928Y-108690476D01*
X138456547Y-108690476D01*
X138575595Y-108630952D01*
X138635119Y-108511904D01*
X138635119Y-108392857D01*
X138575595Y-108273809D01*
X138456547Y-108214285D01*
X138158928Y-108214285D01*
X138039880Y-108154761D01*
X137623214Y-107857142D02*
X137147023Y-107857142D01*
X137444642Y-107440476D02*
X137444642Y-108511904D01*
X137385119Y-108630952D01*
X137266071Y-108690476D01*
X137147023Y-108690476D01*
X136194642Y-107857142D02*
X136194642Y-108690476D01*
X136730357Y-107857142D02*
X136730357Y-108511904D01*
X136670833Y-108630952D01*
X136551785Y-108690476D01*
X136373214Y-108690476D01*
X136254166Y-108630952D01*
X136194642Y-108571428D01*
X135599404Y-108690476D02*
X135599404Y-107857142D01*
X135599404Y-108095238D02*
X135539880Y-107976190D01*
X135480357Y-107916666D01*
X135361309Y-107857142D01*
X135242261Y-107857142D01*
X134349404Y-108630952D02*
X134468452Y-108690476D01*
X134706547Y-108690476D01*
X134825595Y-108630952D01*
X134885119Y-108511904D01*
X134885119Y-108035714D01*
X134825595Y-107916666D01*
X134706547Y-107857142D01*
X134468452Y-107857142D01*
X134349404Y-107916666D01*
X134289880Y-108035714D01*
X134289880Y-108154761D01*
X134885119Y-108273809D01*
X132861309Y-108630952D02*
X132682738Y-108690476D01*
X132385119Y-108690476D01*
X132266071Y-108630952D01*
X132206547Y-108571428D01*
X132147023Y-108452380D01*
X132147023Y-108333333D01*
X132206547Y-108214285D01*
X132266071Y-108154761D01*
X132385119Y-108095238D01*
X132623214Y-108035714D01*
X132742261Y-107976190D01*
X132801785Y-107916666D01*
X132861309Y-107797619D01*
X132861309Y-107678571D01*
X132801785Y-107559523D01*
X132742261Y-107500000D01*
X132623214Y-107440476D01*
X132325595Y-107440476D01*
X132147023Y-107500000D01*
X131135119Y-108630952D02*
X131254166Y-108690476D01*
X131492261Y-108690476D01*
X131611309Y-108630952D01*
X131670833Y-108511904D01*
X131670833Y-108035714D01*
X131611309Y-107916666D01*
X131492261Y-107857142D01*
X131254166Y-107857142D01*
X131135119Y-107916666D01*
X131075595Y-108035714D01*
X131075595Y-108154761D01*
X131670833Y-108273809D01*
X130539880Y-107857142D02*
X130539880Y-108690476D01*
X130539880Y-107976190D02*
X130480357Y-107916666D01*
X130361309Y-107857142D01*
X130182738Y-107857142D01*
X130063690Y-107916666D01*
X130004166Y-108035714D01*
X130004166Y-108690476D01*
X129468452Y-108630952D02*
X129349404Y-108690476D01*
X129111309Y-108690476D01*
X128992261Y-108630952D01*
X128932738Y-108511904D01*
X128932738Y-108452380D01*
X128992261Y-108333333D01*
X129111309Y-108273809D01*
X129289880Y-108273809D01*
X129408928Y-108214285D01*
X129468452Y-108095238D01*
X129468452Y-108035714D01*
X129408928Y-107916666D01*
X129289880Y-107857142D01*
X129111309Y-107857142D01*
X128992261Y-107916666D01*
X128218452Y-108690476D02*
X128337500Y-108630952D01*
X128397023Y-108571428D01*
X128456547Y-108452380D01*
X128456547Y-108095238D01*
X128397023Y-107976190D01*
X128337500Y-107916666D01*
X128218452Y-107857142D01*
X128039880Y-107857142D01*
X127920833Y-107916666D01*
X127861309Y-107976190D01*
X127801785Y-108095238D01*
X127801785Y-108452380D01*
X127861309Y-108571428D01*
X127920833Y-108630952D01*
X128039880Y-108690476D01*
X128218452Y-108690476D01*
X127266071Y-108690476D02*
X127266071Y-107857142D01*
X127266071Y-108095238D02*
X127206547Y-107976190D01*
X127147023Y-107916666D01*
X127027976Y-107857142D01*
X126908928Y-107857142D01*
X157742261Y-109565476D02*
X157742261Y-109863095D01*
X158039880Y-109744047D02*
X157742261Y-109863095D01*
X157444642Y-109744047D01*
X157920833Y-110101190D02*
X157742261Y-109863095D01*
X157563690Y-110101190D01*
X155301785Y-110815476D02*
X155718452Y-110220238D01*
X156016071Y-110815476D02*
X156016071Y-109565476D01*
X155539880Y-109565476D01*
X155420833Y-109625000D01*
X155361309Y-109684523D01*
X155301785Y-109803571D01*
X155301785Y-109982142D01*
X155361309Y-110101190D01*
X155420833Y-110160714D01*
X155539880Y-110220238D01*
X156016071Y-110220238D01*
X154230357Y-109982142D02*
X154230357Y-110815476D01*
X154766071Y-109982142D02*
X154766071Y-110636904D01*
X154706547Y-110755952D01*
X154587499Y-110815476D01*
X154408928Y-110815476D01*
X154289880Y-110755952D01*
X154230357Y-110696428D01*
X153635119Y-109982142D02*
X153635119Y-110815476D01*
X153635119Y-110101190D02*
X153575595Y-110041666D01*
X153456547Y-109982142D01*
X153277976Y-109982142D01*
X153158928Y-110041666D01*
X153099404Y-110160714D01*
X153099404Y-110815476D01*
X152563690Y-110755952D02*
X152444642Y-110815476D01*
X152206547Y-110815476D01*
X152087499Y-110755952D01*
X152027976Y-110636904D01*
X152027976Y-110577380D01*
X152087499Y-110458333D01*
X152206547Y-110398809D01*
X152385119Y-110398809D01*
X152504166Y-110339285D01*
X152563690Y-110220238D01*
X152563690Y-110160714D01*
X152504166Y-110041666D01*
X152385119Y-109982142D01*
X152206547Y-109982142D01*
X152087499Y-110041666D01*
X150539880Y-110815476D02*
X150539880Y-109565476D01*
X150123214Y-110458333D01*
X149706547Y-109565476D01*
X149706547Y-110815476D01*
X149111309Y-110815476D02*
X149111309Y-109982142D01*
X149111309Y-109565476D02*
X149170833Y-109625000D01*
X149111309Y-109684523D01*
X149051785Y-109625000D01*
X149111309Y-109565476D01*
X149111309Y-109684523D01*
X147980357Y-110755952D02*
X148099404Y-110815476D01*
X148337499Y-110815476D01*
X148456547Y-110755952D01*
X148516071Y-110696428D01*
X148575595Y-110577380D01*
X148575595Y-110220238D01*
X148516071Y-110101190D01*
X148456547Y-110041666D01*
X148337499Y-109982142D01*
X148099404Y-109982142D01*
X147980357Y-110041666D01*
X147444642Y-110815476D02*
X147444642Y-109982142D01*
X147444642Y-110220238D02*
X147385119Y-110101190D01*
X147325595Y-110041666D01*
X147206547Y-109982142D01*
X147087499Y-109982142D01*
X146492261Y-110815476D02*
X146611309Y-110755952D01*
X146670833Y-110696428D01*
X146730357Y-110577380D01*
X146730357Y-110220238D01*
X146670833Y-110101190D01*
X146611309Y-110041666D01*
X146492261Y-109982142D01*
X146313690Y-109982142D01*
X146194642Y-110041666D01*
X146135119Y-110101190D01*
X146075595Y-110220238D01*
X146075595Y-110577380D01*
X146135119Y-110696428D01*
X146194642Y-110755952D01*
X146313690Y-110815476D01*
X146492261Y-110815476D01*
X145539880Y-109982142D02*
X145539880Y-111232142D01*
X145539880Y-110041666D02*
X145420833Y-109982142D01*
X145182738Y-109982142D01*
X145063690Y-110041666D01*
X145004166Y-110101190D01*
X144944642Y-110220238D01*
X144944642Y-110577380D01*
X145004166Y-110696428D01*
X145063690Y-110755952D01*
X145182738Y-110815476D01*
X145420833Y-110815476D01*
X145539880Y-110755952D01*
X144527976Y-109982142D02*
X144230357Y-110815476D01*
X143932738Y-109982142D02*
X144230357Y-110815476D01*
X144349404Y-111113095D01*
X144408928Y-111172619D01*
X144527976Y-111232142D01*
X143635119Y-109982142D02*
X143158928Y-109982142D01*
X143456547Y-109565476D02*
X143456547Y-110636904D01*
X143397023Y-110755952D01*
X143277976Y-110815476D01*
X143158928Y-110815476D01*
X142742261Y-110815476D02*
X142742261Y-109565476D01*
X142206547Y-110815476D02*
X142206547Y-110160714D01*
X142266071Y-110041666D01*
X142385119Y-109982142D01*
X142563690Y-109982142D01*
X142682738Y-110041666D01*
X142742261Y-110101190D01*
X141432738Y-110815476D02*
X141551785Y-110755952D01*
X141611309Y-110696428D01*
X141670833Y-110577380D01*
X141670833Y-110220238D01*
X141611309Y-110101190D01*
X141551785Y-110041666D01*
X141432738Y-109982142D01*
X141254166Y-109982142D01*
X141135119Y-110041666D01*
X141075595Y-110101190D01*
X141016071Y-110220238D01*
X141016071Y-110577380D01*
X141075595Y-110696428D01*
X141135119Y-110755952D01*
X141254166Y-110815476D01*
X141432738Y-110815476D01*
X140480357Y-109982142D02*
X140480357Y-110815476D01*
X140480357Y-110101190D02*
X140420833Y-110041666D01*
X140301785Y-109982142D01*
X140123214Y-109982142D01*
X140004166Y-110041666D01*
X139944642Y-110160714D01*
X139944642Y-110815476D01*
X138039880Y-111291666D02*
X138099404Y-111232142D01*
X138218452Y-111053571D01*
X138277976Y-110934523D01*
X138337499Y-110755952D01*
X138397023Y-110458333D01*
X138397023Y-110220238D01*
X138337499Y-109922619D01*
X138277976Y-109744047D01*
X138218452Y-109625000D01*
X138099404Y-109446428D01*
X138039880Y-109386904D01*
X137563690Y-110815476D02*
X137563690Y-109982142D01*
X137563690Y-109565476D02*
X137623214Y-109625000D01*
X137563690Y-109684523D01*
X137504166Y-109625000D01*
X137563690Y-109565476D01*
X137563690Y-109684523D01*
X137147023Y-109982142D02*
X136670833Y-109982142D01*
X136968452Y-110815476D02*
X136968452Y-109744047D01*
X136908928Y-109625000D01*
X136789880Y-109565476D01*
X136670833Y-109565476D01*
X135301785Y-110815476D02*
X135301785Y-109565476D01*
X133218452Y-110755952D02*
X133337499Y-110815476D01*
X133575595Y-110815476D01*
X133694642Y-110755952D01*
X133754166Y-110696428D01*
X133813690Y-110577380D01*
X133813690Y-110220238D01*
X133754166Y-110101190D01*
X133694642Y-110041666D01*
X133575595Y-109982142D01*
X133337499Y-109982142D01*
X133218452Y-110041666D01*
X132147023Y-110815476D02*
X132147023Y-110160714D01*
X132206547Y-110041666D01*
X132325595Y-109982142D01*
X132563690Y-109982142D01*
X132682738Y-110041666D01*
X132147023Y-110755952D02*
X132266071Y-110815476D01*
X132563690Y-110815476D01*
X132682738Y-110755952D01*
X132742261Y-110636904D01*
X132742261Y-110517857D01*
X132682738Y-110398809D01*
X132563690Y-110339285D01*
X132266071Y-110339285D01*
X132147023Y-110279761D01*
X131551785Y-109982142D02*
X131551785Y-110815476D01*
X131551785Y-110101190D02*
X131492261Y-110041666D01*
X131373214Y-109982142D01*
X131194642Y-109982142D01*
X131075595Y-110041666D01*
X131016071Y-110160714D01*
X131016071Y-110815476D01*
X128932738Y-109982142D02*
X128932738Y-110994047D01*
X128992261Y-111113095D01*
X129051785Y-111172619D01*
X129170833Y-111232142D01*
X129349404Y-111232142D01*
X129468452Y-111172619D01*
X128932738Y-110755952D02*
X129051785Y-110815476D01*
X129289880Y-110815476D01*
X129408928Y-110755952D01*
X129468452Y-110696428D01*
X129527976Y-110577380D01*
X129527976Y-110220238D01*
X129468452Y-110101190D01*
X129408928Y-110041666D01*
X129289880Y-109982142D01*
X129051785Y-109982142D01*
X128932738Y-110041666D01*
X127861309Y-110755952D02*
X127980357Y-110815476D01*
X128218452Y-110815476D01*
X128337499Y-110755952D01*
X128397023Y-110636904D01*
X128397023Y-110160714D01*
X128337499Y-110041666D01*
X128218452Y-109982142D01*
X127980357Y-109982142D01*
X127861309Y-110041666D01*
X127801785Y-110160714D01*
X127801785Y-110279761D01*
X128397023Y-110398809D01*
X127444642Y-109982142D02*
X126968452Y-109982142D01*
X127266071Y-109565476D02*
X127266071Y-110636904D01*
X127206547Y-110755952D01*
X127087499Y-110815476D01*
X126968452Y-110815476D01*
X125599404Y-110815476D02*
X125599404Y-109982142D01*
X125599404Y-109565476D02*
X125658928Y-109625000D01*
X125599404Y-109684523D01*
X125539880Y-109625000D01*
X125599404Y-109565476D01*
X125599404Y-109684523D01*
X125182738Y-109982142D02*
X124706547Y-109982142D01*
X125004166Y-109565476D02*
X125004166Y-110636904D01*
X124944642Y-110755952D01*
X124825595Y-110815476D01*
X124706547Y-110815476D01*
X123456547Y-109982142D02*
X123218452Y-110815476D01*
X122980357Y-110220238D01*
X122742261Y-110815476D01*
X122504166Y-109982142D01*
X121849404Y-110815476D02*
X121968452Y-110755952D01*
X122027976Y-110696428D01*
X122087499Y-110577380D01*
X122087499Y-110220238D01*
X122027976Y-110101190D01*
X121968452Y-110041666D01*
X121849404Y-109982142D01*
X121670833Y-109982142D01*
X121551785Y-110041666D01*
X121492261Y-110101190D01*
X121432738Y-110220238D01*
X121432738Y-110577380D01*
X121492261Y-110696428D01*
X121551785Y-110755952D01*
X121670833Y-110815476D01*
X121849404Y-110815476D01*
X120897023Y-110815476D02*
X120897023Y-109982142D01*
X120897023Y-110220238D02*
X120837499Y-110101190D01*
X120777976Y-110041666D01*
X120658928Y-109982142D01*
X120539880Y-109982142D01*
X120123214Y-110815476D02*
X120123214Y-109565476D01*
X120004166Y-110339285D02*
X119647023Y-110815476D01*
X119647023Y-109982142D02*
X120123214Y-110458333D01*
X119111309Y-110815476D02*
X119111309Y-109982142D01*
X119111309Y-109565476D02*
X119170833Y-109625000D01*
X119111309Y-109684523D01*
X119051785Y-109625000D01*
X119111309Y-109565476D01*
X119111309Y-109684523D01*
X118516071Y-109982142D02*
X118516071Y-110815476D01*
X118516071Y-110101190D02*
X118456547Y-110041666D01*
X118337499Y-109982142D01*
X118158928Y-109982142D01*
X118039880Y-110041666D01*
X117980357Y-110160714D01*
X117980357Y-110815476D01*
X116849404Y-109982142D02*
X116849404Y-110994047D01*
X116908928Y-111113095D01*
X116968452Y-111172619D01*
X117087499Y-111232142D01*
X117266071Y-111232142D01*
X117385119Y-111172619D01*
X116849404Y-110755952D02*
X116968452Y-110815476D01*
X117206547Y-110815476D01*
X117325595Y-110755952D01*
X117385119Y-110696428D01*
X117444642Y-110577380D01*
X117444642Y-110220238D01*
X117385119Y-110101190D01*
X117325595Y-110041666D01*
X117206547Y-109982142D01*
X116968452Y-109982142D01*
X116849404Y-110041666D01*
X115301785Y-110815476D02*
X115301785Y-109982142D01*
X115301785Y-109565476D02*
X115361309Y-109625000D01*
X115301785Y-109684523D01*
X115242261Y-109625000D01*
X115301785Y-109565476D01*
X115301785Y-109684523D01*
X114706547Y-109982142D02*
X114706547Y-110815476D01*
X114706547Y-110101190D02*
X114647023Y-110041666D01*
X114527976Y-109982142D01*
X114349404Y-109982142D01*
X114230357Y-110041666D01*
X114170833Y-110160714D01*
X114170833Y-110815476D01*
X112801785Y-109982142D02*
X112325595Y-109982142D01*
X112623214Y-109565476D02*
X112623214Y-110636904D01*
X112563690Y-110755952D01*
X112444642Y-110815476D01*
X112325595Y-110815476D01*
X111908928Y-110815476D02*
X111908928Y-109982142D01*
X111908928Y-109565476D02*
X111968452Y-109625000D01*
X111908928Y-109684523D01*
X111849404Y-109625000D01*
X111908928Y-109565476D01*
X111908928Y-109684523D01*
X111313690Y-110815476D02*
X111313690Y-109982142D01*
X111313690Y-110101190D02*
X111254166Y-110041666D01*
X111135119Y-109982142D01*
X110956547Y-109982142D01*
X110837499Y-110041666D01*
X110777976Y-110160714D01*
X110777976Y-110815476D01*
X110777976Y-110160714D02*
X110718452Y-110041666D01*
X110599404Y-109982142D01*
X110420833Y-109982142D01*
X110301785Y-110041666D01*
X110242261Y-110160714D01*
X110242261Y-110815476D01*
X109170833Y-110755952D02*
X109289880Y-110815476D01*
X109527976Y-110815476D01*
X109647023Y-110755952D01*
X109706547Y-110636904D01*
X109706547Y-110160714D01*
X109647023Y-110041666D01*
X109527976Y-109982142D01*
X109289880Y-109982142D01*
X109170833Y-110041666D01*
X109111309Y-110160714D01*
X109111309Y-110279761D01*
X109706547Y-110398809D01*
X108575595Y-110696428D02*
X108516071Y-110755952D01*
X108575595Y-110815476D01*
X108635119Y-110755952D01*
X108575595Y-110696428D01*
X108575595Y-110815476D01*
X108575595Y-110339285D02*
X108635119Y-109625000D01*
X108575595Y-109565476D01*
X108516071Y-109625000D01*
X108575595Y-110339285D01*
X108575595Y-109565476D01*
X108099404Y-111291666D02*
X108039880Y-111232142D01*
X107920833Y-111053571D01*
X107861309Y-110934523D01*
X107801785Y-110755952D01*
X107742261Y-110458333D01*
X107742261Y-110220238D01*
X107801785Y-109922619D01*
X107861309Y-109744047D01*
X107920833Y-109625000D01*
X108039880Y-109446428D01*
X108099404Y-109386904D01*
D11*
X165714285Y-93758333D02*
X164761904Y-93758333D01*
X165904761Y-94329761D02*
X165238095Y-92329761D01*
X164571428Y-94329761D01*
X162380952Y-92329761D02*
X162380952Y-93948809D01*
X162285714Y-94139285D01*
X162190476Y-94234523D01*
X162000000Y-94329761D01*
X161619047Y-94329761D01*
X161428571Y-94234523D01*
X161333333Y-94139285D01*
X161238095Y-93948809D01*
X161238095Y-92329761D01*
X160380952Y-94234523D02*
X160095238Y-94329761D01*
X159619047Y-94329761D01*
X159428571Y-94234523D01*
X159333333Y-94139285D01*
X159238095Y-93948809D01*
X159238095Y-93758333D01*
X159333333Y-93567857D01*
X159428571Y-93472619D01*
X159619047Y-93377380D01*
X160000000Y-93282142D01*
X160190476Y-93186904D01*
X160285714Y-93091666D01*
X160380952Y-92901190D01*
X160380952Y-92710714D01*
X160285714Y-92520238D01*
X160190476Y-92425000D01*
X160000000Y-92329761D01*
X159523809Y-92329761D01*
X159238095Y-92425000D01*
X157714285Y-93282142D02*
X157428571Y-93377380D01*
X157333333Y-93472619D01*
X157238095Y-93663095D01*
X157238095Y-93948809D01*
X157333333Y-94139285D01*
X157428571Y-94234523D01*
X157619047Y-94329761D01*
X158380952Y-94329761D01*
X158380952Y-92329761D01*
X157714285Y-92329761D01*
X157523809Y-92425000D01*
X157428571Y-92520238D01*
X157333333Y-92710714D01*
X157333333Y-92901190D01*
X157428571Y-93091666D01*
X157523809Y-93186904D01*
X157714285Y-93282142D01*
X158380952Y-93282142D01*
X156380952Y-93567857D02*
X154857142Y-93567857D01*
X153904761Y-94329761D02*
X153904761Y-92329761D01*
X153142857Y-92329761D01*
X152952380Y-92425000D01*
X152857142Y-92520238D01*
X152761904Y-92710714D01*
X152761904Y-92996428D01*
X152857142Y-93186904D01*
X152952380Y-93282142D01*
X153142857Y-93377380D01*
X153904761Y-93377380D01*
X151904761Y-94329761D02*
X151904761Y-92996428D01*
X151904761Y-93377380D02*
X151809523Y-93186904D01*
X151714285Y-93091666D01*
X151523809Y-92996428D01*
X151333333Y-92996428D01*
X150380952Y-94329761D02*
X150571428Y-94234523D01*
X150666666Y-94139285D01*
X150761904Y-93948809D01*
X150761904Y-93377380D01*
X150666666Y-93186904D01*
X150571428Y-93091666D01*
X150380952Y-92996428D01*
X150095238Y-92996428D01*
X149904761Y-93091666D01*
X149809523Y-93186904D01*
X149714285Y-93377380D01*
X149714285Y-93948809D01*
X149809523Y-94139285D01*
X149904761Y-94234523D01*
X150095238Y-94329761D01*
X150380952Y-94329761D01*
X148000000Y-92996428D02*
X148000000Y-94615476D01*
X148095238Y-94805952D01*
X148190476Y-94901190D01*
X148380952Y-94996428D01*
X148666666Y-94996428D01*
X148857142Y-94901190D01*
X148000000Y-94234523D02*
X148190476Y-94329761D01*
X148571428Y-94329761D01*
X148761904Y-94234523D01*
X148857142Y-94139285D01*
X148952380Y-93948809D01*
X148952380Y-93377380D01*
X148857142Y-93186904D01*
X148761904Y-93091666D01*
X148571428Y-92996428D01*
X148190476Y-92996428D01*
X148000000Y-93091666D01*
X147047619Y-94329761D02*
X147047619Y-92996428D01*
X147047619Y-93377380D02*
X146952380Y-93186904D01*
X146857142Y-93091666D01*
X146666666Y-92996428D01*
X146476190Y-92996428D01*
X144952380Y-94329761D02*
X144952380Y-93282142D01*
X145047619Y-93091666D01*
X145238095Y-92996428D01*
X145619047Y-92996428D01*
X145809523Y-93091666D01*
X144952380Y-94234523D02*
X145142857Y-94329761D01*
X145619047Y-94329761D01*
X145809523Y-94234523D01*
X145904761Y-94044047D01*
X145904761Y-93853571D01*
X145809523Y-93663095D01*
X145619047Y-93567857D01*
X145142857Y-93567857D01*
X144952380Y-93472619D01*
X144000000Y-94329761D02*
X144000000Y-92996428D01*
X144000000Y-93186904D02*
X143904761Y-93091666D01*
X143714285Y-92996428D01*
X143428571Y-92996428D01*
X143238095Y-93091666D01*
X143142857Y-93282142D01*
X143142857Y-94329761D01*
X143142857Y-93282142D02*
X143047619Y-93091666D01*
X142857142Y-92996428D01*
X142571428Y-92996428D01*
X142380952Y-93091666D01*
X142285714Y-93282142D01*
X142285714Y-94329761D01*
X141333333Y-94329761D02*
X141333333Y-92996428D01*
X141333333Y-93186904D02*
X141238095Y-93091666D01*
X141047619Y-92996428D01*
X140761904Y-92996428D01*
X140571428Y-93091666D01*
X140476190Y-93282142D01*
X140476190Y-94329761D01*
X140476190Y-93282142D02*
X140380952Y-93091666D01*
X140190476Y-92996428D01*
X139904761Y-92996428D01*
X139714285Y-93091666D01*
X139619047Y-93282142D01*
X139619047Y-94329761D01*
X137809523Y-94329761D02*
X137809523Y-93282142D01*
X137904761Y-93091666D01*
X138095238Y-92996428D01*
X138476190Y-92996428D01*
X138666666Y-93091666D01*
X137809523Y-94234523D02*
X138000000Y-94329761D01*
X138476190Y-94329761D01*
X138666666Y-94234523D01*
X138761904Y-94044047D01*
X138761904Y-93853571D01*
X138666666Y-93663095D01*
X138476190Y-93567857D01*
X138000000Y-93567857D01*
X137809523Y-93472619D01*
X136857142Y-94329761D02*
X136857142Y-92329761D01*
X136857142Y-93091666D02*
X136666666Y-92996428D01*
X136285714Y-92996428D01*
X136095238Y-93091666D01*
X136000000Y-93186904D01*
X135904761Y-93377380D01*
X135904761Y-93948809D01*
X136000000Y-94139285D01*
X136095238Y-94234523D01*
X136285714Y-94329761D01*
X136666666Y-94329761D01*
X136857142Y-94234523D01*
X134761904Y-94329761D02*
X134952380Y-94234523D01*
X135047619Y-94044047D01*
X135047619Y-92329761D01*
X133238095Y-94234523D02*
X133428571Y-94329761D01*
X133809523Y-94329761D01*
X134000000Y-94234523D01*
X134095238Y-94044047D01*
X134095238Y-93282142D01*
X134000000Y-93091666D01*
X133809523Y-92996428D01*
X133428571Y-92996428D01*
X133238095Y-93091666D01*
X133142857Y-93282142D01*
X133142857Y-93472619D01*
X134095238Y-93663095D01*
X129904761Y-94234523D02*
X130095238Y-94329761D01*
X130476190Y-94329761D01*
X130666666Y-94234523D01*
X130761904Y-94139285D01*
X130857142Y-93948809D01*
X130857142Y-93377380D01*
X130761904Y-93186904D01*
X130666666Y-93091666D01*
X130476190Y-92996428D01*
X130095238Y-92996428D01*
X129904761Y-93091666D01*
X129047619Y-94329761D02*
X129047619Y-92329761D01*
X128190476Y-94329761D02*
X128190476Y-93282142D01*
X128285714Y-93091666D01*
X128476190Y-92996428D01*
X128761904Y-92996428D01*
X128952380Y-93091666D01*
X129047619Y-93186904D01*
X127238095Y-94329761D02*
X127238095Y-92996428D01*
X127238095Y-93377380D02*
X127142857Y-93186904D01*
X127047619Y-93091666D01*
X126857142Y-92996428D01*
X126666666Y-92996428D01*
X126000000Y-94329761D02*
X126000000Y-92996428D01*
X126000000Y-92329761D02*
X126095238Y-92425000D01*
X126000000Y-92520238D01*
X125904761Y-92425000D01*
X126000000Y-92329761D01*
X126000000Y-92520238D01*
X125142857Y-94234523D02*
X124952380Y-94329761D01*
X124571428Y-94329761D01*
X124380952Y-94234523D01*
X124285714Y-94044047D01*
X124285714Y-93948809D01*
X124380952Y-93758333D01*
X124571428Y-93663095D01*
X124857142Y-93663095D01*
X125047619Y-93567857D01*
X125142857Y-93377380D01*
X125142857Y-93282142D01*
X125047619Y-93091666D01*
X124857142Y-92996428D01*
X124571428Y-92996428D01*
X124380952Y-93091666D01*
X123714285Y-92996428D02*
X122952380Y-92996428D01*
X123428571Y-92329761D02*
X123428571Y-94044047D01*
X123333333Y-94234523D01*
X123142857Y-94329761D01*
X122952380Y-94329761D01*
X122285714Y-94329761D02*
X122285714Y-92996428D01*
X122285714Y-93186904D02*
X122190476Y-93091666D01*
X122000000Y-92996428D01*
X121714285Y-92996428D01*
X121523809Y-93091666D01*
X121428571Y-93282142D01*
X121428571Y-94329761D01*
X121428571Y-93282142D02*
X121333333Y-93091666D01*
X121142857Y-92996428D01*
X120857142Y-92996428D01*
X120666666Y-93091666D01*
X120571428Y-93282142D01*
X120571428Y-94329761D01*
X118761904Y-94329761D02*
X118761904Y-93282142D01*
X118857142Y-93091666D01*
X119047619Y-92996428D01*
X119428571Y-92996428D01*
X119619047Y-93091666D01*
X118761904Y-94234523D02*
X118952380Y-94329761D01*
X119428571Y-94329761D01*
X119619047Y-94234523D01*
X119714285Y-94044047D01*
X119714285Y-93853571D01*
X119619047Y-93663095D01*
X119428571Y-93567857D01*
X118952380Y-93567857D01*
X118761904Y-93472619D01*
X117904761Y-94234523D02*
X117714285Y-94329761D01*
X117333333Y-94329761D01*
X117142857Y-94234523D01*
X117047619Y-94044047D01*
X117047619Y-93948809D01*
X117142857Y-93758333D01*
X117333333Y-93663095D01*
X117619047Y-93663095D01*
X117809523Y-93567857D01*
X117904761Y-93377380D01*
X117904761Y-93282142D01*
X117809523Y-93091666D01*
X117619047Y-92996428D01*
X117333333Y-92996428D01*
X117142857Y-93091666D01*
X113809523Y-94234523D02*
X114000000Y-94329761D01*
X114380952Y-94329761D01*
X114571428Y-94234523D01*
X114666666Y-94139285D01*
X114761904Y-93948809D01*
X114761904Y-93377380D01*
X114666666Y-93186904D01*
X114571428Y-93091666D01*
X114380952Y-92996428D01*
X114000000Y-92996428D01*
X113809523Y-93091666D01*
X112095238Y-94329761D02*
X112095238Y-93282142D01*
X112190476Y-93091666D01*
X112380952Y-92996428D01*
X112761904Y-92996428D01*
X112952380Y-93091666D01*
X112095238Y-94234523D02*
X112285714Y-94329761D01*
X112761904Y-94329761D01*
X112952380Y-94234523D01*
X113047619Y-94044047D01*
X113047619Y-93853571D01*
X112952380Y-93663095D01*
X112761904Y-93567857D01*
X112285714Y-93567857D01*
X112095238Y-93472619D01*
X111142857Y-94329761D02*
X111142857Y-92996428D01*
X111142857Y-93377380D02*
X111047619Y-93186904D01*
X110952380Y-93091666D01*
X110761904Y-92996428D01*
X110571428Y-92996428D01*
X109047619Y-94329761D02*
X109047619Y-92329761D01*
X109047619Y-94234523D02*
X109238095Y-94329761D01*
X109619047Y-94329761D01*
X109809523Y-94234523D01*
X109904761Y-94139285D01*
X110000000Y-93948809D01*
X110000000Y-93377380D01*
X109904761Y-93186904D01*
X109809523Y-93091666D01*
X109619047Y-92996428D01*
X109238095Y-92996428D01*
X109047619Y-93091666D01*
X107809523Y-94139285D02*
X107714285Y-94234523D01*
X107809523Y-94329761D01*
X107904761Y-94234523D01*
X107809523Y-94139285D01*
X107809523Y-94329761D01*
X108190476Y-92425000D02*
X108000000Y-92329761D01*
X107523809Y-92329761D01*
X107333333Y-92425000D01*
X107238095Y-92615476D01*
X107238095Y-92805952D01*
X107333333Y-92996428D01*
X107428571Y-93091666D01*
X107619047Y-93186904D01*
X107714285Y-93282142D01*
X107809523Y-93472619D01*
X107809523Y-93567857D01*
X106380952Y-94139285D02*
X106285714Y-94234523D01*
X106380952Y-94329761D01*
X106476190Y-94234523D01*
X106380952Y-94139285D01*
X106380952Y-94329761D01*
X106380952Y-93567857D02*
X106476190Y-92425000D01*
X106380952Y-92329761D01*
X106285714Y-92425000D01*
X106380952Y-93567857D01*
X106380952Y-92329761D01*
X152952380Y-95479761D02*
X152476190Y-97479761D01*
X152095238Y-96051190D01*
X151714285Y-97479761D01*
X151238095Y-95479761D01*
X150476190Y-97479761D02*
X150476190Y-95479761D01*
X149619047Y-97479761D02*
X149619047Y-96432142D01*
X149714285Y-96241666D01*
X149904761Y-96146428D01*
X150190476Y-96146428D01*
X150380952Y-96241666D01*
X150476190Y-96336904D01*
X147809523Y-97479761D02*
X147809523Y-96432142D01*
X147904761Y-96241666D01*
X148095238Y-96146428D01*
X148476190Y-96146428D01*
X148666666Y-96241666D01*
X147809523Y-97384523D02*
X148000000Y-97479761D01*
X148476190Y-97479761D01*
X148666666Y-97384523D01*
X148761904Y-97194047D01*
X148761904Y-97003571D01*
X148666666Y-96813095D01*
X148476190Y-96717857D01*
X148000000Y-96717857D01*
X147809523Y-96622619D01*
X147142857Y-96146428D02*
X146380952Y-96146428D01*
X146857142Y-95479761D02*
X146857142Y-97194047D01*
X146761904Y-97384523D01*
X146571428Y-97479761D01*
X146380952Y-97479761D01*
X144190476Y-97479761D02*
X144190476Y-96146428D01*
X144190476Y-96336904D02*
X144095238Y-96241666D01*
X143904761Y-96146428D01*
X143619047Y-96146428D01*
X143428571Y-96241666D01*
X143333333Y-96432142D01*
X143333333Y-97479761D01*
X143333333Y-96432142D02*
X143238095Y-96241666D01*
X143047619Y-96146428D01*
X142761904Y-96146428D01*
X142571428Y-96241666D01*
X142476190Y-96432142D01*
X142476190Y-97479761D01*
X140666666Y-97479761D02*
X140666666Y-96432142D01*
X140761904Y-96241666D01*
X140952380Y-96146428D01*
X141333333Y-96146428D01*
X141523809Y-96241666D01*
X140666666Y-97384523D02*
X140857142Y-97479761D01*
X141333333Y-97479761D01*
X141523809Y-97384523D01*
X141619047Y-97194047D01*
X141619047Y-97003571D01*
X141523809Y-96813095D01*
X141333333Y-96717857D01*
X140857142Y-96717857D01*
X140666666Y-96622619D01*
X138857142Y-97479761D02*
X138857142Y-95479761D01*
X138857142Y-97384523D02*
X139047619Y-97479761D01*
X139428571Y-97479761D01*
X139619047Y-97384523D01*
X139714285Y-97289285D01*
X139809523Y-97098809D01*
X139809523Y-96527380D01*
X139714285Y-96336904D01*
X139619047Y-96241666D01*
X139428571Y-96146428D01*
X139047619Y-96146428D01*
X138857142Y-96241666D01*
X137904761Y-96146428D02*
X137904761Y-97479761D01*
X137904761Y-96336904D02*
X137809523Y-96241666D01*
X137619047Y-96146428D01*
X137333333Y-96146428D01*
X137142857Y-96241666D01*
X137047619Y-96432142D01*
X137047619Y-97479761D01*
X135333333Y-97384523D02*
X135523809Y-97479761D01*
X135904761Y-97479761D01*
X136095238Y-97384523D01*
X136190476Y-97194047D01*
X136190476Y-96432142D01*
X136095238Y-96241666D01*
X135904761Y-96146428D01*
X135523809Y-96146428D01*
X135333333Y-96241666D01*
X135238095Y-96432142D01*
X135238095Y-96622619D01*
X136190476Y-96813095D01*
X134476190Y-97384523D02*
X134285714Y-97479761D01*
X133904761Y-97479761D01*
X133714285Y-97384523D01*
X133619047Y-97194047D01*
X133619047Y-97098809D01*
X133714285Y-96908333D01*
X133904761Y-96813095D01*
X134190476Y-96813095D01*
X134380952Y-96717857D01*
X134476190Y-96527380D01*
X134476190Y-96432142D01*
X134380952Y-96241666D01*
X134190476Y-96146428D01*
X133904761Y-96146428D01*
X133714285Y-96241666D01*
X132857142Y-97384523D02*
X132666666Y-97479761D01*
X132285714Y-97479761D01*
X132095238Y-97384523D01*
X132000000Y-97194047D01*
X132000000Y-97098809D01*
X132095238Y-96908333D01*
X132285714Y-96813095D01*
X132571428Y-96813095D01*
X132761904Y-96717857D01*
X132857142Y-96527380D01*
X132857142Y-96432142D01*
X132761904Y-96241666D01*
X132571428Y-96146428D01*
X132285714Y-96146428D01*
X132095238Y-96241666D01*
X129619047Y-97479761D02*
X129619047Y-96146428D01*
X129619047Y-95479761D02*
X129714285Y-95575000D01*
X129619047Y-95670238D01*
X129523809Y-95575000D01*
X129619047Y-95479761D01*
X129619047Y-95670238D01*
X128761904Y-97384523D02*
X128571428Y-97479761D01*
X128190476Y-97479761D01*
X128000000Y-97384523D01*
X127904761Y-97194047D01*
X127904761Y-97098809D01*
X128000000Y-96908333D01*
X128190476Y-96813095D01*
X128476190Y-96813095D01*
X128666666Y-96717857D01*
X128761904Y-96527380D01*
X128761904Y-96432142D01*
X128666666Y-96241666D01*
X128476190Y-96146428D01*
X128190476Y-96146428D01*
X128000000Y-96241666D01*
X125809523Y-96146428D02*
X125047619Y-96146428D01*
X125523809Y-95479761D02*
X125523809Y-97194047D01*
X125428571Y-97384523D01*
X125238095Y-97479761D01*
X125047619Y-97479761D01*
X124380952Y-97479761D02*
X124380952Y-95479761D01*
X123523809Y-97479761D02*
X123523809Y-96432142D01*
X123619047Y-96241666D01*
X123809523Y-96146428D01*
X124095238Y-96146428D01*
X124285714Y-96241666D01*
X124380952Y-96336904D01*
X122571428Y-97479761D02*
X122571428Y-96146428D01*
X122571428Y-95479761D02*
X122666666Y-95575000D01*
X122571428Y-95670238D01*
X122476190Y-95575000D01*
X122571428Y-95479761D01*
X122571428Y-95670238D01*
X121714285Y-97384523D02*
X121523809Y-97479761D01*
X121142857Y-97479761D01*
X120952380Y-97384523D01*
X120857142Y-97194047D01*
X120857142Y-97098809D01*
X120952380Y-96908333D01*
X121142857Y-96813095D01*
X121428571Y-96813095D01*
X121619047Y-96717857D01*
X121714285Y-96527380D01*
X121714285Y-96432142D01*
X121619047Y-96241666D01*
X121428571Y-96146428D01*
X121142857Y-96146428D01*
X120952380Y-96241666D01*
X119714285Y-97289285D02*
X119619047Y-97384523D01*
X119714285Y-97479761D01*
X119809523Y-97384523D01*
X119714285Y-97289285D01*
X119714285Y-97479761D01*
X120095238Y-95575000D02*
X119904761Y-95479761D01*
X119428571Y-95479761D01*
X119238095Y-95575000D01*
X119142857Y-95765476D01*
X119142857Y-95955952D01*
X119238095Y-96146428D01*
X119333333Y-96241666D01*
X119523809Y-96336904D01*
X119619047Y-96432142D01*
X119714285Y-96622619D01*
X119714285Y-96717857D01*
X120261904Y-164452380D02*
X120261904Y-165261904D01*
X120214285Y-165357142D01*
X120166666Y-165404761D01*
X120071428Y-165452380D01*
X119880952Y-165452380D01*
X119785714Y-165404761D01*
X119738095Y-165357142D01*
X119690476Y-165261904D01*
X119690476Y-164452380D01*
X119261904Y-165404761D02*
X119119047Y-165452380D01*
X118880952Y-165452380D01*
X118785714Y-165404761D01*
X118738095Y-165357142D01*
X118690476Y-165261904D01*
X118690476Y-165166666D01*
X118738095Y-165071428D01*
X118785714Y-165023809D01*
X118880952Y-164976190D01*
X119071428Y-164928571D01*
X119166666Y-164880952D01*
X119214285Y-164833333D01*
X119261904Y-164738095D01*
X119261904Y-164642857D01*
X119214285Y-164547619D01*
X119166666Y-164500000D01*
X119071428Y-164452380D01*
X118833333Y-164452380D01*
X118690476Y-164500000D01*
X117928571Y-164928571D02*
X117785714Y-164976190D01*
X117738095Y-165023809D01*
X117690476Y-165119047D01*
X117690476Y-165261904D01*
X117738095Y-165357142D01*
X117785714Y-165404761D01*
X117880952Y-165452380D01*
X118261904Y-165452380D01*
X118261904Y-164452380D01*
X117928571Y-164452380D01*
X117833333Y-164500000D01*
X117785714Y-164547619D01*
X117738095Y-164642857D01*
X117738095Y-164738095D01*
X117785714Y-164833333D01*
X117833333Y-164880952D01*
X117928571Y-164928571D01*
X118261904Y-164928571D01*
D12*
X136000000Y-160000000D02*
X136000000Y-169000000D01*
X150000000Y-160000000D02*
X136000000Y-160000000D01*
X150000000Y-169000000D02*
X150000000Y-160000000D01*
D11*
X146219047Y-160452380D02*
X145599999Y-160452380D01*
X145933333Y-160833333D01*
X145790476Y-160833333D01*
X145695238Y-160880952D01*
X145647619Y-160928571D01*
X145599999Y-161023809D01*
X145599999Y-161261904D01*
X145647619Y-161357142D01*
X145695238Y-161404761D01*
X145790476Y-161452380D01*
X146076190Y-161452380D01*
X146171428Y-161404761D01*
X146219047Y-161357142D01*
X145171428Y-161357142D02*
X145123809Y-161404761D01*
X145171428Y-161452380D01*
X145219047Y-161404761D01*
X145171428Y-161357142D01*
X145171428Y-161452380D01*
X144790476Y-160452380D02*
X144171428Y-160452380D01*
X144504761Y-160833333D01*
X144361904Y-160833333D01*
X144266666Y-160880952D01*
X144219047Y-160928571D01*
X144171428Y-161023809D01*
X144171428Y-161261904D01*
X144219047Y-161357142D01*
X144266666Y-161404761D01*
X144361904Y-161452380D01*
X144647619Y-161452380D01*
X144742857Y-161404761D01*
X144790476Y-161357142D01*
X143885714Y-160452380D02*
X143552380Y-161452380D01*
X143219047Y-160452380D01*
X142123809Y-161452380D02*
X142123809Y-160452380D01*
X141457142Y-160452380D02*
X141266666Y-160452380D01*
X141171428Y-160500000D01*
X141076190Y-160595238D01*
X141028571Y-160785714D01*
X141028571Y-161119047D01*
X141076190Y-161309523D01*
X141171428Y-161404761D01*
X141266666Y-161452380D01*
X141457142Y-161452380D01*
X141552380Y-161404761D01*
X141647619Y-161309523D01*
X141695238Y-161119047D01*
X141695238Y-160785714D01*
X141647619Y-160595238D01*
X141552380Y-160500000D01*
X141457142Y-160452380D01*
X139071428Y-163414285D02*
X139071428Y-164176190D01*
X139452380Y-163795238D02*
X138690476Y-163795238D01*
X138452380Y-165128571D02*
X138452380Y-164652380D01*
X138928571Y-164604761D01*
X138880952Y-164652380D01*
X138833333Y-164747619D01*
X138833333Y-164985714D01*
X138880952Y-165080952D01*
X138928571Y-165128571D01*
X139023809Y-165176190D01*
X139261904Y-165176190D01*
X139357142Y-165128571D01*
X139404761Y-165080952D01*
X139452380Y-164985714D01*
X139452380Y-164747619D01*
X139404761Y-164652380D01*
X139357142Y-164604761D01*
X138452380Y-165461904D02*
X139452380Y-165795238D01*
X138452380Y-166128571D01*
X141171428Y-162000000D02*
X141171428Y-162761904D01*
X141552380Y-162380952D02*
X140790476Y-162380952D01*
X140552380Y-163142857D02*
X140552380Y-163761904D01*
X140933333Y-163428571D01*
X140933333Y-163571428D01*
X140980952Y-163666666D01*
X141028571Y-163714285D01*
X141123809Y-163761904D01*
X141361904Y-163761904D01*
X141457142Y-163714285D01*
X141504761Y-163666666D01*
X141552380Y-163571428D01*
X141552380Y-163285714D01*
X141504761Y-163190476D01*
X141457142Y-163142857D01*
X141457142Y-164190476D02*
X141504761Y-164238095D01*
X141552380Y-164190476D01*
X141504761Y-164142857D01*
X141457142Y-164190476D01*
X141552380Y-164190476D01*
X140552380Y-164571428D02*
X140552380Y-165190476D01*
X140933333Y-164857142D01*
X140933333Y-165000000D01*
X140980952Y-165095238D01*
X141028571Y-165142857D01*
X141123809Y-165190476D01*
X141361904Y-165190476D01*
X141457142Y-165142857D01*
X141504761Y-165095238D01*
X141552380Y-165000000D01*
X141552380Y-164714285D01*
X141504761Y-164619047D01*
X141457142Y-164571428D01*
X140552380Y-165476190D02*
X141552380Y-165809523D01*
X140552380Y-166142857D01*
X143804761Y-163709523D02*
X143852380Y-163852380D01*
X143852380Y-164090476D01*
X143804761Y-164185714D01*
X143757142Y-164233333D01*
X143661904Y-164280952D01*
X143566666Y-164280952D01*
X143471428Y-164233333D01*
X143423809Y-164185714D01*
X143376190Y-164090476D01*
X143328571Y-163900000D01*
X143280952Y-163804761D01*
X143233333Y-163757142D01*
X143138095Y-163709523D01*
X143042857Y-163709523D01*
X142947619Y-163757142D01*
X142900000Y-163804761D01*
X142852380Y-163900000D01*
X142852380Y-164138095D01*
X142900000Y-164280952D01*
X143757142Y-165280952D02*
X143804761Y-165233333D01*
X143852380Y-165090476D01*
X143852380Y-164995238D01*
X143804761Y-164852380D01*
X143709523Y-164757142D01*
X143614285Y-164709523D01*
X143423809Y-164661904D01*
X143280952Y-164661904D01*
X143090476Y-164709523D01*
X142995238Y-164757142D01*
X142900000Y-164852380D01*
X142852380Y-164995238D01*
X142852380Y-165090476D01*
X142900000Y-165233333D01*
X142947619Y-165280952D01*
X143852380Y-166185714D02*
X143852380Y-165709523D01*
X142852380Y-165709523D01*
X146404761Y-163585714D02*
X146452380Y-163728571D01*
X146452380Y-163966666D01*
X146404761Y-164061904D01*
X146357142Y-164109523D01*
X146261904Y-164157142D01*
X146166666Y-164157142D01*
X146071428Y-164109523D01*
X146023809Y-164061904D01*
X145976190Y-163966666D01*
X145928571Y-163776190D01*
X145880952Y-163680952D01*
X145833333Y-163633333D01*
X145738095Y-163585714D01*
X145642857Y-163585714D01*
X145547619Y-163633333D01*
X145500000Y-163680952D01*
X145452380Y-163776190D01*
X145452380Y-164014285D01*
X145500000Y-164157142D01*
X146452380Y-164585714D02*
X145452380Y-164585714D01*
X145452380Y-164823809D01*
X145500000Y-164966666D01*
X145595238Y-165061904D01*
X145690476Y-165109523D01*
X145880952Y-165157142D01*
X146023809Y-165157142D01*
X146214285Y-165109523D01*
X146309523Y-165061904D01*
X146404761Y-164966666D01*
X146452380Y-164823809D01*
X146452380Y-164585714D01*
X146166666Y-165538095D02*
X146166666Y-166014285D01*
X146452380Y-165442857D02*
X145452380Y-165776190D01*
X146452380Y-166109523D01*
D10*
X148000000Y-164038095D02*
X147952380Y-163942857D01*
X147952380Y-163800000D01*
X148000000Y-163657142D01*
X148095238Y-163561904D01*
X148190476Y-163514285D01*
X148380952Y-163466666D01*
X148523809Y-163466666D01*
X148714285Y-163514285D01*
X148809523Y-163561904D01*
X148904761Y-163657142D01*
X148952380Y-163800000D01*
X148952380Y-163895238D01*
X148904761Y-164038095D01*
X148857142Y-164085714D01*
X148523809Y-164085714D01*
X148523809Y-163895238D01*
X148952380Y-164514285D02*
X147952380Y-164514285D01*
X148952380Y-165085714D01*
X147952380Y-165085714D01*
X148952380Y-165561904D02*
X147952380Y-165561904D01*
X147952380Y-165800000D01*
X148000000Y-165942857D01*
X148095238Y-166038095D01*
X148190476Y-166085714D01*
X148380952Y-166133333D01*
X148523809Y-166133333D01*
X148714285Y-166085714D01*
X148809523Y-166038095D01*
X148904761Y-165942857D01*
X148952380Y-165800000D01*
X148952380Y-165561904D01*
D13*
X149978571Y-78128571D02*
X149978571Y-79342857D01*
X149907142Y-79485714D01*
X149835714Y-79557142D01*
X149692857Y-79628571D01*
X149407142Y-79628571D01*
X149264285Y-79557142D01*
X149192857Y-79485714D01*
X149121428Y-79342857D01*
X149121428Y-78128571D01*
X148478571Y-79557142D02*
X148264285Y-79628571D01*
X147907142Y-79628571D01*
X147764285Y-79557142D01*
X147692857Y-79485714D01*
X147621428Y-79342857D01*
X147621428Y-79200000D01*
X147692857Y-79057142D01*
X147764285Y-78985714D01*
X147907142Y-78914285D01*
X148192857Y-78842857D01*
X148335714Y-78771428D01*
X148407142Y-78700000D01*
X148478571Y-78557142D01*
X148478571Y-78414285D01*
X148407142Y-78271428D01*
X148335714Y-78200000D01*
X148192857Y-78128571D01*
X147835714Y-78128571D01*
X147621428Y-78200000D01*
X146478571Y-78842857D02*
X146264285Y-78914285D01*
X146192857Y-78985714D01*
X146121428Y-79128571D01*
X146121428Y-79342857D01*
X146192857Y-79485714D01*
X146264285Y-79557142D01*
X146407142Y-79628571D01*
X146978571Y-79628571D01*
X146978571Y-78128571D01*
X146478571Y-78128571D01*
X146335714Y-78200000D01*
X146264285Y-78271428D01*
X146192857Y-78414285D01*
X146192857Y-78557142D01*
X146264285Y-78700000D01*
X146335714Y-78771428D01*
X146478571Y-78842857D01*
X146978571Y-78842857D01*
X143478571Y-79485714D02*
X143550000Y-79557142D01*
X143764285Y-79628571D01*
X143907142Y-79628571D01*
X144121428Y-79557142D01*
X144264285Y-79414285D01*
X144335714Y-79271428D01*
X144407142Y-78985714D01*
X144407142Y-78771428D01*
X144335714Y-78485714D01*
X144264285Y-78342857D01*
X144121428Y-78200000D01*
X143907142Y-78128571D01*
X143764285Y-78128571D01*
X143550000Y-78200000D01*
X143478571Y-78271428D01*
X142835714Y-79628571D02*
X142835714Y-78128571D01*
X142192857Y-79628571D02*
X142192857Y-78842857D01*
X142264285Y-78700000D01*
X142407142Y-78628571D01*
X142621428Y-78628571D01*
X142764285Y-78700000D01*
X142835714Y-78771428D01*
X141478571Y-79628571D02*
X141478571Y-78628571D01*
X141478571Y-78914285D02*
X141407142Y-78771428D01*
X141335714Y-78700000D01*
X141192857Y-78628571D01*
X141050000Y-78628571D01*
X140550000Y-79628571D02*
X140550000Y-78628571D01*
X140550000Y-78128571D02*
X140621428Y-78200000D01*
X140550000Y-78271428D01*
X140478571Y-78200000D01*
X140550000Y-78128571D01*
X140550000Y-78271428D01*
X139907142Y-79557142D02*
X139764285Y-79628571D01*
X139478571Y-79628571D01*
X139335714Y-79557142D01*
X139264285Y-79414285D01*
X139264285Y-79342857D01*
X139335714Y-79200000D01*
X139478571Y-79128571D01*
X139692857Y-79128571D01*
X139835714Y-79057142D01*
X139907142Y-78914285D01*
X139907142Y-78842857D01*
X139835714Y-78700000D01*
X139692857Y-78628571D01*
X139478571Y-78628571D01*
X139335714Y-78700000D01*
X138835714Y-78628571D02*
X138264285Y-78628571D01*
X138621428Y-78128571D02*
X138621428Y-79414285D01*
X138550000Y-79557142D01*
X138407142Y-79628571D01*
X138264285Y-79628571D01*
X137764285Y-79628571D02*
X137764285Y-78628571D01*
X137764285Y-78771428D02*
X137692857Y-78700000D01*
X137550000Y-78628571D01*
X137335714Y-78628571D01*
X137192857Y-78700000D01*
X137121428Y-78842857D01*
X137121428Y-79628571D01*
X137121428Y-78842857D02*
X137050000Y-78700000D01*
X136907142Y-78628571D01*
X136692857Y-78628571D01*
X136550000Y-78700000D01*
X136478571Y-78842857D01*
X136478571Y-79628571D01*
X135121428Y-79628571D02*
X135121428Y-78842857D01*
X135192857Y-78700000D01*
X135335714Y-78628571D01*
X135621428Y-78628571D01*
X135764285Y-78700000D01*
X135121428Y-79557142D02*
X135264285Y-79628571D01*
X135621428Y-79628571D01*
X135764285Y-79557142D01*
X135835714Y-79414285D01*
X135835714Y-79271428D01*
X135764285Y-79128571D01*
X135621428Y-79057142D01*
X135264285Y-79057142D01*
X135121428Y-78985714D01*
X134478571Y-79557142D02*
X134335714Y-79628571D01*
X134050000Y-79628571D01*
X133907142Y-79557142D01*
X133835714Y-79414285D01*
X133835714Y-79342857D01*
X133907142Y-79200000D01*
X134050000Y-79128571D01*
X134264285Y-79128571D01*
X134407142Y-79057142D01*
X134478571Y-78914285D01*
X134478571Y-78842857D01*
X134407142Y-78700000D01*
X134264285Y-78628571D01*
X134050000Y-78628571D01*
X133907142Y-78700000D01*
X131192857Y-79485714D02*
X131264285Y-79557142D01*
X131478571Y-79628571D01*
X131621428Y-79628571D01*
X131835714Y-79557142D01*
X131978571Y-79414285D01*
X132050000Y-79271428D01*
X132121428Y-78985714D01*
X132121428Y-78771428D01*
X132050000Y-78485714D01*
X131978571Y-78342857D01*
X131835714Y-78200000D01*
X131621428Y-78128571D01*
X131478571Y-78128571D01*
X131264285Y-78200000D01*
X131192857Y-78271428D01*
X129907142Y-79628571D02*
X129907142Y-78842857D01*
X129978571Y-78700000D01*
X130121428Y-78628571D01*
X130407142Y-78628571D01*
X130550000Y-78700000D01*
X129907142Y-79557142D02*
X130050000Y-79628571D01*
X130407142Y-79628571D01*
X130550000Y-79557142D01*
X130621428Y-79414285D01*
X130621428Y-79271428D01*
X130550000Y-79128571D01*
X130407142Y-79057142D01*
X130050000Y-79057142D01*
X129907142Y-78985714D01*
X129192857Y-79628571D02*
X129192857Y-78628571D01*
X129192857Y-78914285D02*
X129121428Y-78771428D01*
X129050000Y-78700000D01*
X128907142Y-78628571D01*
X128764285Y-78628571D01*
X127621428Y-79628571D02*
X127621428Y-78128571D01*
X127621428Y-79557142D02*
X127764285Y-79628571D01*
X128050000Y-79628571D01*
X128192857Y-79557142D01*
X128264285Y-79485714D01*
X128335714Y-79342857D01*
X128335714Y-78914285D01*
X128264285Y-78771428D01*
X128192857Y-78700000D01*
X128050000Y-78628571D01*
X127764285Y-78628571D01*
X127621428Y-78700000D01*
X125978571Y-78128571D02*
X125478571Y-79628571D01*
X124978571Y-78128571D01*
X123692857Y-79628571D02*
X124550000Y-79628571D01*
X124121428Y-79628571D02*
X124121428Y-78128571D01*
X124264285Y-78342857D01*
X124407142Y-78485714D01*
X124550000Y-78557142D01*
X123050000Y-79485714D02*
X122978571Y-79557142D01*
X123050000Y-79628571D01*
X123121428Y-79557142D01*
X123050000Y-79485714D01*
X123050000Y-79628571D01*
X122050000Y-78128571D02*
X121907142Y-78128571D01*
X121764285Y-78200000D01*
X121692857Y-78271428D01*
X121621428Y-78414285D01*
X121550000Y-78700000D01*
X121550000Y-79057142D01*
X121621428Y-79342857D01*
X121692857Y-79485714D01*
X121764285Y-79557142D01*
X121907142Y-79628571D01*
X122050000Y-79628571D01*
X122192857Y-79557142D01*
X122264285Y-79485714D01*
X122335714Y-79342857D01*
X122407142Y-79057142D01*
X122407142Y-78700000D01*
X122335714Y-78414285D01*
X122264285Y-78271428D01*
X122192857Y-78200000D01*
X122050000Y-78128571D01*
X149907142Y-82178571D02*
X149907142Y-80678571D01*
X149550000Y-80678571D01*
X149335714Y-80750000D01*
X149192857Y-80892857D01*
X149121428Y-81035714D01*
X149050000Y-81321428D01*
X149050000Y-81535714D01*
X149121428Y-81821428D01*
X149192857Y-81964285D01*
X149335714Y-82107142D01*
X149550000Y-82178571D01*
X149907142Y-82178571D01*
X147835714Y-82107142D02*
X147978571Y-82178571D01*
X148264285Y-82178571D01*
X148407142Y-82107142D01*
X148478571Y-81964285D01*
X148478571Y-81392857D01*
X148407142Y-81250000D01*
X148264285Y-81178571D01*
X147978571Y-81178571D01*
X147835714Y-81250000D01*
X147764285Y-81392857D01*
X147764285Y-81535714D01*
X148478571Y-81678571D01*
X147192857Y-82107142D02*
X147050000Y-82178571D01*
X146764285Y-82178571D01*
X146621428Y-82107142D01*
X146550000Y-81964285D01*
X146550000Y-81892857D01*
X146621428Y-81750000D01*
X146764285Y-81678571D01*
X146978571Y-81678571D01*
X147121428Y-81607142D01*
X147192857Y-81464285D01*
X147192857Y-81392857D01*
X147121428Y-81250000D01*
X146978571Y-81178571D01*
X146764285Y-81178571D01*
X146621428Y-81250000D01*
X145907142Y-82178571D02*
X145907142Y-81178571D01*
X145907142Y-80678571D02*
X145978571Y-80750000D01*
X145907142Y-80821428D01*
X145835714Y-80750000D01*
X145907142Y-80678571D01*
X145907142Y-80821428D01*
X144550000Y-81178571D02*
X144550000Y-82392857D01*
X144621428Y-82535714D01*
X144692857Y-82607142D01*
X144835714Y-82678571D01*
X145050000Y-82678571D01*
X145192857Y-82607142D01*
X144550000Y-82107142D02*
X144692857Y-82178571D01*
X144978571Y-82178571D01*
X145121428Y-82107142D01*
X145192857Y-82035714D01*
X145264285Y-81892857D01*
X145264285Y-81464285D01*
X145192857Y-81321428D01*
X145121428Y-81250000D01*
X144978571Y-81178571D01*
X144692857Y-81178571D01*
X144550000Y-81250000D01*
X143835714Y-81178571D02*
X143835714Y-82178571D01*
X143835714Y-81321428D02*
X143764285Y-81250000D01*
X143621428Y-81178571D01*
X143407142Y-81178571D01*
X143264285Y-81250000D01*
X143192857Y-81392857D01*
X143192857Y-82178571D01*
X141335714Y-82178571D02*
X141335714Y-80678571D01*
X141335714Y-81250000D02*
X141192857Y-81178571D01*
X140907142Y-81178571D01*
X140764285Y-81250000D01*
X140692857Y-81321428D01*
X140621428Y-81464285D01*
X140621428Y-81892857D01*
X140692857Y-82035714D01*
X140764285Y-82107142D01*
X140907142Y-82178571D01*
X141192857Y-82178571D01*
X141335714Y-82107142D01*
X140121428Y-81178571D02*
X139764285Y-82178571D01*
X139407142Y-81178571D02*
X139764285Y-82178571D01*
X139907142Y-82535714D01*
X139978571Y-82607142D01*
X140121428Y-82678571D01*
X137692857Y-82178571D02*
X137692857Y-80678571D01*
X137192857Y-81750000D01*
X136692857Y-80678571D01*
X136692857Y-82178571D01*
X135978571Y-82178571D02*
X135978571Y-81178571D01*
X135978571Y-80678571D02*
X136050000Y-80750000D01*
X135978571Y-80821428D01*
X135907142Y-80750000D01*
X135978571Y-80678571D01*
X135978571Y-80821428D01*
X134621428Y-82107142D02*
X134764285Y-82178571D01*
X135050000Y-82178571D01*
X135192857Y-82107142D01*
X135264285Y-82035714D01*
X135335714Y-81892857D01*
X135335714Y-81464285D01*
X135264285Y-81321428D01*
X135192857Y-81250000D01*
X135050000Y-81178571D01*
X134764285Y-81178571D01*
X134621428Y-81250000D01*
X133978571Y-82178571D02*
X133978571Y-80678571D01*
X133335714Y-82178571D02*
X133335714Y-81392857D01*
X133407142Y-81250000D01*
X133550000Y-81178571D01*
X133764285Y-81178571D01*
X133907142Y-81250000D01*
X133978571Y-81321428D01*
X131978571Y-82178571D02*
X131978571Y-81392857D01*
X132050000Y-81250000D01*
X132192857Y-81178571D01*
X132478571Y-81178571D01*
X132621428Y-81250000D01*
X131978571Y-82107142D02*
X132121428Y-82178571D01*
X132478571Y-82178571D01*
X132621428Y-82107142D01*
X132692857Y-81964285D01*
X132692857Y-81821428D01*
X132621428Y-81678571D01*
X132478571Y-81607142D01*
X132121428Y-81607142D01*
X131978571Y-81535714D01*
X130692857Y-82107142D02*
X130835714Y-82178571D01*
X131121428Y-82178571D01*
X131264285Y-82107142D01*
X131335714Y-81964285D01*
X131335714Y-81392857D01*
X131264285Y-81250000D01*
X131121428Y-81178571D01*
X130835714Y-81178571D01*
X130692857Y-81250000D01*
X130621428Y-81392857D01*
X130621428Y-81535714D01*
X131335714Y-81678571D01*
X129764285Y-82178571D02*
X129907142Y-82107142D01*
X129978571Y-81964285D01*
X129978571Y-80678571D01*
X127192857Y-82035714D02*
X127264285Y-82107142D01*
X127478571Y-82178571D01*
X127621428Y-82178571D01*
X127835714Y-82107142D01*
X127978571Y-81964285D01*
X128050000Y-81821428D01*
X128121428Y-81535714D01*
X128121428Y-81321428D01*
X128050000Y-81035714D01*
X127978571Y-80892857D01*
X127835714Y-80750000D01*
X127621428Y-80678571D01*
X127478571Y-80678571D01*
X127264285Y-80750000D01*
X127192857Y-80821428D01*
X125907142Y-81178571D02*
X125907142Y-82178571D01*
X126550000Y-81178571D02*
X126550000Y-81964285D01*
X126478571Y-82107142D01*
X126335714Y-82178571D01*
X126121428Y-82178571D01*
X125978571Y-82107142D01*
X125907142Y-82035714D01*
X124978571Y-82178571D02*
X125121428Y-82107142D01*
X125192857Y-81964285D01*
X125192857Y-80678571D01*
X124192857Y-82178571D02*
X124335714Y-82107142D01*
X124407142Y-81964285D01*
X124407142Y-80678571D01*
X123050000Y-82107142D02*
X123192857Y-82178571D01*
X123478571Y-82178571D01*
X123621428Y-82107142D01*
X123692857Y-81964285D01*
X123692857Y-81392857D01*
X123621428Y-81250000D01*
X123478571Y-81178571D01*
X123192857Y-81178571D01*
X123050000Y-81250000D01*
X122978571Y-81392857D01*
X122978571Y-81535714D01*
X123692857Y-81678571D01*
X122335714Y-81178571D02*
X122335714Y-82178571D01*
X122335714Y-81321428D02*
X122264285Y-81250000D01*
X122121428Y-81178571D01*
X121907142Y-81178571D01*
X121764285Y-81250000D01*
X121692857Y-81392857D01*
X121692857Y-82178571D01*
X144335714Y-84728571D02*
X144335714Y-83228571D01*
X143478571Y-84728571D01*
X143478571Y-83228571D01*
X142550000Y-84728571D02*
X142692857Y-84657142D01*
X142764285Y-84585714D01*
X142835714Y-84442857D01*
X142835714Y-84014285D01*
X142764285Y-83871428D01*
X142692857Y-83800000D01*
X142550000Y-83728571D01*
X142335714Y-83728571D01*
X142192857Y-83800000D01*
X142121428Y-83871428D01*
X142050000Y-84014285D01*
X142050000Y-84442857D01*
X142121428Y-84585714D01*
X142192857Y-84657142D01*
X142335714Y-84728571D01*
X142550000Y-84728571D01*
X141550000Y-83728571D02*
X141192857Y-84728571D01*
X140835714Y-83728571D01*
X139692857Y-84657142D02*
X139835714Y-84728571D01*
X140121428Y-84728571D01*
X140264285Y-84657142D01*
X140335714Y-84514285D01*
X140335714Y-83942857D01*
X140264285Y-83800000D01*
X140121428Y-83728571D01*
X139835714Y-83728571D01*
X139692857Y-83800000D01*
X139621428Y-83942857D01*
X139621428Y-84085714D01*
X140335714Y-84228571D01*
X138978571Y-84728571D02*
X138978571Y-83728571D01*
X138978571Y-83871428D02*
X138907142Y-83800000D01*
X138764285Y-83728571D01*
X138550000Y-83728571D01*
X138407142Y-83800000D01*
X138335714Y-83942857D01*
X138335714Y-84728571D01*
X138335714Y-83942857D02*
X138264285Y-83800000D01*
X138121428Y-83728571D01*
X137907142Y-83728571D01*
X137764285Y-83800000D01*
X137692857Y-83942857D01*
X137692857Y-84728571D01*
X136978571Y-84728571D02*
X136978571Y-83228571D01*
X136978571Y-83800000D02*
X136835714Y-83728571D01*
X136550000Y-83728571D01*
X136407142Y-83800000D01*
X136335714Y-83871428D01*
X136264285Y-84014285D01*
X136264285Y-84442857D01*
X136335714Y-84585714D01*
X136407142Y-84657142D01*
X136550000Y-84728571D01*
X136835714Y-84728571D01*
X136978571Y-84657142D01*
X135050000Y-84657142D02*
X135192857Y-84728571D01*
X135478571Y-84728571D01*
X135621428Y-84657142D01*
X135692857Y-84514285D01*
X135692857Y-83942857D01*
X135621428Y-83800000D01*
X135478571Y-83728571D01*
X135192857Y-83728571D01*
X135050000Y-83800000D01*
X134978571Y-83942857D01*
X134978571Y-84085714D01*
X135692857Y-84228571D01*
X134335714Y-84728571D02*
X134335714Y-83728571D01*
X134335714Y-84014285D02*
X134264285Y-83871428D01*
X134192857Y-83800000D01*
X134050000Y-83728571D01*
X133907142Y-83728571D01*
X132335714Y-83371428D02*
X132264285Y-83300000D01*
X132121428Y-83228571D01*
X131764285Y-83228571D01*
X131621428Y-83300000D01*
X131550000Y-83371428D01*
X131478571Y-83514285D01*
X131478571Y-83657142D01*
X131550000Y-83871428D01*
X132407142Y-84728571D01*
X131478571Y-84728571D01*
X130550000Y-83228571D02*
X130407142Y-83228571D01*
X130264285Y-83300000D01*
X130192857Y-83371428D01*
X130121428Y-83514285D01*
X130050000Y-83800000D01*
X130050000Y-84157142D01*
X130121428Y-84442857D01*
X130192857Y-84585714D01*
X130264285Y-84657142D01*
X130407142Y-84728571D01*
X130550000Y-84728571D01*
X130692857Y-84657142D01*
X130764285Y-84585714D01*
X130835714Y-84442857D01*
X130907142Y-84157142D01*
X130907142Y-83800000D01*
X130835714Y-83514285D01*
X130764285Y-83371428D01*
X130692857Y-83300000D01*
X130550000Y-83228571D01*
X129478571Y-83371428D02*
X129407142Y-83300000D01*
X129264285Y-83228571D01*
X128907142Y-83228571D01*
X128764285Y-83300000D01*
X128692857Y-83371428D01*
X128621428Y-83514285D01*
X128621428Y-83657142D01*
X128692857Y-83871428D01*
X129550000Y-84728571D01*
X128621428Y-84728571D01*
X127692857Y-83228571D02*
X127550000Y-83228571D01*
X127407142Y-83300000D01*
X127335714Y-83371428D01*
X127264285Y-83514285D01*
X127192857Y-83800000D01*
X127192857Y-84157142D01*
X127264285Y-84442857D01*
X127335714Y-84585714D01*
X127407142Y-84657142D01*
X127550000Y-84728571D01*
X127692857Y-84728571D01*
X127835714Y-84657142D01*
X127907142Y-84585714D01*
X127978571Y-84442857D01*
X128050000Y-84157142D01*
X128050000Y-83800000D01*
X127978571Y-83514285D01*
X127907142Y-83371428D01*
X127835714Y-83300000D01*
X127692857Y-83228571D01*
D14*
%TO.C,REF\u002A\u002A*%
G36*
X158455743Y-148073689D02*
G01*
X158191220Y-148073725D01*
X158068088Y-148073730D01*
X156097189Y-148073730D01*
X156097189Y-148189910D01*
X156084789Y-148331291D01*
X156047364Y-148461684D01*
X155984577Y-148581862D01*
X155896094Y-148692602D01*
X155866157Y-148722511D01*
X155758466Y-148807348D01*
X155639725Y-148869221D01*
X155513460Y-148908159D01*
X155383197Y-148924190D01*
X155252465Y-148917342D01*
X155124788Y-148887643D01*
X155003695Y-148835120D01*
X154892712Y-148759803D01*
X154842868Y-148714363D01*
X154749983Y-148602952D01*
X154681873Y-148480435D01*
X154639129Y-148348215D01*
X154622347Y-148207692D01*
X154622124Y-148193867D01*
X154621244Y-148073734D01*
X154568443Y-148073732D01*
X154521604Y-148080089D01*
X154478817Y-148095556D01*
X154475989Y-148097154D01*
X154466325Y-148102168D01*
X154457451Y-148106073D01*
X154449335Y-148110007D01*
X154441943Y-148115106D01*
X154435245Y-148122508D01*
X154429208Y-148133351D01*
X154423801Y-148148772D01*
X154418990Y-148169909D01*
X154414745Y-148197899D01*
X154411032Y-148233879D01*
X154407821Y-148278987D01*
X154405078Y-148334360D01*
X154402772Y-148401137D01*
X154400871Y-148480453D01*
X154399342Y-148573447D01*
X154398154Y-148681257D01*
X154397274Y-148805019D01*
X154396670Y-148945871D01*
X154396311Y-149104950D01*
X154396165Y-149283395D01*
X154396198Y-149482342D01*
X154396380Y-149702929D01*
X154396677Y-149946293D01*
X154397059Y-150213572D01*
X154397492Y-150505903D01*
X154397945Y-150824424D01*
X154397998Y-150863230D01*
X154398404Y-151183782D01*
X154398749Y-151478012D01*
X154399069Y-151747056D01*
X154399400Y-151992052D01*
X154399779Y-152214137D01*
X154400243Y-152414447D01*
X154400828Y-152594119D01*
X154401570Y-152754290D01*
X154402506Y-152896098D01*
X154403673Y-153020679D01*
X154405107Y-153129170D01*
X154406844Y-153222707D01*
X154408922Y-153302429D01*
X154411376Y-153369472D01*
X154414244Y-153424973D01*
X154417561Y-153470068D01*
X154421364Y-153505895D01*
X154425690Y-153533591D01*
X154430575Y-153554293D01*
X154436055Y-153569137D01*
X154442168Y-153579260D01*
X154448950Y-153585800D01*
X154456437Y-153589893D01*
X154464666Y-153592676D01*
X154473673Y-153595287D01*
X154483495Y-153598862D01*
X154485894Y-153599950D01*
X154493435Y-153602396D01*
X154506056Y-153604642D01*
X154524859Y-153606698D01*
X154550947Y-153608572D01*
X154585422Y-153610271D01*
X154629385Y-153611803D01*
X154683939Y-153613177D01*
X154750185Y-153614400D01*
X154829226Y-153615481D01*
X154922163Y-153616427D01*
X155030099Y-153617247D01*
X155154136Y-153617947D01*
X155295376Y-153618538D01*
X155454921Y-153619025D01*
X155633872Y-153619419D01*
X155833332Y-153619725D01*
X156054404Y-153619953D01*
X156298188Y-153620110D01*
X156565787Y-153620205D01*
X156858303Y-153620245D01*
X157176839Y-153620238D01*
X157280021Y-153620228D01*
X157605623Y-153620176D01*
X157904881Y-153620091D01*
X158178909Y-153619963D01*
X158428824Y-153619785D01*
X158655740Y-153619548D01*
X158860773Y-153619242D01*
X159045038Y-153618860D01*
X159209650Y-153618392D01*
X159355725Y-153617830D01*
X159484376Y-153617165D01*
X159596721Y-153616388D01*
X159693874Y-153615491D01*
X159776950Y-153614465D01*
X159847064Y-153613301D01*
X159905332Y-153611991D01*
X159952869Y-153610525D01*
X159990790Y-153608896D01*
X160020210Y-153607093D01*
X160042245Y-153605110D01*
X160058010Y-153602936D01*
X160068620Y-153600563D01*
X160074404Y-153598391D01*
X160084684Y-153594056D01*
X160094122Y-153590859D01*
X160102755Y-153587665D01*
X160110619Y-153583338D01*
X160117748Y-153576744D01*
X160124179Y-153566747D01*
X160129947Y-153552212D01*
X160135089Y-153532003D01*
X160139640Y-153504985D01*
X160143635Y-153470023D01*
X160147111Y-153425981D01*
X160150102Y-153371724D01*
X160152646Y-153306117D01*
X160154777Y-153228024D01*
X160156532Y-153136310D01*
X160157945Y-153029840D01*
X160158315Y-152988973D01*
X159791884Y-152988973D01*
X158496734Y-152988973D01*
X158521655Y-152951217D01*
X158546447Y-152912417D01*
X158567440Y-152875469D01*
X158584935Y-152837788D01*
X158599230Y-152796788D01*
X158610623Y-152749883D01*
X158619413Y-152694487D01*
X158625898Y-152628016D01*
X158630377Y-152547883D01*
X158633150Y-152451502D01*
X158634513Y-152336289D01*
X158634767Y-152199657D01*
X158634209Y-152039020D01*
X158633893Y-151979382D01*
X158630325Y-151340041D01*
X158225298Y-151891449D01*
X158110554Y-152047876D01*
X158011143Y-152184088D01*
X157925990Y-152301890D01*
X157854022Y-152403084D01*
X157794166Y-152489477D01*
X157745348Y-152562874D01*
X157706495Y-152625077D01*
X157676534Y-152677893D01*
X157654391Y-152723125D01*
X157638993Y-152762578D01*
X157629266Y-152798058D01*
X157624137Y-152831368D01*
X157622532Y-152864313D01*
X157623379Y-152898697D01*
X157623595Y-152903019D01*
X157628054Y-152989031D01*
X156208692Y-152988973D01*
X156314265Y-152882522D01*
X156342913Y-152853406D01*
X156370090Y-152825076D01*
X156396989Y-152795968D01*
X156424803Y-152764520D01*
X156454725Y-152729169D01*
X156487946Y-152688354D01*
X156525661Y-152640511D01*
X156569060Y-152584079D01*
X156619338Y-152517494D01*
X156677688Y-152439195D01*
X156745300Y-152347619D01*
X156823369Y-152241204D01*
X156913088Y-152118387D01*
X157015648Y-151977605D01*
X157132242Y-151817297D01*
X157227809Y-151685798D01*
X157347749Y-151520596D01*
X157452380Y-151376152D01*
X157542648Y-151251094D01*
X157619503Y-151144052D01*
X157683891Y-151053654D01*
X157736761Y-150978529D01*
X157779060Y-150917304D01*
X157811736Y-150868610D01*
X157835738Y-150831074D01*
X157852013Y-150803325D01*
X157861508Y-150783992D01*
X157865173Y-150771703D01*
X157864071Y-150765242D01*
X157850724Y-150748048D01*
X157821866Y-150711655D01*
X157779240Y-150658224D01*
X157724585Y-150589919D01*
X157659644Y-150508903D01*
X157586158Y-150417340D01*
X157505868Y-150317392D01*
X157420515Y-150211224D01*
X157331840Y-150100997D01*
X157241586Y-149988876D01*
X157191944Y-149927244D01*
X155959373Y-149927244D01*
X155908146Y-150019919D01*
X155856919Y-150112595D01*
X155856919Y-152803622D01*
X155908146Y-152896298D01*
X155959373Y-152988973D01*
X155353396Y-152988973D01*
X155208734Y-152988931D01*
X155089244Y-152988741D01*
X154992642Y-152988308D01*
X154916642Y-152987536D01*
X154858957Y-152986330D01*
X154817301Y-152984594D01*
X154789389Y-152982232D01*
X154772935Y-152979150D01*
X154765652Y-152975251D01*
X154765255Y-152970440D01*
X154769458Y-152964622D01*
X154769501Y-152964574D01*
X154786813Y-152939532D01*
X154809736Y-152898815D01*
X154829981Y-152858168D01*
X154868379Y-152776162D01*
X154876211Y-149927244D01*
X155959373Y-149927244D01*
X157191944Y-149927244D01*
X157151493Y-149877024D01*
X157063302Y-149767604D01*
X156978754Y-149662778D01*
X156899592Y-149564711D01*
X156827556Y-149475566D01*
X156764387Y-149397505D01*
X156711827Y-149332692D01*
X156671617Y-149283290D01*
X156648000Y-149254487D01*
X156556290Y-149146778D01*
X156468060Y-149049580D01*
X156386403Y-148966076D01*
X156314410Y-148899448D01*
X156263319Y-148858599D01*
X156202907Y-148815135D01*
X157592298Y-148815135D01*
X157591908Y-148896666D01*
X157595791Y-148956606D01*
X157610390Y-149012177D01*
X157632988Y-149064855D01*
X157647678Y-149094615D01*
X157663472Y-149124103D01*
X157681814Y-149155276D01*
X157704145Y-149190093D01*
X157731909Y-149230510D01*
X157766549Y-149278486D01*
X157809507Y-149335978D01*
X157862227Y-149404943D01*
X157926151Y-149487339D01*
X158002721Y-149585124D01*
X158093381Y-149700255D01*
X158199574Y-149834690D01*
X158211568Y-149849859D01*
X158630325Y-150379412D01*
X158634378Y-149792922D01*
X158635195Y-149617251D01*
X158635021Y-149468532D01*
X158633849Y-149346275D01*
X158631669Y-149249989D01*
X158628474Y-149179183D01*
X158624256Y-149133369D01*
X158622838Y-149124679D01*
X158600591Y-149033135D01*
X158571443Y-148950608D01*
X158538182Y-148884253D01*
X158518200Y-148856110D01*
X158483722Y-148815135D01*
X159137914Y-148815135D01*
X159293969Y-148815269D01*
X159424467Y-148815703D01*
X159531310Y-148816489D01*
X159616398Y-148817676D01*
X159681635Y-148819317D01*
X159728921Y-148821461D01*
X159760157Y-148824159D01*
X159777246Y-148827462D01*
X159782088Y-148831421D01*
X159781753Y-148832298D01*
X159767885Y-148853231D01*
X159744732Y-148886412D01*
X159732754Y-148903193D01*
X159720369Y-148919940D01*
X159709237Y-148934915D01*
X159699288Y-148949594D01*
X159690451Y-148965449D01*
X159682657Y-148983955D01*
X159675835Y-149006585D01*
X159669916Y-149034813D01*
X159664829Y-149070113D01*
X159660504Y-149113958D01*
X159656871Y-149167822D01*
X159653860Y-149233180D01*
X159651401Y-149311504D01*
X159649423Y-149404268D01*
X159647858Y-149512947D01*
X159646634Y-149639013D01*
X159645681Y-149783942D01*
X159644930Y-149949206D01*
X159644311Y-150136279D01*
X159643752Y-150346635D01*
X159643185Y-150581748D01*
X159642655Y-150797741D01*
X159642155Y-151038535D01*
X159641895Y-151268274D01*
X159641868Y-151485493D01*
X159642067Y-151688722D01*
X159642486Y-151876496D01*
X159643118Y-152047345D01*
X159643956Y-152199803D01*
X159644992Y-152332403D01*
X159646220Y-152443676D01*
X159647633Y-152532156D01*
X159649225Y-152596375D01*
X159650987Y-152634865D01*
X159651321Y-152638933D01*
X159663466Y-152732248D01*
X159682427Y-152807190D01*
X159711302Y-152872594D01*
X159753190Y-152937293D01*
X159758429Y-152944352D01*
X159791884Y-152988973D01*
X160158315Y-152988973D01*
X160159054Y-152907479D01*
X160159893Y-152768090D01*
X160160498Y-152610539D01*
X160160905Y-152433691D01*
X160161150Y-152236410D01*
X160161267Y-152017560D01*
X160161295Y-151776007D01*
X160161267Y-151510615D01*
X160161220Y-151220249D01*
X160161190Y-150903773D01*
X160161189Y-150840946D01*
X160161172Y-150521137D01*
X160161112Y-150227661D01*
X160161002Y-149959390D01*
X160160833Y-149715198D01*
X160160597Y-149493957D01*
X160160284Y-149294540D01*
X160159885Y-149115820D01*
X160159393Y-148956671D01*
X160158797Y-148815966D01*
X160158090Y-148692576D01*
X160157263Y-148585376D01*
X160156307Y-148493238D01*
X160155213Y-148415035D01*
X160153973Y-148349641D01*
X160152578Y-148295928D01*
X160151018Y-148252769D01*
X160149286Y-148219037D01*
X160147372Y-148193605D01*
X160145268Y-148175347D01*
X160142966Y-148163134D01*
X160140455Y-148155841D01*
X160140363Y-148155659D01*
X160135192Y-148144518D01*
X160130885Y-148134431D01*
X160126121Y-148125346D01*
X160119578Y-148117212D01*
X160109935Y-148109976D01*
X160095871Y-148103586D01*
X160076063Y-148097989D01*
X160049191Y-148093133D01*
X160013933Y-148088966D01*
X159968968Y-148085436D01*
X159912974Y-148082491D01*
X159844629Y-148080077D01*
X159762614Y-148078144D01*
X159665605Y-148076638D01*
X159552282Y-148075508D01*
X159421323Y-148074702D01*
X159271407Y-148074166D01*
X159101213Y-148073849D01*
X158909418Y-148073699D01*
X158694702Y-148073663D01*
X158455743Y-148073689D01*
G37*
X158455743Y-148073689D02*
X158191220Y-148073725D01*
X158068088Y-148073730D01*
X156097189Y-148073730D01*
X156097189Y-148189910D01*
X156084789Y-148331291D01*
X156047364Y-148461684D01*
X155984577Y-148581862D01*
X155896094Y-148692602D01*
X155866157Y-148722511D01*
X155758466Y-148807348D01*
X155639725Y-148869221D01*
X155513460Y-148908159D01*
X155383197Y-148924190D01*
X155252465Y-148917342D01*
X155124788Y-148887643D01*
X155003695Y-148835120D01*
X154892712Y-148759803D01*
X154842868Y-148714363D01*
X154749983Y-148602952D01*
X154681873Y-148480435D01*
X154639129Y-148348215D01*
X154622347Y-148207692D01*
X154622124Y-148193867D01*
X154621244Y-148073734D01*
X154568443Y-148073732D01*
X154521604Y-148080089D01*
X154478817Y-148095556D01*
X154475989Y-148097154D01*
X154466325Y-148102168D01*
X154457451Y-148106073D01*
X154449335Y-148110007D01*
X154441943Y-148115106D01*
X154435245Y-148122508D01*
X154429208Y-148133351D01*
X154423801Y-148148772D01*
X154418990Y-148169909D01*
X154414745Y-148197899D01*
X154411032Y-148233879D01*
X154407821Y-148278987D01*
X154405078Y-148334360D01*
X154402772Y-148401137D01*
X154400871Y-148480453D01*
X154399342Y-148573447D01*
X154398154Y-148681257D01*
X154397274Y-148805019D01*
X154396670Y-148945871D01*
X154396311Y-149104950D01*
X154396165Y-149283395D01*
X154396198Y-149482342D01*
X154396380Y-149702929D01*
X154396677Y-149946293D01*
X154397059Y-150213572D01*
X154397492Y-150505903D01*
X154397945Y-150824424D01*
X154397998Y-150863230D01*
X154398404Y-151183782D01*
X154398749Y-151478012D01*
X154399069Y-151747056D01*
X154399400Y-151992052D01*
X154399779Y-152214137D01*
X154400243Y-152414447D01*
X154400828Y-152594119D01*
X154401570Y-152754290D01*
X154402506Y-152896098D01*
X154403673Y-153020679D01*
X154405107Y-153129170D01*
X154406844Y-153222707D01*
X154408922Y-153302429D01*
X154411376Y-153369472D01*
X154414244Y-153424973D01*
X154417561Y-153470068D01*
X154421364Y-153505895D01*
X154425690Y-153533591D01*
X154430575Y-153554293D01*
X154436055Y-153569137D01*
X154442168Y-153579260D01*
X154448950Y-153585800D01*
X154456437Y-153589893D01*
X154464666Y-153592676D01*
X154473673Y-153595287D01*
X154483495Y-153598862D01*
X154485894Y-153599950D01*
X154493435Y-153602396D01*
X154506056Y-153604642D01*
X154524859Y-153606698D01*
X154550947Y-153608572D01*
X154585422Y-153610271D01*
X154629385Y-153611803D01*
X154683939Y-153613177D01*
X154750185Y-153614400D01*
X154829226Y-153615481D01*
X154922163Y-153616427D01*
X155030099Y-153617247D01*
X155154136Y-153617947D01*
X155295376Y-153618538D01*
X155454921Y-153619025D01*
X155633872Y-153619419D01*
X155833332Y-153619725D01*
X156054404Y-153619953D01*
X156298188Y-153620110D01*
X156565787Y-153620205D01*
X156858303Y-153620245D01*
X157176839Y-153620238D01*
X157280021Y-153620228D01*
X157605623Y-153620176D01*
X157904881Y-153620091D01*
X158178909Y-153619963D01*
X158428824Y-153619785D01*
X158655740Y-153619548D01*
X158860773Y-153619242D01*
X159045038Y-153618860D01*
X159209650Y-153618392D01*
X159355725Y-153617830D01*
X159484376Y-153617165D01*
X159596721Y-153616388D01*
X159693874Y-153615491D01*
X159776950Y-153614465D01*
X159847064Y-153613301D01*
X159905332Y-153611991D01*
X159952869Y-153610525D01*
X159990790Y-153608896D01*
X160020210Y-153607093D01*
X160042245Y-153605110D01*
X160058010Y-153602936D01*
X160068620Y-153600563D01*
X160074404Y-153598391D01*
X160084684Y-153594056D01*
X160094122Y-153590859D01*
X160102755Y-153587665D01*
X160110619Y-153583338D01*
X160117748Y-153576744D01*
X160124179Y-153566747D01*
X160129947Y-153552212D01*
X160135089Y-153532003D01*
X160139640Y-153504985D01*
X160143635Y-153470023D01*
X160147111Y-153425981D01*
X160150102Y-153371724D01*
X160152646Y-153306117D01*
X160154777Y-153228024D01*
X160156532Y-153136310D01*
X160157945Y-153029840D01*
X160158315Y-152988973D01*
X159791884Y-152988973D01*
X158496734Y-152988973D01*
X158521655Y-152951217D01*
X158546447Y-152912417D01*
X158567440Y-152875469D01*
X158584935Y-152837788D01*
X158599230Y-152796788D01*
X158610623Y-152749883D01*
X158619413Y-152694487D01*
X158625898Y-152628016D01*
X158630377Y-152547883D01*
X158633150Y-152451502D01*
X158634513Y-152336289D01*
X158634767Y-152199657D01*
X158634209Y-152039020D01*
X158633893Y-151979382D01*
X158630325Y-151340041D01*
X158225298Y-151891449D01*
X158110554Y-152047876D01*
X158011143Y-152184088D01*
X157925990Y-152301890D01*
X157854022Y-152403084D01*
X157794166Y-152489477D01*
X157745348Y-152562874D01*
X157706495Y-152625077D01*
X157676534Y-152677893D01*
X157654391Y-152723125D01*
X157638993Y-152762578D01*
X157629266Y-152798058D01*
X157624137Y-152831368D01*
X157622532Y-152864313D01*
X157623379Y-152898697D01*
X157623595Y-152903019D01*
X157628054Y-152989031D01*
X156208692Y-152988973D01*
X156314265Y-152882522D01*
X156342913Y-152853406D01*
X156370090Y-152825076D01*
X156396989Y-152795968D01*
X156424803Y-152764520D01*
X156454725Y-152729169D01*
X156487946Y-152688354D01*
X156525661Y-152640511D01*
X156569060Y-152584079D01*
X156619338Y-152517494D01*
X156677688Y-152439195D01*
X156745300Y-152347619D01*
X156823369Y-152241204D01*
X156913088Y-152118387D01*
X157015648Y-151977605D01*
X157132242Y-151817297D01*
X157227809Y-151685798D01*
X157347749Y-151520596D01*
X157452380Y-151376152D01*
X157542648Y-151251094D01*
X157619503Y-151144052D01*
X157683891Y-151053654D01*
X157736761Y-150978529D01*
X157779060Y-150917304D01*
X157811736Y-150868610D01*
X157835738Y-150831074D01*
X157852013Y-150803325D01*
X157861508Y-150783992D01*
X157865173Y-150771703D01*
X157864071Y-150765242D01*
X157850724Y-150748048D01*
X157821866Y-150711655D01*
X157779240Y-150658224D01*
X157724585Y-150589919D01*
X157659644Y-150508903D01*
X157586158Y-150417340D01*
X157505868Y-150317392D01*
X157420515Y-150211224D01*
X157331840Y-150100997D01*
X157241586Y-149988876D01*
X157191944Y-149927244D01*
X155959373Y-149927244D01*
X155908146Y-150019919D01*
X155856919Y-150112595D01*
X155856919Y-152803622D01*
X155908146Y-152896298D01*
X155959373Y-152988973D01*
X155353396Y-152988973D01*
X155208734Y-152988931D01*
X155089244Y-152988741D01*
X154992642Y-152988308D01*
X154916642Y-152987536D01*
X154858957Y-152986330D01*
X154817301Y-152984594D01*
X154789389Y-152982232D01*
X154772935Y-152979150D01*
X154765652Y-152975251D01*
X154765255Y-152970440D01*
X154769458Y-152964622D01*
X154769501Y-152964574D01*
X154786813Y-152939532D01*
X154809736Y-152898815D01*
X154829981Y-152858168D01*
X154868379Y-152776162D01*
X154876211Y-149927244D01*
X155959373Y-149927244D01*
X157191944Y-149927244D01*
X157151493Y-149877024D01*
X157063302Y-149767604D01*
X156978754Y-149662778D01*
X156899592Y-149564711D01*
X156827556Y-149475566D01*
X156764387Y-149397505D01*
X156711827Y-149332692D01*
X156671617Y-149283290D01*
X156648000Y-149254487D01*
X156556290Y-149146778D01*
X156468060Y-149049580D01*
X156386403Y-148966076D01*
X156314410Y-148899448D01*
X156263319Y-148858599D01*
X156202907Y-148815135D01*
X157592298Y-148815135D01*
X157591908Y-148896666D01*
X157595791Y-148956606D01*
X157610390Y-149012177D01*
X157632988Y-149064855D01*
X157647678Y-149094615D01*
X157663472Y-149124103D01*
X157681814Y-149155276D01*
X157704145Y-149190093D01*
X157731909Y-149230510D01*
X157766549Y-149278486D01*
X157809507Y-149335978D01*
X157862227Y-149404943D01*
X157926151Y-149487339D01*
X158002721Y-149585124D01*
X158093381Y-149700255D01*
X158199574Y-149834690D01*
X158211568Y-149849859D01*
X158630325Y-150379412D01*
X158634378Y-149792922D01*
X158635195Y-149617251D01*
X158635021Y-149468532D01*
X158633849Y-149346275D01*
X158631669Y-149249989D01*
X158628474Y-149179183D01*
X158624256Y-149133369D01*
X158622838Y-149124679D01*
X158600591Y-149033135D01*
X158571443Y-148950608D01*
X158538182Y-148884253D01*
X158518200Y-148856110D01*
X158483722Y-148815135D01*
X159137914Y-148815135D01*
X159293969Y-148815269D01*
X159424467Y-148815703D01*
X159531310Y-148816489D01*
X159616398Y-148817676D01*
X159681635Y-148819317D01*
X159728921Y-148821461D01*
X159760157Y-148824159D01*
X159777246Y-148827462D01*
X159782088Y-148831421D01*
X159781753Y-148832298D01*
X159767885Y-148853231D01*
X159744732Y-148886412D01*
X159732754Y-148903193D01*
X159720369Y-148919940D01*
X159709237Y-148934915D01*
X159699288Y-148949594D01*
X159690451Y-148965449D01*
X159682657Y-148983955D01*
X159675835Y-149006585D01*
X159669916Y-149034813D01*
X159664829Y-149070113D01*
X159660504Y-149113958D01*
X159656871Y-149167822D01*
X159653860Y-149233180D01*
X159651401Y-149311504D01*
X159649423Y-149404268D01*
X159647858Y-149512947D01*
X159646634Y-149639013D01*
X159645681Y-149783942D01*
X159644930Y-149949206D01*
X159644311Y-150136279D01*
X159643752Y-150346635D01*
X159643185Y-150581748D01*
X159642655Y-150797741D01*
X159642155Y-151038535D01*
X159641895Y-151268274D01*
X159641868Y-151485493D01*
X159642067Y-151688722D01*
X159642486Y-151876496D01*
X159643118Y-152047345D01*
X159643956Y-152199803D01*
X159644992Y-152332403D01*
X159646220Y-152443676D01*
X159647633Y-152532156D01*
X159649225Y-152596375D01*
X159650987Y-152634865D01*
X159651321Y-152638933D01*
X159663466Y-152732248D01*
X159682427Y-152807190D01*
X159711302Y-152872594D01*
X159753190Y-152937293D01*
X159758429Y-152944352D01*
X159791884Y-152988973D01*
X160158315Y-152988973D01*
X160159054Y-152907479D01*
X160159893Y-152768090D01*
X160160498Y-152610539D01*
X160160905Y-152433691D01*
X160161150Y-152236410D01*
X160161267Y-152017560D01*
X160161295Y-151776007D01*
X160161267Y-151510615D01*
X160161220Y-151220249D01*
X160161190Y-150903773D01*
X160161189Y-150840946D01*
X160161172Y-150521137D01*
X160161112Y-150227661D01*
X160161002Y-149959390D01*
X160160833Y-149715198D01*
X160160597Y-149493957D01*
X160160284Y-149294540D01*
X160159885Y-149115820D01*
X160159393Y-148956671D01*
X160158797Y-148815966D01*
X160158090Y-148692576D01*
X160157263Y-148585376D01*
X160156307Y-148493238D01*
X160155213Y-148415035D01*
X160153973Y-148349641D01*
X160152578Y-148295928D01*
X160151018Y-148252769D01*
X160149286Y-148219037D01*
X160147372Y-148193605D01*
X160145268Y-148175347D01*
X160142966Y-148163134D01*
X160140455Y-148155841D01*
X160140363Y-148155659D01*
X160135192Y-148144518D01*
X160130885Y-148134431D01*
X160126121Y-148125346D01*
X160119578Y-148117212D01*
X160109935Y-148109976D01*
X160095871Y-148103586D01*
X160076063Y-148097989D01*
X160049191Y-148093133D01*
X160013933Y-148088966D01*
X159968968Y-148085436D01*
X159912974Y-148082491D01*
X159844629Y-148080077D01*
X159762614Y-148078144D01*
X159665605Y-148076638D01*
X159552282Y-148075508D01*
X159421323Y-148074702D01*
X159271407Y-148074166D01*
X159101213Y-148073849D01*
X158909418Y-148073699D01*
X158694702Y-148073663D01*
X158455743Y-148073689D01*
G36*
X152060038Y-148760499D02*
G01*
X151911986Y-148776707D01*
X151768548Y-148805718D01*
X151623890Y-148849045D01*
X151472176Y-148908201D01*
X151307572Y-148984700D01*
X151277929Y-148999517D01*
X151209902Y-149033031D01*
X151145744Y-149063208D01*
X151091785Y-149087166D01*
X151054360Y-149102024D01*
X151048611Y-149103895D01*
X150993514Y-149120402D01*
X151240149Y-149479201D01*
X151300448Y-149566893D01*
X151355578Y-149647012D01*
X151403664Y-149716836D01*
X151442832Y-149773647D01*
X151471206Y-149814723D01*
X151486913Y-149837346D01*
X151489464Y-149840928D01*
X151499829Y-149833438D01*
X151525340Y-149810918D01*
X151561437Y-149777461D01*
X151581358Y-149758550D01*
X151694227Y-149668778D01*
X151820986Y-149600561D01*
X151930217Y-149563195D01*
X151995786Y-149551460D01*
X152077884Y-149544308D01*
X152166856Y-149541874D01*
X152253044Y-149544288D01*
X152326795Y-149551683D01*
X152356224Y-149557347D01*
X152488867Y-149602982D01*
X152608394Y-149672663D01*
X152714717Y-149766260D01*
X152807747Y-149883649D01*
X152887395Y-150024700D01*
X152953574Y-150189286D01*
X153006194Y-150377280D01*
X153037467Y-150538217D01*
X153045626Y-150609263D01*
X153051185Y-150701046D01*
X153054198Y-150806968D01*
X153054719Y-150920434D01*
X153052800Y-151034849D01*
X153048497Y-151143617D01*
X153041863Y-151240143D01*
X153032951Y-151317831D01*
X153031021Y-151329817D01*
X152988501Y-151522892D01*
X152930567Y-151693773D01*
X152856867Y-151843224D01*
X152767049Y-151972011D01*
X152703293Y-152041639D01*
X152588714Y-152136173D01*
X152463058Y-152206246D01*
X152328443Y-152251477D01*
X152186989Y-152271484D01*
X152040817Y-152265885D01*
X151892045Y-152234300D01*
X151804089Y-152203394D01*
X151682371Y-152141506D01*
X151556920Y-152052729D01*
X151486647Y-151992694D01*
X151447189Y-151957947D01*
X151416188Y-151932454D01*
X151398542Y-151920170D01*
X151396352Y-151919795D01*
X151388476Y-151932347D01*
X151368068Y-151965516D01*
X151336868Y-152016458D01*
X151296614Y-152082331D01*
X151249043Y-152160289D01*
X151195896Y-152247490D01*
X151166313Y-152296067D01*
X150940352Y-152667215D01*
X151222473Y-152806639D01*
X151324478Y-152856719D01*
X151407111Y-152896210D01*
X151475422Y-152927073D01*
X151534463Y-152951268D01*
X151589286Y-152970758D01*
X151644940Y-152987503D01*
X151706477Y-153003465D01*
X151765460Y-153017482D01*
X151817885Y-153028329D01*
X151872712Y-153036526D01*
X151935428Y-153042528D01*
X152011523Y-153046790D01*
X152106484Y-153049767D01*
X152170487Y-153051052D01*
X152261808Y-153051930D01*
X152349373Y-153051487D01*
X152427388Y-153049852D01*
X152490058Y-153047149D01*
X152531587Y-153043505D01*
X152534048Y-153043142D01*
X152749697Y-152996487D01*
X152952207Y-152925729D01*
X153141505Y-152830914D01*
X153317521Y-152712089D01*
X153480184Y-152569300D01*
X153629422Y-152402594D01*
X153737504Y-152254433D01*
X153852566Y-152060502D01*
X153945577Y-151855699D01*
X154016987Y-151638383D01*
X154067244Y-151406912D01*
X154096799Y-151159643D01*
X154106111Y-150908559D01*
X154098452Y-150665670D01*
X154074387Y-150441570D01*
X154033148Y-150232477D01*
X153973973Y-150034613D01*
X153896096Y-149844196D01*
X153886797Y-149824468D01*
X153784352Y-149640059D01*
X153658528Y-149464576D01*
X153512888Y-149301650D01*
X153350999Y-149154914D01*
X153176424Y-149028001D01*
X153013756Y-148934905D01*
X152849427Y-148861991D01*
X152684749Y-148809174D01*
X152513348Y-148775015D01*
X152328847Y-148758078D01*
X152218541Y-148755580D01*
X152060038Y-148760499D01*
G37*
X152060038Y-148760499D02*
X151911986Y-148776707D01*
X151768548Y-148805718D01*
X151623890Y-148849045D01*
X151472176Y-148908201D01*
X151307572Y-148984700D01*
X151277929Y-148999517D01*
X151209902Y-149033031D01*
X151145744Y-149063208D01*
X151091785Y-149087166D01*
X151054360Y-149102024D01*
X151048611Y-149103895D01*
X150993514Y-149120402D01*
X151240149Y-149479201D01*
X151300448Y-149566893D01*
X151355578Y-149647012D01*
X151403664Y-149716836D01*
X151442832Y-149773647D01*
X151471206Y-149814723D01*
X151486913Y-149837346D01*
X151489464Y-149840928D01*
X151499829Y-149833438D01*
X151525340Y-149810918D01*
X151561437Y-149777461D01*
X151581358Y-149758550D01*
X151694227Y-149668778D01*
X151820986Y-149600561D01*
X151930217Y-149563195D01*
X151995786Y-149551460D01*
X152077884Y-149544308D01*
X152166856Y-149541874D01*
X152253044Y-149544288D01*
X152326795Y-149551683D01*
X152356224Y-149557347D01*
X152488867Y-149602982D01*
X152608394Y-149672663D01*
X152714717Y-149766260D01*
X152807747Y-149883649D01*
X152887395Y-150024700D01*
X152953574Y-150189286D01*
X153006194Y-150377280D01*
X153037467Y-150538217D01*
X153045626Y-150609263D01*
X153051185Y-150701046D01*
X153054198Y-150806968D01*
X153054719Y-150920434D01*
X153052800Y-151034849D01*
X153048497Y-151143617D01*
X153041863Y-151240143D01*
X153032951Y-151317831D01*
X153031021Y-151329817D01*
X152988501Y-151522892D01*
X152930567Y-151693773D01*
X152856867Y-151843224D01*
X152767049Y-151972011D01*
X152703293Y-152041639D01*
X152588714Y-152136173D01*
X152463058Y-152206246D01*
X152328443Y-152251477D01*
X152186989Y-152271484D01*
X152040817Y-152265885D01*
X151892045Y-152234300D01*
X151804089Y-152203394D01*
X151682371Y-152141506D01*
X151556920Y-152052729D01*
X151486647Y-151992694D01*
X151447189Y-151957947D01*
X151416188Y-151932454D01*
X151398542Y-151920170D01*
X151396352Y-151919795D01*
X151388476Y-151932347D01*
X151368068Y-151965516D01*
X151336868Y-152016458D01*
X151296614Y-152082331D01*
X151249043Y-152160289D01*
X151195896Y-152247490D01*
X151166313Y-152296067D01*
X150940352Y-152667215D01*
X151222473Y-152806639D01*
X151324478Y-152856719D01*
X151407111Y-152896210D01*
X151475422Y-152927073D01*
X151534463Y-152951268D01*
X151589286Y-152970758D01*
X151644940Y-152987503D01*
X151706477Y-153003465D01*
X151765460Y-153017482D01*
X151817885Y-153028329D01*
X151872712Y-153036526D01*
X151935428Y-153042528D01*
X152011523Y-153046790D01*
X152106484Y-153049767D01*
X152170487Y-153051052D01*
X152261808Y-153051930D01*
X152349373Y-153051487D01*
X152427388Y-153049852D01*
X152490058Y-153047149D01*
X152531587Y-153043505D01*
X152534048Y-153043142D01*
X152749697Y-152996487D01*
X152952207Y-152925729D01*
X153141505Y-152830914D01*
X153317521Y-152712089D01*
X153480184Y-152569300D01*
X153629422Y-152402594D01*
X153737504Y-152254433D01*
X153852566Y-152060502D01*
X153945577Y-151855699D01*
X154016987Y-151638383D01*
X154067244Y-151406912D01*
X154096799Y-151159643D01*
X154106111Y-150908559D01*
X154098452Y-150665670D01*
X154074387Y-150441570D01*
X154033148Y-150232477D01*
X153973973Y-150034613D01*
X153896096Y-149844196D01*
X153886797Y-149824468D01*
X153784352Y-149640059D01*
X153658528Y-149464576D01*
X153512888Y-149301650D01*
X153350999Y-149154914D01*
X153176424Y-149028001D01*
X153013756Y-148934905D01*
X152849427Y-148861991D01*
X152684749Y-148809174D01*
X152513348Y-148775015D01*
X152328847Y-148758078D01*
X152218541Y-148755580D01*
X152060038Y-148760499D01*
G36*
X149332495Y-149864229D02*
G01*
X149264469Y-149869378D01*
X149069837Y-149895273D01*
X148897471Y-149936575D01*
X148746530Y-149993853D01*
X148616175Y-150067674D01*
X148505566Y-150158608D01*
X148413865Y-150267222D01*
X148340230Y-150394085D01*
X148286461Y-150531352D01*
X148272813Y-150575137D01*
X148260927Y-150616141D01*
X148250666Y-150656569D01*
X148241887Y-150698630D01*
X148234452Y-150744531D01*
X148228220Y-150796480D01*
X148223050Y-150856685D01*
X148218804Y-150927352D01*
X148215340Y-151010689D01*
X148212519Y-151108905D01*
X148210200Y-151224205D01*
X148208243Y-151358799D01*
X148206509Y-151514893D01*
X148204857Y-151694695D01*
X148203676Y-151835676D01*
X148195730Y-152803622D01*
X148144244Y-152896770D01*
X148119863Y-152941645D01*
X148101720Y-152976501D01*
X148093065Y-152995054D01*
X148092757Y-152996311D01*
X148105986Y-152997749D01*
X148143674Y-152999074D01*
X148202817Y-153000249D01*
X148280414Y-153001237D01*
X148373464Y-153001999D01*
X148478965Y-153002500D01*
X148593916Y-153002701D01*
X148607622Y-153002703D01*
X149122487Y-153002703D01*
X149122487Y-152886000D01*
X149123365Y-152833260D01*
X149125708Y-152792926D01*
X149129079Y-152771300D01*
X149130569Y-152769298D01*
X149144196Y-152777683D01*
X149172243Y-152799692D01*
X149208697Y-152830601D01*
X149209515Y-152831316D01*
X149276038Y-152880843D01*
X149360052Y-152930575D01*
X149452063Y-152975626D01*
X149542579Y-153011110D01*
X149582433Y-153023236D01*
X149661745Y-153038637D01*
X149759065Y-153048465D01*
X149865484Y-153052580D01*
X149972093Y-153050841D01*
X150069983Y-153043108D01*
X150138487Y-153031981D01*
X150306480Y-152982648D01*
X150457719Y-152912342D01*
X150591218Y-152821933D01*
X150705994Y-152712295D01*
X150801063Y-152584299D01*
X150875440Y-152438818D01*
X150907526Y-152350541D01*
X150927635Y-152264739D01*
X150940962Y-152161736D01*
X150947128Y-152051034D01*
X150946926Y-152034925D01*
X150018352Y-152034925D01*
X150010652Y-152117184D01*
X149985011Y-152185546D01*
X149937622Y-152248970D01*
X149919421Y-152267567D01*
X149854718Y-152317846D01*
X149779934Y-152350056D01*
X149690338Y-152365648D01*
X149595988Y-152366796D01*
X149506499Y-152359216D01*
X149437982Y-152344389D01*
X149408225Y-152333253D01*
X149354592Y-152302904D01*
X149297765Y-152260221D01*
X149245918Y-152212317D01*
X149207222Y-152166301D01*
X149196946Y-152149421D01*
X149188958Y-152125782D01*
X149183279Y-152088168D01*
X149179644Y-152032985D01*
X149177789Y-151956640D01*
X149177406Y-151883981D01*
X149177665Y-151799270D01*
X149178713Y-151738018D01*
X149180955Y-151696227D01*
X149184794Y-151669899D01*
X149190635Y-151655035D01*
X149198882Y-151647639D01*
X149201433Y-151646461D01*
X149223600Y-151642833D01*
X149267320Y-151639866D01*
X149326689Y-151637827D01*
X149395804Y-151636983D01*
X149410811Y-151636982D01*
X149503195Y-151638457D01*
X149574568Y-151642842D01*
X149631281Y-151650738D01*
X149678128Y-151662270D01*
X149794331Y-151706215D01*
X149885457Y-151760243D01*
X149952295Y-151825219D01*
X149995635Y-151902005D01*
X150016266Y-151991467D01*
X150018352Y-152034925D01*
X150946926Y-152034925D01*
X150945756Y-151942133D01*
X150936468Y-151844536D01*
X150929223Y-151805105D01*
X150882961Y-151658701D01*
X150812616Y-151523995D01*
X150719516Y-151402280D01*
X150604988Y-151294847D01*
X150470360Y-151202988D01*
X150316960Y-151127996D01*
X150186541Y-151082458D01*
X150099377Y-151058533D01*
X150016004Y-151039943D01*
X149931024Y-151026084D01*
X149839035Y-151016351D01*
X149734638Y-151010141D01*
X149612432Y-151006851D01*
X149501945Y-151005924D01*
X149174323Y-151005027D01*
X149180599Y-150906547D01*
X149198421Y-150799695D01*
X149236333Y-150707852D01*
X149292720Y-150633310D01*
X149365969Y-150578364D01*
X149430465Y-150551552D01*
X149522877Y-150534654D01*
X149632889Y-150532227D01*
X149755344Y-150543378D01*
X149885086Y-150567210D01*
X150016958Y-150602830D01*
X150145802Y-150649343D01*
X150239434Y-150691883D01*
X150284483Y-150713728D01*
X150318844Y-150728984D01*
X150336319Y-150734937D01*
X150337267Y-150734746D01*
X150343297Y-150721412D01*
X150358355Y-150686068D01*
X150381023Y-150632101D01*
X150409885Y-150562896D01*
X150443523Y-150481840D01*
X150477716Y-150399118D01*
X150614414Y-150067803D01*
X150517180Y-150051833D01*
X150475036Y-150043820D01*
X150411681Y-150030361D01*
X150332543Y-150012679D01*
X150243049Y-149991996D01*
X150148627Y-149969532D01*
X150111027Y-149960403D01*
X149948363Y-149922674D01*
X149805950Y-149894388D01*
X149678473Y-149874972D01*
X149560616Y-149863854D01*
X149447062Y-149860464D01*
X149332495Y-149864229D01*
G37*
X149332495Y-149864229D02*
X149264469Y-149869378D01*
X149069837Y-149895273D01*
X148897471Y-149936575D01*
X148746530Y-149993853D01*
X148616175Y-150067674D01*
X148505566Y-150158608D01*
X148413865Y-150267222D01*
X148340230Y-150394085D01*
X148286461Y-150531352D01*
X148272813Y-150575137D01*
X148260927Y-150616141D01*
X148250666Y-150656569D01*
X148241887Y-150698630D01*
X148234452Y-150744531D01*
X148228220Y-150796480D01*
X148223050Y-150856685D01*
X148218804Y-150927352D01*
X148215340Y-151010689D01*
X148212519Y-151108905D01*
X148210200Y-151224205D01*
X148208243Y-151358799D01*
X148206509Y-151514893D01*
X148204857Y-151694695D01*
X148203676Y-151835676D01*
X148195730Y-152803622D01*
X148144244Y-152896770D01*
X148119863Y-152941645D01*
X148101720Y-152976501D01*
X148093065Y-152995054D01*
X148092757Y-152996311D01*
X148105986Y-152997749D01*
X148143674Y-152999074D01*
X148202817Y-153000249D01*
X148280414Y-153001237D01*
X148373464Y-153001999D01*
X148478965Y-153002500D01*
X148593916Y-153002701D01*
X148607622Y-153002703D01*
X149122487Y-153002703D01*
X149122487Y-152886000D01*
X149123365Y-152833260D01*
X149125708Y-152792926D01*
X149129079Y-152771300D01*
X149130569Y-152769298D01*
X149144196Y-152777683D01*
X149172243Y-152799692D01*
X149208697Y-152830601D01*
X149209515Y-152831316D01*
X149276038Y-152880843D01*
X149360052Y-152930575D01*
X149452063Y-152975626D01*
X149542579Y-153011110D01*
X149582433Y-153023236D01*
X149661745Y-153038637D01*
X149759065Y-153048465D01*
X149865484Y-153052580D01*
X149972093Y-153050841D01*
X150069983Y-153043108D01*
X150138487Y-153031981D01*
X150306480Y-152982648D01*
X150457719Y-152912342D01*
X150591218Y-152821933D01*
X150705994Y-152712295D01*
X150801063Y-152584299D01*
X150875440Y-152438818D01*
X150907526Y-152350541D01*
X150927635Y-152264739D01*
X150940962Y-152161736D01*
X150947128Y-152051034D01*
X150946926Y-152034925D01*
X150018352Y-152034925D01*
X150010652Y-152117184D01*
X149985011Y-152185546D01*
X149937622Y-152248970D01*
X149919421Y-152267567D01*
X149854718Y-152317846D01*
X149779934Y-152350056D01*
X149690338Y-152365648D01*
X149595988Y-152366796D01*
X149506499Y-152359216D01*
X149437982Y-152344389D01*
X149408225Y-152333253D01*
X149354592Y-152302904D01*
X149297765Y-152260221D01*
X149245918Y-152212317D01*
X149207222Y-152166301D01*
X149196946Y-152149421D01*
X149188958Y-152125782D01*
X149183279Y-152088168D01*
X149179644Y-152032985D01*
X149177789Y-151956640D01*
X149177406Y-151883981D01*
X149177665Y-151799270D01*
X149178713Y-151738018D01*
X149180955Y-151696227D01*
X149184794Y-151669899D01*
X149190635Y-151655035D01*
X149198882Y-151647639D01*
X149201433Y-151646461D01*
X149223600Y-151642833D01*
X149267320Y-151639866D01*
X149326689Y-151637827D01*
X149395804Y-151636983D01*
X149410811Y-151636982D01*
X149503195Y-151638457D01*
X149574568Y-151642842D01*
X149631281Y-151650738D01*
X149678128Y-151662270D01*
X149794331Y-151706215D01*
X149885457Y-151760243D01*
X149952295Y-151825219D01*
X149995635Y-151902005D01*
X150016266Y-151991467D01*
X150018352Y-152034925D01*
X150946926Y-152034925D01*
X150945756Y-151942133D01*
X150936468Y-151844536D01*
X150929223Y-151805105D01*
X150882961Y-151658701D01*
X150812616Y-151523995D01*
X150719516Y-151402280D01*
X150604988Y-151294847D01*
X150470360Y-151202988D01*
X150316960Y-151127996D01*
X150186541Y-151082458D01*
X150099377Y-151058533D01*
X150016004Y-151039943D01*
X149931024Y-151026084D01*
X149839035Y-151016351D01*
X149734638Y-151010141D01*
X149612432Y-151006851D01*
X149501945Y-151005924D01*
X149174323Y-151005027D01*
X149180599Y-150906547D01*
X149198421Y-150799695D01*
X149236333Y-150707852D01*
X149292720Y-150633310D01*
X149365969Y-150578364D01*
X149430465Y-150551552D01*
X149522877Y-150534654D01*
X149632889Y-150532227D01*
X149755344Y-150543378D01*
X149885086Y-150567210D01*
X150016958Y-150602830D01*
X150145802Y-150649343D01*
X150239434Y-150691883D01*
X150284483Y-150713728D01*
X150318844Y-150728984D01*
X150336319Y-150734937D01*
X150337267Y-150734746D01*
X150343297Y-150721412D01*
X150358355Y-150686068D01*
X150381023Y-150632101D01*
X150409885Y-150562896D01*
X150443523Y-150481840D01*
X150477716Y-150399118D01*
X150614414Y-150067803D01*
X150517180Y-150051833D01*
X150475036Y-150043820D01*
X150411681Y-150030361D01*
X150332543Y-150012679D01*
X150243049Y-149991996D01*
X150148627Y-149969532D01*
X150111027Y-149960403D01*
X149948363Y-149922674D01*
X149805950Y-149894388D01*
X149678473Y-149874972D01*
X149560616Y-149863854D01*
X149447062Y-149860464D01*
X149332495Y-149864229D01*
G36*
X145657730Y-148556825D02*
G01*
X145540959Y-148557304D01*
X145501271Y-148557545D01*
X144955514Y-148561135D01*
X144948649Y-150654919D01*
X144947742Y-150938842D01*
X144946938Y-151196640D01*
X144946185Y-151429646D01*
X144945431Y-151639194D01*
X144944625Y-151826618D01*
X144943715Y-151993250D01*
X144942649Y-152140425D01*
X144941376Y-152269477D01*
X144939844Y-152381739D01*
X144938002Y-152478544D01*
X144935797Y-152561226D01*
X144933178Y-152631119D01*
X144930094Y-152689557D01*
X144926492Y-152737872D01*
X144922322Y-152777400D01*
X144917531Y-152809473D01*
X144912069Y-152835424D01*
X144905882Y-152856589D01*
X144898920Y-152874299D01*
X144891131Y-152889889D01*
X144882463Y-152904693D01*
X144872865Y-152920044D01*
X144862285Y-152937276D01*
X144860116Y-152940946D01*
X144823732Y-153003031D01*
X145349569Y-152999434D01*
X145875406Y-152995838D01*
X145882271Y-152880331D01*
X145886008Y-152824899D01*
X145889903Y-152792851D01*
X145895189Y-152780135D01*
X145903097Y-152782696D01*
X145909730Y-152790024D01*
X145938626Y-152816714D01*
X145985721Y-152851021D01*
X146044380Y-152888846D01*
X146107969Y-152926090D01*
X146169851Y-152958653D01*
X146217366Y-152980077D01*
X146328684Y-153015283D01*
X146456404Y-153040222D01*
X146591099Y-153053941D01*
X146723337Y-153055486D01*
X146843692Y-153043906D01*
X146845674Y-153043574D01*
X147010359Y-153002250D01*
X147164521Y-152936412D01*
X147306672Y-152847474D01*
X147435325Y-152736852D01*
X147548993Y-152605961D01*
X147646190Y-152456216D01*
X147725428Y-152289033D01*
X147768570Y-152165190D01*
X147797021Y-152061581D01*
X147818120Y-151961252D01*
X147832512Y-151858109D01*
X147840842Y-151746057D01*
X147843755Y-151619001D01*
X147842465Y-151515252D01*
X146829350Y-151515252D01*
X146824556Y-151689222D01*
X146809432Y-151838895D01*
X146783515Y-151965597D01*
X146746337Y-152070658D01*
X146697435Y-152155406D01*
X146636342Y-152221169D01*
X146565823Y-152267659D01*
X146529129Y-152285014D01*
X146497304Y-152295419D01*
X146461823Y-152300179D01*
X146414159Y-152300601D01*
X146362811Y-152298748D01*
X146261831Y-152289841D01*
X146181965Y-152272398D01*
X146156865Y-152263661D01*
X146099552Y-152237857D01*
X146039103Y-152205453D01*
X146012703Y-152189233D01*
X145944054Y-152144205D01*
X145944054Y-150716982D01*
X146019568Y-150671718D01*
X146124879Y-150620572D01*
X146232475Y-150590324D01*
X146338419Y-150580795D01*
X146438776Y-150591807D01*
X146529613Y-150623181D01*
X146606993Y-150674740D01*
X146631961Y-150699488D01*
X146692144Y-150780577D01*
X146740855Y-150878734D01*
X146778501Y-150995643D01*
X146805488Y-151132985D01*
X146822225Y-151292444D01*
X146829117Y-151475700D01*
X146829350Y-151515252D01*
X147842465Y-151515252D01*
X147841927Y-151472067D01*
X147830353Y-151246053D01*
X147807080Y-151042192D01*
X147771496Y-150857513D01*
X147722987Y-150689048D01*
X147660940Y-150533826D01*
X147638799Y-150487808D01*
X147549615Y-150337739D01*
X147441841Y-150204377D01*
X147318010Y-150089877D01*
X147180658Y-149996389D01*
X147032317Y-149926068D01*
X146943396Y-149897060D01*
X146856067Y-149879840D01*
X146750989Y-149869594D01*
X146636971Y-149866318D01*
X146522823Y-149870009D01*
X146417352Y-149880660D01*
X146332666Y-149897370D01*
X146231872Y-149930140D01*
X146134178Y-149972279D01*
X146048704Y-150019519D01*
X146003211Y-150051581D01*
X145971831Y-150075422D01*
X145949858Y-150089939D01*
X145944859Y-150092000D01*
X145943310Y-150078718D01*
X145941865Y-150040663D01*
X145940557Y-149980519D01*
X145939417Y-149900973D01*
X145938479Y-149804711D01*
X145937774Y-149694419D01*
X145937333Y-149572781D01*
X145937189Y-149448885D01*
X145937270Y-149290196D01*
X145937665Y-149156408D01*
X145938605Y-149044960D01*
X145940320Y-148953295D01*
X145943043Y-148878853D01*
X145947003Y-148819075D01*
X145952431Y-148771402D01*
X145959559Y-148733274D01*
X145968616Y-148702134D01*
X145979833Y-148675421D01*
X145993442Y-148650577D01*
X146009672Y-148625043D01*
X146011760Y-148621881D01*
X146032694Y-148588810D01*
X146045333Y-148566069D01*
X146047027Y-148561272D01*
X146033784Y-148559759D01*
X145995998Y-148558528D01*
X145936584Y-148557599D01*
X145858458Y-148556992D01*
X145764535Y-148556727D01*
X145657730Y-148556825D01*
G37*
X145657730Y-148556825D02*
X145540959Y-148557304D01*
X145501271Y-148557545D01*
X144955514Y-148561135D01*
X144948649Y-150654919D01*
X144947742Y-150938842D01*
X144946938Y-151196640D01*
X144946185Y-151429646D01*
X144945431Y-151639194D01*
X144944625Y-151826618D01*
X144943715Y-151993250D01*
X144942649Y-152140425D01*
X144941376Y-152269477D01*
X144939844Y-152381739D01*
X144938002Y-152478544D01*
X144935797Y-152561226D01*
X144933178Y-152631119D01*
X144930094Y-152689557D01*
X144926492Y-152737872D01*
X144922322Y-152777400D01*
X144917531Y-152809473D01*
X144912069Y-152835424D01*
X144905882Y-152856589D01*
X144898920Y-152874299D01*
X144891131Y-152889889D01*
X144882463Y-152904693D01*
X144872865Y-152920044D01*
X144862285Y-152937276D01*
X144860116Y-152940946D01*
X144823732Y-153003031D01*
X145349569Y-152999434D01*
X145875406Y-152995838D01*
X145882271Y-152880331D01*
X145886008Y-152824899D01*
X145889903Y-152792851D01*
X145895189Y-152780135D01*
X145903097Y-152782696D01*
X145909730Y-152790024D01*
X145938626Y-152816714D01*
X145985721Y-152851021D01*
X146044380Y-152888846D01*
X146107969Y-152926090D01*
X146169851Y-152958653D01*
X146217366Y-152980077D01*
X146328684Y-153015283D01*
X146456404Y-153040222D01*
X146591099Y-153053941D01*
X146723337Y-153055486D01*
X146843692Y-153043906D01*
X146845674Y-153043574D01*
X147010359Y-153002250D01*
X147164521Y-152936412D01*
X147306672Y-152847474D01*
X147435325Y-152736852D01*
X147548993Y-152605961D01*
X147646190Y-152456216D01*
X147725428Y-152289033D01*
X147768570Y-152165190D01*
X147797021Y-152061581D01*
X147818120Y-151961252D01*
X147832512Y-151858109D01*
X147840842Y-151746057D01*
X147843755Y-151619001D01*
X147842465Y-151515252D01*
X146829350Y-151515252D01*
X146824556Y-151689222D01*
X146809432Y-151838895D01*
X146783515Y-151965597D01*
X146746337Y-152070658D01*
X146697435Y-152155406D01*
X146636342Y-152221169D01*
X146565823Y-152267659D01*
X146529129Y-152285014D01*
X146497304Y-152295419D01*
X146461823Y-152300179D01*
X146414159Y-152300601D01*
X146362811Y-152298748D01*
X146261831Y-152289841D01*
X146181965Y-152272398D01*
X146156865Y-152263661D01*
X146099552Y-152237857D01*
X146039103Y-152205453D01*
X146012703Y-152189233D01*
X145944054Y-152144205D01*
X145944054Y-150716982D01*
X146019568Y-150671718D01*
X146124879Y-150620572D01*
X146232475Y-150590324D01*
X146338419Y-150580795D01*
X146438776Y-150591807D01*
X146529613Y-150623181D01*
X146606993Y-150674740D01*
X146631961Y-150699488D01*
X146692144Y-150780577D01*
X146740855Y-150878734D01*
X146778501Y-150995643D01*
X146805488Y-151132985D01*
X146822225Y-151292444D01*
X146829117Y-151475700D01*
X146829350Y-151515252D01*
X147842465Y-151515252D01*
X147841927Y-151472067D01*
X147830353Y-151246053D01*
X147807080Y-151042192D01*
X147771496Y-150857513D01*
X147722987Y-150689048D01*
X147660940Y-150533826D01*
X147638799Y-150487808D01*
X147549615Y-150337739D01*
X147441841Y-150204377D01*
X147318010Y-150089877D01*
X147180658Y-149996389D01*
X147032317Y-149926068D01*
X146943396Y-149897060D01*
X146856067Y-149879840D01*
X146750989Y-149869594D01*
X146636971Y-149866318D01*
X146522823Y-149870009D01*
X146417352Y-149880660D01*
X146332666Y-149897370D01*
X146231872Y-149930140D01*
X146134178Y-149972279D01*
X146048704Y-150019519D01*
X146003211Y-150051581D01*
X145971831Y-150075422D01*
X145949858Y-150089939D01*
X145944859Y-150092000D01*
X145943310Y-150078718D01*
X145941865Y-150040663D01*
X145940557Y-149980519D01*
X145939417Y-149900973D01*
X145938479Y-149804711D01*
X145937774Y-149694419D01*
X145937333Y-149572781D01*
X145937189Y-149448885D01*
X145937270Y-149290196D01*
X145937665Y-149156408D01*
X145938605Y-149044960D01*
X145940320Y-148953295D01*
X145943043Y-148878853D01*
X145947003Y-148819075D01*
X145952431Y-148771402D01*
X145959559Y-148733274D01*
X145968616Y-148702134D01*
X145979833Y-148675421D01*
X145993442Y-148650577D01*
X146009672Y-148625043D01*
X146011760Y-148621881D01*
X146032694Y-148588810D01*
X146045333Y-148566069D01*
X146047027Y-148561272D01*
X146033784Y-148559759D01*
X145995998Y-148558528D01*
X145936584Y-148557599D01*
X145858458Y-148556992D01*
X145764535Y-148556727D01*
X145657730Y-148556825D01*
G36*
X155226079Y-147636490D02*
G01*
X155122973Y-147672238D01*
X155026978Y-147728507D01*
X154941247Y-147805288D01*
X154868930Y-147902573D01*
X154836445Y-147963892D01*
X154808332Y-148049660D01*
X154794705Y-148148677D01*
X154796214Y-148250471D01*
X154812969Y-148342714D01*
X154858763Y-148455432D01*
X154925168Y-148553207D01*
X155008809Y-148634115D01*
X155106312Y-148696232D01*
X155214300Y-148737634D01*
X155329399Y-148756397D01*
X155448234Y-148750598D01*
X155506811Y-148738206D01*
X155620972Y-148693797D01*
X155722365Y-148626033D01*
X155808545Y-148537001D01*
X155877066Y-148428791D01*
X155882864Y-148416973D01*
X155902904Y-148372628D01*
X155915487Y-148335280D01*
X155922319Y-148295880D01*
X155925105Y-148245381D01*
X155925568Y-148190433D01*
X155924803Y-148124415D01*
X155921352Y-148076689D01*
X155913477Y-148038103D01*
X155899443Y-147999506D01*
X155882120Y-147961426D01*
X155817505Y-147853328D01*
X155737934Y-147765803D01*
X155646560Y-147698841D01*
X155546536Y-147652436D01*
X155441012Y-147626581D01*
X155333142Y-147621268D01*
X155226079Y-147636490D01*
G37*
X155226079Y-147636490D02*
X155122973Y-147672238D01*
X155026978Y-147728507D01*
X154941247Y-147805288D01*
X154868930Y-147902573D01*
X154836445Y-147963892D01*
X154808332Y-148049660D01*
X154794705Y-148148677D01*
X154796214Y-148250471D01*
X154812969Y-148342714D01*
X154858763Y-148455432D01*
X154925168Y-148553207D01*
X155008809Y-148634115D01*
X155106312Y-148696232D01*
X155214300Y-148737634D01*
X155329399Y-148756397D01*
X155448234Y-148750598D01*
X155506811Y-148738206D01*
X155620972Y-148693797D01*
X155722365Y-148626033D01*
X155808545Y-148537001D01*
X155877066Y-148428791D01*
X155882864Y-148416973D01*
X155902904Y-148372628D01*
X155915487Y-148335280D01*
X155922319Y-148295880D01*
X155925105Y-148245381D01*
X155925568Y-148190433D01*
X155924803Y-148124415D01*
X155921352Y-148076689D01*
X155913477Y-148038103D01*
X155899443Y-147999506D01*
X155882120Y-147961426D01*
X155817505Y-147853328D01*
X155737934Y-147765803D01*
X155646560Y-147698841D01*
X155546536Y-147652436D01*
X155441012Y-147626581D01*
X155333142Y-147621268D01*
X155226079Y-147636490D01*
G36*
X146259469Y-154240725D02*
G01*
X146228090Y-154262968D01*
X146200381Y-154290677D01*
X146200381Y-154600112D01*
X146200454Y-154691991D01*
X146200797Y-154764032D01*
X146201600Y-154818972D01*
X146203051Y-154859552D01*
X146205340Y-154888509D01*
X146208656Y-154908583D01*
X146213187Y-154922513D01*
X146219123Y-154933037D01*
X146223778Y-154939292D01*
X146254509Y-154963865D01*
X146289796Y-154966533D01*
X146322047Y-154951463D01*
X146332704Y-154942566D01*
X146339828Y-154930749D01*
X146344125Y-154911718D01*
X146346301Y-154881184D01*
X146347064Y-154834854D01*
X146347137Y-154799063D01*
X146347137Y-154664237D01*
X146843848Y-154664237D01*
X146843848Y-154786892D01*
X146844361Y-154842979D01*
X146846416Y-154881525D01*
X146850784Y-154907553D01*
X146858236Y-154926089D01*
X146867245Y-154939292D01*
X146898148Y-154963796D01*
X146933096Y-154966698D01*
X146966554Y-154949281D01*
X146975688Y-154940151D01*
X146982140Y-154928047D01*
X146986395Y-154909193D01*
X146988940Y-154879812D01*
X146990263Y-154836129D01*
X146990849Y-154774367D01*
X146990917Y-154760192D01*
X146991401Y-154643823D01*
X146991651Y-154547919D01*
X146991569Y-154470369D01*
X146991061Y-154409061D01*
X146990030Y-154361882D01*
X146988379Y-154326722D01*
X146986013Y-154301468D01*
X146982835Y-154284009D01*
X146978748Y-154272233D01*
X146973658Y-154264027D01*
X146968026Y-154257837D01*
X146936164Y-154238036D01*
X146902935Y-154240725D01*
X146871557Y-154262968D01*
X146858859Y-154277318D01*
X146850766Y-154293170D01*
X146846250Y-154315746D01*
X146844286Y-154350270D01*
X146843848Y-154401968D01*
X146843848Y-154517481D01*
X146347137Y-154517481D01*
X146347137Y-154398948D01*
X146346630Y-154344340D01*
X146344594Y-154307467D01*
X146340257Y-154283499D01*
X146332845Y-154267607D01*
X146324559Y-154257837D01*
X146292698Y-154238036D01*
X146259469Y-154240725D01*
G37*
X146259469Y-154240725D02*
X146228090Y-154262968D01*
X146200381Y-154290677D01*
X146200381Y-154600112D01*
X146200454Y-154691991D01*
X146200797Y-154764032D01*
X146201600Y-154818972D01*
X146203051Y-154859552D01*
X146205340Y-154888509D01*
X146208656Y-154908583D01*
X146213187Y-154922513D01*
X146219123Y-154933037D01*
X146223778Y-154939292D01*
X146254509Y-154963865D01*
X146289796Y-154966533D01*
X146322047Y-154951463D01*
X146332704Y-154942566D01*
X146339828Y-154930749D01*
X146344125Y-154911718D01*
X146346301Y-154881184D01*
X146347064Y-154834854D01*
X146347137Y-154799063D01*
X146347137Y-154664237D01*
X146843848Y-154664237D01*
X146843848Y-154786892D01*
X146844361Y-154842979D01*
X146846416Y-154881525D01*
X146850784Y-154907553D01*
X146858236Y-154926089D01*
X146867245Y-154939292D01*
X146898148Y-154963796D01*
X146933096Y-154966698D01*
X146966554Y-154949281D01*
X146975688Y-154940151D01*
X146982140Y-154928047D01*
X146986395Y-154909193D01*
X146988940Y-154879812D01*
X146990263Y-154836129D01*
X146990849Y-154774367D01*
X146990917Y-154760192D01*
X146991401Y-154643823D01*
X146991651Y-154547919D01*
X146991569Y-154470369D01*
X146991061Y-154409061D01*
X146990030Y-154361882D01*
X146988379Y-154326722D01*
X146986013Y-154301468D01*
X146982835Y-154284009D01*
X146978748Y-154272233D01*
X146973658Y-154264027D01*
X146968026Y-154257837D01*
X146936164Y-154238036D01*
X146902935Y-154240725D01*
X146871557Y-154262968D01*
X146858859Y-154277318D01*
X146850766Y-154293170D01*
X146846250Y-154315746D01*
X146844286Y-154350270D01*
X146843848Y-154401968D01*
X146843848Y-154517481D01*
X146347137Y-154517481D01*
X146347137Y-154398948D01*
X146346630Y-154344340D01*
X146344594Y-154307467D01*
X146340257Y-154283499D01*
X146332845Y-154267607D01*
X146324559Y-154257837D01*
X146292698Y-154238036D01*
X146259469Y-154240725D01*
G36*
X147525227Y-154235355D02*
G01*
X147446520Y-154235734D01*
X147385429Y-154236525D01*
X147339475Y-154237862D01*
X147306178Y-154239875D01*
X147283056Y-154242698D01*
X147267630Y-154246461D01*
X147257421Y-154251297D01*
X147252479Y-154255014D01*
X147226835Y-154287550D01*
X147223733Y-154321330D01*
X147239581Y-154352018D01*
X147249944Y-154364281D01*
X147261096Y-154372642D01*
X147277257Y-154377849D01*
X147302650Y-154380649D01*
X147341494Y-154381788D01*
X147398012Y-154382013D01*
X147409112Y-154382014D01*
X147555048Y-154382014D01*
X147555048Y-154652948D01*
X147555144Y-154738346D01*
X147555581Y-154804056D01*
X147556580Y-154852966D01*
X147558364Y-154887965D01*
X147561155Y-154911941D01*
X147565175Y-154927785D01*
X147570647Y-154938383D01*
X147577626Y-154946459D01*
X147610558Y-154966304D01*
X147644938Y-154964740D01*
X147676116Y-154942098D01*
X147678406Y-154939292D01*
X147685863Y-154928684D01*
X147691545Y-154916273D01*
X147695691Y-154899042D01*
X147698542Y-154873976D01*
X147700338Y-154838059D01*
X147701320Y-154788275D01*
X147701728Y-154721609D01*
X147701803Y-154645781D01*
X147701803Y-154382014D01*
X147841165Y-154382014D01*
X147900970Y-154381610D01*
X147942374Y-154380032D01*
X147969544Y-154376739D01*
X147986646Y-154371184D01*
X147997849Y-154362823D01*
X147999209Y-154361370D01*
X148015567Y-154328131D01*
X148014120Y-154290554D01*
X147995314Y-154257837D01*
X147988042Y-154251490D01*
X147978665Y-154246458D01*
X147964683Y-154242588D01*
X147943596Y-154239729D01*
X147912903Y-154237727D01*
X147870103Y-154236431D01*
X147812697Y-154235690D01*
X147738182Y-154235350D01*
X147644059Y-154235260D01*
X147624032Y-154235259D01*
X147525227Y-154235355D01*
G37*
X147525227Y-154235355D02*
X147446520Y-154235734D01*
X147385429Y-154236525D01*
X147339475Y-154237862D01*
X147306178Y-154239875D01*
X147283056Y-154242698D01*
X147267630Y-154246461D01*
X147257421Y-154251297D01*
X147252479Y-154255014D01*
X147226835Y-154287550D01*
X147223733Y-154321330D01*
X147239581Y-154352018D01*
X147249944Y-154364281D01*
X147261096Y-154372642D01*
X147277257Y-154377849D01*
X147302650Y-154380649D01*
X147341494Y-154381788D01*
X147398012Y-154382013D01*
X147409112Y-154382014D01*
X147555048Y-154382014D01*
X147555048Y-154652948D01*
X147555144Y-154738346D01*
X147555581Y-154804056D01*
X147556580Y-154852966D01*
X147558364Y-154887965D01*
X147561155Y-154911941D01*
X147565175Y-154927785D01*
X147570647Y-154938383D01*
X147577626Y-154946459D01*
X147610558Y-154966304D01*
X147644938Y-154964740D01*
X147676116Y-154942098D01*
X147678406Y-154939292D01*
X147685863Y-154928684D01*
X147691545Y-154916273D01*
X147695691Y-154899042D01*
X147698542Y-154873976D01*
X147700338Y-154838059D01*
X147701320Y-154788275D01*
X147701728Y-154721609D01*
X147701803Y-154645781D01*
X147701803Y-154382014D01*
X147841165Y-154382014D01*
X147900970Y-154381610D01*
X147942374Y-154380032D01*
X147969544Y-154376739D01*
X147986646Y-154371184D01*
X147997849Y-154362823D01*
X147999209Y-154361370D01*
X148015567Y-154328131D01*
X148014120Y-154290554D01*
X147995314Y-154257837D01*
X147988042Y-154251490D01*
X147978665Y-154246458D01*
X147964683Y-154242588D01*
X147943596Y-154239729D01*
X147912903Y-154237727D01*
X147870103Y-154236431D01*
X147812697Y-154235690D01*
X147738182Y-154235350D01*
X147644059Y-154235260D01*
X147624032Y-154235259D01*
X147525227Y-154235355D01*
G36*
X148299678Y-154242069D02*
G01*
X148275965Y-154256839D01*
X148249314Y-154278419D01*
X148249314Y-154599965D01*
X148249399Y-154694022D01*
X148249763Y-154768124D01*
X148250568Y-154824896D01*
X148251979Y-154866960D01*
X148254159Y-154896940D01*
X148257271Y-154917459D01*
X148261478Y-154931141D01*
X148266944Y-154940608D01*
X148270820Y-154945274D01*
X148302258Y-154965767D01*
X148338059Y-154964931D01*
X148369419Y-154947456D01*
X148396070Y-154925876D01*
X148396070Y-154278419D01*
X148369419Y-154256839D01*
X148343698Y-154241141D01*
X148322692Y-154235259D01*
X148299678Y-154242069D01*
G37*
X148299678Y-154242069D02*
X148275965Y-154256839D01*
X148249314Y-154278419D01*
X148249314Y-154599965D01*
X148249399Y-154694022D01*
X148249763Y-154768124D01*
X148250568Y-154824896D01*
X148251979Y-154866960D01*
X148254159Y-154896940D01*
X148257271Y-154917459D01*
X148261478Y-154931141D01*
X148266944Y-154940608D01*
X148270820Y-154945274D01*
X148302258Y-154965767D01*
X148338059Y-154964931D01*
X148369419Y-154947456D01*
X148396070Y-154925876D01*
X148396070Y-154278419D01*
X148369419Y-154256839D01*
X148343698Y-154241141D01*
X148322692Y-154235259D01*
X148299678Y-154242069D01*
G36*
X148743627Y-154237226D02*
G01*
X148724037Y-154244227D01*
X148723282Y-154244569D01*
X148696679Y-154264870D01*
X148682022Y-154285753D01*
X148679154Y-154295544D01*
X148679296Y-154308553D01*
X148683331Y-154327087D01*
X148692146Y-154353449D01*
X148706623Y-154389944D01*
X148727647Y-154438879D01*
X148756104Y-154502557D01*
X148792877Y-154583285D01*
X148813117Y-154627408D01*
X148849667Y-154706177D01*
X148883977Y-154778615D01*
X148914740Y-154842072D01*
X148940644Y-154893900D01*
X148960382Y-154931451D01*
X148972642Y-154952076D01*
X148975068Y-154954925D01*
X149006109Y-154967494D01*
X149041171Y-154965811D01*
X149069292Y-154950524D01*
X149070438Y-154949281D01*
X149081624Y-154932346D01*
X149100388Y-154899362D01*
X149124417Y-154854572D01*
X149151395Y-154802224D01*
X149161091Y-154782934D01*
X149234278Y-154636342D01*
X149314052Y-154795585D01*
X149342525Y-154850607D01*
X149368942Y-154898324D01*
X149391144Y-154935085D01*
X149406973Y-154957236D01*
X149412338Y-154961933D01*
X149454035Y-154968294D01*
X149488443Y-154954925D01*
X149498564Y-154940638D01*
X149516078Y-154908884D01*
X149539557Y-154862789D01*
X149567572Y-154805477D01*
X149598693Y-154740072D01*
X149631493Y-154669699D01*
X149664542Y-154597483D01*
X149696411Y-154526547D01*
X149725673Y-154460017D01*
X149750897Y-154401018D01*
X149770656Y-154352673D01*
X149783520Y-154318107D01*
X149788061Y-154300445D01*
X149788015Y-154299805D01*
X149776966Y-154277580D01*
X149754882Y-154254945D01*
X149753582Y-154253960D01*
X149726439Y-154238617D01*
X149701334Y-154238766D01*
X149691924Y-154241658D01*
X149680458Y-154247910D01*
X149668282Y-154260206D01*
X149653935Y-154281100D01*
X149635956Y-154313141D01*
X149612885Y-154358880D01*
X149583262Y-154420869D01*
X149556547Y-154478090D01*
X149525812Y-154544418D01*
X149498271Y-154604066D01*
X149475354Y-154653917D01*
X149458494Y-154690856D01*
X149449119Y-154711765D01*
X149447752Y-154715037D01*
X149441603Y-154709689D01*
X149427470Y-154687301D01*
X149407235Y-154651138D01*
X149382777Y-154604469D01*
X149373044Y-154585214D01*
X149340075Y-154520196D01*
X149314649Y-154472846D01*
X149294680Y-154440411D01*
X149278082Y-154420138D01*
X149262768Y-154409274D01*
X149246652Y-154405067D01*
X149236149Y-154404592D01*
X149217622Y-154406234D01*
X149201388Y-154413023D01*
X149185257Y-154427758D01*
X149167041Y-154453236D01*
X149144553Y-154492253D01*
X149115603Y-154547606D01*
X149099630Y-154579095D01*
X149073722Y-154629279D01*
X149051125Y-154670896D01*
X149033834Y-154700434D01*
X149023842Y-154714381D01*
X149022483Y-154714962D01*
X149016031Y-154703985D01*
X149001584Y-154675482D01*
X148980589Y-154632436D01*
X148954495Y-154577830D01*
X148924746Y-154514646D01*
X148910112Y-154483263D01*
X148872042Y-154402270D01*
X148841387Y-154339948D01*
X148816555Y-154294263D01*
X148795955Y-154263181D01*
X148777994Y-154244670D01*
X148761082Y-154236696D01*
X148743627Y-154237226D01*
G37*
X148743627Y-154237226D02*
X148724037Y-154244227D01*
X148723282Y-154244569D01*
X148696679Y-154264870D01*
X148682022Y-154285753D01*
X148679154Y-154295544D01*
X148679296Y-154308553D01*
X148683331Y-154327087D01*
X148692146Y-154353449D01*
X148706623Y-154389944D01*
X148727647Y-154438879D01*
X148756104Y-154502557D01*
X148792877Y-154583285D01*
X148813117Y-154627408D01*
X148849667Y-154706177D01*
X148883977Y-154778615D01*
X148914740Y-154842072D01*
X148940644Y-154893900D01*
X148960382Y-154931451D01*
X148972642Y-154952076D01*
X148975068Y-154954925D01*
X149006109Y-154967494D01*
X149041171Y-154965811D01*
X149069292Y-154950524D01*
X149070438Y-154949281D01*
X149081624Y-154932346D01*
X149100388Y-154899362D01*
X149124417Y-154854572D01*
X149151395Y-154802224D01*
X149161091Y-154782934D01*
X149234278Y-154636342D01*
X149314052Y-154795585D01*
X149342525Y-154850607D01*
X149368942Y-154898324D01*
X149391144Y-154935085D01*
X149406973Y-154957236D01*
X149412338Y-154961933D01*
X149454035Y-154968294D01*
X149488443Y-154954925D01*
X149498564Y-154940638D01*
X149516078Y-154908884D01*
X149539557Y-154862789D01*
X149567572Y-154805477D01*
X149598693Y-154740072D01*
X149631493Y-154669699D01*
X149664542Y-154597483D01*
X149696411Y-154526547D01*
X149725673Y-154460017D01*
X149750897Y-154401018D01*
X149770656Y-154352673D01*
X149783520Y-154318107D01*
X149788061Y-154300445D01*
X149788015Y-154299805D01*
X149776966Y-154277580D01*
X149754882Y-154254945D01*
X149753582Y-154253960D01*
X149726439Y-154238617D01*
X149701334Y-154238766D01*
X149691924Y-154241658D01*
X149680458Y-154247910D01*
X149668282Y-154260206D01*
X149653935Y-154281100D01*
X149635956Y-154313141D01*
X149612885Y-154358880D01*
X149583262Y-154420869D01*
X149556547Y-154478090D01*
X149525812Y-154544418D01*
X149498271Y-154604066D01*
X149475354Y-154653917D01*
X149458494Y-154690856D01*
X149449119Y-154711765D01*
X149447752Y-154715037D01*
X149441603Y-154709689D01*
X149427470Y-154687301D01*
X149407235Y-154651138D01*
X149382777Y-154604469D01*
X149373044Y-154585214D01*
X149340075Y-154520196D01*
X149314649Y-154472846D01*
X149294680Y-154440411D01*
X149278082Y-154420138D01*
X149262768Y-154409274D01*
X149246652Y-154405067D01*
X149236149Y-154404592D01*
X149217622Y-154406234D01*
X149201388Y-154413023D01*
X149185257Y-154427758D01*
X149167041Y-154453236D01*
X149144553Y-154492253D01*
X149115603Y-154547606D01*
X149099630Y-154579095D01*
X149073722Y-154629279D01*
X149051125Y-154670896D01*
X149033834Y-154700434D01*
X149023842Y-154714381D01*
X149022483Y-154714962D01*
X149016031Y-154703985D01*
X149001584Y-154675482D01*
X148980589Y-154632436D01*
X148954495Y-154577830D01*
X148924746Y-154514646D01*
X148910112Y-154483263D01*
X148872042Y-154402270D01*
X148841387Y-154339948D01*
X148816555Y-154294263D01*
X148795955Y-154263181D01*
X148777994Y-154244670D01*
X148761082Y-154236696D01*
X148743627Y-154237226D01*
G36*
X151469983Y-154235467D02*
G01*
X151341004Y-154239828D01*
X151231301Y-154253053D01*
X151139066Y-154275933D01*
X151062490Y-154309262D01*
X150999765Y-154353830D01*
X150949080Y-154410428D01*
X150908629Y-154479850D01*
X150907833Y-154481543D01*
X150883691Y-154543675D01*
X150875089Y-154598701D01*
X150882061Y-154654079D01*
X150904638Y-154717265D01*
X150908920Y-154726881D01*
X150938120Y-154783158D01*
X150970936Y-154826643D01*
X151013290Y-154863609D01*
X151071102Y-154900327D01*
X151074461Y-154902244D01*
X151124788Y-154926419D01*
X151181671Y-154944474D01*
X151248765Y-154957031D01*
X151329727Y-154964714D01*
X151428210Y-154968145D01*
X151463006Y-154968443D01*
X151628698Y-154969037D01*
X151652095Y-154939292D01*
X151659035Y-154929511D01*
X151664450Y-154918089D01*
X151668527Y-154902287D01*
X151671455Y-154879367D01*
X151673425Y-154846588D01*
X151674067Y-154822281D01*
X151517448Y-154822281D01*
X151423566Y-154822281D01*
X151368628Y-154820675D01*
X151312232Y-154816447D01*
X151265947Y-154810484D01*
X151263153Y-154809982D01*
X151180944Y-154787928D01*
X151117178Y-154754792D01*
X151069840Y-154709039D01*
X151036910Y-154649131D01*
X151031184Y-154633253D01*
X151025571Y-154608525D01*
X151028001Y-154584094D01*
X151039825Y-154551592D01*
X151046952Y-154535626D01*
X151070292Y-154493198D01*
X151098412Y-154463432D01*
X151129352Y-154442703D01*
X151191326Y-154415729D01*
X151270641Y-154396190D01*
X151363039Y-154384938D01*
X151429959Y-154382462D01*
X151517448Y-154382014D01*
X151517448Y-154822281D01*
X151674067Y-154822281D01*
X151674624Y-154801213D01*
X151675242Y-154740503D01*
X151675467Y-154661718D01*
X151675492Y-154600112D01*
X151675492Y-154290677D01*
X151647783Y-154262968D01*
X151635486Y-154251736D01*
X151622189Y-154244045D01*
X151603620Y-154239232D01*
X151575506Y-154236638D01*
X151533575Y-154235602D01*
X151473555Y-154235462D01*
X151469983Y-154235467D01*
G37*
X151469983Y-154235467D02*
X151341004Y-154239828D01*
X151231301Y-154253053D01*
X151139066Y-154275933D01*
X151062490Y-154309262D01*
X150999765Y-154353830D01*
X150949080Y-154410428D01*
X150908629Y-154479850D01*
X150907833Y-154481543D01*
X150883691Y-154543675D01*
X150875089Y-154598701D01*
X150882061Y-154654079D01*
X150904638Y-154717265D01*
X150908920Y-154726881D01*
X150938120Y-154783158D01*
X150970936Y-154826643D01*
X151013290Y-154863609D01*
X151071102Y-154900327D01*
X151074461Y-154902244D01*
X151124788Y-154926419D01*
X151181671Y-154944474D01*
X151248765Y-154957031D01*
X151329727Y-154964714D01*
X151428210Y-154968145D01*
X151463006Y-154968443D01*
X151628698Y-154969037D01*
X151652095Y-154939292D01*
X151659035Y-154929511D01*
X151664450Y-154918089D01*
X151668527Y-154902287D01*
X151671455Y-154879367D01*
X151673425Y-154846588D01*
X151674067Y-154822281D01*
X151517448Y-154822281D01*
X151423566Y-154822281D01*
X151368628Y-154820675D01*
X151312232Y-154816447D01*
X151265947Y-154810484D01*
X151263153Y-154809982D01*
X151180944Y-154787928D01*
X151117178Y-154754792D01*
X151069840Y-154709039D01*
X151036910Y-154649131D01*
X151031184Y-154633253D01*
X151025571Y-154608525D01*
X151028001Y-154584094D01*
X151039825Y-154551592D01*
X151046952Y-154535626D01*
X151070292Y-154493198D01*
X151098412Y-154463432D01*
X151129352Y-154442703D01*
X151191326Y-154415729D01*
X151270641Y-154396190D01*
X151363039Y-154384938D01*
X151429959Y-154382462D01*
X151517448Y-154382014D01*
X151517448Y-154822281D01*
X151674067Y-154822281D01*
X151674624Y-154801213D01*
X151675242Y-154740503D01*
X151675467Y-154661718D01*
X151675492Y-154600112D01*
X151675492Y-154290677D01*
X151647783Y-154262968D01*
X151635486Y-154251736D01*
X151622189Y-154244045D01*
X151603620Y-154239232D01*
X151575506Y-154236638D01*
X151533575Y-154235602D01*
X151473555Y-154235462D01*
X151469983Y-154235467D01*
G36*
X152257949Y-154235452D02*
G01*
X152181591Y-154236366D01*
X152123075Y-154238503D01*
X152080037Y-154242367D01*
X152050109Y-154248459D01*
X152030924Y-154257282D01*
X152020116Y-154269338D01*
X152015319Y-154285131D01*
X152014165Y-154305162D01*
X152014159Y-154307527D01*
X152015161Y-154330184D01*
X152019896Y-154347695D01*
X152030959Y-154360766D01*
X152050944Y-154370105D01*
X152082446Y-154376419D01*
X152128060Y-154380414D01*
X152190379Y-154382798D01*
X152271999Y-154384278D01*
X152297015Y-154384606D01*
X152539092Y-154387659D01*
X152542478Y-154452570D01*
X152545863Y-154517481D01*
X152377716Y-154517481D01*
X152312026Y-154517723D01*
X152265120Y-154518748D01*
X152233209Y-154521003D01*
X152212501Y-154524934D01*
X152199208Y-154530990D01*
X152189537Y-154539616D01*
X152189475Y-154539685D01*
X152171936Y-154573304D01*
X152172570Y-154609640D01*
X152190978Y-154640615D01*
X152194621Y-154643799D01*
X152207551Y-154652004D01*
X152225268Y-154657713D01*
X152251722Y-154661354D01*
X152290860Y-154663359D01*
X152346630Y-154664156D01*
X152382298Y-154664237D01*
X152544737Y-154664237D01*
X152544737Y-154822281D01*
X152298131Y-154822281D01*
X152216712Y-154822423D01*
X152154882Y-154823006D01*
X152109655Y-154824260D01*
X152078044Y-154826419D01*
X152057061Y-154829715D01*
X152043719Y-154834381D01*
X152035031Y-154840649D01*
X152032842Y-154842925D01*
X152016678Y-154874472D01*
X152015495Y-154910360D01*
X152028756Y-154941477D01*
X152039249Y-154951463D01*
X152050163Y-154956961D01*
X152067075Y-154961214D01*
X152092659Y-154964372D01*
X152129591Y-154966584D01*
X152180546Y-154967998D01*
X152248198Y-154968764D01*
X152335223Y-154969030D01*
X152354898Y-154969037D01*
X152443381Y-154968979D01*
X152512065Y-154968659D01*
X152563728Y-154967859D01*
X152601147Y-154966359D01*
X152627102Y-154963941D01*
X152644370Y-154960386D01*
X152655730Y-154955474D01*
X152663960Y-154948987D01*
X152668475Y-154944330D01*
X152675271Y-154936081D01*
X152680580Y-154925861D01*
X152684586Y-154910992D01*
X152687471Y-154888794D01*
X152689418Y-154856585D01*
X152690611Y-154811688D01*
X152691231Y-154751420D01*
X152691463Y-154673103D01*
X152691492Y-154607186D01*
X152691421Y-154514820D01*
X152691084Y-154442309D01*
X152690294Y-154386929D01*
X152688866Y-154345957D01*
X152686613Y-154316670D01*
X152683349Y-154296345D01*
X152678888Y-154282258D01*
X152673044Y-154271687D01*
X152668095Y-154265003D01*
X152644698Y-154235259D01*
X152354518Y-154235259D01*
X152257949Y-154235452D01*
G37*
X152257949Y-154235452D02*
X152181591Y-154236366D01*
X152123075Y-154238503D01*
X152080037Y-154242367D01*
X152050109Y-154248459D01*
X152030924Y-154257282D01*
X152020116Y-154269338D01*
X152015319Y-154285131D01*
X152014165Y-154305162D01*
X152014159Y-154307527D01*
X152015161Y-154330184D01*
X152019896Y-154347695D01*
X152030959Y-154360766D01*
X152050944Y-154370105D01*
X152082446Y-154376419D01*
X152128060Y-154380414D01*
X152190379Y-154382798D01*
X152271999Y-154384278D01*
X152297015Y-154384606D01*
X152539092Y-154387659D01*
X152542478Y-154452570D01*
X152545863Y-154517481D01*
X152377716Y-154517481D01*
X152312026Y-154517723D01*
X152265120Y-154518748D01*
X152233209Y-154521003D01*
X152212501Y-154524934D01*
X152199208Y-154530990D01*
X152189537Y-154539616D01*
X152189475Y-154539685D01*
X152171936Y-154573304D01*
X152172570Y-154609640D01*
X152190978Y-154640615D01*
X152194621Y-154643799D01*
X152207551Y-154652004D01*
X152225268Y-154657713D01*
X152251722Y-154661354D01*
X152290860Y-154663359D01*
X152346630Y-154664156D01*
X152382298Y-154664237D01*
X152544737Y-154664237D01*
X152544737Y-154822281D01*
X152298131Y-154822281D01*
X152216712Y-154822423D01*
X152154882Y-154823006D01*
X152109655Y-154824260D01*
X152078044Y-154826419D01*
X152057061Y-154829715D01*
X152043719Y-154834381D01*
X152035031Y-154840649D01*
X152032842Y-154842925D01*
X152016678Y-154874472D01*
X152015495Y-154910360D01*
X152028756Y-154941477D01*
X152039249Y-154951463D01*
X152050163Y-154956961D01*
X152067075Y-154961214D01*
X152092659Y-154964372D01*
X152129591Y-154966584D01*
X152180546Y-154967998D01*
X152248198Y-154968764D01*
X152335223Y-154969030D01*
X152354898Y-154969037D01*
X152443381Y-154968979D01*
X152512065Y-154968659D01*
X152563728Y-154967859D01*
X152601147Y-154966359D01*
X152627102Y-154963941D01*
X152644370Y-154960386D01*
X152655730Y-154955474D01*
X152663960Y-154948987D01*
X152668475Y-154944330D01*
X152675271Y-154936081D01*
X152680580Y-154925861D01*
X152684586Y-154910992D01*
X152687471Y-154888794D01*
X152689418Y-154856585D01*
X152690611Y-154811688D01*
X152691231Y-154751420D01*
X152691463Y-154673103D01*
X152691492Y-154607186D01*
X152691421Y-154514820D01*
X152691084Y-154442309D01*
X152690294Y-154386929D01*
X152688866Y-154345957D01*
X152686613Y-154316670D01*
X152683349Y-154296345D01*
X152678888Y-154282258D01*
X152673044Y-154271687D01*
X152668095Y-154265003D01*
X152644698Y-154235259D01*
X152354518Y-154235259D01*
X152257949Y-154235452D01*
G36*
X153788406Y-154239640D02*
G01*
X153764840Y-154253465D01*
X153734027Y-154276073D01*
X153694370Y-154308530D01*
X153644272Y-154351900D01*
X153582135Y-154407250D01*
X153506364Y-154475643D01*
X153419626Y-154554276D01*
X153239003Y-154718070D01*
X153233359Y-154498221D01*
X153231321Y-154422543D01*
X153229355Y-154366186D01*
X153227026Y-154325898D01*
X153223898Y-154298427D01*
X153219537Y-154280521D01*
X153213508Y-154268929D01*
X153205376Y-154260400D01*
X153201064Y-154256815D01*
X153166533Y-154237862D01*
X153133675Y-154240633D01*
X153107610Y-154256825D01*
X153080959Y-154278391D01*
X153077644Y-154593343D01*
X153076727Y-154685971D01*
X153076260Y-154758736D01*
X153076405Y-154814353D01*
X153077324Y-154855534D01*
X153079179Y-154884995D01*
X153082131Y-154905447D01*
X153086342Y-154919605D01*
X153091974Y-154930183D01*
X153098219Y-154938666D01*
X153111731Y-154954399D01*
X153125175Y-154964828D01*
X153140416Y-154968831D01*
X153159318Y-154965286D01*
X153183747Y-154953071D01*
X153215565Y-154931063D01*
X153256640Y-154898141D01*
X153308834Y-154853183D01*
X153374014Y-154795067D01*
X153447848Y-154728291D01*
X153713137Y-154487650D01*
X153718781Y-154706781D01*
X153720823Y-154782320D01*
X153722794Y-154838546D01*
X153725131Y-154878716D01*
X153728273Y-154906088D01*
X153732656Y-154923920D01*
X153738716Y-154935471D01*
X153746892Y-154943999D01*
X153751076Y-154947474D01*
X153788057Y-154966564D01*
X153823000Y-154963685D01*
X153853428Y-154939292D01*
X153860389Y-154929478D01*
X153865815Y-154918018D01*
X153869895Y-154902160D01*
X153872821Y-154879155D01*
X153874784Y-154846254D01*
X153875975Y-154800708D01*
X153876584Y-154739765D01*
X153876803Y-154660678D01*
X153876826Y-154602148D01*
X153876752Y-154510599D01*
X153876405Y-154438879D01*
X153875593Y-154384237D01*
X153874125Y-154343924D01*
X153871811Y-154315190D01*
X153868459Y-154295285D01*
X153863880Y-154281460D01*
X153857881Y-154270964D01*
X153853428Y-154265003D01*
X153842142Y-154250883D01*
X153831593Y-154240221D01*
X153820185Y-154234084D01*
X153806322Y-154233535D01*
X153788406Y-154239640D01*
G37*
X153788406Y-154239640D02*
X153764840Y-154253465D01*
X153734027Y-154276073D01*
X153694370Y-154308530D01*
X153644272Y-154351900D01*
X153582135Y-154407250D01*
X153506364Y-154475643D01*
X153419626Y-154554276D01*
X153239003Y-154718070D01*
X153233359Y-154498221D01*
X153231321Y-154422543D01*
X153229355Y-154366186D01*
X153227026Y-154325898D01*
X153223898Y-154298427D01*
X153219537Y-154280521D01*
X153213508Y-154268929D01*
X153205376Y-154260400D01*
X153201064Y-154256815D01*
X153166533Y-154237862D01*
X153133675Y-154240633D01*
X153107610Y-154256825D01*
X153080959Y-154278391D01*
X153077644Y-154593343D01*
X153076727Y-154685971D01*
X153076260Y-154758736D01*
X153076405Y-154814353D01*
X153077324Y-154855534D01*
X153079179Y-154884995D01*
X153082131Y-154905447D01*
X153086342Y-154919605D01*
X153091974Y-154930183D01*
X153098219Y-154938666D01*
X153111731Y-154954399D01*
X153125175Y-154964828D01*
X153140416Y-154968831D01*
X153159318Y-154965286D01*
X153183747Y-154953071D01*
X153215565Y-154931063D01*
X153256640Y-154898141D01*
X153308834Y-154853183D01*
X153374014Y-154795067D01*
X153447848Y-154728291D01*
X153713137Y-154487650D01*
X153718781Y-154706781D01*
X153720823Y-154782320D01*
X153722794Y-154838546D01*
X153725131Y-154878716D01*
X153728273Y-154906088D01*
X153732656Y-154923920D01*
X153738716Y-154935471D01*
X153746892Y-154943999D01*
X153751076Y-154947474D01*
X153788057Y-154966564D01*
X153823000Y-154963685D01*
X153853428Y-154939292D01*
X153860389Y-154929478D01*
X153865815Y-154918018D01*
X153869895Y-154902160D01*
X153872821Y-154879155D01*
X153874784Y-154846254D01*
X153875975Y-154800708D01*
X153876584Y-154739765D01*
X153876803Y-154660678D01*
X153876826Y-154602148D01*
X153876752Y-154510599D01*
X153876405Y-154438879D01*
X153875593Y-154384237D01*
X153874125Y-154343924D01*
X153871811Y-154315190D01*
X153868459Y-154295285D01*
X153863880Y-154281460D01*
X153857881Y-154270964D01*
X153853428Y-154265003D01*
X153842142Y-154250883D01*
X153831593Y-154240221D01*
X153820185Y-154234084D01*
X153806322Y-154233535D01*
X153788406Y-154239640D01*
G36*
X154438373Y-154240791D02*
G01*
X154369857Y-154252287D01*
X154317235Y-154270159D01*
X154283000Y-154293691D01*
X154273671Y-154307116D01*
X154264185Y-154338340D01*
X154270569Y-154366587D01*
X154290722Y-154393374D01*
X154322037Y-154405905D01*
X154367475Y-154404888D01*
X154402618Y-154398098D01*
X154480711Y-154385163D01*
X154560518Y-154383934D01*
X154649847Y-154394433D01*
X154674521Y-154398882D01*
X154757583Y-154422300D01*
X154822565Y-154457137D01*
X154868753Y-154502796D01*
X154895437Y-154558686D01*
X154900955Y-154587580D01*
X154897343Y-154646204D01*
X154874021Y-154698071D01*
X154833116Y-154742170D01*
X154776751Y-154777491D01*
X154707052Y-154803021D01*
X154626144Y-154817751D01*
X154536152Y-154820670D01*
X154439202Y-154810767D01*
X154433728Y-154809833D01*
X154395167Y-154802651D01*
X154373786Y-154795713D01*
X154364519Y-154785419D01*
X154362298Y-154768168D01*
X154362248Y-154759033D01*
X154362248Y-154720681D01*
X154430723Y-154720681D01*
X154491192Y-154716539D01*
X154532457Y-154703339D01*
X154556467Y-154679922D01*
X154565169Y-154645128D01*
X154565275Y-154640586D01*
X154560184Y-154610846D01*
X154542725Y-154589611D01*
X154510231Y-154575558D01*
X154460035Y-154567365D01*
X154411415Y-154564353D01*
X154340748Y-154562625D01*
X154289490Y-154565262D01*
X154254531Y-154574992D01*
X154232762Y-154594545D01*
X154221072Y-154626648D01*
X154216352Y-154674030D01*
X154215492Y-154736263D01*
X154216901Y-154805727D01*
X154221140Y-154852978D01*
X154228228Y-154878204D01*
X154229603Y-154880180D01*
X154268520Y-154911700D01*
X154325578Y-154936662D01*
X154397161Y-154954532D01*
X154479650Y-154964778D01*
X154569431Y-154966865D01*
X154662884Y-154960260D01*
X154717848Y-154952148D01*
X154804058Y-154927746D01*
X154884184Y-154887854D01*
X154951269Y-154836079D01*
X154961465Y-154825731D01*
X154994594Y-154782227D01*
X155024486Y-154728310D01*
X155047649Y-154671784D01*
X155060590Y-154620451D01*
X155062150Y-154600736D01*
X155055510Y-154559611D01*
X155037860Y-154508444D01*
X155012589Y-154454586D01*
X154983081Y-154405387D01*
X154957011Y-154372526D01*
X154896057Y-154323644D01*
X154817261Y-154284737D01*
X154723449Y-154256686D01*
X154617442Y-154240371D01*
X154520292Y-154236384D01*
X154438373Y-154240791D01*
G37*
X154438373Y-154240791D02*
X154369857Y-154252287D01*
X154317235Y-154270159D01*
X154283000Y-154293691D01*
X154273671Y-154307116D01*
X154264185Y-154338340D01*
X154270569Y-154366587D01*
X154290722Y-154393374D01*
X154322037Y-154405905D01*
X154367475Y-154404888D01*
X154402618Y-154398098D01*
X154480711Y-154385163D01*
X154560518Y-154383934D01*
X154649847Y-154394433D01*
X154674521Y-154398882D01*
X154757583Y-154422300D01*
X154822565Y-154457137D01*
X154868753Y-154502796D01*
X154895437Y-154558686D01*
X154900955Y-154587580D01*
X154897343Y-154646204D01*
X154874021Y-154698071D01*
X154833116Y-154742170D01*
X154776751Y-154777491D01*
X154707052Y-154803021D01*
X154626144Y-154817751D01*
X154536152Y-154820670D01*
X154439202Y-154810767D01*
X154433728Y-154809833D01*
X154395167Y-154802651D01*
X154373786Y-154795713D01*
X154364519Y-154785419D01*
X154362298Y-154768168D01*
X154362248Y-154759033D01*
X154362248Y-154720681D01*
X154430723Y-154720681D01*
X154491192Y-154716539D01*
X154532457Y-154703339D01*
X154556467Y-154679922D01*
X154565169Y-154645128D01*
X154565275Y-154640586D01*
X154560184Y-154610846D01*
X154542725Y-154589611D01*
X154510231Y-154575558D01*
X154460035Y-154567365D01*
X154411415Y-154564353D01*
X154340748Y-154562625D01*
X154289490Y-154565262D01*
X154254531Y-154574992D01*
X154232762Y-154594545D01*
X154221072Y-154626648D01*
X154216352Y-154674030D01*
X154215492Y-154736263D01*
X154216901Y-154805727D01*
X154221140Y-154852978D01*
X154228228Y-154878204D01*
X154229603Y-154880180D01*
X154268520Y-154911700D01*
X154325578Y-154936662D01*
X154397161Y-154954532D01*
X154479650Y-154964778D01*
X154569431Y-154966865D01*
X154662884Y-154960260D01*
X154717848Y-154952148D01*
X154804058Y-154927746D01*
X154884184Y-154887854D01*
X154951269Y-154836079D01*
X154961465Y-154825731D01*
X154994594Y-154782227D01*
X155024486Y-154728310D01*
X155047649Y-154671784D01*
X155060590Y-154620451D01*
X155062150Y-154600736D01*
X155055510Y-154559611D01*
X155037860Y-154508444D01*
X155012589Y-154454586D01*
X154983081Y-154405387D01*
X154957011Y-154372526D01*
X154896057Y-154323644D01*
X154817261Y-154284737D01*
X154723449Y-154256686D01*
X154617442Y-154240371D01*
X154520292Y-154236384D01*
X154438373Y-154240791D01*
G36*
X155412114Y-154257837D02*
G01*
X155405534Y-154265410D01*
X155400371Y-154275179D01*
X155396456Y-154289763D01*
X155393616Y-154311777D01*
X155391679Y-154343840D01*
X155390475Y-154388567D01*
X155389831Y-154448577D01*
X155389576Y-154526486D01*
X155389537Y-154602148D01*
X155389606Y-154695994D01*
X155389930Y-154769881D01*
X155390678Y-154826424D01*
X155392024Y-154868241D01*
X155394138Y-154897949D01*
X155397192Y-154918165D01*
X155401358Y-154931506D01*
X155406808Y-154940590D01*
X155412114Y-154946459D01*
X155445118Y-154966139D01*
X155480283Y-154964373D01*
X155511747Y-154942909D01*
X155518976Y-154934529D01*
X155524626Y-154924806D01*
X155528891Y-154911053D01*
X155531965Y-154890581D01*
X155534044Y-154860704D01*
X155535322Y-154818733D01*
X155535993Y-154761981D01*
X155536251Y-154687759D01*
X155536292Y-154603729D01*
X155536292Y-154290677D01*
X155508583Y-154262968D01*
X155474429Y-154239655D01*
X155441298Y-154238815D01*
X155412114Y-154257837D01*
G37*
X155412114Y-154257837D02*
X155405534Y-154265410D01*
X155400371Y-154275179D01*
X155396456Y-154289763D01*
X155393616Y-154311777D01*
X155391679Y-154343840D01*
X155390475Y-154388567D01*
X155389831Y-154448577D01*
X155389576Y-154526486D01*
X155389537Y-154602148D01*
X155389606Y-154695994D01*
X155389930Y-154769881D01*
X155390678Y-154826424D01*
X155392024Y-154868241D01*
X155394138Y-154897949D01*
X155397192Y-154918165D01*
X155401358Y-154931506D01*
X155406808Y-154940590D01*
X155412114Y-154946459D01*
X155445118Y-154966139D01*
X155480283Y-154964373D01*
X155511747Y-154942909D01*
X155518976Y-154934529D01*
X155524626Y-154924806D01*
X155528891Y-154911053D01*
X155531965Y-154890581D01*
X155534044Y-154860704D01*
X155535322Y-154818733D01*
X155535993Y-154761981D01*
X155536251Y-154687759D01*
X155536292Y-154603729D01*
X155536292Y-154290677D01*
X155508583Y-154262968D01*
X155474429Y-154239655D01*
X155441298Y-154238815D01*
X155412114Y-154257837D01*
G36*
X156179995Y-154236543D02*
G01*
X156105180Y-154241773D01*
X156035598Y-154249942D01*
X155975294Y-154260742D01*
X155928312Y-154273865D01*
X155898698Y-154289005D01*
X155894152Y-154293461D01*
X155878346Y-154328042D01*
X155883139Y-154363543D01*
X155907656Y-154393917D01*
X155908826Y-154394788D01*
X155923246Y-154404146D01*
X155938300Y-154409068D01*
X155959297Y-154409665D01*
X155991549Y-154406053D01*
X156040365Y-154398346D01*
X156044292Y-154397697D01*
X156117031Y-154388761D01*
X156195509Y-154384353D01*
X156274219Y-154384311D01*
X156347653Y-154388471D01*
X156410303Y-154396671D01*
X156456662Y-154408749D01*
X156459708Y-154409963D01*
X156493340Y-154428807D01*
X156505156Y-154447877D01*
X156495906Y-154466631D01*
X156466339Y-154484529D01*
X156417203Y-154501029D01*
X156349249Y-154515588D01*
X156303937Y-154522598D01*
X156209748Y-154536081D01*
X156134836Y-154548406D01*
X156076009Y-154560641D01*
X156030077Y-154573853D01*
X155993847Y-154589109D01*
X155964130Y-154607477D01*
X155937734Y-154630023D01*
X155916522Y-154652163D01*
X155891357Y-154683011D01*
X155878973Y-154709537D01*
X155875100Y-154742218D01*
X155874959Y-154754187D01*
X155877868Y-154793904D01*
X155889494Y-154823451D01*
X155909615Y-154849678D01*
X155950508Y-154889768D01*
X155996109Y-154920341D01*
X156049805Y-154942395D01*
X156114984Y-154956927D01*
X156195036Y-154964933D01*
X156293349Y-154967410D01*
X156309581Y-154967369D01*
X156375141Y-154966010D01*
X156440158Y-154962922D01*
X156497544Y-154958548D01*
X156540214Y-154953332D01*
X156543664Y-154952733D01*
X156586088Y-154942683D01*
X156622072Y-154929988D01*
X156642442Y-154918382D01*
X156661399Y-154887764D01*
X156662719Y-154852110D01*
X156646377Y-154820336D01*
X156642721Y-154816743D01*
X156627607Y-154806068D01*
X156608707Y-154801468D01*
X156579454Y-154802251D01*
X156543943Y-154806319D01*
X156504262Y-154809954D01*
X156448637Y-154813020D01*
X156383698Y-154815245D01*
X156316077Y-154816356D01*
X156298292Y-154816429D01*
X156230420Y-154816156D01*
X156180746Y-154814838D01*
X156144902Y-154812019D01*
X156118516Y-154807242D01*
X156097218Y-154800049D01*
X156084418Y-154794059D01*
X156056292Y-154777425D01*
X156038360Y-154762360D01*
X156035739Y-154758089D01*
X156041268Y-154740455D01*
X156067552Y-154723384D01*
X156112770Y-154707650D01*
X156175100Y-154694030D01*
X156193463Y-154690996D01*
X156289382Y-154675930D01*
X156365933Y-154663338D01*
X156426072Y-154652303D01*
X156472752Y-154641912D01*
X156508929Y-154631248D01*
X156537557Y-154619397D01*
X156561590Y-154605443D01*
X156583984Y-154588473D01*
X156607694Y-154567570D01*
X156615672Y-154560241D01*
X156643645Y-154532891D01*
X156658452Y-154511221D01*
X156664244Y-154486424D01*
X156665181Y-154455175D01*
X156654867Y-154393897D01*
X156624044Y-154341832D01*
X156572887Y-154299150D01*
X156501575Y-154266017D01*
X156450692Y-154251156D01*
X156395392Y-154241558D01*
X156329145Y-154236128D01*
X156255998Y-154234559D01*
X156179995Y-154236543D01*
G37*
X156179995Y-154236543D02*
X156105180Y-154241773D01*
X156035598Y-154249942D01*
X155975294Y-154260742D01*
X155928312Y-154273865D01*
X155898698Y-154289005D01*
X155894152Y-154293461D01*
X155878346Y-154328042D01*
X155883139Y-154363543D01*
X155907656Y-154393917D01*
X155908826Y-154394788D01*
X155923246Y-154404146D01*
X155938300Y-154409068D01*
X155959297Y-154409665D01*
X155991549Y-154406053D01*
X156040365Y-154398346D01*
X156044292Y-154397697D01*
X156117031Y-154388761D01*
X156195509Y-154384353D01*
X156274219Y-154384311D01*
X156347653Y-154388471D01*
X156410303Y-154396671D01*
X156456662Y-154408749D01*
X156459708Y-154409963D01*
X156493340Y-154428807D01*
X156505156Y-154447877D01*
X156495906Y-154466631D01*
X156466339Y-154484529D01*
X156417203Y-154501029D01*
X156349249Y-154515588D01*
X156303937Y-154522598D01*
X156209748Y-154536081D01*
X156134836Y-154548406D01*
X156076009Y-154560641D01*
X156030077Y-154573853D01*
X155993847Y-154589109D01*
X155964130Y-154607477D01*
X155937734Y-154630023D01*
X155916522Y-154652163D01*
X155891357Y-154683011D01*
X155878973Y-154709537D01*
X155875100Y-154742218D01*
X155874959Y-154754187D01*
X155877868Y-154793904D01*
X155889494Y-154823451D01*
X155909615Y-154849678D01*
X155950508Y-154889768D01*
X155996109Y-154920341D01*
X156049805Y-154942395D01*
X156114984Y-154956927D01*
X156195036Y-154964933D01*
X156293349Y-154967410D01*
X156309581Y-154967369D01*
X156375141Y-154966010D01*
X156440158Y-154962922D01*
X156497544Y-154958548D01*
X156540214Y-154953332D01*
X156543664Y-154952733D01*
X156586088Y-154942683D01*
X156622072Y-154929988D01*
X156642442Y-154918382D01*
X156661399Y-154887764D01*
X156662719Y-154852110D01*
X156646377Y-154820336D01*
X156642721Y-154816743D01*
X156627607Y-154806068D01*
X156608707Y-154801468D01*
X156579454Y-154802251D01*
X156543943Y-154806319D01*
X156504262Y-154809954D01*
X156448637Y-154813020D01*
X156383698Y-154815245D01*
X156316077Y-154816356D01*
X156298292Y-154816429D01*
X156230420Y-154816156D01*
X156180746Y-154814838D01*
X156144902Y-154812019D01*
X156118516Y-154807242D01*
X156097218Y-154800049D01*
X156084418Y-154794059D01*
X156056292Y-154777425D01*
X156038360Y-154762360D01*
X156035739Y-154758089D01*
X156041268Y-154740455D01*
X156067552Y-154723384D01*
X156112770Y-154707650D01*
X156175100Y-154694030D01*
X156193463Y-154690996D01*
X156289382Y-154675930D01*
X156365933Y-154663338D01*
X156426072Y-154652303D01*
X156472752Y-154641912D01*
X156508929Y-154631248D01*
X156537557Y-154619397D01*
X156561590Y-154605443D01*
X156583984Y-154588473D01*
X156607694Y-154567570D01*
X156615672Y-154560241D01*
X156643645Y-154532891D01*
X156658452Y-154511221D01*
X156664244Y-154486424D01*
X156665181Y-154455175D01*
X156654867Y-154393897D01*
X156624044Y-154341832D01*
X156572887Y-154299150D01*
X156501575Y-154266017D01*
X156450692Y-154251156D01*
X156395392Y-154241558D01*
X156329145Y-154236128D01*
X156255998Y-154234559D01*
X156179995Y-154236543D01*
G36*
X157201086Y-154235338D02*
G01*
X157131678Y-154235710D01*
X157079289Y-154236577D01*
X157041139Y-154238138D01*
X157014451Y-154240595D01*
X156996445Y-154244149D01*
X156984341Y-154249002D01*
X156975361Y-154255353D01*
X156972110Y-154258276D01*
X156952335Y-154289334D01*
X156948774Y-154325020D01*
X156961783Y-154356702D01*
X156967798Y-154363105D01*
X156977527Y-154369313D01*
X156993193Y-154374102D01*
X157017700Y-154377706D01*
X157053953Y-154380356D01*
X157104857Y-154382287D01*
X157173318Y-154383731D01*
X157235909Y-154384610D01*
X157483626Y-154387659D01*
X157487011Y-154452570D01*
X157490397Y-154517481D01*
X157322250Y-154517481D01*
X157249251Y-154518111D01*
X157195809Y-154520745D01*
X157158920Y-154526501D01*
X157135580Y-154536496D01*
X157122786Y-154551848D01*
X157117534Y-154573674D01*
X157116737Y-154593930D01*
X157119215Y-154618784D01*
X157128569Y-154637098D01*
X157147675Y-154649829D01*
X157179410Y-154657933D01*
X157226651Y-154662368D01*
X157292275Y-154664091D01*
X157328093Y-154664237D01*
X157489270Y-154664237D01*
X157489270Y-154822281D01*
X157240914Y-154822281D01*
X157159505Y-154822394D01*
X157097634Y-154822904D01*
X157052260Y-154824062D01*
X157020346Y-154826122D01*
X156998851Y-154829338D01*
X156984735Y-154833964D01*
X156974960Y-154840251D01*
X156969981Y-154844859D01*
X156952902Y-154871752D01*
X156947403Y-154895659D01*
X156955255Y-154924859D01*
X156969981Y-154946459D01*
X156977838Y-154953258D01*
X156987980Y-154958538D01*
X157003136Y-154962490D01*
X157026033Y-154965305D01*
X157059401Y-154967174D01*
X157105967Y-154968290D01*
X157168459Y-154968843D01*
X157249606Y-154969025D01*
X157291714Y-154969037D01*
X157381890Y-154968957D01*
X157452216Y-154968590D01*
X157505421Y-154967744D01*
X157544232Y-154966228D01*
X157571379Y-154963851D01*
X157589590Y-154960421D01*
X157601592Y-154955746D01*
X157610114Y-154949636D01*
X157613448Y-154946459D01*
X157620047Y-154938862D01*
X157625219Y-154929062D01*
X157629138Y-154914431D01*
X157631976Y-154892344D01*
X157633907Y-154860174D01*
X157635104Y-154815295D01*
X157635740Y-154755081D01*
X157635989Y-154676905D01*
X157636026Y-154604115D01*
X157635992Y-154510899D01*
X157635757Y-154437623D01*
X157635122Y-154381650D01*
X157633886Y-154340343D01*
X157631848Y-154311064D01*
X157628809Y-154291176D01*
X157624569Y-154278042D01*
X157618927Y-154269024D01*
X157611683Y-154261485D01*
X157609898Y-154259804D01*
X157601237Y-154252364D01*
X157591174Y-154246601D01*
X157576917Y-154242304D01*
X157555675Y-154239256D01*
X157524656Y-154237243D01*
X157481069Y-154236052D01*
X157422123Y-154235467D01*
X157345026Y-154235275D01*
X157290293Y-154235259D01*
X157201086Y-154235338D01*
G37*
X157201086Y-154235338D02*
X157131678Y-154235710D01*
X157079289Y-154236577D01*
X157041139Y-154238138D01*
X157014451Y-154240595D01*
X156996445Y-154244149D01*
X156984341Y-154249002D01*
X156975361Y-154255353D01*
X156972110Y-154258276D01*
X156952335Y-154289334D01*
X156948774Y-154325020D01*
X156961783Y-154356702D01*
X156967798Y-154363105D01*
X156977527Y-154369313D01*
X156993193Y-154374102D01*
X157017700Y-154377706D01*
X157053953Y-154380356D01*
X157104857Y-154382287D01*
X157173318Y-154383731D01*
X157235909Y-154384610D01*
X157483626Y-154387659D01*
X157487011Y-154452570D01*
X157490397Y-154517481D01*
X157322250Y-154517481D01*
X157249251Y-154518111D01*
X157195809Y-154520745D01*
X157158920Y-154526501D01*
X157135580Y-154536496D01*
X157122786Y-154551848D01*
X157117534Y-154573674D01*
X157116737Y-154593930D01*
X157119215Y-154618784D01*
X157128569Y-154637098D01*
X157147675Y-154649829D01*
X157179410Y-154657933D01*
X157226651Y-154662368D01*
X157292275Y-154664091D01*
X157328093Y-154664237D01*
X157489270Y-154664237D01*
X157489270Y-154822281D01*
X157240914Y-154822281D01*
X157159505Y-154822394D01*
X157097634Y-154822904D01*
X157052260Y-154824062D01*
X157020346Y-154826122D01*
X156998851Y-154829338D01*
X156984735Y-154833964D01*
X156974960Y-154840251D01*
X156969981Y-154844859D01*
X156952902Y-154871752D01*
X156947403Y-154895659D01*
X156955255Y-154924859D01*
X156969981Y-154946459D01*
X156977838Y-154953258D01*
X156987980Y-154958538D01*
X157003136Y-154962490D01*
X157026033Y-154965305D01*
X157059401Y-154967174D01*
X157105967Y-154968290D01*
X157168459Y-154968843D01*
X157249606Y-154969025D01*
X157291714Y-154969037D01*
X157381890Y-154968957D01*
X157452216Y-154968590D01*
X157505421Y-154967744D01*
X157544232Y-154966228D01*
X157571379Y-154963851D01*
X157589590Y-154960421D01*
X157601592Y-154955746D01*
X157610114Y-154949636D01*
X157613448Y-154946459D01*
X157620047Y-154938862D01*
X157625219Y-154929062D01*
X157629138Y-154914431D01*
X157631976Y-154892344D01*
X157633907Y-154860174D01*
X157635104Y-154815295D01*
X157635740Y-154755081D01*
X157635989Y-154676905D01*
X157636026Y-154604115D01*
X157635992Y-154510899D01*
X157635757Y-154437623D01*
X157635122Y-154381650D01*
X157633886Y-154340343D01*
X157631848Y-154311064D01*
X157628809Y-154291176D01*
X157624569Y-154278042D01*
X157618927Y-154269024D01*
X157611683Y-154261485D01*
X157609898Y-154259804D01*
X157601237Y-154252364D01*
X157591174Y-154246601D01*
X157576917Y-154242304D01*
X157555675Y-154239256D01*
X157524656Y-154237243D01*
X157481069Y-154236052D01*
X157422123Y-154235467D01*
X157345026Y-154235275D01*
X157290293Y-154235259D01*
X157201086Y-154235338D01*
G36*
X158609663Y-154235258D02*
G01*
X158570181Y-154235659D01*
X158454492Y-154238451D01*
X158357603Y-154246742D01*
X158276211Y-154261424D01*
X158207015Y-154283385D01*
X158146712Y-154313514D01*
X158092000Y-154352702D01*
X158072459Y-154369724D01*
X158040042Y-154409555D01*
X158010812Y-154463605D01*
X157988283Y-154523515D01*
X157975971Y-154580931D01*
X157974692Y-154602148D01*
X157982709Y-154660961D01*
X158004191Y-154725205D01*
X158035291Y-154786013D01*
X158072158Y-154834522D01*
X158078146Y-154840374D01*
X158128871Y-154881513D01*
X158184417Y-154913627D01*
X158247988Y-154937557D01*
X158322786Y-154954145D01*
X158412014Y-154964233D01*
X158518874Y-154968661D01*
X158567820Y-154969037D01*
X158630054Y-154968737D01*
X158673820Y-154967484D01*
X158703223Y-154964746D01*
X158722371Y-154959993D01*
X158735369Y-154952693D01*
X158742337Y-154946459D01*
X158748918Y-154938886D01*
X158754080Y-154929116D01*
X158757995Y-154914532D01*
X158760835Y-154892518D01*
X158762772Y-154860456D01*
X158763976Y-154815728D01*
X158764620Y-154755718D01*
X158764875Y-154677809D01*
X158764914Y-154602148D01*
X158765162Y-154501233D01*
X158765109Y-154420619D01*
X158764149Y-154382014D01*
X158618159Y-154382014D01*
X158618159Y-154822281D01*
X158525026Y-154822196D01*
X158468985Y-154820588D01*
X158410291Y-154816448D01*
X158361320Y-154810656D01*
X158359830Y-154810418D01*
X158280684Y-154791282D01*
X158219294Y-154761479D01*
X158172597Y-154719070D01*
X158142927Y-154673153D01*
X158124645Y-154622218D01*
X158126063Y-154574392D01*
X158147280Y-154523125D01*
X158188781Y-154470091D01*
X158246290Y-154430792D01*
X158321042Y-154404523D01*
X158371000Y-154395227D01*
X158427708Y-154388699D01*
X158487811Y-154383974D01*
X158538931Y-154382009D01*
X158541959Y-154382000D01*
X158618159Y-154382014D01*
X158764149Y-154382014D01*
X158763552Y-154358043D01*
X158759290Y-154311247D01*
X158751122Y-154277970D01*
X158737848Y-154255951D01*
X158718266Y-154242931D01*
X158691175Y-154236649D01*
X158655374Y-154234845D01*
X158609663Y-154235258D01*
G37*
X158609663Y-154235258D02*
X158570181Y-154235659D01*
X158454492Y-154238451D01*
X158357603Y-154246742D01*
X158276211Y-154261424D01*
X158207015Y-154283385D01*
X158146712Y-154313514D01*
X158092000Y-154352702D01*
X158072459Y-154369724D01*
X158040042Y-154409555D01*
X158010812Y-154463605D01*
X157988283Y-154523515D01*
X157975971Y-154580931D01*
X157974692Y-154602148D01*
X157982709Y-154660961D01*
X158004191Y-154725205D01*
X158035291Y-154786013D01*
X158072158Y-154834522D01*
X158078146Y-154840374D01*
X158128871Y-154881513D01*
X158184417Y-154913627D01*
X158247988Y-154937557D01*
X158322786Y-154954145D01*
X158412014Y-154964233D01*
X158518874Y-154968661D01*
X158567820Y-154969037D01*
X158630054Y-154968737D01*
X158673820Y-154967484D01*
X158703223Y-154964746D01*
X158722371Y-154959993D01*
X158735369Y-154952693D01*
X158742337Y-154946459D01*
X158748918Y-154938886D01*
X158754080Y-154929116D01*
X158757995Y-154914532D01*
X158760835Y-154892518D01*
X158762772Y-154860456D01*
X158763976Y-154815728D01*
X158764620Y-154755718D01*
X158764875Y-154677809D01*
X158764914Y-154602148D01*
X158765162Y-154501233D01*
X158765109Y-154420619D01*
X158764149Y-154382014D01*
X158618159Y-154382014D01*
X158618159Y-154822281D01*
X158525026Y-154822196D01*
X158468985Y-154820588D01*
X158410291Y-154816448D01*
X158361320Y-154810656D01*
X158359830Y-154810418D01*
X158280684Y-154791282D01*
X158219294Y-154761479D01*
X158172597Y-154719070D01*
X158142927Y-154673153D01*
X158124645Y-154622218D01*
X158126063Y-154574392D01*
X158147280Y-154523125D01*
X158188781Y-154470091D01*
X158246290Y-154430792D01*
X158321042Y-154404523D01*
X158371000Y-154395227D01*
X158427708Y-154388699D01*
X158487811Y-154383974D01*
X158538931Y-154382009D01*
X158541959Y-154382000D01*
X158618159Y-154382014D01*
X158764149Y-154382014D01*
X158763552Y-154358043D01*
X158759290Y-154311247D01*
X158751122Y-154277970D01*
X158737848Y-154255951D01*
X158718266Y-154242931D01*
X158691175Y-154236649D01*
X158655374Y-154234845D01*
X158609663Y-154235258D01*
%TD*%
M02*
