M48
; DRILL file {KiCad 5.1.6-1.fc32} date Sat Nov 21 02:43:06 2020
; FORMAT={-:-/ absolute / metric / decimal}
; #@! TF.CreationDate,2020-11-21T02:43:06+01:00
; #@! TF.GenerationSoftware,Kicad,Pcbnew,5.1.6-1.fc32
FMAT,2
METRIC
T1C0.400
T2C0.900
T3C0.950
T4C1.000
T5C2.300
%
G90
G05
T1
X102.8Y-147.9
X105.2Y-90.4
X105.2Y-98.3
X105.3Y-114.4
X105.3Y-122.3
X105.4Y-130.6
X105.4Y-146.4
X105.6Y-106.4
X105.7Y-144.4
X105.8Y-148.6
X106.9Y-160.6
X106.9Y-162.6
X108.3Y-136.4
X108.3Y-138.025
X108.4Y-139.3
X109.3Y-160.5
X109.3Y-162.4
X116.2Y-136.6
X117.5Y-132.5
X119.4Y-153.3
X120.0Y-125.6
X122.0Y-156.0
X122.1Y-153.5
X123.2Y-136.6
X123.5Y-147.975
X125.3Y-141.6
X125.3Y-148.1
X125.5Y-100.3
X125.5Y-116.3
X125.5Y-132.4
X127.3Y-143.4
X127.599Y-139.099
X128.0Y-93.6
X128.0Y-125.6
X128.6Y-74.175
X129.4Y-139.1
X129.45Y-108.45
X131.0Y-147.9
X131.66Y-140.04
X131.8Y-101.6
X133.4Y-148.0
X133.5Y-84.4
X133.5Y-116.525
X133.5Y-132.4
X135.2Y-152.3
X135.738Y-73.713
X135.9Y-109.6
X136.0Y-125.7
X136.1Y-93.6
X136.3Y-152.3
X137.0Y-143.0
X137.0Y-144.0
X137.0Y-145.0
X137.4Y-152.3
X137.5Y-153.5
X137.5Y-154.9
X138.0Y-165.2
X138.3Y-163.5
X139.0Y-77.6
X140.0Y-101.6
X140.0Y-143.0
X140.0Y-144.0
X140.0Y-145.0
X140.1Y-117.6
X141.45Y-132.45
X141.5Y-84.4
X142.6Y-162.7
X142.8Y-164.5
X144.0Y-109.6
X144.0Y-125.7
X144.1Y-93.6
X148.0Y-117.6
X148.1Y-101.6
X149.5Y-132.4
X153.5Y-124.2
X157.5Y-132.4
X157.8Y-165.1
X158.1Y-160.7
X160.4Y-168.5
X164.0Y-143.0
X164.0Y-144.0
X164.0Y-145.0
X165.0Y-96.4
X165.0Y-128.0
X165.1Y-104.2
X165.1Y-120.0
X165.2Y-112.5
X165.3Y-88.6
X166.0Y-143.0
X166.0Y-144.0
X166.0Y-145.0
X166.4Y-104.2
X166.6Y-96.4
X166.9Y-112.5
X166.9Y-128.0
X167.0Y-120.0
T2
X117.45Y-154.7
X117.45Y-156.7
X119.95Y-154.7
X119.95Y-156.7
T3
X129.12Y-141.284
X129.12Y-143.316
X134.2Y-142.3
T4
X138.4Y-167.6
X140.94Y-167.6
X143.48Y-167.6
X146.02Y-167.6
X148.56Y-167.6
X152.3Y-137.1
X141.4Y-73.9
T5
X112.68Y-159.4
X124.72Y-159.4
T0
M30
