%TF.GenerationSoftware,KiCad,Pcbnew,5.1.6-1.fc32*%
%TF.CreationDate,2020-11-21T02:42:39+01:00*%
%TF.ProjectId,christmas-card,63687269-7374-46d6-9173-2d636172642e,rev?*%
%TF.SameCoordinates,Original*%
%TF.FileFunction,Copper,L1,Top*%
%TF.FilePolarity,Positive*%
%FSLAX46Y46*%
G04 Gerber Fmt 4.6, Leading zero omitted, Abs format (unit mm)*
G04 Created by KiCad (PCBNEW 5.1.6-1.fc32) date 2020-11-21 02:42:39*
%MOMM*%
%LPD*%
G01*
G04 APERTURE LIST*
%TA.AperFunction,SMDPad,CuDef*%
%ADD10C,1.000000*%
%TD*%
%TA.AperFunction,ComponentPad*%
%ADD11C,2.000000*%
%TD*%
%TA.AperFunction,SMDPad,CuDef*%
%ADD12R,1.500000X2.000000*%
%TD*%
%TA.AperFunction,SMDPad,CuDef*%
%ADD13R,3.800000X2.000000*%
%TD*%
%TA.AperFunction,ComponentPad*%
%ADD14C,3.316000*%
%TD*%
%TA.AperFunction,ComponentPad*%
%ADD15C,1.408000*%
%TD*%
%TA.AperFunction,ComponentPad*%
%ADD16R,1.408000X1.408000*%
%TD*%
%TA.AperFunction,ComponentPad*%
%ADD17O,1.700000X1.700000*%
%TD*%
%TA.AperFunction,ComponentPad*%
%ADD18R,1.700000X1.700000*%
%TD*%
%TA.AperFunction,ConnectorPad*%
%ADD19C,0.889000*%
%TD*%
%TA.AperFunction,ComponentPad*%
%ADD20C,0.949960*%
%TD*%
%TA.AperFunction,SMDPad,CuDef*%
%ADD21R,1.500000X1.000000*%
%TD*%
%TA.AperFunction,ViaPad*%
%ADD22C,0.800000*%
%TD*%
%TA.AperFunction,Conductor*%
%ADD23C,0.250000*%
%TD*%
%TA.AperFunction,Conductor*%
%ADD24C,0.500000*%
%TD*%
%TA.AperFunction,Conductor*%
%ADD25C,1.000000*%
%TD*%
%TA.AperFunction,Conductor*%
%ADD26C,0.200000*%
%TD*%
%TA.AperFunction,Conductor*%
%ADD27C,0.254000*%
%TD*%
G04 APERTURE END LIST*
%TO.P,C9,2*%
%TO.N,GND*%
%TA.AperFunction,SMDPad,CuDef*%
G36*
G01*
X156450000Y-161056250D02*
X156450000Y-160543750D01*
G75*
G02*
X156668750Y-160325000I218750J0D01*
G01*
X157106250Y-160325000D01*
G75*
G02*
X157325000Y-160543750I0J-218750D01*
G01*
X157325000Y-161056250D01*
G75*
G02*
X157106250Y-161275000I-218750J0D01*
G01*
X156668750Y-161275000D01*
G75*
G02*
X156450000Y-161056250I0J218750D01*
G01*
G37*
%TD.AperFunction*%
%TO.P,C9,1*%
%TO.N,+3V3*%
%TA.AperFunction,SMDPad,CuDef*%
G36*
G01*
X154875000Y-161056250D02*
X154875000Y-160543750D01*
G75*
G02*
X155093750Y-160325000I218750J0D01*
G01*
X155531250Y-160325000D01*
G75*
G02*
X155750000Y-160543750I0J-218750D01*
G01*
X155750000Y-161056250D01*
G75*
G02*
X155531250Y-161275000I-218750J0D01*
G01*
X155093750Y-161275000D01*
G75*
G02*
X154875000Y-161056250I0J218750D01*
G01*
G37*
%TD.AperFunction*%
%TD*%
%TO.P,U3,8*%
%TO.N,+3V3*%
%TA.AperFunction,SMDPad,CuDef*%
G36*
G01*
X155445000Y-164000000D02*
X155145000Y-164000000D01*
G75*
G02*
X154995000Y-163850000I0J150000D01*
G01*
X154995000Y-162200000D01*
G75*
G02*
X155145000Y-162050000I150000J0D01*
G01*
X155445000Y-162050000D01*
G75*
G02*
X155595000Y-162200000I0J-150000D01*
G01*
X155595000Y-163850000D01*
G75*
G02*
X155445000Y-164000000I-150000J0D01*
G01*
G37*
%TD.AperFunction*%
%TO.P,U3,7*%
%TO.N,GND*%
%TA.AperFunction,SMDPad,CuDef*%
G36*
G01*
X156715000Y-164000000D02*
X156415000Y-164000000D01*
G75*
G02*
X156265000Y-163850000I0J150000D01*
G01*
X156265000Y-162200000D01*
G75*
G02*
X156415000Y-162050000I150000J0D01*
G01*
X156715000Y-162050000D01*
G75*
G02*
X156865000Y-162200000I0J-150000D01*
G01*
X156865000Y-163850000D01*
G75*
G02*
X156715000Y-164000000I-150000J0D01*
G01*
G37*
%TD.AperFunction*%
%TO.P,U3,6*%
%TA.AperFunction,SMDPad,CuDef*%
G36*
G01*
X157985000Y-164000000D02*
X157685000Y-164000000D01*
G75*
G02*
X157535000Y-163850000I0J150000D01*
G01*
X157535000Y-162200000D01*
G75*
G02*
X157685000Y-162050000I150000J0D01*
G01*
X157985000Y-162050000D01*
G75*
G02*
X158135000Y-162200000I0J-150000D01*
G01*
X158135000Y-163850000D01*
G75*
G02*
X157985000Y-164000000I-150000J0D01*
G01*
G37*
%TD.AperFunction*%
%TO.P,U3,5*%
%TA.AperFunction,SMDPad,CuDef*%
G36*
G01*
X159255000Y-164000000D02*
X158955000Y-164000000D01*
G75*
G02*
X158805000Y-163850000I0J150000D01*
G01*
X158805000Y-162200000D01*
G75*
G02*
X158955000Y-162050000I150000J0D01*
G01*
X159255000Y-162050000D01*
G75*
G02*
X159405000Y-162200000I0J-150000D01*
G01*
X159405000Y-163850000D01*
G75*
G02*
X159255000Y-164000000I-150000J0D01*
G01*
G37*
%TD.AperFunction*%
%TO.P,U3,4*%
%TA.AperFunction,SMDPad,CuDef*%
G36*
G01*
X159255000Y-168950000D02*
X158955000Y-168950000D01*
G75*
G02*
X158805000Y-168800000I0J150000D01*
G01*
X158805000Y-167150000D01*
G75*
G02*
X158955000Y-167000000I150000J0D01*
G01*
X159255000Y-167000000D01*
G75*
G02*
X159405000Y-167150000I0J-150000D01*
G01*
X159405000Y-168800000D01*
G75*
G02*
X159255000Y-168950000I-150000J0D01*
G01*
G37*
%TD.AperFunction*%
%TO.P,U3,3*%
%TO.N,N/C*%
%TA.AperFunction,SMDPad,CuDef*%
G36*
G01*
X157985000Y-168950000D02*
X157685000Y-168950000D01*
G75*
G02*
X157535000Y-168800000I0J150000D01*
G01*
X157535000Y-167150000D01*
G75*
G02*
X157685000Y-167000000I150000J0D01*
G01*
X157985000Y-167000000D01*
G75*
G02*
X158135000Y-167150000I0J-150000D01*
G01*
X158135000Y-168800000D01*
G75*
G02*
X157985000Y-168950000I-150000J0D01*
G01*
G37*
%TD.AperFunction*%
%TO.P,U3,2*%
%TO.N,/i2c_SCL*%
%TA.AperFunction,SMDPad,CuDef*%
G36*
G01*
X156715000Y-168950000D02*
X156415000Y-168950000D01*
G75*
G02*
X156265000Y-168800000I0J150000D01*
G01*
X156265000Y-167150000D01*
G75*
G02*
X156415000Y-167000000I150000J0D01*
G01*
X156715000Y-167000000D01*
G75*
G02*
X156865000Y-167150000I0J-150000D01*
G01*
X156865000Y-168800000D01*
G75*
G02*
X156715000Y-168950000I-150000J0D01*
G01*
G37*
%TD.AperFunction*%
%TO.P,U3,1*%
%TO.N,/i2c_SDA*%
%TA.AperFunction,SMDPad,CuDef*%
G36*
G01*
X155445000Y-168950000D02*
X155145000Y-168950000D01*
G75*
G02*
X154995000Y-168800000I0J150000D01*
G01*
X154995000Y-167150000D01*
G75*
G02*
X155145000Y-167000000I150000J0D01*
G01*
X155445000Y-167000000D01*
G75*
G02*
X155595000Y-167150000I0J-150000D01*
G01*
X155595000Y-168800000D01*
G75*
G02*
X155445000Y-168950000I-150000J0D01*
G01*
G37*
%TD.AperFunction*%
%TD*%
D10*
%TO.P,TP3,1*%
%TO.N,/BOOT1*%
X110800000Y-136900000D03*
%TD*%
%TO.P,TP2,1*%
%TO.N,/BOOT0*%
X126900000Y-141400000D03*
%TD*%
D11*
%TO.P,TP4,1*%
%TO.N,Net-(D29-Pad2)*%
X152300000Y-137100000D03*
%TD*%
%TO.P,TP1,1*%
%TO.N,/LED_CHAIN*%
X141400000Y-73900000D03*
%TD*%
%TO.P,R6,2*%
%TO.N,GND*%
%TA.AperFunction,SMDPad,CuDef*%
G36*
G01*
X107350000Y-144343750D02*
X107350000Y-144856250D01*
G75*
G02*
X107131250Y-145075000I-218750J0D01*
G01*
X106693750Y-145075000D01*
G75*
G02*
X106475000Y-144856250I0J218750D01*
G01*
X106475000Y-144343750D01*
G75*
G02*
X106693750Y-144125000I218750J0D01*
G01*
X107131250Y-144125000D01*
G75*
G02*
X107350000Y-144343750I0J-218750D01*
G01*
G37*
%TD.AperFunction*%
%TO.P,R6,1*%
%TO.N,/BOOT1*%
%TA.AperFunction,SMDPad,CuDef*%
G36*
G01*
X108925000Y-144343750D02*
X108925000Y-144856250D01*
G75*
G02*
X108706250Y-145075000I-218750J0D01*
G01*
X108268750Y-145075000D01*
G75*
G02*
X108050000Y-144856250I0J218750D01*
G01*
X108050000Y-144343750D01*
G75*
G02*
X108268750Y-144125000I218750J0D01*
G01*
X108706250Y-144125000D01*
G75*
G02*
X108925000Y-144343750I0J-218750D01*
G01*
G37*
%TD.AperFunction*%
%TD*%
%TO.P,R5,2*%
%TO.N,GND*%
%TA.AperFunction,SMDPad,CuDef*%
G36*
G01*
X125550000Y-143656250D02*
X125550000Y-143143750D01*
G75*
G02*
X125768750Y-142925000I218750J0D01*
G01*
X126206250Y-142925000D01*
G75*
G02*
X126425000Y-143143750I0J-218750D01*
G01*
X126425000Y-143656250D01*
G75*
G02*
X126206250Y-143875000I-218750J0D01*
G01*
X125768750Y-143875000D01*
G75*
G02*
X125550000Y-143656250I0J218750D01*
G01*
G37*
%TD.AperFunction*%
%TO.P,R5,1*%
%TO.N,/BOOT0*%
%TA.AperFunction,SMDPad,CuDef*%
G36*
G01*
X123975000Y-143656250D02*
X123975000Y-143143750D01*
G75*
G02*
X124193750Y-142925000I218750J0D01*
G01*
X124631250Y-142925000D01*
G75*
G02*
X124850000Y-143143750I0J-218750D01*
G01*
X124850000Y-143656250D01*
G75*
G02*
X124631250Y-143875000I-218750J0D01*
G01*
X124193750Y-143875000D01*
G75*
G02*
X123975000Y-143656250I0J218750D01*
G01*
G37*
%TD.AperFunction*%
%TD*%
%TO.P,R4,2*%
%TO.N,/i2c_SDA*%
%TA.AperFunction,SMDPad,CuDef*%
G36*
G01*
X147043750Y-162150000D02*
X147556250Y-162150000D01*
G75*
G02*
X147775000Y-162368750I0J-218750D01*
G01*
X147775000Y-162806250D01*
G75*
G02*
X147556250Y-163025000I-218750J0D01*
G01*
X147043750Y-163025000D01*
G75*
G02*
X146825000Y-162806250I0J218750D01*
G01*
X146825000Y-162368750D01*
G75*
G02*
X147043750Y-162150000I218750J0D01*
G01*
G37*
%TD.AperFunction*%
%TO.P,R4,1*%
%TO.N,+3V3*%
%TA.AperFunction,SMDPad,CuDef*%
G36*
G01*
X147043750Y-160575000D02*
X147556250Y-160575000D01*
G75*
G02*
X147775000Y-160793750I0J-218750D01*
G01*
X147775000Y-161231250D01*
G75*
G02*
X147556250Y-161450000I-218750J0D01*
G01*
X147043750Y-161450000D01*
G75*
G02*
X146825000Y-161231250I0J218750D01*
G01*
X146825000Y-160793750D01*
G75*
G02*
X147043750Y-160575000I218750J0D01*
G01*
G37*
%TD.AperFunction*%
%TD*%
%TO.P,R3,2*%
%TO.N,/i2c_SCL*%
%TA.AperFunction,SMDPad,CuDef*%
G36*
G01*
X144243750Y-162150000D02*
X144756250Y-162150000D01*
G75*
G02*
X144975000Y-162368750I0J-218750D01*
G01*
X144975000Y-162806250D01*
G75*
G02*
X144756250Y-163025000I-218750J0D01*
G01*
X144243750Y-163025000D01*
G75*
G02*
X144025000Y-162806250I0J218750D01*
G01*
X144025000Y-162368750D01*
G75*
G02*
X144243750Y-162150000I218750J0D01*
G01*
G37*
%TD.AperFunction*%
%TO.P,R3,1*%
%TO.N,+3V3*%
%TA.AperFunction,SMDPad,CuDef*%
G36*
G01*
X144243750Y-160575000D02*
X144756250Y-160575000D01*
G75*
G02*
X144975000Y-160793750I0J-218750D01*
G01*
X144975000Y-161231250D01*
G75*
G02*
X144756250Y-161450000I-218750J0D01*
G01*
X144243750Y-161450000D01*
G75*
G02*
X144025000Y-161231250I0J218750D01*
G01*
X144025000Y-160793750D01*
G75*
G02*
X144243750Y-160575000I218750J0D01*
G01*
G37*
%TD.AperFunction*%
%TD*%
%TO.P,U2,64*%
%TO.N,+3V3*%
%TA.AperFunction,SMDPad,CuDef*%
G36*
G01*
X121175000Y-140400000D02*
X122575000Y-140400000D01*
G75*
G02*
X122650000Y-140475000I0J-75000D01*
G01*
X122650000Y-140625000D01*
G75*
G02*
X122575000Y-140700000I-75000J0D01*
G01*
X121175000Y-140700000D01*
G75*
G02*
X121100000Y-140625000I0J75000D01*
G01*
X121100000Y-140475000D01*
G75*
G02*
X121175000Y-140400000I75000J0D01*
G01*
G37*
%TD.AperFunction*%
%TO.P,U2,63*%
%TO.N,GND*%
%TA.AperFunction,SMDPad,CuDef*%
G36*
G01*
X121175000Y-140900000D02*
X122575000Y-140900000D01*
G75*
G02*
X122650000Y-140975000I0J-75000D01*
G01*
X122650000Y-141125000D01*
G75*
G02*
X122575000Y-141200000I-75000J0D01*
G01*
X121175000Y-141200000D01*
G75*
G02*
X121100000Y-141125000I0J75000D01*
G01*
X121100000Y-140975000D01*
G75*
G02*
X121175000Y-140900000I75000J0D01*
G01*
G37*
%TD.AperFunction*%
%TO.P,U2,62*%
%TO.N,/i2c_SDA*%
%TA.AperFunction,SMDPad,CuDef*%
G36*
G01*
X121175000Y-141400000D02*
X122575000Y-141400000D01*
G75*
G02*
X122650000Y-141475000I0J-75000D01*
G01*
X122650000Y-141625000D01*
G75*
G02*
X122575000Y-141700000I-75000J0D01*
G01*
X121175000Y-141700000D01*
G75*
G02*
X121100000Y-141625000I0J75000D01*
G01*
X121100000Y-141475000D01*
G75*
G02*
X121175000Y-141400000I75000J0D01*
G01*
G37*
%TD.AperFunction*%
%TO.P,U2,61*%
%TO.N,/i2c_SCL*%
%TA.AperFunction,SMDPad,CuDef*%
G36*
G01*
X121175000Y-141900000D02*
X122575000Y-141900000D01*
G75*
G02*
X122650000Y-141975000I0J-75000D01*
G01*
X122650000Y-142125000D01*
G75*
G02*
X122575000Y-142200000I-75000J0D01*
G01*
X121175000Y-142200000D01*
G75*
G02*
X121100000Y-142125000I0J75000D01*
G01*
X121100000Y-141975000D01*
G75*
G02*
X121175000Y-141900000I75000J0D01*
G01*
G37*
%TD.AperFunction*%
%TO.P,U2,60*%
%TO.N,/BOOT0*%
%TA.AperFunction,SMDPad,CuDef*%
G36*
G01*
X121175000Y-142400000D02*
X122575000Y-142400000D01*
G75*
G02*
X122650000Y-142475000I0J-75000D01*
G01*
X122650000Y-142625000D01*
G75*
G02*
X122575000Y-142700000I-75000J0D01*
G01*
X121175000Y-142700000D01*
G75*
G02*
X121100000Y-142625000I0J75000D01*
G01*
X121100000Y-142475000D01*
G75*
G02*
X121175000Y-142400000I75000J0D01*
G01*
G37*
%TD.AperFunction*%
%TO.P,U2,59*%
%TO.N,N/C*%
%TA.AperFunction,SMDPad,CuDef*%
G36*
G01*
X121175000Y-142900000D02*
X122575000Y-142900000D01*
G75*
G02*
X122650000Y-142975000I0J-75000D01*
G01*
X122650000Y-143125000D01*
G75*
G02*
X122575000Y-143200000I-75000J0D01*
G01*
X121175000Y-143200000D01*
G75*
G02*
X121100000Y-143125000I0J75000D01*
G01*
X121100000Y-142975000D01*
G75*
G02*
X121175000Y-142900000I75000J0D01*
G01*
G37*
%TD.AperFunction*%
%TO.P,U2,58*%
%TA.AperFunction,SMDPad,CuDef*%
G36*
G01*
X121175000Y-143400000D02*
X122575000Y-143400000D01*
G75*
G02*
X122650000Y-143475000I0J-75000D01*
G01*
X122650000Y-143625000D01*
G75*
G02*
X122575000Y-143700000I-75000J0D01*
G01*
X121175000Y-143700000D01*
G75*
G02*
X121100000Y-143625000I0J75000D01*
G01*
X121100000Y-143475000D01*
G75*
G02*
X121175000Y-143400000I75000J0D01*
G01*
G37*
%TD.AperFunction*%
%TO.P,U2,57*%
%TA.AperFunction,SMDPad,CuDef*%
G36*
G01*
X121175000Y-143900000D02*
X122575000Y-143900000D01*
G75*
G02*
X122650000Y-143975000I0J-75000D01*
G01*
X122650000Y-144125000D01*
G75*
G02*
X122575000Y-144200000I-75000J0D01*
G01*
X121175000Y-144200000D01*
G75*
G02*
X121100000Y-144125000I0J75000D01*
G01*
X121100000Y-143975000D01*
G75*
G02*
X121175000Y-143900000I75000J0D01*
G01*
G37*
%TD.AperFunction*%
%TO.P,U2,56*%
%TA.AperFunction,SMDPad,CuDef*%
G36*
G01*
X121175000Y-144400000D02*
X122575000Y-144400000D01*
G75*
G02*
X122650000Y-144475000I0J-75000D01*
G01*
X122650000Y-144625000D01*
G75*
G02*
X122575000Y-144700000I-75000J0D01*
G01*
X121175000Y-144700000D01*
G75*
G02*
X121100000Y-144625000I0J75000D01*
G01*
X121100000Y-144475000D01*
G75*
G02*
X121175000Y-144400000I75000J0D01*
G01*
G37*
%TD.AperFunction*%
%TO.P,U2,55*%
%TO.N,/SWO*%
%TA.AperFunction,SMDPad,CuDef*%
G36*
G01*
X121175000Y-144900000D02*
X122575000Y-144900000D01*
G75*
G02*
X122650000Y-144975000I0J-75000D01*
G01*
X122650000Y-145125000D01*
G75*
G02*
X122575000Y-145200000I-75000J0D01*
G01*
X121175000Y-145200000D01*
G75*
G02*
X121100000Y-145125000I0J75000D01*
G01*
X121100000Y-144975000D01*
G75*
G02*
X121175000Y-144900000I75000J0D01*
G01*
G37*
%TD.AperFunction*%
%TO.P,U2,54*%
%TO.N,N/C*%
%TA.AperFunction,SMDPad,CuDef*%
G36*
G01*
X121175000Y-145400000D02*
X122575000Y-145400000D01*
G75*
G02*
X122650000Y-145475000I0J-75000D01*
G01*
X122650000Y-145625000D01*
G75*
G02*
X122575000Y-145700000I-75000J0D01*
G01*
X121175000Y-145700000D01*
G75*
G02*
X121100000Y-145625000I0J75000D01*
G01*
X121100000Y-145475000D01*
G75*
G02*
X121175000Y-145400000I75000J0D01*
G01*
G37*
%TD.AperFunction*%
%TO.P,U2,53*%
%TA.AperFunction,SMDPad,CuDef*%
G36*
G01*
X121175000Y-145900000D02*
X122575000Y-145900000D01*
G75*
G02*
X122650000Y-145975000I0J-75000D01*
G01*
X122650000Y-146125000D01*
G75*
G02*
X122575000Y-146200000I-75000J0D01*
G01*
X121175000Y-146200000D01*
G75*
G02*
X121100000Y-146125000I0J75000D01*
G01*
X121100000Y-145975000D01*
G75*
G02*
X121175000Y-145900000I75000J0D01*
G01*
G37*
%TD.AperFunction*%
%TO.P,U2,52*%
%TA.AperFunction,SMDPad,CuDef*%
G36*
G01*
X121175000Y-146400000D02*
X122575000Y-146400000D01*
G75*
G02*
X122650000Y-146475000I0J-75000D01*
G01*
X122650000Y-146625000D01*
G75*
G02*
X122575000Y-146700000I-75000J0D01*
G01*
X121175000Y-146700000D01*
G75*
G02*
X121100000Y-146625000I0J75000D01*
G01*
X121100000Y-146475000D01*
G75*
G02*
X121175000Y-146400000I75000J0D01*
G01*
G37*
%TD.AperFunction*%
%TO.P,U2,51*%
%TA.AperFunction,SMDPad,CuDef*%
G36*
G01*
X121175000Y-146900000D02*
X122575000Y-146900000D01*
G75*
G02*
X122650000Y-146975000I0J-75000D01*
G01*
X122650000Y-147125000D01*
G75*
G02*
X122575000Y-147200000I-75000J0D01*
G01*
X121175000Y-147200000D01*
G75*
G02*
X121100000Y-147125000I0J75000D01*
G01*
X121100000Y-146975000D01*
G75*
G02*
X121175000Y-146900000I75000J0D01*
G01*
G37*
%TD.AperFunction*%
%TO.P,U2,50*%
%TA.AperFunction,SMDPad,CuDef*%
G36*
G01*
X121175000Y-147400000D02*
X122575000Y-147400000D01*
G75*
G02*
X122650000Y-147475000I0J-75000D01*
G01*
X122650000Y-147625000D01*
G75*
G02*
X122575000Y-147700000I-75000J0D01*
G01*
X121175000Y-147700000D01*
G75*
G02*
X121100000Y-147625000I0J75000D01*
G01*
X121100000Y-147475000D01*
G75*
G02*
X121175000Y-147400000I75000J0D01*
G01*
G37*
%TD.AperFunction*%
%TO.P,U2,49*%
%TO.N,/SWCLK*%
%TA.AperFunction,SMDPad,CuDef*%
G36*
G01*
X121175000Y-147900000D02*
X122575000Y-147900000D01*
G75*
G02*
X122650000Y-147975000I0J-75000D01*
G01*
X122650000Y-148125000D01*
G75*
G02*
X122575000Y-148200000I-75000J0D01*
G01*
X121175000Y-148200000D01*
G75*
G02*
X121100000Y-148125000I0J75000D01*
G01*
X121100000Y-147975000D01*
G75*
G02*
X121175000Y-147900000I75000J0D01*
G01*
G37*
%TD.AperFunction*%
%TO.P,U2,48*%
%TO.N,+3V3*%
%TA.AperFunction,SMDPad,CuDef*%
G36*
G01*
X119875000Y-149200000D02*
X120025000Y-149200000D01*
G75*
G02*
X120100000Y-149275000I0J-75000D01*
G01*
X120100000Y-150675000D01*
G75*
G02*
X120025000Y-150750000I-75000J0D01*
G01*
X119875000Y-150750000D01*
G75*
G02*
X119800000Y-150675000I0J75000D01*
G01*
X119800000Y-149275000D01*
G75*
G02*
X119875000Y-149200000I75000J0D01*
G01*
G37*
%TD.AperFunction*%
%TO.P,U2,47*%
%TO.N,GND*%
%TA.AperFunction,SMDPad,CuDef*%
G36*
G01*
X119375000Y-149200000D02*
X119525000Y-149200000D01*
G75*
G02*
X119600000Y-149275000I0J-75000D01*
G01*
X119600000Y-150675000D01*
G75*
G02*
X119525000Y-150750000I-75000J0D01*
G01*
X119375000Y-150750000D01*
G75*
G02*
X119300000Y-150675000I0J75000D01*
G01*
X119300000Y-149275000D01*
G75*
G02*
X119375000Y-149200000I75000J0D01*
G01*
G37*
%TD.AperFunction*%
%TO.P,U2,46*%
%TO.N,/SWDIO*%
%TA.AperFunction,SMDPad,CuDef*%
G36*
G01*
X118875000Y-149200000D02*
X119025000Y-149200000D01*
G75*
G02*
X119100000Y-149275000I0J-75000D01*
G01*
X119100000Y-150675000D01*
G75*
G02*
X119025000Y-150750000I-75000J0D01*
G01*
X118875000Y-150750000D01*
G75*
G02*
X118800000Y-150675000I0J75000D01*
G01*
X118800000Y-149275000D01*
G75*
G02*
X118875000Y-149200000I75000J0D01*
G01*
G37*
%TD.AperFunction*%
%TO.P,U2,45*%
%TO.N,/USB_D+*%
%TA.AperFunction,SMDPad,CuDef*%
G36*
G01*
X118375000Y-149200000D02*
X118525000Y-149200000D01*
G75*
G02*
X118600000Y-149275000I0J-75000D01*
G01*
X118600000Y-150675000D01*
G75*
G02*
X118525000Y-150750000I-75000J0D01*
G01*
X118375000Y-150750000D01*
G75*
G02*
X118300000Y-150675000I0J75000D01*
G01*
X118300000Y-149275000D01*
G75*
G02*
X118375000Y-149200000I75000J0D01*
G01*
G37*
%TD.AperFunction*%
%TO.P,U2,44*%
%TO.N,/USB_D-*%
%TA.AperFunction,SMDPad,CuDef*%
G36*
G01*
X117875000Y-149200000D02*
X118025000Y-149200000D01*
G75*
G02*
X118100000Y-149275000I0J-75000D01*
G01*
X118100000Y-150675000D01*
G75*
G02*
X118025000Y-150750000I-75000J0D01*
G01*
X117875000Y-150750000D01*
G75*
G02*
X117800000Y-150675000I0J75000D01*
G01*
X117800000Y-149275000D01*
G75*
G02*
X117875000Y-149200000I75000J0D01*
G01*
G37*
%TD.AperFunction*%
%TO.P,U2,43*%
%TO.N,N/C*%
%TA.AperFunction,SMDPad,CuDef*%
G36*
G01*
X117375000Y-149200000D02*
X117525000Y-149200000D01*
G75*
G02*
X117600000Y-149275000I0J-75000D01*
G01*
X117600000Y-150675000D01*
G75*
G02*
X117525000Y-150750000I-75000J0D01*
G01*
X117375000Y-150750000D01*
G75*
G02*
X117300000Y-150675000I0J75000D01*
G01*
X117300000Y-149275000D01*
G75*
G02*
X117375000Y-149200000I75000J0D01*
G01*
G37*
%TD.AperFunction*%
%TO.P,U2,42*%
%TA.AperFunction,SMDPad,CuDef*%
G36*
G01*
X116875000Y-149200000D02*
X117025000Y-149200000D01*
G75*
G02*
X117100000Y-149275000I0J-75000D01*
G01*
X117100000Y-150675000D01*
G75*
G02*
X117025000Y-150750000I-75000J0D01*
G01*
X116875000Y-150750000D01*
G75*
G02*
X116800000Y-150675000I0J75000D01*
G01*
X116800000Y-149275000D01*
G75*
G02*
X116875000Y-149200000I75000J0D01*
G01*
G37*
%TD.AperFunction*%
%TO.P,U2,41*%
%TA.AperFunction,SMDPad,CuDef*%
G36*
G01*
X116375000Y-149200000D02*
X116525000Y-149200000D01*
G75*
G02*
X116600000Y-149275000I0J-75000D01*
G01*
X116600000Y-150675000D01*
G75*
G02*
X116525000Y-150750000I-75000J0D01*
G01*
X116375000Y-150750000D01*
G75*
G02*
X116300000Y-150675000I0J75000D01*
G01*
X116300000Y-149275000D01*
G75*
G02*
X116375000Y-149200000I75000J0D01*
G01*
G37*
%TD.AperFunction*%
%TO.P,U2,40*%
%TA.AperFunction,SMDPad,CuDef*%
G36*
G01*
X115875000Y-149200000D02*
X116025000Y-149200000D01*
G75*
G02*
X116100000Y-149275000I0J-75000D01*
G01*
X116100000Y-150675000D01*
G75*
G02*
X116025000Y-150750000I-75000J0D01*
G01*
X115875000Y-150750000D01*
G75*
G02*
X115800000Y-150675000I0J75000D01*
G01*
X115800000Y-149275000D01*
G75*
G02*
X115875000Y-149200000I75000J0D01*
G01*
G37*
%TD.AperFunction*%
%TO.P,U2,39*%
%TA.AperFunction,SMDPad,CuDef*%
G36*
G01*
X115375000Y-149200000D02*
X115525000Y-149200000D01*
G75*
G02*
X115600000Y-149275000I0J-75000D01*
G01*
X115600000Y-150675000D01*
G75*
G02*
X115525000Y-150750000I-75000J0D01*
G01*
X115375000Y-150750000D01*
G75*
G02*
X115300000Y-150675000I0J75000D01*
G01*
X115300000Y-149275000D01*
G75*
G02*
X115375000Y-149200000I75000J0D01*
G01*
G37*
%TD.AperFunction*%
%TO.P,U2,38*%
%TA.AperFunction,SMDPad,CuDef*%
G36*
G01*
X114875000Y-149200000D02*
X115025000Y-149200000D01*
G75*
G02*
X115100000Y-149275000I0J-75000D01*
G01*
X115100000Y-150675000D01*
G75*
G02*
X115025000Y-150750000I-75000J0D01*
G01*
X114875000Y-150750000D01*
G75*
G02*
X114800000Y-150675000I0J75000D01*
G01*
X114800000Y-149275000D01*
G75*
G02*
X114875000Y-149200000I75000J0D01*
G01*
G37*
%TD.AperFunction*%
%TO.P,U2,37*%
%TA.AperFunction,SMDPad,CuDef*%
G36*
G01*
X114375000Y-149200000D02*
X114525000Y-149200000D01*
G75*
G02*
X114600000Y-149275000I0J-75000D01*
G01*
X114600000Y-150675000D01*
G75*
G02*
X114525000Y-150750000I-75000J0D01*
G01*
X114375000Y-150750000D01*
G75*
G02*
X114300000Y-150675000I0J75000D01*
G01*
X114300000Y-149275000D01*
G75*
G02*
X114375000Y-149200000I75000J0D01*
G01*
G37*
%TD.AperFunction*%
%TO.P,U2,36*%
%TA.AperFunction,SMDPad,CuDef*%
G36*
G01*
X113875000Y-149200000D02*
X114025000Y-149200000D01*
G75*
G02*
X114100000Y-149275000I0J-75000D01*
G01*
X114100000Y-150675000D01*
G75*
G02*
X114025000Y-150750000I-75000J0D01*
G01*
X113875000Y-150750000D01*
G75*
G02*
X113800000Y-150675000I0J75000D01*
G01*
X113800000Y-149275000D01*
G75*
G02*
X113875000Y-149200000I75000J0D01*
G01*
G37*
%TD.AperFunction*%
%TO.P,U2,35*%
%TA.AperFunction,SMDPad,CuDef*%
G36*
G01*
X113375000Y-149200000D02*
X113525000Y-149200000D01*
G75*
G02*
X113600000Y-149275000I0J-75000D01*
G01*
X113600000Y-150675000D01*
G75*
G02*
X113525000Y-150750000I-75000J0D01*
G01*
X113375000Y-150750000D01*
G75*
G02*
X113300000Y-150675000I0J75000D01*
G01*
X113300000Y-149275000D01*
G75*
G02*
X113375000Y-149200000I75000J0D01*
G01*
G37*
%TD.AperFunction*%
%TO.P,U2,34*%
%TA.AperFunction,SMDPad,CuDef*%
G36*
G01*
X112875000Y-149200000D02*
X113025000Y-149200000D01*
G75*
G02*
X113100000Y-149275000I0J-75000D01*
G01*
X113100000Y-150675000D01*
G75*
G02*
X113025000Y-150750000I-75000J0D01*
G01*
X112875000Y-150750000D01*
G75*
G02*
X112800000Y-150675000I0J75000D01*
G01*
X112800000Y-149275000D01*
G75*
G02*
X112875000Y-149200000I75000J0D01*
G01*
G37*
%TD.AperFunction*%
%TO.P,U2,33*%
%TA.AperFunction,SMDPad,CuDef*%
G36*
G01*
X112375000Y-149200000D02*
X112525000Y-149200000D01*
G75*
G02*
X112600000Y-149275000I0J-75000D01*
G01*
X112600000Y-150675000D01*
G75*
G02*
X112525000Y-150750000I-75000J0D01*
G01*
X112375000Y-150750000D01*
G75*
G02*
X112300000Y-150675000I0J75000D01*
G01*
X112300000Y-149275000D01*
G75*
G02*
X112375000Y-149200000I75000J0D01*
G01*
G37*
%TD.AperFunction*%
%TO.P,U2,32*%
%TO.N,+3V3*%
%TA.AperFunction,SMDPad,CuDef*%
G36*
G01*
X109825000Y-147900000D02*
X111225000Y-147900000D01*
G75*
G02*
X111300000Y-147975000I0J-75000D01*
G01*
X111300000Y-148125000D01*
G75*
G02*
X111225000Y-148200000I-75000J0D01*
G01*
X109825000Y-148200000D01*
G75*
G02*
X109750000Y-148125000I0J75000D01*
G01*
X109750000Y-147975000D01*
G75*
G02*
X109825000Y-147900000I75000J0D01*
G01*
G37*
%TD.AperFunction*%
%TO.P,U2,31*%
%TO.N,GND*%
%TA.AperFunction,SMDPad,CuDef*%
G36*
G01*
X109825000Y-147400000D02*
X111225000Y-147400000D01*
G75*
G02*
X111300000Y-147475000I0J-75000D01*
G01*
X111300000Y-147625000D01*
G75*
G02*
X111225000Y-147700000I-75000J0D01*
G01*
X109825000Y-147700000D01*
G75*
G02*
X109750000Y-147625000I0J75000D01*
G01*
X109750000Y-147475000D01*
G75*
G02*
X109825000Y-147400000I75000J0D01*
G01*
G37*
%TD.AperFunction*%
%TO.P,U2,30*%
%TO.N,Net-(C10-Pad2)*%
%TA.AperFunction,SMDPad,CuDef*%
G36*
G01*
X109825000Y-146900000D02*
X111225000Y-146900000D01*
G75*
G02*
X111300000Y-146975000I0J-75000D01*
G01*
X111300000Y-147125000D01*
G75*
G02*
X111225000Y-147200000I-75000J0D01*
G01*
X109825000Y-147200000D01*
G75*
G02*
X109750000Y-147125000I0J75000D01*
G01*
X109750000Y-146975000D01*
G75*
G02*
X109825000Y-146900000I75000J0D01*
G01*
G37*
%TD.AperFunction*%
%TO.P,U2,29*%
%TO.N,N/C*%
%TA.AperFunction,SMDPad,CuDef*%
G36*
G01*
X109825000Y-146400000D02*
X111225000Y-146400000D01*
G75*
G02*
X111300000Y-146475000I0J-75000D01*
G01*
X111300000Y-146625000D01*
G75*
G02*
X111225000Y-146700000I-75000J0D01*
G01*
X109825000Y-146700000D01*
G75*
G02*
X109750000Y-146625000I0J75000D01*
G01*
X109750000Y-146475000D01*
G75*
G02*
X109825000Y-146400000I75000J0D01*
G01*
G37*
%TD.AperFunction*%
%TO.P,U2,28*%
%TO.N,/BOOT1*%
%TA.AperFunction,SMDPad,CuDef*%
G36*
G01*
X109825000Y-145900000D02*
X111225000Y-145900000D01*
G75*
G02*
X111300000Y-145975000I0J-75000D01*
G01*
X111300000Y-146125000D01*
G75*
G02*
X111225000Y-146200000I-75000J0D01*
G01*
X109825000Y-146200000D01*
G75*
G02*
X109750000Y-146125000I0J75000D01*
G01*
X109750000Y-145975000D01*
G75*
G02*
X109825000Y-145900000I75000J0D01*
G01*
G37*
%TD.AperFunction*%
%TO.P,U2,27*%
%TO.N,N/C*%
%TA.AperFunction,SMDPad,CuDef*%
G36*
G01*
X109825000Y-145400000D02*
X111225000Y-145400000D01*
G75*
G02*
X111300000Y-145475000I0J-75000D01*
G01*
X111300000Y-145625000D01*
G75*
G02*
X111225000Y-145700000I-75000J0D01*
G01*
X109825000Y-145700000D01*
G75*
G02*
X109750000Y-145625000I0J75000D01*
G01*
X109750000Y-145475000D01*
G75*
G02*
X109825000Y-145400000I75000J0D01*
G01*
G37*
%TD.AperFunction*%
%TO.P,U2,26*%
%TO.N,/LED_CHAIN*%
%TA.AperFunction,SMDPad,CuDef*%
G36*
G01*
X109825000Y-144900000D02*
X111225000Y-144900000D01*
G75*
G02*
X111300000Y-144975000I0J-75000D01*
G01*
X111300000Y-145125000D01*
G75*
G02*
X111225000Y-145200000I-75000J0D01*
G01*
X109825000Y-145200000D01*
G75*
G02*
X109750000Y-145125000I0J75000D01*
G01*
X109750000Y-144975000D01*
G75*
G02*
X109825000Y-144900000I75000J0D01*
G01*
G37*
%TD.AperFunction*%
%TO.P,U2,25*%
%TO.N,N/C*%
%TA.AperFunction,SMDPad,CuDef*%
G36*
G01*
X109825000Y-144400000D02*
X111225000Y-144400000D01*
G75*
G02*
X111300000Y-144475000I0J-75000D01*
G01*
X111300000Y-144625000D01*
G75*
G02*
X111225000Y-144700000I-75000J0D01*
G01*
X109825000Y-144700000D01*
G75*
G02*
X109750000Y-144625000I0J75000D01*
G01*
X109750000Y-144475000D01*
G75*
G02*
X109825000Y-144400000I75000J0D01*
G01*
G37*
%TD.AperFunction*%
%TO.P,U2,24*%
%TA.AperFunction,SMDPad,CuDef*%
G36*
G01*
X109825000Y-143900000D02*
X111225000Y-143900000D01*
G75*
G02*
X111300000Y-143975000I0J-75000D01*
G01*
X111300000Y-144125000D01*
G75*
G02*
X111225000Y-144200000I-75000J0D01*
G01*
X109825000Y-144200000D01*
G75*
G02*
X109750000Y-144125000I0J75000D01*
G01*
X109750000Y-143975000D01*
G75*
G02*
X109825000Y-143900000I75000J0D01*
G01*
G37*
%TD.AperFunction*%
%TO.P,U2,23*%
%TA.AperFunction,SMDPad,CuDef*%
G36*
G01*
X109825000Y-143400000D02*
X111225000Y-143400000D01*
G75*
G02*
X111300000Y-143475000I0J-75000D01*
G01*
X111300000Y-143625000D01*
G75*
G02*
X111225000Y-143700000I-75000J0D01*
G01*
X109825000Y-143700000D01*
G75*
G02*
X109750000Y-143625000I0J75000D01*
G01*
X109750000Y-143475000D01*
G75*
G02*
X109825000Y-143400000I75000J0D01*
G01*
G37*
%TD.AperFunction*%
%TO.P,U2,22*%
%TA.AperFunction,SMDPad,CuDef*%
G36*
G01*
X109825000Y-142900000D02*
X111225000Y-142900000D01*
G75*
G02*
X111300000Y-142975000I0J-75000D01*
G01*
X111300000Y-143125000D01*
G75*
G02*
X111225000Y-143200000I-75000J0D01*
G01*
X109825000Y-143200000D01*
G75*
G02*
X109750000Y-143125000I0J75000D01*
G01*
X109750000Y-142975000D01*
G75*
G02*
X109825000Y-142900000I75000J0D01*
G01*
G37*
%TD.AperFunction*%
%TO.P,U2,21*%
%TO.N,Net-(D7-Pad2)*%
%TA.AperFunction,SMDPad,CuDef*%
G36*
G01*
X109825000Y-142400000D02*
X111225000Y-142400000D01*
G75*
G02*
X111300000Y-142475000I0J-75000D01*
G01*
X111300000Y-142625000D01*
G75*
G02*
X111225000Y-142700000I-75000J0D01*
G01*
X109825000Y-142700000D01*
G75*
G02*
X109750000Y-142625000I0J75000D01*
G01*
X109750000Y-142475000D01*
G75*
G02*
X109825000Y-142400000I75000J0D01*
G01*
G37*
%TD.AperFunction*%
%TO.P,U2,20*%
%TO.N,N/C*%
%TA.AperFunction,SMDPad,CuDef*%
G36*
G01*
X109825000Y-141900000D02*
X111225000Y-141900000D01*
G75*
G02*
X111300000Y-141975000I0J-75000D01*
G01*
X111300000Y-142125000D01*
G75*
G02*
X111225000Y-142200000I-75000J0D01*
G01*
X109825000Y-142200000D01*
G75*
G02*
X109750000Y-142125000I0J75000D01*
G01*
X109750000Y-141975000D01*
G75*
G02*
X109825000Y-141900000I75000J0D01*
G01*
G37*
%TD.AperFunction*%
%TO.P,U2,19*%
%TO.N,+3V3*%
%TA.AperFunction,SMDPad,CuDef*%
G36*
G01*
X109825000Y-141400000D02*
X111225000Y-141400000D01*
G75*
G02*
X111300000Y-141475000I0J-75000D01*
G01*
X111300000Y-141625000D01*
G75*
G02*
X111225000Y-141700000I-75000J0D01*
G01*
X109825000Y-141700000D01*
G75*
G02*
X109750000Y-141625000I0J75000D01*
G01*
X109750000Y-141475000D01*
G75*
G02*
X109825000Y-141400000I75000J0D01*
G01*
G37*
%TD.AperFunction*%
%TO.P,U2,18*%
%TO.N,GND*%
%TA.AperFunction,SMDPad,CuDef*%
G36*
G01*
X109825000Y-140900000D02*
X111225000Y-140900000D01*
G75*
G02*
X111300000Y-140975000I0J-75000D01*
G01*
X111300000Y-141125000D01*
G75*
G02*
X111225000Y-141200000I-75000J0D01*
G01*
X109825000Y-141200000D01*
G75*
G02*
X109750000Y-141125000I0J75000D01*
G01*
X109750000Y-140975000D01*
G75*
G02*
X109825000Y-140900000I75000J0D01*
G01*
G37*
%TD.AperFunction*%
%TO.P,U2,17*%
%TO.N,N/C*%
%TA.AperFunction,SMDPad,CuDef*%
G36*
G01*
X109825000Y-140400000D02*
X111225000Y-140400000D01*
G75*
G02*
X111300000Y-140475000I0J-75000D01*
G01*
X111300000Y-140625000D01*
G75*
G02*
X111225000Y-140700000I-75000J0D01*
G01*
X109825000Y-140700000D01*
G75*
G02*
X109750000Y-140625000I0J75000D01*
G01*
X109750000Y-140475000D01*
G75*
G02*
X109825000Y-140400000I75000J0D01*
G01*
G37*
%TD.AperFunction*%
%TO.P,U2,16*%
%TA.AperFunction,SMDPad,CuDef*%
G36*
G01*
X112375000Y-137850000D02*
X112525000Y-137850000D01*
G75*
G02*
X112600000Y-137925000I0J-75000D01*
G01*
X112600000Y-139325000D01*
G75*
G02*
X112525000Y-139400000I-75000J0D01*
G01*
X112375000Y-139400000D01*
G75*
G02*
X112300000Y-139325000I0J75000D01*
G01*
X112300000Y-137925000D01*
G75*
G02*
X112375000Y-137850000I75000J0D01*
G01*
G37*
%TD.AperFunction*%
%TO.P,U2,15*%
%TA.AperFunction,SMDPad,CuDef*%
G36*
G01*
X112875000Y-137850000D02*
X113025000Y-137850000D01*
G75*
G02*
X113100000Y-137925000I0J-75000D01*
G01*
X113100000Y-139325000D01*
G75*
G02*
X113025000Y-139400000I-75000J0D01*
G01*
X112875000Y-139400000D01*
G75*
G02*
X112800000Y-139325000I0J75000D01*
G01*
X112800000Y-137925000D01*
G75*
G02*
X112875000Y-137850000I75000J0D01*
G01*
G37*
%TD.AperFunction*%
%TO.P,U2,14*%
%TA.AperFunction,SMDPad,CuDef*%
G36*
G01*
X113375000Y-137850000D02*
X113525000Y-137850000D01*
G75*
G02*
X113600000Y-137925000I0J-75000D01*
G01*
X113600000Y-139325000D01*
G75*
G02*
X113525000Y-139400000I-75000J0D01*
G01*
X113375000Y-139400000D01*
G75*
G02*
X113300000Y-139325000I0J75000D01*
G01*
X113300000Y-137925000D01*
G75*
G02*
X113375000Y-137850000I75000J0D01*
G01*
G37*
%TD.AperFunction*%
%TO.P,U2,13*%
%TO.N,+3V3*%
%TA.AperFunction,SMDPad,CuDef*%
G36*
G01*
X113875000Y-137850000D02*
X114025000Y-137850000D01*
G75*
G02*
X114100000Y-137925000I0J-75000D01*
G01*
X114100000Y-139325000D01*
G75*
G02*
X114025000Y-139400000I-75000J0D01*
G01*
X113875000Y-139400000D01*
G75*
G02*
X113800000Y-139325000I0J75000D01*
G01*
X113800000Y-137925000D01*
G75*
G02*
X113875000Y-137850000I75000J0D01*
G01*
G37*
%TD.AperFunction*%
%TO.P,U2,12*%
%TO.N,GND*%
%TA.AperFunction,SMDPad,CuDef*%
G36*
G01*
X114375000Y-137850000D02*
X114525000Y-137850000D01*
G75*
G02*
X114600000Y-137925000I0J-75000D01*
G01*
X114600000Y-139325000D01*
G75*
G02*
X114525000Y-139400000I-75000J0D01*
G01*
X114375000Y-139400000D01*
G75*
G02*
X114300000Y-139325000I0J75000D01*
G01*
X114300000Y-137925000D01*
G75*
G02*
X114375000Y-137850000I75000J0D01*
G01*
G37*
%TD.AperFunction*%
%TO.P,U2,11*%
%TO.N,N/C*%
%TA.AperFunction,SMDPad,CuDef*%
G36*
G01*
X114875000Y-137850000D02*
X115025000Y-137850000D01*
G75*
G02*
X115100000Y-137925000I0J-75000D01*
G01*
X115100000Y-139325000D01*
G75*
G02*
X115025000Y-139400000I-75000J0D01*
G01*
X114875000Y-139400000D01*
G75*
G02*
X114800000Y-139325000I0J75000D01*
G01*
X114800000Y-137925000D01*
G75*
G02*
X114875000Y-137850000I75000J0D01*
G01*
G37*
%TD.AperFunction*%
%TO.P,U2,10*%
%TA.AperFunction,SMDPad,CuDef*%
G36*
G01*
X115375000Y-137850000D02*
X115525000Y-137850000D01*
G75*
G02*
X115600000Y-137925000I0J-75000D01*
G01*
X115600000Y-139325000D01*
G75*
G02*
X115525000Y-139400000I-75000J0D01*
G01*
X115375000Y-139400000D01*
G75*
G02*
X115300000Y-139325000I0J75000D01*
G01*
X115300000Y-137925000D01*
G75*
G02*
X115375000Y-137850000I75000J0D01*
G01*
G37*
%TD.AperFunction*%
%TO.P,U2,9*%
%TA.AperFunction,SMDPad,CuDef*%
G36*
G01*
X115875000Y-137850000D02*
X116025000Y-137850000D01*
G75*
G02*
X116100000Y-137925000I0J-75000D01*
G01*
X116100000Y-139325000D01*
G75*
G02*
X116025000Y-139400000I-75000J0D01*
G01*
X115875000Y-139400000D01*
G75*
G02*
X115800000Y-139325000I0J75000D01*
G01*
X115800000Y-137925000D01*
G75*
G02*
X115875000Y-137850000I75000J0D01*
G01*
G37*
%TD.AperFunction*%
%TO.P,U2,8*%
%TA.AperFunction,SMDPad,CuDef*%
G36*
G01*
X116375000Y-137850000D02*
X116525000Y-137850000D01*
G75*
G02*
X116600000Y-137925000I0J-75000D01*
G01*
X116600000Y-139325000D01*
G75*
G02*
X116525000Y-139400000I-75000J0D01*
G01*
X116375000Y-139400000D01*
G75*
G02*
X116300000Y-139325000I0J75000D01*
G01*
X116300000Y-137925000D01*
G75*
G02*
X116375000Y-137850000I75000J0D01*
G01*
G37*
%TD.AperFunction*%
%TO.P,U2,7*%
%TO.N,/~RST*%
%TA.AperFunction,SMDPad,CuDef*%
G36*
G01*
X116875000Y-137850000D02*
X117025000Y-137850000D01*
G75*
G02*
X117100000Y-137925000I0J-75000D01*
G01*
X117100000Y-139325000D01*
G75*
G02*
X117025000Y-139400000I-75000J0D01*
G01*
X116875000Y-139400000D01*
G75*
G02*
X116800000Y-139325000I0J75000D01*
G01*
X116800000Y-137925000D01*
G75*
G02*
X116875000Y-137850000I75000J0D01*
G01*
G37*
%TD.AperFunction*%
%TO.P,U2,6*%
%TO.N,N/C*%
%TA.AperFunction,SMDPad,CuDef*%
G36*
G01*
X117375000Y-137850000D02*
X117525000Y-137850000D01*
G75*
G02*
X117600000Y-137925000I0J-75000D01*
G01*
X117600000Y-139325000D01*
G75*
G02*
X117525000Y-139400000I-75000J0D01*
G01*
X117375000Y-139400000D01*
G75*
G02*
X117300000Y-139325000I0J75000D01*
G01*
X117300000Y-137925000D01*
G75*
G02*
X117375000Y-137850000I75000J0D01*
G01*
G37*
%TD.AperFunction*%
%TO.P,U2,5*%
%TA.AperFunction,SMDPad,CuDef*%
G36*
G01*
X117875000Y-137850000D02*
X118025000Y-137850000D01*
G75*
G02*
X118100000Y-137925000I0J-75000D01*
G01*
X118100000Y-139325000D01*
G75*
G02*
X118025000Y-139400000I-75000J0D01*
G01*
X117875000Y-139400000D01*
G75*
G02*
X117800000Y-139325000I0J75000D01*
G01*
X117800000Y-137925000D01*
G75*
G02*
X117875000Y-137850000I75000J0D01*
G01*
G37*
%TD.AperFunction*%
%TO.P,U2,4*%
%TA.AperFunction,SMDPad,CuDef*%
G36*
G01*
X118375000Y-137850000D02*
X118525000Y-137850000D01*
G75*
G02*
X118600000Y-137925000I0J-75000D01*
G01*
X118600000Y-139325000D01*
G75*
G02*
X118525000Y-139400000I-75000J0D01*
G01*
X118375000Y-139400000D01*
G75*
G02*
X118300000Y-139325000I0J75000D01*
G01*
X118300000Y-137925000D01*
G75*
G02*
X118375000Y-137850000I75000J0D01*
G01*
G37*
%TD.AperFunction*%
%TO.P,U2,3*%
%TA.AperFunction,SMDPad,CuDef*%
G36*
G01*
X118875000Y-137850000D02*
X119025000Y-137850000D01*
G75*
G02*
X119100000Y-137925000I0J-75000D01*
G01*
X119100000Y-139325000D01*
G75*
G02*
X119025000Y-139400000I-75000J0D01*
G01*
X118875000Y-139400000D01*
G75*
G02*
X118800000Y-139325000I0J75000D01*
G01*
X118800000Y-137925000D01*
G75*
G02*
X118875000Y-137850000I75000J0D01*
G01*
G37*
%TD.AperFunction*%
%TO.P,U2,2*%
%TA.AperFunction,SMDPad,CuDef*%
G36*
G01*
X119375000Y-137850000D02*
X119525000Y-137850000D01*
G75*
G02*
X119600000Y-137925000I0J-75000D01*
G01*
X119600000Y-139325000D01*
G75*
G02*
X119525000Y-139400000I-75000J0D01*
G01*
X119375000Y-139400000D01*
G75*
G02*
X119300000Y-139325000I0J75000D01*
G01*
X119300000Y-137925000D01*
G75*
G02*
X119375000Y-137850000I75000J0D01*
G01*
G37*
%TD.AperFunction*%
%TO.P,U2,1*%
%TO.N,+3V3*%
%TA.AperFunction,SMDPad,CuDef*%
G36*
G01*
X119875000Y-137850000D02*
X120025000Y-137850000D01*
G75*
G02*
X120100000Y-137925000I0J-75000D01*
G01*
X120100000Y-139325000D01*
G75*
G02*
X120025000Y-139400000I-75000J0D01*
G01*
X119875000Y-139400000D01*
G75*
G02*
X119800000Y-139325000I0J75000D01*
G01*
X119800000Y-137925000D01*
G75*
G02*
X119875000Y-137850000I75000J0D01*
G01*
G37*
%TD.AperFunction*%
%TD*%
D12*
%TO.P,U1,1*%
%TO.N,GND*%
X135500000Y-154450000D03*
%TO.P,U1,3*%
%TO.N,+5V*%
X130900000Y-154450000D03*
%TO.P,U1,2*%
%TO.N,+3V3*%
X133200000Y-154450000D03*
D13*
X133200000Y-160750000D03*
%TD*%
%TO.P,R2,2*%
%TO.N,Net-(D7-Pad1)*%
%TA.AperFunction,SMDPad,CuDef*%
G36*
G01*
X102150000Y-146443750D02*
X102150000Y-146956250D01*
G75*
G02*
X101931250Y-147175000I-218750J0D01*
G01*
X101493750Y-147175000D01*
G75*
G02*
X101275000Y-146956250I0J218750D01*
G01*
X101275000Y-146443750D01*
G75*
G02*
X101493750Y-146225000I218750J0D01*
G01*
X101931250Y-146225000D01*
G75*
G02*
X102150000Y-146443750I0J-218750D01*
G01*
G37*
%TD.AperFunction*%
%TO.P,R2,1*%
%TO.N,GND*%
%TA.AperFunction,SMDPad,CuDef*%
G36*
G01*
X103725000Y-146443750D02*
X103725000Y-146956250D01*
G75*
G02*
X103506250Y-147175000I-218750J0D01*
G01*
X103068750Y-147175000D01*
G75*
G02*
X102850000Y-146956250I0J218750D01*
G01*
X102850000Y-146443750D01*
G75*
G02*
X103068750Y-146225000I218750J0D01*
G01*
X103506250Y-146225000D01*
G75*
G02*
X103725000Y-146443750I0J-218750D01*
G01*
G37*
%TD.AperFunction*%
%TD*%
%TO.P,R1,2*%
%TO.N,/~RST*%
%TA.AperFunction,SMDPad,CuDef*%
G36*
G01*
X127350000Y-137443750D02*
X127350000Y-137956250D01*
G75*
G02*
X127131250Y-138175000I-218750J0D01*
G01*
X126693750Y-138175000D01*
G75*
G02*
X126475000Y-137956250I0J218750D01*
G01*
X126475000Y-137443750D01*
G75*
G02*
X126693750Y-137225000I218750J0D01*
G01*
X127131250Y-137225000D01*
G75*
G02*
X127350000Y-137443750I0J-218750D01*
G01*
G37*
%TD.AperFunction*%
%TO.P,R1,1*%
%TO.N,+3V3*%
%TA.AperFunction,SMDPad,CuDef*%
G36*
G01*
X128925000Y-137443750D02*
X128925000Y-137956250D01*
G75*
G02*
X128706250Y-138175000I-218750J0D01*
G01*
X128268750Y-138175000D01*
G75*
G02*
X128050000Y-137956250I0J218750D01*
G01*
X128050000Y-137443750D01*
G75*
G02*
X128268750Y-137225000I218750J0D01*
G01*
X128706250Y-137225000D01*
G75*
G02*
X128925000Y-137443750I0J-218750D01*
G01*
G37*
%TD.AperFunction*%
%TD*%
D14*
%TO.P,J2,S2*%
%TO.N,GND*%
X124720000Y-159400000D03*
%TO.P,J2,S1*%
X112680000Y-159400000D03*
D15*
%TO.P,J2,4*%
X119950000Y-156700000D03*
%TO.P,J2,3*%
%TO.N,/USB_D+*%
X117450000Y-156700000D03*
%TO.P,J2,2*%
%TO.N,/USB_D-*%
X117450000Y-154700000D03*
D16*
%TO.P,J2,1*%
%TO.N,+5V*%
X119950000Y-154700000D03*
%TD*%
D17*
%TO.P,J3,5*%
%TO.N,GND*%
X148560000Y-167600000D03*
%TO.P,J3,4*%
%TO.N,/i2c_SDA*%
X146020000Y-167600000D03*
%TO.P,J3,3*%
%TO.N,/i2c_SCL*%
X143480000Y-167600000D03*
%TO.P,J3,2*%
%TO.N,+3V3*%
X140940000Y-167600000D03*
D18*
%TO.P,J3,1*%
%TO.N,+5V*%
X138400000Y-167600000D03*
%TD*%
D19*
%TO.P,J1,6*%
%TO.N,/SWO*%
X130390000Y-142935000D03*
%TO.P,J1,5*%
%TO.N,/~RST*%
X130390000Y-141665000D03*
%TO.P,J1,4*%
%TO.N,/SWDIO*%
X131660000Y-142935000D03*
%TO.P,J1,3*%
%TO.N,GND*%
X131660000Y-141665000D03*
%TO.P,J1,2*%
%TO.N,/SWCLK*%
X132930000Y-142935000D03*
%TO.P,J1,1*%
%TO.N,+3V3*%
X132930000Y-141665000D03*
D20*
%TO.P,J1,0*%
%TO.N,N/C*%
X129120000Y-141284000D03*
X129120000Y-143316000D03*
X134200000Y-142300000D03*
%TD*%
D21*
%TO.P,D29,1*%
%TO.N,+5V*%
X152550000Y-130400000D03*
%TO.P,D29,2*%
%TO.N,Net-(D29-Pad2)*%
X152550000Y-133600000D03*
%TO.P,D29,4*%
%TO.N,Net-(D28-Pad2)*%
X157450000Y-130400000D03*
%TO.P,D29,3*%
%TO.N,GND*%
X157450000Y-133600000D03*
%TD*%
%TO.P,D23,1*%
%TO.N,+5V*%
X148550000Y-122400000D03*
%TO.P,D23,2*%
%TO.N,Net-(D23-Pad2)*%
X148550000Y-125600000D03*
%TO.P,D23,4*%
%TO.N,Net-(D22-Pad2)*%
X153450000Y-122400000D03*
%TO.P,D23,3*%
%TO.N,GND*%
X153450000Y-125600000D03*
%TD*%
%TO.P,D28,1*%
%TO.N,+5V*%
X144550000Y-130400000D03*
%TO.P,D28,2*%
%TO.N,Net-(D28-Pad2)*%
X144550000Y-133600000D03*
%TO.P,D28,4*%
%TO.N,Net-(D27-Pad2)*%
X149450000Y-130400000D03*
%TO.P,D28,3*%
%TO.N,GND*%
X149450000Y-133600000D03*
%TD*%
%TO.P,D18,1*%
%TO.N,+5V*%
X144550000Y-114400000D03*
%TO.P,D18,2*%
%TO.N,Net-(D18-Pad2)*%
X144550000Y-117600000D03*
%TO.P,D18,4*%
%TO.N,Net-(D17-Pad2)*%
X149450000Y-114400000D03*
%TO.P,D18,3*%
%TO.N,GND*%
X149450000Y-117600000D03*
%TD*%
%TO.P,D11,1*%
%TO.N,+5V*%
X144550000Y-98400000D03*
%TO.P,D11,2*%
%TO.N,Net-(D11-Pad2)*%
X144550000Y-101600000D03*
%TO.P,D11,4*%
%TO.N,Net-(D10-Pad2)*%
X149450000Y-98400000D03*
%TO.P,D11,3*%
%TO.N,GND*%
X149450000Y-101600000D03*
%TD*%
%TO.P,D14,1*%
%TO.N,+5V*%
X140550000Y-106400000D03*
%TO.P,D14,2*%
%TO.N,Net-(D14-Pad2)*%
X140550000Y-109600000D03*
%TO.P,D14,4*%
%TO.N,Net-(D13-Pad2)*%
X145450000Y-106400000D03*
%TO.P,D14,3*%
%TO.N,GND*%
X145450000Y-109600000D03*
%TD*%
%TO.P,D22,1*%
%TO.N,+5V*%
X140550000Y-122400000D03*
%TO.P,D22,2*%
%TO.N,Net-(D22-Pad2)*%
X140550000Y-125600000D03*
%TO.P,D22,4*%
%TO.N,Net-(D21-Pad2)*%
X145450000Y-122400000D03*
%TO.P,D22,3*%
%TO.N,GND*%
X145450000Y-125600000D03*
%TD*%
%TO.P,D6,1*%
%TO.N,+5V*%
X140550000Y-90400000D03*
%TO.P,D6,2*%
%TO.N,Net-(D6-Pad2)*%
X140550000Y-93600000D03*
%TO.P,D6,4*%
%TO.N,Net-(D5-Pad2)*%
X145450000Y-90400000D03*
%TO.P,D6,3*%
%TO.N,GND*%
X145450000Y-93600000D03*
%TD*%
%TO.P,D27,1*%
%TO.N,+5V*%
X136550000Y-130400000D03*
%TO.P,D27,2*%
%TO.N,Net-(D27-Pad2)*%
X136550000Y-133600000D03*
%TO.P,D27,4*%
%TO.N,Net-(D26-Pad2)*%
X141450000Y-130400000D03*
%TO.P,D27,3*%
%TO.N,GND*%
X141450000Y-133600000D03*
%TD*%
%TO.P,D17,1*%
%TO.N,+5V*%
X136550000Y-114400000D03*
%TO.P,D17,2*%
%TO.N,Net-(D17-Pad2)*%
X136550000Y-117600000D03*
%TO.P,D17,4*%
%TO.N,Net-(D16-Pad2)*%
X141450000Y-114400000D03*
%TO.P,D17,3*%
%TO.N,GND*%
X141450000Y-117600000D03*
%TD*%
%TO.P,D10,1*%
%TO.N,+5V*%
X136550000Y-98400000D03*
%TO.P,D10,2*%
%TO.N,Net-(D10-Pad2)*%
X136550000Y-101600000D03*
%TO.P,D10,4*%
%TO.N,Net-(D10-Pad4)*%
X141450000Y-98400000D03*
%TO.P,D10,3*%
%TO.N,GND*%
X141450000Y-101600000D03*
%TD*%
%TO.P,D3,1*%
%TO.N,+5V*%
X136550000Y-82400000D03*
%TO.P,D3,2*%
%TO.N,Net-(D3-Pad2)*%
X136550000Y-85600000D03*
%TO.P,D3,4*%
%TO.N,Net-(D2-Pad2)*%
X141450000Y-82400000D03*
%TO.P,D3,3*%
%TO.N,GND*%
X141450000Y-85600000D03*
%TD*%
%TO.P,D21,1*%
%TO.N,+5V*%
X132550000Y-122400000D03*
%TO.P,D21,2*%
%TO.N,Net-(D21-Pad2)*%
X132550000Y-125600000D03*
%TO.P,D21,4*%
%TO.N,Net-(D20-Pad2)*%
X137450000Y-122400000D03*
%TO.P,D21,3*%
%TO.N,GND*%
X137450000Y-125600000D03*
%TD*%
%TO.P,D13,1*%
%TO.N,+5V*%
X132550000Y-106400000D03*
%TO.P,D13,2*%
%TO.N,Net-(D13-Pad2)*%
X132550000Y-109600000D03*
%TO.P,D13,4*%
%TO.N,Net-(D12-Pad2)*%
X137450000Y-106400000D03*
%TO.P,D13,3*%
%TO.N,GND*%
X137450000Y-109600000D03*
%TD*%
%TO.P,D5,1*%
%TO.N,+5V*%
X132550000Y-90400000D03*
%TO.P,D5,2*%
%TO.N,Net-(D5-Pad2)*%
X132550000Y-93600000D03*
%TO.P,D5,4*%
%TO.N,Net-(D4-Pad2)*%
X137450000Y-90400000D03*
%TO.P,D5,3*%
%TO.N,GND*%
X137450000Y-93600000D03*
%TD*%
%TO.P,D1,1*%
%TO.N,+5V*%
X132550000Y-74400000D03*
%TO.P,D1,2*%
%TO.N,Net-(D1-Pad2)*%
X132550000Y-77600000D03*
%TO.P,D1,4*%
%TO.N,/LED_CHAIN*%
X137450000Y-74400000D03*
%TO.P,D1,3*%
%TO.N,GND*%
X137450000Y-77600000D03*
%TD*%
%TO.P,D26,1*%
%TO.N,+5V*%
X128550000Y-130400000D03*
%TO.P,D26,2*%
%TO.N,Net-(D26-Pad2)*%
X128550000Y-133600000D03*
%TO.P,D26,4*%
%TO.N,Net-(D25-Pad2)*%
X133450000Y-130400000D03*
%TO.P,D26,3*%
%TO.N,GND*%
X133450000Y-133600000D03*
%TD*%
%TO.P,D16,1*%
%TO.N,+5V*%
X128550000Y-114400000D03*
%TO.P,D16,2*%
%TO.N,Net-(D16-Pad2)*%
X128550000Y-117600000D03*
%TO.P,D16,4*%
%TO.N,Net-(D15-Pad2)*%
X133450000Y-114400000D03*
%TO.P,D16,3*%
%TO.N,GND*%
X133450000Y-117600000D03*
%TD*%
%TO.P,D9,1*%
%TO.N,+5V*%
X128550000Y-98400000D03*
%TO.P,D9,2*%
%TO.N,Net-(D10-Pad4)*%
X128550000Y-101600000D03*
%TO.P,D9,4*%
%TO.N,Net-(D8-Pad2)*%
X133450000Y-98400000D03*
%TO.P,D9,3*%
%TO.N,GND*%
X133450000Y-101600000D03*
%TD*%
%TO.P,D2,1*%
%TO.N,+5V*%
X128550000Y-82400000D03*
%TO.P,D2,2*%
%TO.N,Net-(D2-Pad2)*%
X128550000Y-85600000D03*
%TO.P,D2,4*%
%TO.N,Net-(D1-Pad2)*%
X133450000Y-82400000D03*
%TO.P,D2,3*%
%TO.N,GND*%
X133450000Y-85600000D03*
%TD*%
%TO.P,D20,1*%
%TO.N,+5V*%
X124550000Y-122400000D03*
%TO.P,D20,2*%
%TO.N,Net-(D20-Pad2)*%
X124550000Y-125600000D03*
%TO.P,D20,4*%
%TO.N,Net-(D19-Pad2)*%
X129450000Y-122400000D03*
%TO.P,D20,3*%
%TO.N,GND*%
X129450000Y-125600000D03*
%TD*%
%TO.P,D12,1*%
%TO.N,+5V*%
X124550000Y-106400000D03*
%TO.P,D12,2*%
%TO.N,Net-(D12-Pad2)*%
X124550000Y-109600000D03*
%TO.P,D12,4*%
%TO.N,Net-(D11-Pad2)*%
X129450000Y-106400000D03*
%TO.P,D12,3*%
%TO.N,GND*%
X129450000Y-109600000D03*
%TD*%
%TO.P,D4,1*%
%TO.N,+5V*%
X124550000Y-90400000D03*
%TO.P,D4,2*%
%TO.N,Net-(D4-Pad2)*%
X124550000Y-93600000D03*
%TO.P,D4,4*%
%TO.N,Net-(D3-Pad2)*%
X129450000Y-90400000D03*
%TO.P,D4,3*%
%TO.N,GND*%
X129450000Y-93600000D03*
%TD*%
%TO.P,D15,1*%
%TO.N,+5V*%
X120550000Y-114400000D03*
%TO.P,D15,2*%
%TO.N,Net-(D15-Pad2)*%
X120550000Y-117600000D03*
%TO.P,D15,4*%
%TO.N,Net-(D14-Pad2)*%
X125450000Y-114400000D03*
%TO.P,D15,3*%
%TO.N,GND*%
X125450000Y-117600000D03*
%TD*%
%TO.P,D25,1*%
%TO.N,+5V*%
X120550000Y-130400000D03*
%TO.P,D25,2*%
%TO.N,Net-(D25-Pad2)*%
X120550000Y-133600000D03*
%TO.P,D25,4*%
%TO.N,Net-(D24-Pad2)*%
X125450000Y-130400000D03*
%TO.P,D25,3*%
%TO.N,GND*%
X125450000Y-133600000D03*
%TD*%
%TO.P,D8,1*%
%TO.N,+5V*%
X120550000Y-98400000D03*
%TO.P,D8,2*%
%TO.N,Net-(D8-Pad2)*%
X120550000Y-101600000D03*
%TO.P,D8,4*%
%TO.N,Net-(D6-Pad2)*%
X125450000Y-98400000D03*
%TO.P,D8,3*%
%TO.N,GND*%
X125450000Y-101600000D03*
%TD*%
%TO.P,D19,1*%
%TO.N,+5V*%
X116550000Y-122400000D03*
%TO.P,D19,2*%
%TO.N,Net-(D19-Pad2)*%
X116550000Y-125600000D03*
%TO.P,D19,4*%
%TO.N,Net-(D18-Pad2)*%
X121450000Y-122400000D03*
%TO.P,D19,3*%
%TO.N,GND*%
X121450000Y-125600000D03*
%TD*%
%TO.P,D24,1*%
%TO.N,+5V*%
X112550000Y-130400000D03*
%TO.P,D24,2*%
%TO.N,Net-(D24-Pad2)*%
X112550000Y-133600000D03*
%TO.P,D24,4*%
%TO.N,Net-(D23-Pad2)*%
X117450000Y-130400000D03*
%TO.P,D24,3*%
%TO.N,GND*%
X117450000Y-133600000D03*
%TD*%
%TO.P,D7,2*%
%TO.N,Net-(D7-Pad2)*%
%TA.AperFunction,SMDPad,CuDef*%
G36*
G01*
X103650000Y-143656250D02*
X103650000Y-142743750D01*
G75*
G02*
X103893750Y-142500000I243750J0D01*
G01*
X104381250Y-142500000D01*
G75*
G02*
X104625000Y-142743750I0J-243750D01*
G01*
X104625000Y-143656250D01*
G75*
G02*
X104381250Y-143900000I-243750J0D01*
G01*
X103893750Y-143900000D01*
G75*
G02*
X103650000Y-143656250I0J243750D01*
G01*
G37*
%TD.AperFunction*%
%TO.P,D7,1*%
%TO.N,Net-(D7-Pad1)*%
%TA.AperFunction,SMDPad,CuDef*%
G36*
G01*
X101775000Y-143656250D02*
X101775000Y-142743750D01*
G75*
G02*
X102018750Y-142500000I243750J0D01*
G01*
X102506250Y-142500000D01*
G75*
G02*
X102750000Y-142743750I0J-243750D01*
G01*
X102750000Y-143656250D01*
G75*
G02*
X102506250Y-143900000I-243750J0D01*
G01*
X102018750Y-143900000D01*
G75*
G02*
X101775000Y-143656250I0J243750D01*
G01*
G37*
%TD.AperFunction*%
%TD*%
%TO.P,C8,2*%
%TO.N,GND*%
%TA.AperFunction,SMDPad,CuDef*%
G36*
G01*
X114550000Y-136856250D02*
X114550000Y-136343750D01*
G75*
G02*
X114768750Y-136125000I218750J0D01*
G01*
X115206250Y-136125000D01*
G75*
G02*
X115425000Y-136343750I0J-218750D01*
G01*
X115425000Y-136856250D01*
G75*
G02*
X115206250Y-137075000I-218750J0D01*
G01*
X114768750Y-137075000D01*
G75*
G02*
X114550000Y-136856250I0J218750D01*
G01*
G37*
%TD.AperFunction*%
%TO.P,C8,1*%
%TO.N,+3V3*%
%TA.AperFunction,SMDPad,CuDef*%
G36*
G01*
X112975000Y-136856250D02*
X112975000Y-136343750D01*
G75*
G02*
X113193750Y-136125000I218750J0D01*
G01*
X113631250Y-136125000D01*
G75*
G02*
X113850000Y-136343750I0J-218750D01*
G01*
X113850000Y-136856250D01*
G75*
G02*
X113631250Y-137075000I-218750J0D01*
G01*
X113193750Y-137075000D01*
G75*
G02*
X112975000Y-136856250I0J218750D01*
G01*
G37*
%TD.AperFunction*%
%TD*%
%TO.P,C7,2*%
%TO.N,GND*%
%TA.AperFunction,SMDPad,CuDef*%
G36*
G01*
X119850000Y-151843750D02*
X119850000Y-152356250D01*
G75*
G02*
X119631250Y-152575000I-218750J0D01*
G01*
X119193750Y-152575000D01*
G75*
G02*
X118975000Y-152356250I0J218750D01*
G01*
X118975000Y-151843750D01*
G75*
G02*
X119193750Y-151625000I218750J0D01*
G01*
X119631250Y-151625000D01*
G75*
G02*
X119850000Y-151843750I0J-218750D01*
G01*
G37*
%TD.AperFunction*%
%TO.P,C7,1*%
%TO.N,+3V3*%
%TA.AperFunction,SMDPad,CuDef*%
G36*
G01*
X121425000Y-151843750D02*
X121425000Y-152356250D01*
G75*
G02*
X121206250Y-152575000I-218750J0D01*
G01*
X120768750Y-152575000D01*
G75*
G02*
X120550000Y-152356250I0J218750D01*
G01*
X120550000Y-151843750D01*
G75*
G02*
X120768750Y-151625000I218750J0D01*
G01*
X121206250Y-151625000D01*
G75*
G02*
X121425000Y-151843750I0J-218750D01*
G01*
G37*
%TD.AperFunction*%
%TD*%
%TO.P,C6,2*%
%TO.N,GND*%
%TA.AperFunction,SMDPad,CuDef*%
G36*
G01*
X123843750Y-141150000D02*
X124356250Y-141150000D01*
G75*
G02*
X124575000Y-141368750I0J-218750D01*
G01*
X124575000Y-141806250D01*
G75*
G02*
X124356250Y-142025000I-218750J0D01*
G01*
X123843750Y-142025000D01*
G75*
G02*
X123625000Y-141806250I0J218750D01*
G01*
X123625000Y-141368750D01*
G75*
G02*
X123843750Y-141150000I218750J0D01*
G01*
G37*
%TD.AperFunction*%
%TO.P,C6,1*%
%TO.N,+3V3*%
%TA.AperFunction,SMDPad,CuDef*%
G36*
G01*
X123843750Y-139575000D02*
X124356250Y-139575000D01*
G75*
G02*
X124575000Y-139793750I0J-218750D01*
G01*
X124575000Y-140231250D01*
G75*
G02*
X124356250Y-140450000I-218750J0D01*
G01*
X123843750Y-140450000D01*
G75*
G02*
X123625000Y-140231250I0J218750D01*
G01*
X123625000Y-139793750D01*
G75*
G02*
X123843750Y-139575000I218750J0D01*
G01*
G37*
%TD.AperFunction*%
%TD*%
%TO.P,C10,2*%
%TO.N,Net-(C10-Pad2)*%
%TA.AperFunction,SMDPad,CuDef*%
G36*
G01*
X108050000Y-146956250D02*
X108050000Y-146043750D01*
G75*
G02*
X108293750Y-145800000I243750J0D01*
G01*
X108781250Y-145800000D01*
G75*
G02*
X109025000Y-146043750I0J-243750D01*
G01*
X109025000Y-146956250D01*
G75*
G02*
X108781250Y-147200000I-243750J0D01*
G01*
X108293750Y-147200000D01*
G75*
G02*
X108050000Y-146956250I0J243750D01*
G01*
G37*
%TD.AperFunction*%
%TO.P,C10,1*%
%TO.N,GND*%
%TA.AperFunction,SMDPad,CuDef*%
G36*
G01*
X106175000Y-146956250D02*
X106175000Y-146043750D01*
G75*
G02*
X106418750Y-145800000I243750J0D01*
G01*
X106906250Y-145800000D01*
G75*
G02*
X107150000Y-146043750I0J-243750D01*
G01*
X107150000Y-146956250D01*
G75*
G02*
X106906250Y-147200000I-243750J0D01*
G01*
X106418750Y-147200000D01*
G75*
G02*
X106175000Y-146956250I0J243750D01*
G01*
G37*
%TD.AperFunction*%
%TD*%
%TO.P,C5,2*%
%TO.N,GND*%
%TA.AperFunction,SMDPad,CuDef*%
G36*
G01*
X121250000Y-136856250D02*
X121250000Y-136343750D01*
G75*
G02*
X121468750Y-136125000I218750J0D01*
G01*
X121906250Y-136125000D01*
G75*
G02*
X122125000Y-136343750I0J-218750D01*
G01*
X122125000Y-136856250D01*
G75*
G02*
X121906250Y-137075000I-218750J0D01*
G01*
X121468750Y-137075000D01*
G75*
G02*
X121250000Y-136856250I0J218750D01*
G01*
G37*
%TD.AperFunction*%
%TO.P,C5,1*%
%TO.N,+3V3*%
%TA.AperFunction,SMDPad,CuDef*%
G36*
G01*
X119675000Y-136856250D02*
X119675000Y-136343750D01*
G75*
G02*
X119893750Y-136125000I218750J0D01*
G01*
X120331250Y-136125000D01*
G75*
G02*
X120550000Y-136343750I0J-218750D01*
G01*
X120550000Y-136856250D01*
G75*
G02*
X120331250Y-137075000I-218750J0D01*
G01*
X119893750Y-137075000D01*
G75*
G02*
X119675000Y-136856250I0J218750D01*
G01*
G37*
%TD.AperFunction*%
%TD*%
%TO.P,C4,2*%
%TO.N,GND*%
%TA.AperFunction,SMDPad,CuDef*%
G36*
G01*
X108656250Y-141050000D02*
X108143750Y-141050000D01*
G75*
G02*
X107925000Y-140831250I0J218750D01*
G01*
X107925000Y-140393750D01*
G75*
G02*
X108143750Y-140175000I218750J0D01*
G01*
X108656250Y-140175000D01*
G75*
G02*
X108875000Y-140393750I0J-218750D01*
G01*
X108875000Y-140831250D01*
G75*
G02*
X108656250Y-141050000I-218750J0D01*
G01*
G37*
%TD.AperFunction*%
%TO.P,C4,1*%
%TO.N,+3V3*%
%TA.AperFunction,SMDPad,CuDef*%
G36*
G01*
X108656250Y-142625000D02*
X108143750Y-142625000D01*
G75*
G02*
X107925000Y-142406250I0J218750D01*
G01*
X107925000Y-141968750D01*
G75*
G02*
X108143750Y-141750000I218750J0D01*
G01*
X108656250Y-141750000D01*
G75*
G02*
X108875000Y-141968750I0J-218750D01*
G01*
X108875000Y-142406250D01*
G75*
G02*
X108656250Y-142625000I-218750J0D01*
G01*
G37*
%TD.AperFunction*%
%TD*%
%TO.P,C3,2*%
%TO.N,GND*%
%TA.AperFunction,SMDPad,CuDef*%
G36*
G01*
X107450000Y-148243750D02*
X107450000Y-148756250D01*
G75*
G02*
X107231250Y-148975000I-218750J0D01*
G01*
X106793750Y-148975000D01*
G75*
G02*
X106575000Y-148756250I0J218750D01*
G01*
X106575000Y-148243750D01*
G75*
G02*
X106793750Y-148025000I218750J0D01*
G01*
X107231250Y-148025000D01*
G75*
G02*
X107450000Y-148243750I0J-218750D01*
G01*
G37*
%TD.AperFunction*%
%TO.P,C3,1*%
%TO.N,+3V3*%
%TA.AperFunction,SMDPad,CuDef*%
G36*
G01*
X109025000Y-148243750D02*
X109025000Y-148756250D01*
G75*
G02*
X108806250Y-148975000I-218750J0D01*
G01*
X108368750Y-148975000D01*
G75*
G02*
X108150000Y-148756250I0J218750D01*
G01*
X108150000Y-148243750D01*
G75*
G02*
X108368750Y-148025000I218750J0D01*
G01*
X108806250Y-148025000D01*
G75*
G02*
X109025000Y-148243750I0J-218750D01*
G01*
G37*
%TD.AperFunction*%
%TD*%
%TO.P,C2,2*%
%TO.N,GND*%
%TA.AperFunction,SMDPad,CuDef*%
G36*
G01*
X133856250Y-149550000D02*
X132943750Y-149550000D01*
G75*
G02*
X132700000Y-149306250I0J243750D01*
G01*
X132700000Y-148818750D01*
G75*
G02*
X132943750Y-148575000I243750J0D01*
G01*
X133856250Y-148575000D01*
G75*
G02*
X134100000Y-148818750I0J-243750D01*
G01*
X134100000Y-149306250D01*
G75*
G02*
X133856250Y-149550000I-243750J0D01*
G01*
G37*
%TD.AperFunction*%
%TO.P,C2,1*%
%TO.N,+3V3*%
%TA.AperFunction,SMDPad,CuDef*%
G36*
G01*
X133856250Y-151425000D02*
X132943750Y-151425000D01*
G75*
G02*
X132700000Y-151181250I0J243750D01*
G01*
X132700000Y-150693750D01*
G75*
G02*
X132943750Y-150450000I243750J0D01*
G01*
X133856250Y-150450000D01*
G75*
G02*
X134100000Y-150693750I0J-243750D01*
G01*
X134100000Y-151181250D01*
G75*
G02*
X133856250Y-151425000I-243750J0D01*
G01*
G37*
%TD.AperFunction*%
%TD*%
%TO.P,C1,2*%
%TO.N,GND*%
%TA.AperFunction,SMDPad,CuDef*%
G36*
G01*
X131456250Y-149550000D02*
X130543750Y-149550000D01*
G75*
G02*
X130300000Y-149306250I0J243750D01*
G01*
X130300000Y-148818750D01*
G75*
G02*
X130543750Y-148575000I243750J0D01*
G01*
X131456250Y-148575000D01*
G75*
G02*
X131700000Y-148818750I0J-243750D01*
G01*
X131700000Y-149306250D01*
G75*
G02*
X131456250Y-149550000I-243750J0D01*
G01*
G37*
%TD.AperFunction*%
%TO.P,C1,1*%
%TO.N,+5V*%
%TA.AperFunction,SMDPad,CuDef*%
G36*
G01*
X131456250Y-151425000D02*
X130543750Y-151425000D01*
G75*
G02*
X130300000Y-151181250I0J243750D01*
G01*
X130300000Y-150693750D01*
G75*
G02*
X130543750Y-150450000I243750J0D01*
G01*
X131456250Y-150450000D01*
G75*
G02*
X131700000Y-150693750I0J-243750D01*
G01*
X131700000Y-151181250D01*
G75*
G02*
X131456250Y-151425000I-243750J0D01*
G01*
G37*
%TD.AperFunction*%
%TD*%
D22*
%TO.N,+3V3*%
X122100000Y-153500000D03*
%TO.N,+5V*%
X137000000Y-143000000D03*
X137000000Y-144000000D03*
X137000000Y-145000000D03*
%TO.N,GND*%
X105400000Y-146400000D03*
X105800000Y-148600000D03*
X108400000Y-139300000D03*
X133500000Y-132400000D03*
X149500000Y-132400000D03*
X157500000Y-132400000D03*
X117500000Y-132500000D03*
X125500000Y-132400000D03*
X125500000Y-116300000D03*
X140100000Y-117600000D03*
X148000000Y-117600000D03*
X135900000Y-109600000D03*
X144000000Y-109600000D03*
X125500000Y-100300000D03*
X131800000Y-101600000D03*
X140000000Y-101600000D03*
X148100000Y-101600000D03*
X128000000Y-93600000D03*
X136100000Y-93600000D03*
X144100000Y-93600000D03*
X133500000Y-84400000D03*
X141500000Y-84400000D03*
X139000000Y-77600000D03*
X153500000Y-124200000D03*
X144000000Y-125700000D03*
X136000000Y-125700000D03*
X128000000Y-125600000D03*
X120000000Y-125600000D03*
X131660000Y-140040000D03*
X135200000Y-152300000D03*
X136300000Y-152300000D03*
X137400000Y-152300000D03*
X137500000Y-153500000D03*
X137500000Y-154900000D03*
X119400000Y-153300000D03*
X131000000Y-147900000D03*
X133400000Y-148000002D03*
X141450012Y-132449988D03*
X133500000Y-116525010D03*
X129449990Y-108450000D03*
X116200002Y-136600000D03*
X123200000Y-136600000D03*
X127300000Y-143400000D03*
X102800000Y-147900000D03*
X105700000Y-144400000D03*
X125300000Y-141599996D03*
X157800000Y-165100000D03*
X160400000Y-168500000D03*
X158100000Y-160700000D03*
%TO.N,+5V*%
X140000000Y-143000000D03*
X140000000Y-144000000D03*
X140000000Y-145000000D03*
X165000000Y-128000000D03*
X165100000Y-120000000D03*
X165200000Y-112500000D03*
X165100000Y-104200000D03*
X165300000Y-88600000D03*
X105200000Y-90400000D03*
X105200000Y-98300000D03*
X105300000Y-114400000D03*
X105300000Y-122300000D03*
X105400000Y-130600000D03*
X166900000Y-128000000D03*
X167000000Y-120000000D03*
X166900000Y-112500000D03*
X166400000Y-104200000D03*
X164000000Y-143000000D03*
X166000000Y-143000000D03*
X166000000Y-144000000D03*
X164000000Y-144000000D03*
X164000000Y-145000000D03*
X166000000Y-145000000D03*
X165000000Y-96400000D03*
X166600000Y-96400000D03*
X105600000Y-106400000D03*
X135737777Y-73713097D03*
X128600000Y-74174990D03*
%TO.N,+3V3*%
X108300000Y-136400000D03*
X108300000Y-138025000D03*
X122000000Y-156000000D03*
%TO.N,/~RST*%
X129400000Y-139100000D03*
X127598959Y-139098959D03*
%TO.N,/SWCLK*%
X125300000Y-148100000D03*
X123500000Y-147975000D03*
%TO.N,/i2c_SDA*%
X142800000Y-164500000D03*
X106900000Y-162599998D03*
X106900000Y-160600000D03*
X138000000Y-165200000D03*
%TO.N,/i2c_SCL*%
X138300000Y-163499994D03*
X109300000Y-162400002D03*
X109300000Y-160499989D03*
X142600000Y-162700000D03*
%TD*%
D23*
%TO.N,GND*%
X123562500Y-141050000D02*
X124100000Y-141587500D01*
X121875000Y-141050000D02*
X123562500Y-141050000D01*
X108837500Y-141050000D02*
X110525000Y-141050000D01*
X108400000Y-140612500D02*
X108837500Y-141050000D01*
D24*
X107012500Y-148025000D02*
X107437500Y-147600000D01*
X107012500Y-148500000D02*
X107012500Y-148025000D01*
X107437500Y-147600000D02*
X107956374Y-147600000D01*
D23*
X108150000Y-147550000D02*
X110525000Y-147550000D01*
X108100000Y-147600000D02*
X108150000Y-147550000D01*
X107956374Y-147600000D02*
X108100000Y-147600000D01*
D24*
X106912500Y-148600000D02*
X107012500Y-148500000D01*
X105800000Y-148600000D02*
X106912500Y-148600000D01*
X108400000Y-140612500D02*
X108400000Y-139300000D01*
X125450000Y-132450000D02*
X125500000Y-132400000D01*
X125450000Y-133600000D02*
X125450000Y-132450000D01*
X133450000Y-132450000D02*
X133500000Y-132400000D01*
X133450000Y-133600000D02*
X133450000Y-132450000D01*
X149450000Y-132450000D02*
X149500000Y-132400000D01*
X149450000Y-133600000D02*
X149450000Y-132450000D01*
X157450000Y-132450000D02*
X157500000Y-132400000D01*
X157450000Y-133600000D02*
X157450000Y-132450000D01*
X117450000Y-132550000D02*
X117500000Y-132500000D01*
X117450000Y-133600000D02*
X117450000Y-132550000D01*
X149450000Y-117600000D02*
X148000000Y-117600000D01*
X141450000Y-117600000D02*
X140100000Y-117600000D01*
X125450000Y-116350000D02*
X125500000Y-116300000D01*
X125450000Y-117600000D02*
X125450000Y-116350000D01*
X144000000Y-109600000D02*
X145450000Y-109600000D01*
X135900000Y-109600000D02*
X137450000Y-109600000D01*
X149450000Y-101600000D02*
X148100000Y-101600000D01*
X141450000Y-101600000D02*
X140000000Y-101600000D01*
X133450000Y-101600000D02*
X131800000Y-101600000D01*
X125450000Y-100350000D02*
X125500000Y-100300000D01*
X125450000Y-101600000D02*
X125450000Y-100350000D01*
X144100000Y-93600000D02*
X145450000Y-93600000D01*
X136100000Y-93600000D02*
X137450000Y-93600000D01*
X128000000Y-93600000D02*
X129450000Y-93600000D01*
X141450000Y-84450000D02*
X141500000Y-84400000D01*
X141450000Y-85600000D02*
X141450000Y-84450000D01*
X133450000Y-84450000D02*
X133500000Y-84400000D01*
X133450000Y-85600000D02*
X133450000Y-84450000D01*
X137450000Y-77600000D02*
X139000000Y-77600000D01*
X120000000Y-125600000D02*
X121450000Y-125600000D01*
X128000000Y-125600000D02*
X129450000Y-125600000D01*
X137350000Y-125700000D02*
X137450000Y-125600000D01*
X136000000Y-125700000D02*
X137350000Y-125700000D01*
X145350000Y-125700000D02*
X145450000Y-125600000D01*
X144000000Y-125700000D02*
X145350000Y-125700000D01*
X153450000Y-124250000D02*
X153500000Y-124200000D01*
X153450000Y-125600000D02*
X153450000Y-124250000D01*
X131660000Y-141665000D02*
X131660000Y-140040000D01*
X119400000Y-152112500D02*
X119412500Y-152100000D01*
X119400000Y-153300000D02*
X119400000Y-152112500D01*
D23*
X119450000Y-152062500D02*
X119412500Y-152100000D01*
X119450000Y-149975000D02*
X119450000Y-152062500D01*
D24*
X131000000Y-149062500D02*
X131000000Y-147900000D01*
X133400000Y-149062500D02*
X133400000Y-148000002D01*
X141450000Y-133600000D02*
X141450000Y-132450000D01*
X141450000Y-132450000D02*
X141450012Y-132449988D01*
X133450000Y-117600000D02*
X133450000Y-116575010D01*
X133450000Y-116575010D02*
X133500000Y-116525010D01*
X129450000Y-109600000D02*
X129450000Y-108450010D01*
X129450000Y-108450010D02*
X129449990Y-108450000D01*
X116200002Y-136600000D02*
X114987500Y-136600000D01*
D23*
X114450000Y-137137500D02*
X114987500Y-136600000D01*
X114450000Y-138625000D02*
X114450000Y-137137500D01*
D24*
X123200000Y-136600000D02*
X121687500Y-136600000D01*
X125987500Y-143400000D02*
X127300000Y-143400000D01*
X102800000Y-147187500D02*
X103287500Y-146700000D01*
X102800000Y-147900000D02*
X102800000Y-147187500D01*
X105500000Y-146500000D02*
X105400000Y-146400000D01*
X106662500Y-146500000D02*
X105500000Y-146500000D01*
X106712500Y-144400000D02*
X106912500Y-144600000D01*
X105700000Y-144400000D02*
X106712500Y-144400000D01*
X124100000Y-141587500D02*
X125287504Y-141587500D01*
X125287504Y-141587500D02*
X125300000Y-141599996D01*
X157835000Y-165065000D02*
X157800000Y-165100000D01*
X157835000Y-163025000D02*
X157835000Y-165065000D01*
X159105000Y-164795000D02*
X159105000Y-163025000D01*
X158800000Y-165100000D02*
X159105000Y-164795000D01*
X157800000Y-165100000D02*
X158800000Y-165100000D01*
X157100000Y-165100000D02*
X157800000Y-165100000D01*
X156565000Y-164565000D02*
X157100000Y-165100000D01*
X156565000Y-163025000D02*
X156565000Y-164565000D01*
X159875000Y-167975000D02*
X160400000Y-168500000D01*
X159105000Y-167975000D02*
X159875000Y-167975000D01*
X158000000Y-160800000D02*
X158100000Y-160700000D01*
X156887500Y-160800000D02*
X158000000Y-160800000D01*
%TO.N,+5V*%
X131000000Y-154350000D02*
X130900000Y-154450000D01*
D25*
X131000000Y-150937500D02*
X131000000Y-154350000D01*
X119950000Y-154700000D02*
X124800000Y-154700000D01*
X124800000Y-154700000D02*
X128562500Y-150937500D01*
X129162500Y-150937500D02*
X131000000Y-150937500D01*
D24*
X128562500Y-150937500D02*
X129162500Y-150937500D01*
X134900000Y-74400000D02*
X132550000Y-74400000D01*
X128550000Y-98400000D02*
X128550000Y-97050000D01*
X128550000Y-97050000D02*
X129200000Y-96400000D01*
X129200000Y-96400000D02*
X135800000Y-96400000D01*
X136550000Y-97150000D02*
X136550000Y-98400000D01*
X135800000Y-96400000D02*
X136550000Y-97150000D01*
X144300000Y-98150000D02*
X144550000Y-98400000D01*
X144300000Y-96400000D02*
X144300000Y-98150000D01*
X140600000Y-90350000D02*
X140550000Y-90400000D01*
X133100000Y-88500000D02*
X140200000Y-88500000D01*
X140600000Y-88900000D02*
X140600000Y-90350000D01*
X132550000Y-89050000D02*
X133100000Y-88500000D01*
X140200000Y-88500000D02*
X140600000Y-88900000D01*
X132550000Y-90400000D02*
X132550000Y-89050000D01*
X140600000Y-106350000D02*
X140550000Y-106400000D01*
X140600000Y-104900000D02*
X140600000Y-106350000D01*
X139800000Y-104100000D02*
X140600000Y-104900000D01*
X132550000Y-104450000D02*
X132900000Y-104100000D01*
X132550000Y-106400000D02*
X132550000Y-104450000D01*
X144500000Y-113300000D02*
X144500000Y-114350000D01*
X143600000Y-112400000D02*
X144500000Y-113300000D01*
X128550000Y-112750000D02*
X128900000Y-112400000D01*
X144500000Y-114350000D02*
X144550000Y-114400000D01*
X128550000Y-114400000D02*
X128550000Y-112750000D01*
X136550000Y-112950000D02*
X136000000Y-112400000D01*
X136550000Y-114400000D02*
X136550000Y-112950000D01*
X136000000Y-112400000D02*
X143600000Y-112400000D01*
X128900000Y-112400000D02*
X136000000Y-112400000D01*
X152550000Y-128450000D02*
X152550000Y-130400000D01*
X152000000Y-127900000D02*
X152550000Y-128450000D01*
X120550000Y-128950000D02*
X121600000Y-127900000D01*
X120550000Y-130400000D02*
X120550000Y-128950000D01*
X128550000Y-128650000D02*
X127800000Y-127900000D01*
X128550000Y-130400000D02*
X128550000Y-128650000D01*
X121600000Y-127900000D02*
X127800000Y-127900000D01*
X136550000Y-130400000D02*
X136550000Y-129250000D01*
X136550000Y-129250000D02*
X135200000Y-127900000D01*
X127800000Y-127900000D02*
X135200000Y-127900000D01*
X144550000Y-128450000D02*
X144000000Y-127900000D01*
X144550000Y-130400000D02*
X144550000Y-128450000D01*
X144000000Y-127900000D02*
X152000000Y-127900000D01*
X135200000Y-127900000D02*
X144000000Y-127900000D01*
X164900000Y-127900000D02*
X165000000Y-128000000D01*
X152000000Y-127900000D02*
X164900000Y-127900000D01*
X148500000Y-122350000D02*
X148550000Y-122400000D01*
X148500000Y-120500000D02*
X148500000Y-122350000D01*
X148000000Y-120000000D02*
X148500000Y-120500000D01*
X124550000Y-120450000D02*
X125000000Y-120000000D01*
X124550000Y-122400000D02*
X124550000Y-120450000D01*
X132550000Y-120650000D02*
X133200000Y-120000000D01*
X132550000Y-122400000D02*
X132550000Y-120650000D01*
X125000000Y-120000000D02*
X133200000Y-120000000D01*
X140550000Y-120550000D02*
X141100000Y-120000000D01*
X140550000Y-122400000D02*
X140550000Y-120550000D01*
X141100000Y-120000000D02*
X148000000Y-120000000D01*
X133200000Y-120000000D02*
X141100000Y-120000000D01*
X148000000Y-120000000D02*
X165100000Y-120000000D01*
X165100000Y-112400000D02*
X165200000Y-112500000D01*
X143600000Y-112400000D02*
X165100000Y-112400000D01*
X165000000Y-104100000D02*
X165100000Y-104200000D01*
X139400000Y-104100000D02*
X165000000Y-104100000D01*
X132900000Y-104100000D02*
X139400000Y-104100000D01*
X139400000Y-104100000D02*
X139800000Y-104100000D01*
X165200000Y-88500000D02*
X165300000Y-88600000D01*
X140200000Y-88500000D02*
X165200000Y-88500000D01*
X124550000Y-90400000D02*
X105200000Y-90400000D01*
X105300000Y-98400000D02*
X105200000Y-98300000D01*
X120550000Y-98400000D02*
X105300000Y-98400000D01*
X120550000Y-114400000D02*
X105300000Y-114400000D01*
X105400000Y-122400000D02*
X105300000Y-122300000D01*
X116550000Y-122400000D02*
X105400000Y-122400000D01*
X105600000Y-130400000D02*
X105400000Y-130600000D01*
X112550000Y-130400000D02*
X105600000Y-130400000D01*
X165000000Y-128000000D02*
X166900000Y-128000000D01*
X165100000Y-120000000D02*
X167000000Y-120000000D01*
X165200000Y-112500000D02*
X166900000Y-112500000D01*
X165100000Y-104200000D02*
X166400000Y-104200000D01*
D25*
X137000000Y-145000000D02*
X137000000Y-144000000D01*
X137000000Y-143000000D02*
X137000000Y-144000000D01*
D24*
X144000000Y-96400000D02*
X165000000Y-96400000D01*
X135800000Y-96400000D02*
X144000000Y-96400000D01*
X144000000Y-96400000D02*
X144300000Y-96400000D01*
X165000000Y-96400000D02*
X166600000Y-96400000D01*
X124550000Y-106400000D02*
X105600000Y-106400000D01*
X134900000Y-74400000D02*
X135586903Y-73713097D01*
X136249999Y-75749999D02*
X134900000Y-74400000D01*
X136249999Y-82099999D02*
X136249999Y-75749999D01*
X128550000Y-74224990D02*
X128600000Y-74174990D01*
X135586903Y-73713097D02*
X135737777Y-73713097D01*
X136550000Y-82400000D02*
X136249999Y-82099999D01*
X128550000Y-82400000D02*
X128550000Y-74224990D01*
D25*
X135400000Y-146600000D02*
X137000000Y-145000000D01*
X130471994Y-146600000D02*
X135400000Y-146600000D01*
X128562500Y-148509494D02*
X130471994Y-146600000D01*
X128562500Y-150937500D02*
X128562500Y-148509494D01*
D24*
X129162500Y-160862500D02*
X129162500Y-150937500D01*
X130849998Y-162549998D02*
X129162500Y-160862500D01*
X138708002Y-162549998D02*
X130849998Y-162549998D01*
X139450002Y-163291998D02*
X138708002Y-162549998D01*
X139450002Y-166549998D02*
X139450002Y-163291998D01*
X138400000Y-167600000D02*
X139450002Y-166549998D01*
%TO.N,+3V3*%
X120987500Y-150912490D02*
X120050010Y-149975000D01*
X120987500Y-152100000D02*
X120987500Y-150912490D01*
D23*
X124100000Y-140012500D02*
X123487500Y-140012500D01*
X122950000Y-140550000D02*
X121875000Y-140550000D01*
X123487500Y-140012500D02*
X122950000Y-140550000D01*
X119950000Y-136362500D02*
X120112500Y-136200000D01*
X119950000Y-138625000D02*
X119950000Y-136362500D01*
X109037500Y-141550000D02*
X110525000Y-141550000D01*
X108400000Y-142187500D02*
X109037500Y-141550000D01*
X108587500Y-148500000D02*
X109000000Y-148500000D01*
X109450000Y-148050000D02*
X110525000Y-148050000D01*
X109000000Y-148500000D02*
X109450000Y-148050000D01*
D24*
X133200000Y-151137500D02*
X133400000Y-150937500D01*
D25*
X133200000Y-154450000D02*
X133200000Y-151137500D01*
D24*
X133200000Y-160750000D02*
X133200000Y-154450000D01*
X140940000Y-148640000D02*
X139749990Y-147449990D01*
X132930000Y-138230000D02*
X132930000Y-141665000D01*
X132400000Y-137700000D02*
X132930000Y-138230000D01*
X128487500Y-137700000D02*
X132400000Y-137700000D01*
X128487500Y-139412500D02*
X128487500Y-137700000D01*
X127887500Y-140012500D02*
X128487500Y-139412500D01*
X124100000Y-140012500D02*
X127887500Y-140012500D01*
X139749990Y-147449990D02*
X137949990Y-147449990D01*
X128487500Y-137700000D02*
X128487500Y-135587500D01*
X121037510Y-135274990D02*
X120112500Y-136200000D01*
X128174990Y-135274990D02*
X121037510Y-135274990D01*
X128487500Y-135587500D02*
X128174990Y-135274990D01*
X116608001Y-135249999D02*
X114362501Y-135249999D01*
X116632992Y-135274990D02*
X116608001Y-135249999D01*
X121037510Y-135274990D02*
X116632992Y-135274990D01*
X107637499Y-149450001D02*
X108587500Y-148500000D01*
X108262490Y-142049990D02*
X103606384Y-142049990D01*
X108400000Y-142187500D02*
X108262490Y-142049990D01*
X114362501Y-135249999D02*
X109550001Y-135249999D01*
X108400000Y-136400000D02*
X108300000Y-136400000D01*
X109550001Y-135249999D02*
X108400000Y-136400000D01*
X103606384Y-138593616D02*
X103606384Y-142049990D01*
X104175000Y-138025000D02*
X103606384Y-138593616D01*
X108300000Y-138025000D02*
X104175000Y-138025000D01*
X122100000Y-153212500D02*
X120987500Y-152100000D01*
X122100000Y-153500000D02*
X122100000Y-153212500D01*
X136150010Y-147449990D02*
X137949990Y-147449990D01*
X134900000Y-148700000D02*
X136150010Y-147449990D01*
X134900000Y-149437500D02*
X134900000Y-148700000D01*
X133400000Y-150937500D02*
X134900000Y-149437500D01*
X138100000Y-147299980D02*
X137949990Y-147449990D01*
X138100000Y-138500000D02*
X138100000Y-147299980D01*
X137300000Y-137700000D02*
X138100000Y-138500000D01*
X132400000Y-137700000D02*
X137300000Y-137700000D01*
X122000000Y-156565685D02*
X122000000Y-156000000D01*
X122000000Y-160600000D02*
X122000000Y-156565685D01*
X121091999Y-161508001D02*
X122000000Y-160600000D01*
X106308001Y-161508001D02*
X121091999Y-161508001D01*
X105700000Y-160900000D02*
X106308001Y-161508001D01*
X105700000Y-151387500D02*
X105700000Y-160900000D01*
X107637499Y-149450001D02*
X105700000Y-151387500D01*
X147300000Y-161012500D02*
X144500000Y-161012500D01*
X141787500Y-161012500D02*
X140940000Y-161860000D01*
X144500000Y-161012500D02*
X141787500Y-161012500D01*
X140940000Y-161860000D02*
X140940000Y-148640000D01*
X140940000Y-167600000D02*
X140940000Y-161860000D01*
D23*
X113950000Y-137137500D02*
X113412500Y-136600000D01*
X113950000Y-138625000D02*
X113950000Y-137137500D01*
D24*
X113412500Y-136200000D02*
X114362501Y-135249999D01*
X113412500Y-136600000D02*
X113412500Y-136200000D01*
X105391999Y-149450001D02*
X107637499Y-149450001D01*
X104300000Y-148358002D02*
X105391999Y-149450001D01*
X104300000Y-145291728D02*
X104300000Y-148358002D01*
X103200000Y-144191728D02*
X104300000Y-145291728D01*
X103200000Y-142456374D02*
X103200000Y-144191728D01*
X103606384Y-142049990D02*
X103200000Y-142456374D01*
X155295000Y-160395000D02*
X155295000Y-163025000D01*
X154400000Y-159500000D02*
X155295000Y-160395000D01*
X147700000Y-159500000D02*
X154400000Y-159500000D01*
X147300000Y-159900000D02*
X147700000Y-159500000D01*
X147300000Y-161012500D02*
X147300000Y-159900000D01*
D23*
%TO.N,Net-(D1-Pad2)*%
X132550000Y-81500000D02*
X133450000Y-82400000D01*
X132550000Y-77600000D02*
X132550000Y-81500000D01*
%TO.N,Net-(D2-Pad2)*%
X128550000Y-85600000D02*
X128900000Y-85600000D01*
X140450000Y-83400000D02*
X141450000Y-82400000D01*
X128900000Y-83400000D02*
X140450000Y-83400000D01*
X128550000Y-83750000D02*
X128900000Y-83400000D01*
X128550000Y-85600000D02*
X128550000Y-83750000D01*
%TO.N,Net-(D3-Pad2)*%
X129900000Y-89950000D02*
X129450000Y-90400000D01*
X129900000Y-87900000D02*
X129900000Y-89950000D01*
X135050000Y-87100000D02*
X130700000Y-87100000D01*
X130700000Y-87100000D02*
X129900000Y-87900000D01*
X136550000Y-85600000D02*
X135050000Y-87100000D01*
%TO.N,Net-(D26-Pad2)*%
X128550000Y-133350000D02*
X128500000Y-133300000D01*
X131724988Y-131675012D02*
X132174999Y-131225001D01*
X128550000Y-133600000D02*
X128550000Y-133350000D01*
X128500000Y-133300000D02*
X128500000Y-132300000D01*
X128500000Y-132300000D02*
X129124988Y-131675012D01*
X140624999Y-131225001D02*
X141450000Y-130400000D01*
X129124988Y-131675012D02*
X131724988Y-131675012D01*
X132174999Y-131225001D02*
X140624999Y-131225001D01*
%TO.N,Net-(D22-Pad2)*%
X152150000Y-123700000D02*
X153450000Y-122400000D01*
X140900000Y-123700000D02*
X152150000Y-123700000D01*
X140550000Y-124050000D02*
X140900000Y-123700000D01*
X140550000Y-125600000D02*
X140550000Y-124050000D01*
%TO.N,Net-(D24-Pad2)*%
X122113590Y-131400000D02*
X123113590Y-130400000D01*
X112550000Y-133600000D02*
X112550000Y-131950000D01*
X113100000Y-131400000D02*
X122113590Y-131400000D01*
X112550000Y-131950000D02*
X113100000Y-131400000D01*
X123113590Y-130400000D02*
X125450000Y-130400000D01*
%TO.N,Net-(D18-Pad2)*%
X121450000Y-120150000D02*
X121450000Y-122400000D01*
X122300000Y-119300000D02*
X121450000Y-120150000D01*
X142850000Y-119300000D02*
X122300000Y-119300000D01*
X144550000Y-117600000D02*
X142850000Y-119300000D01*
%TO.N,Net-(D25-Pad2)*%
X132100000Y-130400000D02*
X133450000Y-130400000D01*
X128738588Y-131225001D02*
X131274999Y-131225001D01*
X131274999Y-131225001D02*
X132100000Y-130400000D01*
X122750000Y-131400000D02*
X128563589Y-131400000D01*
X120550000Y-133600000D02*
X122750000Y-131400000D01*
X128563589Y-131400000D02*
X128738588Y-131225001D01*
%TO.N,Net-(D10-Pad2)*%
X149400000Y-98450000D02*
X149450000Y-98400000D01*
X149400000Y-100300000D02*
X149400000Y-98450000D01*
X149200000Y-100500000D02*
X149400000Y-100300000D01*
X137000000Y-100500000D02*
X149200000Y-100500000D01*
X136550000Y-100950000D02*
X137000000Y-100500000D01*
X136550000Y-101600000D02*
X136550000Y-100950000D01*
%TO.N,Net-(D10-Pad4)*%
X141200000Y-98650000D02*
X141450000Y-98400000D01*
X140700000Y-100000000D02*
X141200000Y-99500000D01*
X141200000Y-99500000D02*
X141200000Y-98650000D01*
X129100000Y-100000000D02*
X140700000Y-100000000D01*
X128550000Y-100550000D02*
X129100000Y-100000000D01*
X128550000Y-101600000D02*
X128550000Y-100550000D01*
%TO.N,Net-(D11-Pad2)*%
X129400000Y-104000000D02*
X129400000Y-106350000D01*
X130200000Y-103200000D02*
X129400000Y-104000000D01*
X142950000Y-103200000D02*
X130200000Y-103200000D01*
X129400000Y-106350000D02*
X129450000Y-106400000D01*
X144550000Y-101600000D02*
X142950000Y-103200000D01*
%TO.N,Net-(D12-Pad2)*%
X137450000Y-106950000D02*
X137450000Y-106400000D01*
X136700000Y-107700000D02*
X137450000Y-106950000D01*
X125000000Y-107700000D02*
X136700000Y-107700000D01*
X124550000Y-108150000D02*
X125000000Y-107700000D01*
X124550000Y-109600000D02*
X124550000Y-108150000D01*
%TO.N,Net-(D13-Pad2)*%
X132550000Y-109600000D02*
X132550000Y-108850000D01*
X133249990Y-108150010D02*
X144949990Y-108150010D01*
X132550000Y-108850000D02*
X133249990Y-108150010D01*
X145450000Y-107650000D02*
X145450000Y-106400000D01*
X144949990Y-108150010D02*
X145450000Y-107650000D01*
%TO.N,/LED_CHAIN*%
X140900000Y-74400000D02*
X141400000Y-73900000D01*
X137450000Y-74400000D02*
X140900000Y-74400000D01*
X110525000Y-145050000D02*
X111365702Y-145050000D01*
X103100000Y-135800000D02*
X103100000Y-73300000D01*
X111625010Y-140025010D02*
X111100000Y-139500000D01*
X135750000Y-72700000D02*
X137450000Y-74400000D01*
X109200000Y-137300000D02*
X104600000Y-137300000D01*
X103100000Y-73300000D02*
X103700000Y-72700000D01*
X111625010Y-144790692D02*
X111625010Y-140025010D01*
X111365702Y-145050000D02*
X111625010Y-144790692D01*
X111100000Y-139500000D02*
X110000000Y-139500000D01*
X110000000Y-139500000D02*
X109800000Y-139300000D01*
X109800000Y-139300000D02*
X109800000Y-137900000D01*
X109800000Y-137900000D02*
X109200000Y-137300000D01*
X104600000Y-137300000D02*
X103100000Y-135800000D01*
X103700000Y-72700000D02*
X135750000Y-72700000D01*
%TO.N,Net-(D15-Pad2)*%
X121500000Y-115300000D02*
X132550000Y-115300000D01*
X132550000Y-115300000D02*
X133450000Y-114400000D01*
X120550000Y-116250000D02*
X121500000Y-115300000D01*
X120550000Y-117600000D02*
X120550000Y-116250000D01*
%TO.N,Net-(D16-Pad2)*%
X140700000Y-115800000D02*
X141450000Y-115050000D01*
X129800000Y-115800000D02*
X140700000Y-115800000D01*
X128550000Y-117050000D02*
X129800000Y-115800000D01*
X141450000Y-115050000D02*
X141450000Y-114400000D01*
X128550000Y-117600000D02*
X128550000Y-117050000D01*
%TO.N,Net-(D17-Pad2)*%
X149100000Y-116400000D02*
X149450000Y-116050000D01*
X137750000Y-116400000D02*
X149100000Y-116400000D01*
X149450000Y-116050000D02*
X149450000Y-114400000D01*
X136550000Y-117600000D02*
X137750000Y-116400000D01*
%TO.N,Net-(D19-Pad2)*%
X128624999Y-123225001D02*
X129450000Y-122400000D01*
X117374999Y-123225001D02*
X128624999Y-123225001D01*
X116550000Y-124050000D02*
X117374999Y-123225001D01*
X116550000Y-125600000D02*
X116550000Y-124050000D01*
%TO.N,Net-(D20-Pad2)*%
X124550000Y-123950000D02*
X124824989Y-123675011D01*
X136174989Y-123675011D02*
X137450000Y-122400000D01*
X124824989Y-123675011D02*
X136174989Y-123675011D01*
X124550000Y-125600000D02*
X124550000Y-123950000D01*
%TO.N,Net-(D21-Pad2)*%
X144624999Y-123225001D02*
X145450000Y-122400000D01*
X137261409Y-123225001D02*
X144624999Y-123225001D01*
X136186410Y-124300000D02*
X137261409Y-123225001D01*
X133200000Y-124300000D02*
X136186410Y-124300000D01*
X132550000Y-124950000D02*
X133200000Y-124300000D01*
X132550000Y-125600000D02*
X132550000Y-124950000D01*
%TO.N,Net-(D23-Pad2)*%
X117450000Y-127650000D02*
X117450000Y-130400000D01*
X147000000Y-127100000D02*
X118000000Y-127100000D01*
X118000000Y-127100000D02*
X117450000Y-127650000D01*
X148500000Y-125600000D02*
X147000000Y-127100000D01*
X148550000Y-125600000D02*
X148500000Y-125600000D01*
%TO.N,Net-(D27-Pad2)*%
X148600000Y-130400000D02*
X149450000Y-130400000D01*
X148200000Y-130400000D02*
X148600000Y-130400000D01*
X146900000Y-131700000D02*
X148200000Y-130400000D01*
X137500000Y-131700000D02*
X146900000Y-131700000D01*
X136550000Y-132650000D02*
X137500000Y-131700000D01*
X136550000Y-133600000D02*
X136550000Y-132650000D01*
%TO.N,Net-(D29-Pad2)*%
X152550000Y-136850000D02*
X152300000Y-137100000D01*
X152550000Y-133600000D02*
X152550000Y-136850000D01*
%TO.N,/SWO*%
X122715702Y-145050000D02*
X121875000Y-145050000D01*
X130390000Y-142935000D02*
X130390000Y-143910000D01*
X130390000Y-143910000D02*
X129734298Y-144565702D01*
X129734298Y-144565702D02*
X123200000Y-144565702D01*
X123200000Y-144565702D02*
X122715702Y-145050000D01*
%TO.N,/~RST*%
X116950000Y-139515682D02*
X116950000Y-138625000D01*
X117159328Y-139725010D02*
X116950000Y-139515682D01*
X120274990Y-139725010D02*
X117159328Y-139725010D01*
X120700000Y-139300000D02*
X120274990Y-139725010D01*
X121100000Y-137700000D02*
X120700000Y-138100000D01*
X120700000Y-138100000D02*
X120700000Y-139300000D01*
X126912500Y-137700000D02*
X121100000Y-137700000D01*
X130390000Y-141665000D02*
X130390000Y-140090000D01*
X130390000Y-140090000D02*
X129400000Y-139100000D01*
X127598959Y-138386459D02*
X126912500Y-137700000D01*
X127598959Y-139098959D02*
X127598959Y-138386459D01*
%TO.N,/SWDIO*%
X119384298Y-148700000D02*
X118950000Y-149134298D01*
X124200000Y-148700000D02*
X119384298Y-148700000D01*
X124500000Y-148400000D02*
X124200000Y-148700000D01*
X125300000Y-145400000D02*
X124500000Y-146200000D01*
X129823617Y-145400000D02*
X125300000Y-145400000D01*
X131660000Y-142935000D02*
X131660000Y-143563617D01*
X131660000Y-143563617D02*
X129823617Y-145400000D01*
X124500000Y-146200000D02*
X124500000Y-148400000D01*
X118950000Y-149134298D02*
X118950000Y-149975000D01*
%TO.N,/SWCLK*%
X123425000Y-148050000D02*
X121875000Y-148050000D01*
X123500000Y-147975000D02*
X123425000Y-148050000D01*
X132930000Y-142935000D02*
X127765000Y-148100000D01*
X127765000Y-148100000D02*
X125300000Y-148100000D01*
%TO.N,/i2c_SDA*%
X145200000Y-164500000D02*
X142800000Y-164500000D01*
X146020000Y-167600000D02*
X146020000Y-165320000D01*
X106900000Y-162599998D02*
X109500002Y-165200000D01*
X109500002Y-165200000D02*
X138000000Y-165200000D01*
X145950000Y-165250000D02*
X145200000Y-164500000D01*
X146020000Y-165320000D02*
X145950000Y-165250000D01*
X145950000Y-163250000D02*
X145950000Y-165250000D01*
X146612500Y-162587500D02*
X145950000Y-163250000D01*
X147300000Y-162587500D02*
X146612500Y-162587500D01*
X110100000Y-149815702D02*
X110100000Y-157400000D01*
X113000000Y-146915702D02*
X110100000Y-149815702D01*
X110100000Y-157400000D02*
X106900000Y-160600000D01*
X113000000Y-142500000D02*
X113000000Y-146915702D01*
X113950000Y-141550000D02*
X113000000Y-142500000D01*
X121875000Y-141550000D02*
X113950000Y-141550000D01*
X147520000Y-169100000D02*
X146020000Y-167600000D01*
X154170000Y-169100000D02*
X147520000Y-169100000D01*
X155295000Y-167975000D02*
X154170000Y-169100000D01*
%TO.N,/i2c_SCL*%
X110399992Y-163499994D02*
X109300000Y-162400002D01*
X138300000Y-163499994D02*
X110399992Y-163499994D01*
X141700001Y-163599999D02*
X142600000Y-162700000D01*
X143480000Y-167600000D02*
X141700001Y-165820001D01*
X141700001Y-165820001D02*
X141700001Y-163599999D01*
X142712500Y-162587500D02*
X142600000Y-162700000D01*
X144500000Y-162587500D02*
X142712500Y-162587500D01*
X110696999Y-159102990D02*
X109300000Y-160499989D01*
X110696999Y-149855113D02*
X110696999Y-159102990D01*
X113500000Y-147052112D02*
X110696999Y-149855113D01*
X113500000Y-143200000D02*
X113500000Y-147052112D01*
X114650000Y-142050000D02*
X113500000Y-143200000D01*
X121875000Y-142050000D02*
X114650000Y-142050000D01*
X145262510Y-161824990D02*
X144500000Y-162587500D01*
X151389990Y-161824990D02*
X145262510Y-161824990D01*
X156565000Y-167000000D02*
X151389990Y-161824990D01*
X156565000Y-167975000D02*
X156565000Y-167000000D01*
D26*
%TO.N,/USB_D+*%
X117900000Y-156250000D02*
X117450000Y-156700000D01*
X117900000Y-155735922D02*
X117900000Y-156250000D01*
X118454001Y-155181921D02*
X117900000Y-155735922D01*
X118454001Y-154218079D02*
X118454001Y-155181921D01*
X118027061Y-153791139D02*
X118454001Y-154218079D01*
X118425000Y-153393200D02*
X118027061Y-153791139D01*
X118425000Y-150000000D02*
X118425000Y-153393200D01*
X118450000Y-149975000D02*
X118425000Y-150000000D01*
%TO.N,/USB_D-*%
X117450000Y-154012582D02*
X117450000Y-154700000D01*
X117975000Y-150000000D02*
X117950000Y-149975000D01*
X117975000Y-152406800D02*
X117975000Y-150000000D01*
X117955194Y-152493576D02*
X117969986Y-152451304D01*
X116887448Y-153001785D02*
X116845176Y-152986993D01*
X116736967Y-152762295D02*
X116751759Y-152720023D01*
X117975000Y-153206800D02*
X117969986Y-153162295D01*
X117899698Y-153050433D02*
X117861777Y-153026606D01*
X117450000Y-153731800D02*
X117975000Y-153206800D01*
X117931367Y-153082102D02*
X117899698Y-153050433D01*
X117819505Y-153011814D02*
X117775000Y-153006800D01*
X117969986Y-153162295D02*
X117955194Y-153120023D01*
X117969986Y-152451304D02*
X117975000Y-152406800D01*
X117861777Y-153026606D02*
X117819505Y-153011814D01*
X116845176Y-152986993D02*
X116807255Y-152963166D01*
X116887448Y-152611814D02*
X116931952Y-152606800D01*
X116931952Y-153006800D02*
X116887448Y-153001785D01*
X116731952Y-152806800D02*
X116736967Y-152762295D01*
X116807255Y-152963166D02*
X116775586Y-152931497D01*
X116807255Y-152650433D02*
X116845176Y-152626606D01*
X117899698Y-152563166D02*
X117931367Y-152531497D01*
X117955194Y-153120023D02*
X117931367Y-153082102D01*
X116775586Y-152931497D02*
X116751759Y-152893576D01*
X117775000Y-153006800D02*
X116931952Y-153006800D01*
X116751759Y-152893576D02*
X116736967Y-152851304D01*
X117450000Y-154700000D02*
X117450000Y-153731800D01*
X116736967Y-152851304D02*
X116731952Y-152806800D01*
X117775000Y-152606800D02*
X117819505Y-152601785D01*
X116751759Y-152720023D02*
X116775586Y-152682102D01*
X116775586Y-152682102D02*
X116807255Y-152650433D01*
X116845176Y-152626606D02*
X116887448Y-152611814D01*
X117931367Y-152531497D02*
X117955194Y-152493576D01*
X116931952Y-152606800D02*
X117775000Y-152606800D01*
X117819505Y-152601785D02*
X117861777Y-152586993D01*
X117861777Y-152586993D02*
X117899698Y-152563166D01*
D23*
%TO.N,Net-(C10-Pad2)*%
X109087500Y-147050000D02*
X108537500Y-146500000D01*
X110525000Y-147050000D02*
X109087500Y-147050000D01*
%TO.N,Net-(D4-Pad2)*%
X137500000Y-91700000D02*
X137500000Y-90450000D01*
X137200000Y-92000000D02*
X137500000Y-91700000D01*
X125400000Y-92000000D02*
X137200000Y-92000000D01*
X124550000Y-92850000D02*
X125400000Y-92000000D01*
X137500000Y-90450000D02*
X137450000Y-90400000D01*
X124550000Y-93600000D02*
X124550000Y-92850000D01*
%TO.N,Net-(D5-Pad2)*%
X132550000Y-93600000D02*
X132550000Y-93050000D01*
X132825001Y-92774999D02*
X144425001Y-92774999D01*
X132550000Y-93050000D02*
X132825001Y-92774999D01*
X145450000Y-91750000D02*
X145450000Y-90400000D01*
X144425001Y-92774999D02*
X145450000Y-91750000D01*
%TO.N,Net-(D6-Pad2)*%
X125450000Y-95450000D02*
X125450000Y-98400000D01*
X126000000Y-94900000D02*
X125450000Y-95450000D01*
X139250000Y-94900000D02*
X126000000Y-94900000D01*
X140550000Y-93600000D02*
X139250000Y-94900000D01*
%TO.N,Net-(D7-Pad2)*%
X109034298Y-143200000D02*
X109684298Y-142550000D01*
X109684298Y-142550000D02*
X110525000Y-142550000D01*
X104137500Y-143200000D02*
X109034298Y-143200000D01*
%TO.N,Net-(D7-Pad1)*%
X102262500Y-143200000D02*
X101362500Y-144100000D01*
X101362500Y-146350000D02*
X101712500Y-146700000D01*
X101362500Y-144100000D02*
X101362500Y-146350000D01*
%TO.N,Net-(D8-Pad2)*%
X132550000Y-99300000D02*
X133450000Y-98400000D01*
X120550000Y-99300000D02*
X132550000Y-99300000D01*
X120550000Y-101600000D02*
X120550000Y-99300000D01*
%TO.N,Net-(D14-Pad2)*%
X125450000Y-112250000D02*
X125450000Y-114400000D01*
X126400000Y-111300000D02*
X125450000Y-112250000D01*
X139400000Y-111300000D02*
X126400000Y-111300000D01*
X140550000Y-110150000D02*
X139400000Y-111300000D01*
X140550000Y-109600000D02*
X140550000Y-110150000D01*
%TO.N,Net-(D28-Pad2)*%
X144550000Y-133600000D02*
X144550000Y-133050000D01*
X156624999Y-131225001D02*
X157450000Y-130400000D01*
X149261409Y-131225001D02*
X156624999Y-131225001D01*
X147436410Y-133050000D02*
X149261409Y-131225001D01*
X144550000Y-133050000D02*
X147436410Y-133050000D01*
%TO.N,/BOOT0*%
X123562500Y-142550000D02*
X121875000Y-142550000D01*
X124412500Y-143400000D02*
X123562500Y-142550000D01*
X126600000Y-141700000D02*
X126900000Y-141400000D01*
X126600000Y-142400000D02*
X126600000Y-141700000D01*
X124900000Y-142600000D02*
X126400000Y-142600000D01*
X124800000Y-142700000D02*
X124900000Y-142600000D01*
X124800000Y-143012500D02*
X124800000Y-142700000D01*
X126400000Y-142600000D02*
X126600000Y-142400000D01*
X124412500Y-143400000D02*
X124800000Y-143012500D01*
%TO.N,/BOOT1*%
X108487500Y-144853202D02*
X108487500Y-144200000D01*
X110525000Y-146050000D02*
X109684298Y-146050000D01*
X108487500Y-144853202D02*
X108487500Y-144600000D01*
X109684298Y-146050000D02*
X108487500Y-144853202D01*
X110549990Y-146025010D02*
X110525000Y-146050000D01*
X112075020Y-145340682D02*
X111390692Y-146025010D01*
X112075020Y-139838610D02*
X112075020Y-145340682D01*
X111390692Y-146025010D02*
X110549990Y-146025010D01*
X110800000Y-138563590D02*
X112075020Y-139838610D01*
X110800000Y-136900000D02*
X110800000Y-138563590D01*
%TD*%
D27*
%TO.N,+5V*%
G36*
X166873000Y-145873000D02*
G01*
X139127000Y-145873000D01*
X139127000Y-142127000D01*
X166873000Y-142127000D01*
X166873000Y-145873000D01*
G37*
X166873000Y-145873000D02*
X139127000Y-145873000D01*
X139127000Y-142127000D01*
X166873000Y-142127000D01*
X166873000Y-145873000D01*
%TO.N,GND*%
G36*
X137873000Y-155873000D02*
G01*
X134627000Y-155873000D01*
X134627000Y-151627000D01*
X137873000Y-151627000D01*
X137873000Y-155873000D01*
G37*
X137873000Y-155873000D02*
X134627000Y-155873000D01*
X134627000Y-151627000D01*
X137873000Y-151627000D01*
X137873000Y-155873000D01*
%TD*%
M02*
